<svg width="77" height="77" viewBox="0 0 77 77" fill="none" xmlns="http://www.w3.org/2000/svg">
<path d="M70.2625 35.2917C70.2625 34.9388 70.07 34.5858 69.9737 34.2329C69.8252 33.6103 69.6322 32.9992 69.3962 32.4042C69.2358 32.0192 69.0113 31.6342 68.8188 31.2171C68.6263 30.8 68.3375 30.2546 68.0487 29.8054C67.76 29.3563 67.375 29.1317 67.375 28.875C67.375 28.6183 66.7333 28.0729 66.3804 27.6879C66.0275 27.3029 65.7067 27.0463 65.3538 26.7254L64.1667 25.6667L63.0117 24.8967C62.5583 24.6192 62.0866 24.3727 61.6 24.1588L60.3487 23.5813C59.8247 23.3872 59.2889 23.2264 58.7446 23.1C58.3134 22.9732 57.8738 22.8767 57.4292 22.8113H56.8517C55.6159 18.9589 53.1977 15.5938 49.9406 13.1939C46.6836 10.794 42.7532 9.48131 38.7076 9.44224C34.6621 9.40317 30.707 10.6397 27.4042 12.9763C24.1014 15.3128 21.6187 18.6306 20.3088 22.4583H19.7313C19.2866 22.5238 18.847 22.6202 18.4158 22.7471C17.8715 22.8735 17.3357 23.0343 16.8117 23.2283L15.5604 23.8058C15.0738 24.0198 14.6022 24.2663 14.1488 24.5438L12.9938 25.6667L11.8067 26.6613C11.4538 26.9821 11.1008 27.2708 10.78 27.6238C10.4592 27.9767 10.1063 28.4258 9.78542 28.8108C9.46458 29.1958 9.20792 29.5488 8.95125 29.9658C8.69458 30.3829 8.43792 30.8963 8.18125 31.3775C7.92458 31.8588 7.76417 32.1796 7.60375 32.5646C7.36775 33.1596 7.17476 33.7707 7.02625 34.3933C7.02625 34.7463 6.80167 35.0992 6.7375 35.4521C6.5378 36.4561 6.43041 37.4764 6.41667 38.5C6.43171 39.4795 6.52829 40.4561 6.70542 41.4196C6.70542 41.7404 6.86583 42.0292 6.93 42.35C7.08858 42.9803 7.28137 43.6015 7.5075 44.2108L7.8925 45.1413C8.17492 45.7599 8.49641 46.36 8.855 46.9379L9.30417 47.6438C9.35033 47.7337 9.40399 47.8195 9.46458 47.9004L9.625 48.125C11.1192 50.1173 13.0568 51.7344 15.2843 52.8481C17.5118 53.9618 19.9679 54.5417 22.4583 54.5417C22.4655 52.8426 23.1462 51.2158 24.3513 50.0179C25.5491 48.8129 27.1759 48.1322 28.875 48.125C30.0036 48.1144 31.1134 48.414 32.0833 48.9913V38.5C32.0833 36.7982 32.7594 35.1661 33.9627 33.9627C35.1661 32.7594 36.7982 32.0833 38.5 32.0833C40.2018 32.0833 41.8339 32.7594 43.0373 33.9627C44.2406 35.1661 44.9167 36.7982 44.9167 38.5V49.3121C45.8915 48.7466 46.998 48.4478 48.125 48.4458C49.8631 48.4621 51.5241 49.1657 52.745 50.4029C53.8252 51.5195 54.4635 52.9901 54.5417 54.5417C57.0321 54.5417 59.4882 53.9618 61.7157 52.8481C63.9432 51.7344 65.8808 50.1173 67.375 48.125L67.5354 47.9646C67.596 47.8837 67.6497 47.7978 67.6958 47.7079L68.145 47.0021C68.5036 46.4242 68.8251 45.8241 69.1075 45.2054L69.4925 44.275C69.7186 43.6657 69.9114 43.0445 70.07 42.4142C70.07 42.0933 70.2304 41.8046 70.2946 41.4838C70.4753 40.4992 70.5719 39.501 70.5833 38.5C70.5796 37.4227 70.4722 36.3483 70.2625 35.2917Z" fill="#F8F8F8"/>
<path d="M45.9113 52.5525L41.7083 56.595V38.5C41.7083 37.6491 41.3703 36.8331 40.7686 36.2314C40.167 35.6297 39.3509 35.2917 38.5 35.2917C37.6491 35.2917 36.833 35.6297 36.2314 36.2314C35.6297 36.8331 35.2917 37.6491 35.2917 38.5V56.4346L31.1529 52.2638C30.8538 51.9646 30.4986 51.7273 30.1078 51.5654C29.717 51.4035 29.298 51.3202 28.875 51.3202C28.452 51.3202 28.033 51.4035 27.6422 51.5654C27.2514 51.7273 26.8962 51.9646 26.5971 52.2638C26.2979 52.5629 26.0607 52.918 25.8988 53.3089C25.7369 53.6997 25.6535 54.1186 25.6535 54.5417C25.6535 54.9647 25.7369 55.3836 25.8988 55.7745C26.0607 56.1653 26.2979 56.5204 26.5971 56.8196L36.2221 66.4446C36.5219 66.7419 36.8774 66.9772 37.2683 67.1369C37.6592 67.2965 38.0778 67.3774 38.5 67.375C39.326 67.3717 40.119 67.0499 40.7137 66.4767L50.3387 57.1725C50.6792 56.8916 50.958 56.5435 51.1578 56.1499C51.3575 55.7563 51.4739 55.3257 51.4997 54.8851C51.5254 54.4445 51.46 54.0033 51.3074 53.5891C51.1549 53.1749 50.9186 52.7967 50.6132 52.478C50.3078 52.1593 49.9399 51.9071 49.5326 51.7371C49.1253 51.5671 48.6873 51.483 48.246 51.4899C47.8046 51.4969 47.3695 51.5949 46.9678 51.7777C46.5661 51.9606 46.2064 52.2243 45.9113 52.5525Z" fill="#F8F8F8"/>
<path d="M70.2625 35.2917C70.2625 34.9388 70.07 34.5858 69.9737 34.2329C69.8252 33.6103 69.6322 32.9992 69.3962 32.4042C69.2358 32.0192 69.0113 31.6342 68.8188 31.2171C68.6263 30.8 68.3375 30.2546 68.0487 29.8054C67.76 29.3563 67.375 29.1317 67.375 28.875C67.375 28.6183 66.7333 28.0729 66.3804 27.6879C66.0275 27.3029 65.7067 27.0463 65.3538 26.7254L64.1667 25.6667L63.0117 24.8967C62.5583 24.6192 62.0866 24.3727 61.6 24.1588L60.3487 23.5813C59.8247 23.3872 59.2889 23.2264 58.7446 23.1C58.3134 22.9732 57.8738 22.8767 57.4292 22.8113H56.8517C55.6159 18.9589 53.1977 15.5938 49.9406 13.1939C46.6836 10.794 42.7532 9.48131 38.7076 9.44224C34.6621 9.40317 30.707 10.6397 27.4042 12.9763C24.1014 15.3128 21.6187 18.6306 20.3088 22.4583H19.7313C19.2866 22.5238 18.847 22.6202 18.4158 22.7471C17.8715 22.8735 17.3357 23.0343 16.8117 23.2283L15.5604 23.8058C15.0738 24.0198 14.6022 24.2663 14.1488 24.5438L12.9938 25.6667L11.8067 26.6613C11.4538 26.9821 11.1008 27.2708 10.78 27.6238C10.4592 27.9767 10.1063 28.4258 9.78542 28.8108C9.46458 29.1958 9.20792 29.5488 8.95125 29.9658C8.69458 30.3829 8.43792 30.8963 8.18125 31.3775C7.92458 31.8588 7.76417 32.1796 7.60375 32.5646C7.36775 33.1596 7.17476 33.7707 7.02625 34.3933C7.02625 34.7463 6.80167 35.0992 6.7375 35.4521C6.5378 36.4561 6.43041 37.4764 6.41667 38.5C6.43171 39.4795 6.52829 40.4561 6.70542 41.4196C6.70542 41.7404 6.86583 42.0292 6.93 42.35C7.08858 42.9803 7.28137 43.6015 7.5075 44.2108L7.8925 45.1413C8.17492 45.7599 8.49641 46.36 8.855 46.9379L9.30417 47.6438C9.35033 47.7337 9.40399 47.8195 9.46458 47.9004L9.625 48.125C11.1192 50.1173 13.0568 51.7344 15.2843 52.8481C17.5118 53.9618 19.9679 54.5417 22.4583 54.5417C22.4655 52.8426 23.1462 51.2158 24.3513 50.0179C25.5491 48.8129 27.1759 48.1322 28.875 48.125C30.0036 48.1144 31.1134 48.414 32.0833 48.9913V38.5C32.0833 36.7982 32.7594 35.1661 33.9627 33.9627C35.1661 32.7594 36.7982 32.0833 38.5 32.0833C40.2018 32.0833 41.8339 32.7594 43.0373 33.9627C44.2406 35.1661 44.9167 36.7982 44.9167 38.5V49.3121C45.8915 48.7466 46.998 48.4478 48.125 48.4458C49.8631 48.4621 51.5241 49.1657 52.745 50.4029C53.8252 51.5195 54.4635 52.9901 54.5417 54.5417C57.0321 54.5417 59.4882 53.9618 61.7157 52.8481C63.9432 51.7344 65.8808 50.1173 67.375 48.125L67.5354 47.9646C67.596 47.8837 67.6497 47.7978 67.6958 47.7079L68.145 47.0021C68.5036 46.4242 68.8251 45.8241 69.1075 45.2054L69.4925 44.275C69.7186 43.6657 69.9114 43.0445 70.07 42.4142C70.07 42.0933 70.2304 41.8046 70.2946 41.4838C70.4753 40.4992 70.5719 39.501 70.5833 38.5C70.5796 37.4227 70.4722 36.3483 70.2625 35.2917Z" fill="#F8F8F8"/>
<path d="M45.9113 52.5525L41.7083 56.595V38.5C41.7083 37.6491 41.3703 36.8331 40.7686 36.2314C40.167 35.6297 39.3509 35.2917 38.5 35.2917C37.6491 35.2917 36.833 35.6297 36.2314 36.2314C35.6297 36.8331 35.2917 37.6491 35.2917 38.5V56.4346L31.1529 52.2638C30.8538 51.9646 30.4986 51.7273 30.1078 51.5654C29.717 51.4035 29.298 51.3202 28.875 51.3202C28.452 51.3202 28.033 51.4035 27.6422 51.5654C27.2514 51.7273 26.8962 51.9646 26.5971 52.2638C26.2979 52.5629 26.0607 52.918 25.8988 53.3089C25.7369 53.6997 25.6535 54.1186 25.6535 54.5417C25.6535 54.9647 25.7369 55.3836 25.8988 55.7745C26.0607 56.1653 26.2979 56.5204 26.5971 56.8196L36.2221 66.4446C36.5219 66.7419 36.8774 66.9772 37.2683 67.1369C37.6592 67.2965 38.0778 67.3774 38.5 67.375C39.326 67.3717 40.119 67.0499 40.7137 66.4767L50.3387 57.1725C50.6792 56.8916 50.958 56.5435 51.1578 56.1499C51.3575 55.7563 51.4739 55.3257 51.4997 54.8851C51.5254 54.4445 51.46 54.0033 51.3074 53.5891C51.1549 53.1749 50.9186 52.7967 50.6132 52.478C50.3078 52.1593 49.9399 51.9071 49.5326 51.7371C49.1253 51.5671 48.6873 51.483 48.246 51.4899C47.8046 51.4969 47.3695 51.5949 46.9678 51.7777C46.5661 51.9606 46.2064 52.2243 45.9113 52.5525Z" fill="#F8F8F8"/>
</svg>
