<svg width="26" height="30" viewBox="0 0 26 30" fill="none" xmlns="http://www.w3.org/2000/svg">
<path d="M16.4142 16.4142C17.1953 15.6332 17.1953 14.3668 16.4142 13.5858L3.68629 0.857864C2.90524 0.0768156 1.63891 0.0768156 0.857864 0.857864C0.0768156 1.63891 0.0768156 2.90524 0.857864 3.68629L12.1716 15L0.857864 26.3137C0.0768156 27.0948 0.0768156 28.3611 0.857864 29.1421C1.63891 29.9232 2.90524 29.9232 3.68629 29.1421L16.4142 16.4142ZM14 17H15V13H14V17Z" fill="white"/>
<path d="M25.4142 16.4142C26.1953 15.6332 26.1953 14.3668 25.4142 13.5858L12.6863 0.857864C11.9052 0.0768156 10.6389 0.0768156 9.85786 0.857864C9.07682 1.63891 9.07682 2.90524 9.85786 3.68629L21.1716 15L9.85786 26.3137C9.07682 27.0948 9.07682 28.3611 9.85786 29.1421C10.6389 29.9232 11.9052 29.9232 12.6863 29.1421L25.4142 16.4142ZM23 17H24V13H23V17Z" fill="white"/>
</svg>
