<svg width="74" height="74" viewBox="0 0 74 74" fill="none" xmlns="http://www.w3.org/2000/svg">
<g clip-path="url(#clip0_10_51)">
<path d="M23.125 28.9063C23.125 29.8263 22.7595 30.7086 22.109 31.3591C21.4585 32.0096 20.5762 32.3751 19.6562 32.3751C18.7363 32.3751 17.854 32.0096 17.2035 31.3591C16.553 30.7086 16.1875 29.8263 16.1875 28.9063C16.1875 27.9863 16.553 27.104 17.2035 26.4535C17.854 25.803 18.7363 25.4376 19.6562 25.4376C20.5762 25.4376 21.4585 25.803 22.109 26.4535C22.7595 27.104 23.125 27.9863 23.125 28.9063ZM28.3883 21.9873C31.1347 21.2033 33.9774 20.8079 36.8335 20.8126C39.9138 20.8126 42.8599 21.2612 45.5886 22.0752C46.1718 22.236 46.7947 22.162 47.3239 21.8689C47.8531 21.5758 48.2463 21.0871 48.4194 20.5074C48.5924 19.9278 48.5315 19.3035 48.2496 18.7682C47.9676 18.233 47.4872 17.8296 46.9114 17.6444C43.6406 16.6723 40.2457 16.1816 36.8335 16.1876C33.4388 16.1876 30.1689 16.6639 27.1117 17.5381C26.5217 17.7073 26.0231 18.104 25.7256 18.6409C25.4281 19.1778 25.3561 19.8109 25.5254 20.4009C25.6946 20.9909 26.0914 21.4895 26.6283 21.787C27.1652 22.0845 27.7982 22.1566 28.3883 21.9873Z" fill="#FF9900"/>
<path fill-rule="evenodd" clip-rule="evenodd" d="M36.8335 7.06238C23.0649 7.06238 11.0676 14.9434 7.6035 26.1405H5.05975C4.38547 26.1412 3.7195 26.2894 3.10851 26.5746C2.49753 26.8598 1.95629 27.2752 1.52272 27.7916C1.08915 28.308 0.773743 28.913 0.598588 29.5641C0.423433 30.2152 0.39277 30.8968 0.508747 31.561L1.6835 38.3135C1.96345 39.9233 2.80263 41.3826 4.05315 42.4343C5.30367 43.486 6.88528 44.0626 8.51925 44.0624H9.73562C11.1231 46.435 12.9176 48.5856 15.0312 50.4541L11.6596 61.9103C11.5582 62.2552 11.5387 62.619 11.6025 62.9728C11.6663 63.3266 11.8117 63.6607 12.0272 63.9485C12.2427 64.2363 12.5224 64.4698 12.8439 64.6307C13.1655 64.7915 13.5201 64.8751 13.8796 64.8749H23.1296C23.6068 64.875 24.0723 64.7274 24.4623 64.4525C24.8523 64.1776 25.1477 63.7888 25.308 63.3394L27.5372 57.091C30.4741 57.8911 33.596 58.3259 36.8381 58.3259C40.108 58.3259 43.2576 57.8865 46.2176 57.0679L48.729 63.4134C48.8996 63.8445 49.1959 64.2144 49.5794 64.475C49.9629 64.7357 50.4159 64.875 50.8796 64.8749H60.1296C60.4905 64.8745 60.8462 64.7897 61.1684 64.6272C61.4906 64.4648 61.7703 64.2292 61.9852 63.9393C62.2 63.6493 62.344 63.3132 62.4057 62.9577C62.4674 62.6021 62.445 62.2371 62.3404 61.8918L58.8208 50.3015C63.8713 45.7644 67.0625 39.5854 67.0625 32.6941C67.0625 32.0235 67.0301 31.3529 66.97 30.7008C68.1771 30.192 69.3195 29.4705 70.2306 28.6473C71.6875 30.0625 74 30.0625 74 26.7186C74 27.75 71.6875 27.75 71.8679 26.5984C72.0621 26.2271 72.2023 25.83 72.2841 25.419C72.3929 24.8833 72.3643 24.3288 72.2009 23.8072C72.0375 23.2856 71.7448 22.8138 71.3499 22.4359C70.9334 22.0066 70.3854 21.7288 69.7929 21.6467C69.2005 21.5646 68.5975 21.6828 68.08 21.9826C67.6041 22.2456 67.1982 22.6189 66.8965 23.0712C66.5947 23.5234 66.4058 24.0415 66.3456 24.5819C66.2346 25.7058 66.7249 26.8019 67.8256 27.6066C67.4437 27.8707 67.0434 28.1072 66.6277 28.3143C64.158 15.9933 51.4392 7.06238 36.8335 7.06238ZM11.6365 28.9525C13.7409 19.3973 23.9714 11.6874 36.8335 11.6874C51.3837 11.6874 62.4375 21.4646 62.4375 32.6941C62.4375 38.4939 59.5515 43.8404 54.7137 47.7161C54.3542 48.0054 54.0894 48.3955 53.9534 48.8365C53.8174 49.2774 53.8164 49.749 53.9506 50.1905L57.0031 60.2499H52.4475L49.7187 53.3725C49.499 52.8183 49.0738 52.3704 48.5317 52.1222C47.9897 51.874 47.3727 51.8447 46.8096 52.0405C43.7525 53.1043 40.3809 53.7009 36.8335 53.7009C33.4386 53.7096 30.0664 53.1484 26.8574 52.0405C26.2814 51.8403 25.6496 51.8757 25.0995 52.139C24.5495 52.4023 24.1257 52.8723 23.9205 53.4465L21.4924 60.2499H16.9645L19.8921 50.3061C20.0227 49.863 20.0177 49.3909 19.8775 48.9507C19.7374 48.5106 19.4686 48.1224 19.1059 47.8364C16.6313 45.9211 14.6047 43.4888 13.1674 40.7093C12.9748 40.3272 12.6801 40.006 12.3159 39.7815C11.9518 39.5569 11.5325 39.4378 11.1046 39.4374H8.51462C7.97072 39.4368 7.44443 39.2445 7.02826 38.8943C6.61209 38.5441 6.33267 38.0584 6.23912 37.5226L5.06437 30.7701H9.3795C9.90651 30.7697 10.4176 30.5893 10.828 30.2587C11.2385 29.9281 11.5237 29.4673 11.6365 28.9525ZM70.0086 24.9889C69.9263 25.3405 69.7719 25.6712 69.5554 25.9601C69.4862 25.924 69.4183 25.8855 69.3519 25.8445C68.6766 25.4283 68.6257 25.0351 68.6489 24.8131C68.6716 24.6472 68.7323 24.4887 68.8261 24.35C68.9199 24.2112 69.0445 24.0959 69.19 24.013C69.4166 23.8881 69.56 23.9159 69.7126 24.0685C69.8412 24.1803 69.9368 24.3252 69.9889 24.4874C70.0411 24.6497 70.0479 24.8231 70.0086 24.9889Z" fill="#FF9900"/>
</g>
<defs>
<clipPath id="clip0_10_51">
<rect width="74" height="74" fill="white"/>
</clipPath>
</defs>
</svg>
