<svg width="32" height="32" viewBox="0 0 32 32" fill="none" xmlns="http://www.w3.org/2000/svg">
<g clip-path="url(#clip0_12_102)">
<path d="M15.314 12.494C15.534 11.834 16.466 11.834 16.686 12.494L17.976 16.368C18.2599 17.2196 18.7383 17.9934 19.3733 18.628C20.0082 19.2625 20.7822 19.7405 21.634 20.024L25.506 21.314C26.166 21.534 26.166 22.466 25.506 22.686L21.632 23.976C20.7804 24.2599 20.0066 24.7383 19.372 25.3733C18.7375 26.0082 18.2595 26.7822 17.976 27.634L16.686 31.506C16.6386 31.6505 16.5467 31.7764 16.4235 31.8656C16.3003 31.9548 16.1521 32.0029 16 32.0029C15.8479 32.0029 15.6997 31.9548 15.5765 31.8656C15.4533 31.7764 15.3614 31.6505 15.314 31.506L14.024 27.632C13.7403 26.7806 13.2622 26.007 12.6276 25.3724C11.993 24.7378 11.2194 24.2597 10.368 23.976L6.494 22.686C6.34948 22.6386 6.22363 22.5467 6.13441 22.4235C6.04518 22.3003 5.99714 22.1521 5.99714 22C5.99714 21.8479 6.04518 21.6997 6.13441 21.5765C6.22363 21.4533 6.34948 21.3614 6.494 21.314L10.368 20.024C11.2194 19.7403 11.993 19.2622 12.6276 18.6276C13.2622 17.993 13.7403 17.2194 14.024 16.368L15.314 12.494ZM7.588 2.296C7.61668 2.20938 7.67193 2.13401 7.74589 2.08059C7.81985 2.02717 7.90877 1.99842 8 1.99842C8.09124 1.99842 8.18015 2.02717 8.25412 2.08059C8.32808 2.13401 8.38332 2.20938 8.412 2.296L9.186 4.62C9.532 5.656 10.344 6.468 11.38 6.814L13.704 7.588C13.7906 7.61668 13.866 7.67192 13.9194 7.74588C13.9728 7.81984 14.0016 7.90876 14.0016 8C14.0016 8.09123 13.9728 8.18015 13.9194 8.25411C13.866 8.32807 13.7906 8.38332 13.704 8.412L11.38 9.186C10.8691 9.35623 10.4048 9.64312 10.024 10.0239C9.64313 10.4048 9.35624 10.869 9.186 11.38L8.412 13.704C8.38332 13.7906 8.32808 13.866 8.25412 13.9194C8.18015 13.9728 8.09124 14.0016 8 14.0016C7.90877 14.0016 7.81985 13.9728 7.74589 13.9194C7.67193 13.866 7.61668 13.7906 7.588 13.704L6.814 11.38C6.64377 10.869 6.35687 10.4048 5.97605 10.0239C5.59523 9.64312 5.13095 9.35623 4.62 9.186L2.296 8.412C2.20939 8.38332 2.13402 8.32807 2.0806 8.25411C2.02718 8.18015 1.99843 8.09123 1.99843 8C1.99843 7.90876 2.02718 7.81984 2.0806 7.74588C2.13402 7.67192 2.20939 7.61668 2.296 7.588L4.62 6.814C5.13095 6.64376 5.59523 6.35687 5.97605 5.97605C6.35687 5.59523 6.64377 5.13095 6.814 4.62L7.588 2.296ZM21.726 0.197996C21.7457 0.141049 21.7827 0.0916678 21.8318 0.0567192C21.881 0.0217705 21.9397 0.00299072 22 0.00299072C22.0603 0.00299072 22.119 0.0217705 22.1682 0.0567192C22.2173 0.0916678 22.2543 0.141049 22.274 0.197996L22.79 1.746C23.02 2.438 23.562 2.98 24.254 3.21L25.802 3.726C25.8589 3.74574 25.9083 3.78274 25.9433 3.83184C25.9782 3.88095 25.997 3.93972 25.997 4C25.997 4.06027 25.9782 4.11904 25.9433 4.16815C25.9083 4.21726 25.8589 4.25425 25.802 4.274L24.254 4.79C23.913 4.90344 23.6031 5.09483 23.349 5.34896C23.0948 5.60309 22.9034 5.91297 22.79 6.254L22.274 7.802C22.2543 7.85894 22.2173 7.90832 22.1682 7.94327C22.119 7.97822 22.0603 7.997 22 7.997C21.9397 7.997 21.881 7.97822 21.8318 7.94327C21.7827 7.90832 21.7457 7.85894 21.726 7.802L21.21 6.254C21.0966 5.91297 20.9052 5.60309 20.651 5.34896C20.3969 5.09483 20.087 4.90344 19.746 4.79L18.2 4.274C18.1431 4.25425 18.0937 4.21726 18.0587 4.16815C18.0238 4.11904 18.005 4.06027 18.005 4C18.005 3.93972 18.0238 3.88095 18.0587 3.83184C18.0937 3.78274 18.1431 3.74574 18.2 3.726L19.748 3.21C20.44 2.98 20.982 2.438 21.212 1.746L21.726 0.199996V0.197996Z" fill="#F8F8F8"/>
</g>
<defs>
<clipPath id="clip0_12_102">
<rect width="32" height="32" fill="white"/>
</clipPath>
</defs>
</svg>
