<svg width="49" height="49" viewBox="0 0 49 49" fill="none" xmlns="http://www.w3.org/2000/svg">
<path d="M42.875 16.3333C42.875 18.4158 40.4536 20.2533 36.75 21.3599C34.4347 22.0541 31.6193 22.4583 28.5833 22.4583C25.5474 22.4583 22.7319 22.052 20.4167 21.3599C16.7151 20.2533 14.2917 18.4158 14.2917 16.3333C14.2917 12.9503 20.6902 10.2083 28.5833 10.2083C36.4764 10.2083 42.875 12.9503 42.875 16.3333Z" fill="#F8F8F8"/>
<path d="M42.875 16.3333C42.875 12.9503 36.4764 10.2083 28.5833 10.2083C20.6902 10.2083 14.2917 12.9503 14.2917 16.3333M42.875 16.3333V24.5C42.875 26.5825 40.4536 28.42 36.75 29.5266C34.4347 30.2207 31.6193 30.625 28.5833 30.625C25.5474 30.625 22.7319 30.2187 20.4167 29.5266C16.7151 28.42 14.2917 26.5825 14.2917 24.5V16.3333M42.875 16.3333C42.875 18.4158 40.4536 20.2533 36.75 21.3599C34.4347 22.0541 31.6193 22.4583 28.5833 22.4583C25.5474 22.4583 22.7319 22.052 20.4167 21.3599C16.7151 20.2533 14.2917 18.4158 14.2917 16.3333" stroke="#F8F8F8" stroke-width="2" stroke-linecap="round" stroke-linejoin="round"/>
<path d="M6.125 24.5V32.6667C6.125 34.7492 8.54846 36.5867 12.25 37.6932C14.5652 38.3874 17.3807 38.7917 20.4167 38.7917C23.4526 38.7917 26.2681 38.3854 28.5833 37.6932C32.2849 36.5867 34.7083 34.7492 34.7083 32.6667V30.625M6.125 24.5C6.125 22.0561 9.46312 19.9471 14.2917 18.965M6.125 24.5C6.125 26.5825 8.54846 28.42 12.25 29.5266C14.5652 30.2207 17.3807 30.625 20.4167 30.625C21.8356 30.625 23.2056 30.5372 24.5 30.3718" stroke="#F8F8F8" stroke-width="2" stroke-linecap="round" stroke-linejoin="round"/>
</svg>
