<svg width="53" height="53" viewBox="0 0 53 53" fill="none" xmlns="http://www.w3.org/2000/svg">
<path d="M26.5 46.375C37.4767 46.375 46.375 37.4767 46.375 26.5C46.375 15.5233 37.4767 6.625 26.5 6.625C15.5233 6.625 6.625 15.5233 6.625 26.5C6.625 37.4767 15.5233 46.375 26.5 46.375Z" stroke="#F8F8F8" stroke-width="2" stroke-linecap="round" stroke-linejoin="round"/>
<path d="M25.3958 26.5C27.2253 26.5 28.7083 25.0169 28.7083 23.1875C28.7083 21.3581 27.2253 19.875 25.3958 19.875C23.5664 19.875 22.0833 21.3581 22.0833 23.1875C22.0833 25.0169 23.5664 26.5 25.3958 26.5Z" stroke="#F8F8F8" stroke-width="2" stroke-linecap="round" stroke-linejoin="round"/>
<path d="M25.3958 33.125C27.2253 33.125 28.7083 31.6419 28.7083 29.8125C28.7083 27.9831 27.2253 26.5 25.3958 26.5C23.5664 26.5 22.0833 27.9831 22.0833 29.8125C22.0833 31.6419 23.5664 33.125 25.3958 33.125Z" stroke="#F8F8F8" stroke-width="2" stroke-linecap="round" stroke-linejoin="round"/>
<path d="M15.4583 33.125V19.875M34.2292 26.5H40.8542M37.5417 23.1875V29.8125" stroke="#F8F8F8" stroke-width="2" stroke-linecap="round" stroke-linejoin="round"/>
</svg>
