<svg width="24" height="24" viewBox="0 0 24 24" fill="none" xmlns="http://www.w3.org/2000/svg">
<path d="M6.60001 6.00001C6.44088 6.00001 6.28826 6.06322 6.17574 6.17574C6.06322 6.28826 6.00001 6.44088 6.00001 6.60001C6.00001 6.75914 6.06322 6.91175 6.17574 7.02427C6.28826 7.13679 6.44088 7.20001 6.60001 7.20001H17.4C17.5591 7.20001 17.7117 7.13679 17.8243 7.02427C17.9368 6.91175 18 6.75914 18 6.60001C18 6.44088 17.9368 6.28826 17.8243 6.17574C17.7117 6.06322 17.5591 6.00001 17.4 6.00001H6.60001ZM7.80001 13.2C8.2774 13.2 8.73523 13.0104 9.0728 12.6728C9.41036 12.3352 9.60001 11.8774 9.60001 11.4C9.60001 10.9226 9.41036 10.4648 9.0728 10.1272C8.73523 9.78965 8.2774 9.60001 7.80001 9.60001C7.32262 9.60001 6.86478 9.78965 6.52721 10.1272C6.18965 10.4648 6.00001 10.9226 6.00001 11.4C6.00001 11.8774 6.18965 12.3352 6.52721 12.6728C6.86478 13.0104 7.32262 13.2 7.80001 13.2ZM7.80001 12C7.64088 12 7.48826 11.9368 7.37574 11.8243C7.26322 11.7117 7.20001 11.5591 7.20001 11.4C7.20001 11.2409 7.26322 11.0883 7.37574 10.9757C7.48826 10.8632 7.64088 10.8 7.80001 10.8C7.95914 10.8 8.11175 10.8632 8.22427 10.9757C8.33679 11.0883 8.40001 11.2409 8.40001 11.4C8.40001 11.5591 8.33679 11.7117 8.22427 11.8243C8.11175 11.9368 7.95914 12 7.80001 12ZM9.60001 16.2C9.60001 16.6774 9.41036 17.1352 9.0728 17.4728C8.73523 17.8104 8.2774 18 7.80001 18C7.32262 18 6.86478 17.8104 6.52721 17.4728C6.18965 17.1352 6.00001 16.6774 6.00001 16.2C6.00001 15.7226 6.18965 15.2648 6.52721 14.9272C6.86478 14.5896 7.32262 14.4 7.80001 14.4C8.2774 14.4 8.73523 14.5896 9.0728 14.9272C9.41036 15.2648 9.60001 15.7226 9.60001 16.2ZM8.40001 16.2C8.40001 16.0409 8.33679 15.8883 8.22427 15.7757C8.11175 15.6632 7.95914 15.6 7.80001 15.6C7.64088 15.6 7.48826 15.6632 7.37574 15.7757C7.26322 15.8883 7.20001 16.0409 7.20001 16.2C7.20001 16.3591 7.26322 16.5117 7.37574 16.6243C7.48826 16.7368 7.64088 16.8 7.80001 16.8C7.95914 16.8 8.11175 16.7368 8.22427 16.6243C8.33679 16.5117 8.40001 16.3591 8.40001 16.2ZM10.8 11.4C10.8 11.2409 10.8632 11.0883 10.9757 10.9757C11.0883 10.8632 11.2409 10.8 11.4 10.8H17.4C17.5591 10.8 17.7117 10.8632 17.8243 10.9757C17.9368 11.0883 18 11.2409 18 11.4C18 11.5591 17.9368 11.7117 17.8243 11.8243C17.7117 11.9368 17.5591 12 17.4 12H11.4C11.2409 12 11.0883 11.9368 10.9757 11.8243C10.8632 11.7117 10.8 11.5591 10.8 11.4ZM11.4 15.6C11.2409 15.6 11.0883 15.6632 10.9757 15.7757C10.8632 15.8883 10.8 16.0409 10.8 16.2C10.8 16.3591 10.8632 16.5117 10.9757 16.6243C11.0883 16.7368 11.2409 16.8 11.4 16.8H17.4C17.5591 16.8 17.7117 16.7368 17.8243 16.6243C17.9368 16.5117 18 16.3591 18 16.2C18 16.0409 17.9368 15.8883 17.8243 15.7757C17.7117 15.6632 17.5591 15.6 17.4 15.6H11.4ZM7.20001 3.60001C6.24523 3.60001 5.32955 3.97929 4.65442 4.65442C3.97929 5.32955 3.60001 6.24523 3.60001 7.20001V16.8C3.60001 17.7548 3.97929 18.6705 4.65442 19.3456C5.32955 20.0207 6.24523 20.4 7.20001 20.4H16.8C17.7548 20.4 18.6705 20.0207 19.3456 19.3456C20.0207 18.6705 20.4 17.7548 20.4 16.8V7.20001C20.4 6.24523 20.0207 5.32955 19.3456 4.65442C18.6705 3.97929 17.7548 3.60001 16.8 3.60001H7.20001ZM4.80001 7.20001C4.80001 6.56349 5.05286 5.95304 5.50295 5.50295C5.95304 5.05286 6.56349 4.80001 7.20001 4.80001H16.8C17.4365 4.80001 18.047 5.05286 18.4971 5.50295C18.9471 5.95304 19.2 6.56349 19.2 7.20001V16.8C19.2 17.4365 18.9471 18.047 18.4971 18.4971C18.047 18.9471 17.4365 19.2 16.8 19.2H7.20001C6.56349 19.2 5.95304 18.9471 5.50295 18.4971C5.05286 18.047 4.80001 17.4365 4.80001 16.8V7.20001Z" fill="#F8F8F8"/>
</svg>
