<svg width="67" height="65" viewBox="0 0 67 65" fill="none" xmlns="http://www.w3.org/2000/svg">
<path d="M53.7887 0H34.7247L46.8553 16.2877L53.7887 0ZM13.3553 0L20.2888 16.2877L32.4194 0H13.3553ZM33.572 6.19096L24.3505 18.5714H42.7935L33.572 6.19096ZM57.6272 2.7654L50.8998 18.5714H67L57.6272 2.7654ZM9.51688 2.7654L0 18.5714H16.2443L9.51688 2.7654ZM17.8206 23.2143H0.144086L32.2465 65H32.3228L17.8206 23.2143ZM49.3235 23.2143L34.8213 65H34.8976L67 23.2143H49.3235ZM44.1465 23.2143H22.9976L33.572 53.3929L44.1465 23.2143Z" fill="#FFEC00"/>
</svg>
