<svg width="25" height="23" viewBox="0 0 25 23" fill="none" xmlns="http://www.w3.org/2000/svg">
<path d="M24.4826 10.945L13.1237 0.351617C13.042 0.275136 12.9448 0.21446 12.8379 0.17306C12.7309 0.131661 12.6163 0.110352 12.5005 0.110352C12.3847 0.110352 12.2701 0.131661 12.1632 0.17306C12.0562 0.21446 11.9591 0.275136 11.8773 0.351617L0.518442 10.945C0.187522 11.2539 0 11.6734 0 12.1109C0 13.0195 0.791451 13.7581 1.76491 13.7581H2.96174V21.3171C2.96174 21.7727 3.35608 22.1407 3.84419 22.1407H10.7356V16.3756H13.8242V22.1407H21.1568C21.645 22.1407 22.0393 21.7727 22.0393 21.3171V13.7581H23.2361C23.7049 13.7581 24.1544 13.5857 24.4853 13.2743C25.172 12.6308 25.172 11.5885 24.4826 10.945Z" fill="#F8F8F8"/>
</svg>
