<svg width="60" height="60" viewBox="0 0 60 60" fill="none" xmlns="http://www.w3.org/2000/svg">
<path d="M52.5 20C52.5 22.55 49.535 24.8 45 26.155C42.165 27.005 38.7175 27.5 35 27.5C31.2825 27.5 27.835 27.0025 25 26.155C20.4675 24.8 17.5 22.55 17.5 20C17.5 15.8575 25.335 12.5 35 12.5C44.665 12.5 52.5 15.8575 52.5 20Z" fill="#F8F8F8"/>
<path d="M52.5 20C52.5 15.8575 44.665 12.5 35 12.5C25.335 12.5 17.5 15.8575 17.5 20M52.5 20V30C52.5 32.55 49.535 34.8 45 36.155C42.165 37.005 38.7175 37.5 35 37.5C31.2825 37.5 27.835 37.0025 25 36.155C20.4675 34.8 17.5 32.55 17.5 30V20M52.5 20C52.5 22.55 49.535 24.8 45 26.155C42.165 27.005 38.7175 27.5 35 27.5C31.2825 27.5 27.835 27.0025 25 26.155C20.4675 24.8 17.5 22.55 17.5 20" stroke="#F8F8F8" stroke-width="2" stroke-linecap="round" stroke-linejoin="round"/>
<path d="M7.5 30V40C7.5 42.55 10.4675 44.8 15 46.155C17.835 47.005 21.2825 47.5 25 47.5C28.7175 47.5 32.165 47.0025 35 46.155C39.5325 44.8 42.5 42.55 42.5 40V37.5M7.5 30C7.5 27.0075 11.5875 24.425 17.5 23.2225M7.5 30C7.5 32.55 10.4675 34.8 15 36.155C17.835 37.005 21.2825 37.5 25 37.5C26.7375 37.5 28.415 37.3925 30 37.19" stroke="#F8F8F8" stroke-width="2" stroke-linecap="round" stroke-linejoin="round"/>
</svg>
