<svg width="46" height="46" viewBox="0 0 46 46" fill="none" xmlns="http://www.w3.org/2000/svg">
<path d="M8.625 11.5C8.625 10.3563 9.07935 9.25935 9.8881 8.4506C10.6969 7.64185 11.7938 7.1875 12.9375 7.1875H35.9375C37.0812 7.1875 38.1781 7.64185 38.9869 8.4506C39.7957 9.25935 40.25 10.3563 40.25 11.5V25.875C40.25 27.0187 39.7957 28.1156 38.9869 28.9244C38.1781 29.7331 37.0812 30.1875 35.9375 30.1875H24.4375V18.6875C24.4375 16.7813 23.6802 14.9531 22.3323 13.6052C20.9844 12.2573 19.1562 11.5 17.25 11.5H10.0625C9.56656 11.5 9.085 11.5633 8.625 11.6811V11.5ZM41.6875 35.9375H24.4375V33.0625H41.6875C42.0687 33.0625 42.4344 33.2139 42.704 33.4835C42.9735 33.7531 43.125 34.1188 43.125 34.5C43.125 34.8812 42.9735 35.2469 42.704 35.5165C42.4344 35.7861 42.0687 35.9375 41.6875 35.9375ZM8.625 14.375C7.48125 14.375 6.38435 14.8294 5.5756 15.6381C4.76685 16.4469 4.3125 17.5438 4.3125 18.6875V35.9375C4.3125 37.0812 4.76685 38.1781 5.5756 38.9869C6.38435 39.7957 7.48125 40.25 8.625 40.25H17.25C18.3937 40.25 19.4906 39.7957 20.2994 38.9869C21.1081 38.1781 21.5625 37.0812 21.5625 35.9375V18.6875C21.5625 17.5438 21.1081 16.4469 20.2994 15.6381C19.4906 14.8294 18.3937 14.375 17.25 14.375H8.625ZM12.9375 35.9375C12.5563 35.9375 12.1906 35.7861 11.921 35.5165C11.6515 35.2469 11.5 34.8812 11.5 34.5C11.5 34.1188 11.6515 33.7531 11.921 33.4835C12.1906 33.2139 12.5563 33.0625 12.9375 33.0625C13.3187 33.0625 13.6844 33.2139 13.954 33.4835C14.2235 33.7531 14.375 34.1188 14.375 34.5C14.375 34.8812 14.2235 35.2469 13.954 35.5165C13.6844 35.7861 13.3187 35.9375 12.9375 35.9375Z" fill="#F8F8F8"/>
</svg>
