<svg width="46" height="46" viewBox="0 0 46 46" fill="none" xmlns="http://www.w3.org/2000/svg">
<g clip-path="url(#clip0_10_34)">
<path d="M22.0139 17.9601C22.3301 17.0114 23.6699 17.0114 23.9861 17.9601L25.8405 23.529C26.2487 24.7532 26.9364 25.8655 27.8491 26.7777C28.7618 27.6899 29.8745 28.377 31.0989 28.7845L36.6649 30.6389C37.6136 30.9551 37.6136 32.2949 36.6649 32.6111L31.096 34.4655C29.8718 34.8737 28.7595 35.5614 27.8473 36.4741C26.9351 37.3868 26.248 38.4995 25.8405 39.7239L23.9861 45.2899C23.9179 45.4976 23.7859 45.6785 23.6088 45.8068C23.4317 45.9351 23.2187 46.0041 23 46.0041C22.7814 46.0041 22.5683 45.9351 22.3912 45.8068C22.2141 45.6785 22.0821 45.4976 22.0139 45.2899L20.1595 39.721C19.7516 38.4971 19.0644 37.385 18.1522 36.4728C17.24 35.5606 16.1279 34.8734 14.904 34.4655L9.33513 32.6111C9.12738 32.5429 8.94647 32.4109 8.81821 32.2338C8.68995 32.0567 8.62089 31.8437 8.62089 31.625C8.62089 31.4063 8.68995 31.1933 8.81821 31.0162C8.94647 30.8391 9.12738 30.7071 9.33513 30.6389L14.904 28.7845C16.1279 28.3766 17.24 27.6894 18.1522 26.7772C19.0644 25.865 19.7516 24.7529 20.1595 23.529L22.0139 17.9601ZM10.9078 3.3005C10.949 3.17599 11.0284 3.06765 11.1347 2.99086C11.241 2.91407 11.3689 2.87274 11.5 2.87274C11.6312 2.87274 11.759 2.91407 11.8653 2.99086C11.9716 3.06765 12.051 3.17599 12.0923 3.3005L13.2049 6.64125C13.7023 8.1305 14.8695 9.29775 16.3588 9.79512L19.6995 10.9077C19.824 10.949 19.9324 11.0284 20.0091 11.1347C20.0859 11.241 20.1273 11.3688 20.1273 11.5C20.1273 11.6312 20.0859 11.759 20.0091 11.8653C19.9324 11.9716 19.824 12.051 19.6995 12.0922L16.3588 13.2049C15.6243 13.4496 14.9569 13.862 14.4094 14.4094C13.862 14.9569 13.4496 15.6243 13.2049 16.3587L12.0923 19.6995C12.051 19.824 11.9716 19.9323 11.8653 20.0091C11.759 20.0859 11.6312 20.1273 11.5 20.1273C11.3689 20.1273 11.241 20.0859 11.1347 20.0091C11.0284 19.9323 10.949 19.824 10.9078 19.6995L9.79513 16.3587C9.55042 15.6243 9.13801 14.9569 8.59058 14.4094C8.04315 13.862 7.37574 13.4496 6.64125 13.2049L3.3005 12.0922C3.176 12.051 3.06766 11.9716 2.99087 11.8653C2.91407 11.759 2.87274 11.6312 2.87274 11.5C2.87274 11.3688 2.91407 11.241 2.99087 11.1347C3.06766 11.0284 3.176 10.949 3.3005 10.9077L6.64125 9.79512C7.37574 9.55041 8.04315 9.138 8.59058 8.59057C9.13801 8.04314 9.55042 7.37574 9.79513 6.64125L10.9078 3.3005ZM31.2311 0.284623C31.2595 0.202761 31.3127 0.131776 31.3833 0.0815376C31.4539 0.031299 31.5384 0.00430298 31.625 0.00430298C31.7116 0.00430298 31.7961 0.031299 31.8667 0.0815376C31.9373 0.131776 31.9905 0.202761 32.0189 0.284623L32.7606 2.50987C33.0913 3.50462 33.8704 4.28375 34.8651 4.61437L37.0904 5.35612C37.1722 5.3845 37.2432 5.43769 37.2935 5.50828C37.3437 5.57887 37.3707 5.66336 37.3707 5.75C37.3707 5.83664 37.3437 5.92113 37.2935 5.99172C37.2432 6.06231 37.1722 6.11549 37.0904 6.14387L34.8651 6.88562C34.3749 7.0487 33.9295 7.32382 33.5641 7.68914C33.1988 8.05445 32.9237 8.4999 32.7606 8.99012L32.0189 11.2154C31.9905 11.2972 31.9373 11.3682 31.8667 11.4185C31.7961 11.4687 31.7116 11.4957 31.625 11.4957C31.5384 11.4957 31.4539 11.4687 31.3833 11.4185C31.3127 11.3682 31.2595 11.2972 31.2311 11.2154L30.4894 8.99012C30.3263 8.4999 30.0512 8.05445 29.6859 7.68914C29.3206 7.32382 28.8751 7.0487 28.3849 6.88562L26.1625 6.14387C26.0806 6.11549 26.0097 6.06231 25.9594 5.99172C25.9092 5.92113 25.8822 5.83664 25.8822 5.75C25.8822 5.66336 25.9092 5.57887 25.9594 5.50828C26.0097 5.43769 26.0806 5.3845 26.1625 5.35612L28.3878 4.61437C29.3825 4.28375 30.1616 3.50462 30.4923 2.50987L31.2311 0.287498V0.284623Z" fill="#E9791D"/>
</g>
<defs>
<clipPath id="clip0_10_34">
<rect width="46" height="46" fill="white"/>
</clipPath>
</defs>
</svg>
