<svg width="57" height="57" viewBox="0 0 57 57" fill="none" xmlns="http://www.w3.org/2000/svg">
<g clip-path="url(#clip0_11_13)">
<path d="M57 8.90625C57 10.9102 55.408 12.7582 52.725 14.25C49.4854 16.0424 44.6537 17.3115 39.1096 17.69C38.6977 17.4896 38.2857 17.3004 37.8516 17.1334C33.4652 15.2965 27.6316 14.25 21.375 14.25C20.451 14.25 19.5492 14.2723 18.6475 14.3168L18.525 14.25C15.842 12.7582 14.25 10.9102 14.25 8.90625C14.25 3.98555 23.8242 0 35.625 0C47.4258 0 57 3.98555 57 8.90625ZM17.8904 17.935C19.026 17.857 20.1949 17.8125 21.375 17.8125C28.2996 17.8125 34.4449 19.1818 38.3525 21.3082C41.1135 22.8111 42.75 24.6814 42.75 26.7188C42.75 27.1641 42.6721 27.5982 42.5162 28.0213C42.0041 29.4908 40.6236 30.8379 38.6197 31.9734C38.6086 31.9846 38.5863 31.9846 38.5752 31.9957C38.5418 32.018 38.5084 32.0291 38.475 32.0514C34.5785 34.2111 28.3664 35.6139 21.375 35.6139C14.7398 35.6139 8.80605 34.3559 4.87617 32.3742C4.66465 32.274 4.46426 32.1627 4.26387 32.0514C1.59199 30.5707 0 28.7227 0 26.7188C0 22.8445 5.94492 19.5381 14.25 18.3246C15.4189 18.1576 16.6324 18.024 17.8904 17.935ZM46.3125 26.7188C46.3125 24.2807 45.1324 22.2768 43.6295 20.7738C46.7801 20.284 49.6635 19.5047 52.1127 18.4916C53.9273 17.7346 55.6195 16.7994 57 15.6527V19.5938C57 21.7424 55.1631 23.724 52.1238 25.2604C50.4984 26.0842 48.5168 26.7855 46.2902 27.3199C46.3014 27.1195 46.3125 26.9303 46.3125 26.7299V26.7188ZM42.75 37.4062C42.75 39.4102 41.158 41.2582 38.475 42.75C38.2746 42.8613 38.0742 42.9615 37.8627 43.0728C33.9439 45.0545 28.0102 46.3125 21.375 46.3125C14.3836 46.3125 8.17148 44.9098 4.275 42.75C1.59199 41.2582 0 39.4102 0 37.4062V33.4652C1.3916 34.6119 3.07266 35.5471 4.8873 36.3041C9.28477 38.141 15.1184 39.1875 21.375 39.1875C27.6316 39.1875 33.4652 38.141 37.8627 36.3041C38.7311 35.9479 39.566 35.5359 40.3564 35.0906C41.0355 34.7121 41.6701 34.2891 42.2713 33.8438C42.4383 33.7213 42.5941 33.5877 42.75 33.4652V37.4062ZM46.3125 37.4062V30.9604C48.4277 30.4928 50.376 29.9027 52.1127 29.1791C53.9273 28.4221 55.6195 27.4869 57 26.3402V30.2812C57 31.4502 56.4434 32.6191 55.3412 33.7213C53.5266 35.5359 50.3314 37.0277 46.2902 37.9963C46.3014 37.807 46.3125 37.6066 46.3125 37.4062ZM21.375 49.875C27.6316 49.875 33.4652 48.8285 37.8627 46.9916C39.6773 46.2346 41.3695 45.2994 42.75 44.1527V48.0938C42.75 53.0145 33.1758 57 21.375 57C9.57422 57 0 53.0145 0 48.0938V44.1527C1.3916 45.2994 3.07266 46.2346 4.8873 46.9916C9.28477 48.8285 15.1184 49.875 21.375 49.875Z" fill="#F8F8F8"/>
</g>
<defs>
<clipPath id="clip0_11_13">
<rect width="57" height="57" fill="white"/>
</clipPath>
</defs>
</svg>
