<svg width="25" height="24" viewBox="0 0 25 24" fill="none" xmlns="http://www.w3.org/2000/svg">
<path d="M21.5 19V12.267C21.5 11.7245 21.3896 11.1876 21.1756 10.689C20.9616 10.1905 20.6483 9.74069 20.255 9.36701L13.878 3.31001C13.5063 2.9569 13.0132 2.76001 12.5005 2.76001C11.9878 2.76001 11.4947 2.9569 11.123 3.31001L4.745 9.36701C4.35165 9.74069 4.03844 10.1905 3.8244 10.689C3.61037 11.1876 3.5 11.7245 3.5 12.267V19C3.5 19.5304 3.71071 20.0392 4.08579 20.4142C4.46086 20.7893 4.96957 21 5.5 21H19.5C20.0304 21 20.5391 20.7893 20.9142 20.4142C21.2893 20.0392 21.5 19.5304 21.5 19Z" stroke="#F8F8F8" stroke-width="2" stroke-linecap="round" stroke-linejoin="round"/>
</svg>
