<svg width="25" height="25" viewBox="0 0 25 25" fill="none" xmlns="http://www.w3.org/2000/svg">
<g clip-path="url(#clip0_7_80)">
<path d="M24.2188 8.98438H15.2734L12.5 0.78125L9.72656 8.98438H0.78125L8.00781 14.0625L5.23438 22.2656L12.5 17.1875L19.7266 22.2656L16.9531 14.0625L24.2188 8.98438Z" fill="white"/>
<path d="M18.0469 7.92969L19.6094 3.47656L15.5078 6.28906L16.0937 7.92969H18.0469ZM10.8984 19.5313L12.5 24.2188L14.1016 19.5313L12.5 18.4375L10.8984 19.5313ZM19.8047 13.3984L18.3203 14.4141L18.9453 16.2891H23.9844L19.8047 13.3984ZM9.49218 6.28906L5.39062 3.47656L6.95312 7.92969H8.90625L9.49218 6.28906ZM5.19531 13.3984L1.01562 16.2891H6.05469L6.67969 14.4141L5.19531 13.3984Z" fill="#EFEFEF"/>
</g>
<defs>
<clipPath id="clip0_7_80">
<rect width="25" height="25" fill="white"/>
</clipPath>
</defs>
</svg>
