<svg width="60" height="60" viewBox="0 0 60 60" fill="none" xmlns="http://www.w3.org/2000/svg">
<path d="M59.9756 15.3126C59.9756 13.4677 59.82 11.6303 59.3794 9.83407C58.5882 6.56229 56.7226 4.063 53.9308 2.22743C52.4946 1.28996 50.914 0.714353 49.2341 0.410612C47.944 0.184902 46.6381 0.0607749 45.3286 0.0393738C45.2311 0.0299991 45.1242 0.00937471 45.0155 0H14.9583C14.5777 0.0299991 14.1971 0.0487485 13.8164 0.0674979C11.9509 0.17437 10.0966 0.369364 8.33786 1.07247C4.99859 2.39055 2.58554 4.69485 1.17934 8.01538C0.691853 9.13846 0.446236 10.3291 0.271867 11.5403C0.125621 12.5171 0.0468735 13.5033 0.0187494 14.4895C0.0187494 14.5683 0 14.6452 0 14.7239V45.2798L0.0581232 46.3354C0.185619 48.3772 0.448111 50.3984 1.30871 52.2734C2.93053 55.8189 5.65482 58.1513 9.39533 59.2744C10.4397 59.5969 11.5346 59.7431 12.6277 59.8406C14.0152 59.9775 15.4008 59.9963 16.7882 59.9963H44.3649C45.6736 59.9963 46.9823 59.9081 48.291 59.7431C50.3516 59.4788 52.2846 58.8732 54.0339 57.7219C56.1046 56.3805 57.7373 54.4624 58.7307 52.204C59.1994 51.1484 59.4638 50.0272 59.6588 48.8928C59.9419 47.2035 60 45.4936 60 43.7855C59.9906 34.2927 60 24.8017 59.9906 15.3089L59.9756 15.3126ZM43.9205 25.2817V39.5594C43.9205 40.6037 43.7743 41.6293 43.3055 42.5762C42.5837 44.0499 41.4118 44.978 39.8388 45.428C38.9673 45.6777 38.069 45.8218 37.1632 45.8573C36.0241 45.9246 34.9 45.5708 34.005 44.8631C33.1099 44.1553 32.5062 43.1432 32.309 42.0193C32.1283 41.0081 32.2845 39.9656 32.7536 39.0517C33.2227 38.1379 33.9788 37.4033 34.9058 36.9607C35.7064 36.5707 36.5764 36.3364 37.4445 36.1601C38.3913 35.9557 39.3382 35.7701 40.2756 35.5545C40.9693 35.3989 41.4175 34.9789 41.5543 34.2646C41.5937 34.1089 41.6031 33.9421 41.6031 33.7864V20.1744C41.5997 20.019 41.577 19.8647 41.5356 19.715C41.4381 19.3344 41.1643 19.1094 40.7744 19.1282C40.3731 19.1469 39.9831 19.2163 39.5931 19.295C37.6882 19.6663 35.7851 20.0469 33.8896 20.4369L24.6424 22.3024C24.603 22.3118 24.5542 22.3324 24.5149 22.3324C23.8211 22.5274 23.5774 22.8405 23.5474 23.5624C23.538 23.6693 23.5474 23.778 23.5474 23.8849C23.538 30.3891 23.5474 36.8932 23.538 43.3955C23.538 44.4511 23.4199 45.4861 23.0018 46.4611C22.3081 48.0623 21.0781 49.0691 19.4188 49.5472C18.5415 49.8025 17.6357 49.9468 16.7226 49.9766C14.3302 50.0647 12.3371 48.4729 11.9284 46.1198C11.5759 44.0892 12.504 41.9012 14.8083 40.9243C15.7064 40.5531 16.6345 40.3487 17.5813 40.1537L19.73 39.715C20.6862 39.5106 21.185 38.905 21.2337 37.9282V15.3501C21.2337 15.037 21.2731 14.7258 21.3406 14.422C21.5168 13.7096 22.0249 13.299 22.7074 13.1321C23.343 12.9652 23.9974 12.849 24.6405 12.7121C26.476 12.3409 28.3022 11.9696 30.1378 11.6078L35.8114 10.4547C37.4913 10.1228 39.16 9.78157 40.84 9.44971C41.3875 9.34283 41.9443 9.22471 42.4993 9.18534C43.2699 9.11784 43.808 9.60532 43.8868 10.3872C43.9055 10.5728 43.9168 10.7584 43.9168 10.944V25.2705L43.9205 25.2817Z" fill="#F8F8F8"/>
</svg>
