<svg width="25" height="25" viewBox="0 0 25 25" fill="none" xmlns="http://www.w3.org/2000/svg">
<path d="M8.48213 12.5C9.00977 12.5 9.53223 12.3961 10.0197 12.1942C10.5072 11.9923 10.9501 11.6963 11.3232 11.3232C11.6963 10.9501 11.9922 10.5072 12.1941 10.0197C12.3961 9.53225 12.5 9.00978 12.5 8.48215C12.5 7.95452 12.3961 7.43205 12.1941 6.94458C11.9922 6.45712 11.6963 6.01419 11.3232 5.6411C10.9501 5.268 10.5072 4.97205 10.0197 4.77014C9.53223 4.56822 9.00977 4.46429 8.48213 4.46429C7.41653 4.46429 6.39457 4.8876 5.64108 5.6411C4.88759 6.39459 4.46428 7.41655 4.46428 8.48215C4.46428 9.54775 4.88759 10.5697 5.64108 11.3232C6.39457 12.0767 7.41653 12.5 8.48213 12.5ZM15.2678 19.3027C15.9491 19.5125 16.7982 19.6429 17.8571 19.6429C23.2143 19.6429 23.2143 16.2947 23.2143 16.2947C23.2143 15.7618 23.0026 15.2509 22.6259 14.8741C22.2491 14.4974 21.7381 14.2857 21.2053 14.2857H15.2625C15.7814 14.8257 16.0708 15.5458 16.0696 16.2947V16.7902L16.067 16.8643C16.048 17.1625 16.002 17.4584 15.9295 17.7482C15.7916 18.2974 15.5686 18.8215 15.2687 19.3018L15.2678 19.3027ZM20.9821 9.37501C20.9821 9.78539 20.9013 10.1918 20.7443 10.5709C20.5872 10.95 20.357 11.2945 20.0668 11.5847C19.7767 11.8749 19.4322 12.1051 19.053 12.2621C18.6739 12.4192 18.2675 12.5 17.8571 12.5C17.4468 12.5 17.0404 12.4192 16.6612 12.2621C16.2821 12.1051 15.9376 11.8749 15.6474 11.5847C15.3572 11.2945 15.1271 10.95 14.97 10.5709C14.813 10.1918 14.7321 9.78539 14.7321 9.37501C14.7321 8.54621 15.0614 7.75135 15.6474 7.1653C16.2335 6.57925 17.0283 6.25001 17.8571 6.25001C18.6859 6.25001 19.4808 6.57925 20.0668 7.1653C20.6529 7.75135 20.9821 8.54621 20.9821 9.37501ZM1.78571 16.2947C1.78571 15.7618 1.99736 15.2509 2.37411 14.8741C2.75085 14.4974 3.26183 14.2857 3.79463 14.2857H13.1696C13.7024 14.2857 14.2134 14.4974 14.5902 14.8741C14.9669 15.2509 15.1786 15.7618 15.1786 16.2947V16.7411C15.1786 16.7411 15.1786 21.4286 8.48213 21.4286C1.78571 21.4286 1.78571 16.7411 1.78571 16.7411V16.2947Z" fill="#F8F8F8"/>
</svg>
