<svg width="70" height="53" viewBox="0 0 70 53" fill="none" xmlns="http://www.w3.org/2000/svg">
<path d="M10.9188 0.000147102L19.7468 11.6491L31.1584 0.000147102H10.9186H10.9188ZM38.5622 0.000147102L49.8232 11.4938L58.3956 0H38.562L38.5622 0.000147102ZM34.8602 0.123282L22.4856 12.7538H47.2348L34.8604 0.123282H34.8602ZM60.8468 1.2781L52.2834 12.7537H69.5833L60.8469 1.2781H60.8468ZM8.545 1.38765L0.105169 12.7537H17.163L8.545 1.38765ZM0 15.4832L30.4417 48.8464L18.2861 15.4829H0.000145988L0 15.4832ZM21.1891 15.4832L34.8601 53L48.531 15.4832H21.1894H21.1891ZM51.434 15.4832L39.2791 48.8464L69.7204 15.4829H51.4343L51.434 15.4832Z" fill="#FC7900"/>
</svg>
