<svg width="70" height="70" viewBox="0 0 70 70" fill="none" xmlns="http://www.w3.org/2000/svg">
<path d="M0 55.4121V61.25C0 66.0762 11.7578 70 26.25 70C40.7422 70 52.5 66.0762 52.5 61.25V55.4121C46.8535 59.3906 36.5312 61.25 26.25 61.25C15.9688 61.25 5.64648 59.3906 0 55.4121ZM43.75 17.5C58.2422 17.5 70 13.5762 70 8.75C70 3.92383 58.2422 0 43.75 0C29.2578 0 17.5 3.92383 17.5 8.75C17.5 13.5762 29.2578 17.5 43.75 17.5ZM0 41.0703V48.125C0 52.9512 11.7578 56.875 26.25 56.875C40.7422 56.875 52.5 52.9512 52.5 48.125V41.0703C46.8535 45.7188 36.5176 48.125 26.25 48.125C15.9824 48.125 5.64648 45.7188 0 41.0703ZM56.875 42.5742C64.709 41.0566 70 38.2402 70 35V29.1621C66.8281 31.4043 62.166 32.9355 56.875 33.8789V42.5742ZM26.25 21.875C11.7578 21.875 0 26.7695 0 32.8125C0 38.8555 11.7578 43.75 26.25 43.75C40.7422 43.75 52.5 38.8555 52.5 32.8125C52.5 26.7695 40.7422 21.875 26.25 21.875ZM56.2324 29.5723C64.4355 28.0957 70 25.1973 70 21.875V16.0371C65.1465 19.4688 56.8066 21.3145 48.0293 21.752C52.0625 23.707 55.0293 26.332 56.2324 29.5723Z" fill="#FC7900"/>
</svg>
