<svg width="62" height="50" viewBox="0 0 62 50" fill="none" xmlns="http://www.w3.org/2000/svg">
<g clip-path="url(#clip0_11_11)">
<path d="M51.15 43.75H10.85C9.9975 43.75 9.3 44.4531 9.3 45.3125V48.4375C9.3 49.2969 9.9975 50 10.85 50H51.15C52.0025 50 52.7 49.2969 52.7 48.4375V45.3125C52.7 44.4531 52.0025 43.75 51.15 43.75ZM57.35 12.5C54.7828 12.5 52.7 14.5996 52.7 17.1875C52.7 17.8809 52.855 18.5254 53.1263 19.1211L46.1125 23.3594C44.6206 24.2578 42.6928 23.75 41.8306 22.2266L33.9353 8.30078C34.9719 7.44141 35.65 6.15234 35.65 4.6875C35.65 2.09961 33.5672 0 31 0C28.4328 0 26.35 2.09961 26.35 4.6875C26.35 6.15234 27.0281 7.44141 28.0647 8.30078L20.1694 22.2266C19.3072 23.75 17.3697 24.2578 15.8875 23.3594L8.88344 19.1211C9.145 18.5352 9.30969 17.8809 9.30969 17.1875C9.30969 14.5996 7.22687 12.5 4.65969 12.5C2.0925 12.5 0 14.5996 0 17.1875C0 19.7754 2.08281 21.875 4.65 21.875C4.90188 21.875 5.15375 21.8359 5.39594 21.7969L12.4 40.625H49.6L56.6041 21.7969C56.8462 21.8359 57.0981 21.875 57.35 21.875C59.9172 21.875 62 19.7754 62 17.1875C62 14.5996 59.9172 12.5 57.35 12.5Z" fill="#F8F8F8"/>
</g>
<defs>
<clipPath id="clip0_11_11">
<rect width="62" height="50" fill="white"/>
</clipPath>
</defs>
</svg>
