<svg width="57" height="57" viewBox="0 0 57 57" fill="none" xmlns="http://www.w3.org/2000/svg">
<path d="M10.343 10.5553L17.0715 19.4338L25.769 10.5553H10.3429H10.343ZM31.4119 10.5553L39.9946 19.3154L46.5282 10.5552H31.4118L31.4119 10.5553ZM28.5904 10.6492L19.1589 20.2757H38.0219L28.5905 10.6492H28.5904ZM48.3964 11.5294L41.8697 20.2756H55.0551L48.3965 11.5294H48.3964ZM8.53384 11.6129L2.1013 20.2756H15.1022L8.53384 11.6129ZM2.02115 22.356L25.2227 47.7843L15.9582 22.3558H2.02126L2.02115 22.356ZM18.1707 22.356L28.5903 50.95L39.0098 22.356H18.171H18.1707ZM41.2223 22.356L31.9583 47.7843L55.1596 22.3558H41.2226L41.2223 22.356Z" fill="#F8F8F8"/>
</svg>
