<svg width="49" height="49" viewBox="0 0 49 49" fill="none" xmlns="http://www.w3.org/2000/svg">
<path d="M38.6953 3.1605C39.1547 2.7012 39.7778 2.44318 40.4274 2.44318C41.0771 2.44318 41.7002 2.7012 42.1596 3.1605L45.8419 6.84285C46.3013 7.3023 46.5593 7.92535 46.5593 8.575C46.5593 9.22466 46.3013 9.84771 45.8419 10.3072L42.1596 13.9895C41.7002 14.4488 41.0771 14.7068 40.4274 14.7068C39.7778 14.7068 39.1547 14.4488 38.6953 13.9895L35.0105 10.3072C34.5512 9.84771 34.2932 9.22466 34.2932 8.575C34.2932 7.92535 34.5512 7.3023 35.0105 6.84285L38.6928 3.1605H38.6953ZM13.475 41.65H17.15V31.85H7.35V35.525C7.35 37.1495 7.99531 38.7074 9.14397 39.856C10.2926 41.0047 11.8505 41.65 13.475 41.65ZM17.15 19.6V29.4H7.35V19.6H17.15ZM29.4 29.4H19.6V19.6H29.4V29.4ZM19.6 31.85H29.4V41.65H19.6V31.85ZM31.85 19.6V29.4H41.65V19.6H31.85ZM31.85 31.85H41.65V35.525C41.65 37.1495 41.0047 38.7074 39.856 39.856C38.7074 41.0047 37.1494 41.65 35.525 41.65H31.85V31.85ZM7.35 17.15H17.15V7.35H13.475C11.8505 7.35 10.2926 7.99531 9.14397 9.14397C7.99531 10.2926 7.35 11.8506 7.35 13.475V17.15ZM19.6 17.15V7.35H29.4V17.15H19.6Z" fill="#E9791D"/>
</svg>
