<svg width="46" height="46" viewBox="0 0 46 46" fill="none" xmlns="http://www.w3.org/2000/svg">
<path d="M23 21.5625C23 19.9439 23.5347 18.4517 24.4375 17.25H5.75V33.0625C5.75 34.9687 6.50725 36.7969 7.85517 38.1448C9.20309 39.4927 11.0313 40.25 12.9375 40.25H23.1438C23.0479 39.7768 22.9998 39.2953 23 38.8125V21.5625ZM5.75 14.375V12.9375C5.75 11.0313 6.50725 9.20309 7.85517 7.85517C9.20309 6.50725 11.0313 5.75 12.9375 5.75H33.0625C34.9687 5.75 36.7969 6.50725 38.1448 7.85517C39.4927 9.20309 40.25 11.0313 40.25 12.9375V14.375H5.75ZM30.9062 17.25C29.5719 17.25 28.2922 17.7801 27.3486 18.7236C26.4051 19.6672 25.875 20.9469 25.875 22.2812V38.0938C25.875 40.871 28.129 43.125 30.9062 43.125H38.0938C39.4281 43.125 40.7078 42.5949 41.6514 41.6514C42.5949 40.7078 43.125 39.4281 43.125 38.0938V22.2812C43.125 20.9469 42.5949 19.6672 41.6514 18.7236C40.7078 17.7801 39.4281 17.25 38.0938 17.25H30.9062ZM31.625 35.9375C31.625 35.5563 31.7764 35.1906 32.046 34.921C32.3156 34.6514 32.6813 34.5 33.0625 34.5H35.9375C36.3187 34.5 36.6844 34.6514 36.954 34.921C37.2236 35.1906 37.375 35.5563 37.375 35.9375C37.375 36.3187 37.2236 36.6844 36.954 36.954C36.6844 37.2236 36.3187 37.375 35.9375 37.375H33.0625C32.6813 37.375 32.3156 37.2236 32.046 36.954C31.7764 36.6844 31.625 36.3187 31.625 35.9375Z" fill="#E9791D"/>
</svg>
