<?xml version="1.0" encoding="UTF-8" standalone="no"?><svg xmlns="http://www.w3.org/2000/svg" viewBox="0 0 300 300" fill="white"><path opacity="0.88" d="M85.05 114.6c-9.75-9.75-21.3-14.55-35.1-14.55s-25.5 4.8-35.4 14.55C4.8 124.35 0 136.05 0 149.85s4.95 25.5 14.55 35.25c9.75 9.75 21.45 14.55 35.25 14.55s25.5-4.95 35.25-14.55c9.15-9.15 13.95-19.95 14.55-32.55V148.5c-.3-13.2-5.1-24.45-14.55-33.9zm-20.7 49.35c-3.9 3.9-8.85 5.85-14.4 5.85S39.9 167.85 36 163.95c-3.9-3.9-5.85-8.55-5.85-14.1 0-5.55 1.95-10.2 5.85-14.1 3.75-3.9 8.55-5.85 14.1-5.85 5.55 0 10.2 1.95 14.25 5.85 3.9 3.9 5.85 8.55 5.85 14.1 0 5.55-1.95 10.2-5.85 14.1zM185.25 114.6c-9.75-9.75-21.3-14.55-35.1-14.55s-25.65 4.8-35.4 14.55-14.55 21.45-14.55 35.25 4.8 25.5 14.55 35.25 21.6 14.55 35.4 14.55c13.8 0 25.35-4.95 35.1-14.55 9.15-9.15 13.95-19.95 14.55-32.55V148.5c-.3-13.2-5.1-24.45-14.55-33.9zm-20.85 49.35c-3.9 3.9-8.7 5.85-14.25 5.85-5.55 0-10.2-1.95-14.1-5.85-3.9-3.9-5.85-8.55-5.85-14.1 0-5.55 1.95-10.2 5.85-14.1 3.9-3.9 8.55-5.85 14.1-5.85 5.55 0 10.35 1.95 14.25 5.85 3.9 3.9 5.85 8.55 5.85 14.1 0 5.55-1.95 10.2-5.85 14.1zM285.45 114.6c-9.75-9.75-21.45-14.55-35.1-14.55-13.65 0-25.65 4.8-35.4 14.55s-14.55 21.45-14.55 35.25 4.8 25.5 14.55 35.25 21.6 14.55 35.4 14.55c13.8 0 25.5-4.95 35.1-14.55 9.15-9.15 13.95-19.95 14.55-32.55V148.5c-.3-13.2-5.1-24.45-14.55-33.9zm-20.85 49.35c-3.9 3.9-8.7 5.85-14.4 5.85-5.55 0-10.05-1.95-13.95-5.85s-5.85-8.55-5.85-14.1c0-5.55 1.95-10.2 5.85-14.1 3.9-3.9 8.4-5.7 13.95-5.7s10.35 1.8 14.4 5.7c4.05 3.9 5.85 8.55 5.85 14.1 0 5.55-1.95 10.2-5.85 14.1z"></path><path opacity="0.88" d="M85.05 45C75.3 35.25 63.6 30.45 49.8 30.45S24.3 35.25 14.55 45 0 66.45 0 80.25s4.95 25.5 14.55 35.25c9.75 9.75 21.45 14.4 35.25 14.4s25.5-4.65 35.25-14.4C94.2 106.35 99 95.4 99.6 82.95V78.9c-.3-13.2-5.1-24.45-14.55-33.9zM64.2 94.35c-3.9 3.9-8.85 5.85-14.4 5.85s-10.05-1.95-13.95-5.85c-3.9-3.9-5.85-8.55-5.85-14.1s1.95-10.2 5.85-14.1c3.9-3.9 8.55-5.85 13.95-5.85 5.55 0 10.5 1.95 14.4 5.85 3.9 3.9 5.85 8.55 5.85 14.1s-1.95 10.2-5.85 14.1zM185.25 45c-9.75-9.75-21.3-14.55-35.1-14.55s-25.65 4.8-35.4 14.55-14.55 21.45-14.55 35.25 4.8 25.5 14.55 35.25 21.6 14.4 35.4 14.4c13.8 0 25.35-4.65 35.1-14.4 9.15-9.15 13.95-20.1 14.55-32.55V78.9c-.3-13.2-5.1-24.45-14.55-33.9zM164.4 94.35c-3.9 3.9-8.7 5.85-14.25 5.85-5.55 0-10.2-1.95-14.1-5.85-3.9-3.9-5.85-8.55-5.85-14.1s1.95-10.2 5.85-14.1c3.9-3.9 8.55-5.85 14.1-5.85 5.55 0 10.35 1.95 14.25 5.85 3.9 3.9 5.85 8.55 5.85 14.1s-1.95 10.2-5.85 14.1zM285.45 45c-9.75-9.75-21.45-14.55-35.1-14.55-13.65 0-25.5 4.8-35.4 14.55S200.4 66.45 200.4 80.25s4.8 25.5 14.55 35.25 21.6 14.55 35.4 14.55c13.8 0 25.5-4.95 35.1-14.55 9.15-9.15 13.95-20.1 14.55-32.55V78.9c-.3-13.2-5.1-24.45-14.55-33.9zM264.6 94.35c-3.9 3.9-8.7 5.85-14.4 5.85-5.55 0-10.05-1.95-13.95-5.85-3.9-3.9-5.85-8.55-5.85-14.1s1.95-10.2 5.85-14.1c3.9-3.9 8.4-5.85 13.95-5.85 5.55 0 10.5 1.95 14.4 5.85 3.9 3.9 5.85 8.55 5.85 14.1s-1.95 10.2-5.85 14.1z"></path><path d="m112.2 248.4 3.45-6.15c2.85 2.55 7.2 5.1 12.15 5.25 3.9 0 6.45-1.35 6.45-3.9 0-1.65-1.35-3-4.8-4.2-11.1-4.05-14.4-6.9-14.4-12.9 0-6.45 6-10.95 14.1-10.8 5.55.15 9.6 2.4 12 4.35l-2.4 6.9c-1.8-1.35-6.6-3.9-9.75-3.9-2.4 0-5.1.75-5.1 3.15 0 2.1 1.95 3.3 6 4.95 7.35 3.15 12.6 5.55 12.75 12 0 6.9-5.7 11.4-14.85 11.55-7.5-.15-13.35-3.75-15.6-6.3zM170.1 215.55c-5.7 0-9.9 2.55-12.3 6.6v-5.85h-8.7v53.25h8.7v-21.9c2.4 4.05 6.45 6.6 12.3 6.6 11.1 0 18.6-8.25 18.6-19.35 0-10.95-7.35-19.2-18.6-19.35zm-.9 30.3c-5.85 0-10.5-4.5-10.5-10.95v-.15c0-6.45 4.8-10.8 10.65-10.8 6 0 10.5 4.35 10.5 10.8 0 6.6-4.65 11.1-10.65 11.1zM214.35 215.55c-11.1 0-19.35 8.4-19.35 19.35 0 11.1 8.25 19.2 19.35 19.2 11.1 0 19.35-8.25 19.35-19.2v-.15c0-11.1-8.4-19.2-19.35-19.2zm0 30.15c-5.85 0-10.65-4.35-10.65-10.8v-.15c0-6.45 4.65-10.95 10.5-10.95 6 0 10.65 4.5 10.65 11.1 0 6.45-4.5 10.95-10.5 10.8zM240.9 216.3h8.7v7.5c2.55-5.1 7.2-7.95 12.75-7.95v8.25h-1.05c-6.15 0-11.7 4.95-11.7 10.5v18.75h-8.7V216.3zM272.55 243.15v-18.6h-4.8v-8.25h4.8v-10.35h8.7v10.35h10.35v8.25h-10.35v16.8c0 3.15 1.8 4.8 4.5 4.8 1.8 0 3.9-.3 5.85-.9v7.2c-1.95 1.05-5.4 1.8-8.1 1.8-6.75 0-10.95-3.6-10.95-11.1z"></path></svg>