<svg xmlns="http://www.w3.org/2000/svg" viewBox="0 0 821.069 100"><path fill="#fff" d="M36.973 12.557L0 87.443h18.338l9.836-19.904h39.09l9.824 19.904h18.36L58.474 12.557H36.973zm434.736 0v74.875h62.89v-14.79h-46.437V12.558H471.71zm-369.56 8.894V78.55h34.431c15.765 0 28.545-12.778 28.545-28.543 0-15.776-12.78-28.555-28.545-28.555h-34.432zm76.898 0V78.54H195.5V37.998l22.754 40.541 22.752-40.541v40.541h16.453V21.451h-24.12l-15.085 26.871-15.078-26.87h-24.13zm98.951 0V78.55h16.453v-57.1h-16.453zm37.004 0V78.55h16.453V57.86h18.719l9.931 20.688h18.243l-10.703-22.297c6.3-2.87 10.693-9.222 10.693-16.602 0-10.058-8.154-18.199-18.201-18.199h-45.135zm99.916 0L386.373 78.55h16.54l6.202-12.408h31.055l6.203 12.408h16.54l-28.547-57.1h-19.449zm-367.2 6.49l12.23 24.795h-24.47l12.24-24.795zm70.874 5.918h13.943c8.915 0 16.137 7.22 16.137 16.135 0 8.915-7.222 16.137-16.137 16.137h-13.943V33.859zm212.853.084h24.659v.012c3.208.117 5.78 2.636 5.78 5.738 0 3.103-2.56 5.622-5.769 5.739v.01h-24.67v-11.5zm93.192 1.133l9.318 18.645H415.32l9.317-18.645z"/><path fill="#fc0" d="M572.324 0c-7.369 0-13.33 5.972-13.33 13.33v73.33c0 7.37 5.972 13.33 13.33 13.33h67.305V0h-67.305zm77.385 0v100h80.646V0H649.71zm90.725 0v100h67.306c7.37 0 13.328-5.972 13.328-13.33V13.33c0-7.358-5.97-13.33-13.328-13.33h-67.306z"/><path fill="#002454" d="M675.31 24.342a6.278 6.278 0 00-6.279 6.277v38.74a6.28 6.28 0 006.28 6.28h31.793a4.688 4.688 0 004.69-4.692 4.696 4.696 0 00-4.7-4.668H680.38V53.277h18.137a4.688 4.688 0 004.691-4.691 4.686 4.686 0 00-4.691-4.69h-18.125V33.721h25.209a4.684 4.684 0 004.689-4.69 4.684 4.684 0 00-4.69-4.69h-30.29zm-90.736.01a6.28 6.28 0 00-6.28 6.279v38.738a6.28 6.28 0 006.28 6.28h24.172l.783-.022c7.877-.233 14.198-6.68 14.198-14.621.01-5.855-3.44-10.895-8.416-13.235 3.017-2.413 4.955-6.11 4.955-10.28 0-7.264-5.888-13.14-13.15-13.14h-22.542zm178.338 0v.03c-2.446.16-4.385 2.17-4.385 4.659 0 2.488 1.94 4.501 4.385 4.66v.031h12.164v36.221a5.677 5.677 0 005.686 5.674 5.675 5.675 0 005.676-5.674v-36.22h11.857a4.688 4.688 0 004.691-4.692c-.01-2.583-2.108-4.69-4.691-4.69h-35.383zm-173.246 9.38h14.803a5.083 5.083 0 015.082 5.082 5.083 5.083 0 01-5.082 5.082h-14.803V33.732zm0 19.545h16.846a6.5 6.5 0 010 13.002h-16.846V53.277z"/></svg>