<svg xmlns="http://www.w3.org/2000/svg" viewBox="0 0 171.2041 129.3397">
			  <defs>
				<style>
				  .cls-1 {
					fill:white;
				  }
			
				  .cls-2 {
					fill:#323538;
				  }
				</style>
			  </defs>
			  <g id="AutProhib_3_trazado">
				<path class="cls-1" d="M13.9238,162.8971h-3.6l3.9893-21.6591h4.62l3.9892,21.6591h-3.6l-.66-4.8H14.584Zm1.2-8.039h3l-1.4707-9.3h-.06Z" transform="translate(-10.3242 -33.8573)"/>
				<path class="cls-1" d="M34.9824,146.7585v16.1386h-3.18v-1.62c-1.41,1.2-2.13,1.92-4.08,1.92-1.77,0-2.8193-1.289-2.8193-3.39V146.7585h3.3594v12.5088a1.0676,1.0676,0,0,0,1.2,1.17,3.9408,3.9408,0,0,0,2.16-1.02V146.7585Z" transform="translate(-10.3242 -33.8573)"/>
				<path class="cls-1" d="M36.9023,149.5182v-2.76h1.86v-4.3506h3.3594v4.3506h2.25v2.76h-2.25v9.3c0,.84.36,1.3194,1.1406,1.3194h1.1094v2.88a5.7823,5.7823,0,0,1-1.68.18c-2.52,0-3.93-1.17-3.93-3.63V149.5182Z" transform="translate(-10.3242 -33.8573)"/>
				<path class="cls-1" d="M46.3838,152.4577c0-3.54,1.38-6,5.22-6s5.22,2.46,5.22,6v4.74c0,3.54-1.38,5.999-5.22,5.999s-5.22-2.4589-5.22-5.999Zm7.0791-.6c0-1.86-.66-2.64-1.8594-2.64s-1.86.7793-1.86,2.64v5.9394c0,1.86.66,2.64,1.86,2.64s1.8594-.7793,1.8594-2.64Z" transform="translate(-10.3242 -33.8573)"/>
				<path class="cls-1" d="M60.0625,162.8971V141.238h5.34c4.59,0,6.72,1.77,6.72,6.39s-2.13,6.3906-6.72,6.3906h-1.62v8.8789Zm3.72-11.9394h1.44c2.43,0,3.18-.75,3.18-3.33s-.75-3.3291-3.18-3.3291h-1.44Z" transform="translate(-10.3242 -33.8573)"/>
				<path class="cls-1" d="M74.8828,162.8971V146.7585h3.21v1.89h.0595a4.3592,4.3592,0,0,1,3.81-2.19h.69v3.51a7.6216,7.6216,0,0,0-2.16-.3292,2.1142,2.1142,0,0,0-2.25,2.1592v11.1Z" transform="translate(-10.3242 -33.8573)"/>
				<path class="cls-1" d="M84.6924,152.4577c0-3.54,1.38-6,5.22-6s5.22,2.46,5.22,6v4.74c0,3.54-1.38,5.999-5.22,5.999s-5.22-2.4589-5.22-5.999Zm7.0791-.6c0-1.86-.66-2.64-1.8594-2.64s-1.86.7793-1.86,2.64v5.9394c0,1.86.66,2.64,1.86,2.64s1.8594-.7793,1.8594-2.64Z" transform="translate(-10.3242 -33.8573)"/>
				<path class="cls-1" d="M98.1924,162.8971V141.238h3.3593v7.02c1.2305-1.08,1.95-1.8008,3.9-1.8008,1.77,0,2.8194,1.29,2.8194,3.3906v13.0488h-3.3594V150.3883a1.0676,1.0676,0,0,0-1.2-1.17,3.9414,3.9414,0,0,0-2.16,1.02v12.6591Z" transform="translate(-10.3242 -33.8573)"/>
				<path class="cls-1" d="M111.542,144.2985v-3.06h3.3594v3.06Zm0,18.5986V146.7585h3.3594v16.1386Z" transform="translate(-10.3242 -33.8573)"/>
				<path class="cls-1" d="M118.1709,162.8971V141.238H121.53v6.9c1.32-1.08,2.01-1.6806,3.48-1.6806,2.1,0,3.42,1.5605,3.42,4.5v7.74c0,2.94-1.32,4.499-3.42,4.499-1.6806,0-2.49-.5693-3.6006-1.9794h-.0595v1.68Zm3.3594-3.3a3.3924,3.3924,0,0,0,1.92.84c.9,0,1.62-.48,1.62-2.6094v-6c0-2.13-.72-2.6094-1.62-2.6094a3.3924,3.3924,0,0,0-1.92.84Z" transform="translate(-10.3242 -33.8573)"/>
				<path class="cls-1" d="M131.5205,144.2985v-3.06H134.88v3.06Zm0,18.5986V146.7585H134.88v16.1386Z" transform="translate(-10.3242 -33.8573)"/>
				<path class="cls-1" d="M145.05,152.278v-.42c0-1.86-.66-2.64-1.8594-2.64s-1.86.7793-1.86,2.64v5.9394c0,1.86.66,2.64,1.86,2.64s1.8594-.7793,1.8594-2.64v-1.02h3.36v.42c0,3.54-1.38,5.999-5.22,5.999s-5.2207-2.4589-5.2207-5.999v-4.74c0-3.54,1.3809-6,5.2207-6,3.7793,0,5.1592,2.37,5.22,5.82Z" transform="translate(-10.3242 -33.8573)"/>
				<path class="cls-1" d="M151.5,144.2985v-3.06h3.3594v3.06Zm0,18.5986V146.7585h3.3594v16.1386Z" transform="translate(-10.3242 -33.8573)"/>
				<path class="cls-1" d="M157.9482,152.4577c0-3.54,1.3809-6,5.2207-6s5.22,2.46,5.22,6v4.74c0,3.54-1.38,5.999-5.22,5.999s-5.2207-2.4589-5.2207-5.999Zm5.58-7.6192h-2.4892l2.3691-4.32h4.05Zm1.5,7.02c0-1.86-.66-2.64-1.8594-2.64s-1.86.7793-1.86,2.64v5.9394c0,1.86.66,2.64,1.86,2.64s1.8594-.7793,1.8594-2.64Z" transform="translate(-10.3242 -33.8573)"/>
				<path class="cls-1" d="M171.4492,162.8971V146.7585h3.18v1.6191c1.41-1.1992,2.13-1.92,4.08-1.92,1.7695,0,2.8193,1.29,2.8193,3.3906v13.0488h-3.3594V150.3883a1.0675,1.0675,0,0,0-1.2-1.17,3.9411,3.9411,0,0,0-2.16,1.02v12.6591Z" transform="translate(-10.3242 -33.8573)"/>
			  </g>
			  <g id="Mano_circulo_3">
				<path class="cls-1" d="M97.2852,133.9961a50.8181,50.8181,0,0,1-5.96-.3516A50.1207,50.1207,0,0,1,47.4673,78.0654h0a50.0574,50.0574,0,1,1,49.8179,55.9307Z" transform="translate(-10.3242 -33.8573)"/>
				<path class="cls-2" d="M97.4527,134.05a49.7225,49.7225,0,0,1-21.1481-4.4373l-2.368-1.2961,2.2422-1.5186c.0644-.0439,6.1342-4.2021,7.2539-8.9052-.6807-.7178-1.3018-1.5088-1.9512-2.336A42.0387,42.0387,0,0,0,78.68,112.249c-1.89-1.9726-3.7866-4.1035-5.6206-6.1631-2.6714-3.0019-5.1948-5.8359-7.4467-7.916a36.9384,36.9384,0,0,0-4.5308-3.3574c-2.5859-1.7188-4.4541-2.961-4.6987-4.6768a2.51,2.51,0,0,1,.6035-2.0156c.5791-.6836,6.0171-6.3916,18.8706,3.1084,2.2475,1.6611,3.5752,2.6143,4.3594,3.16a1.7078,1.7078,0,0,1,.5087.1025c4.4664-2.1191,3.8946-3.9756,2.002-10.1152-.252-.8174-.52-1.69-.793-2.6211-2.5786-8.8194-4.9614-16.7119-6.71-22.2256A6.1256,6.1256,0,0,1,76.23,53.3828a5.2233,5.2233,0,0,1,4.9883-1.5313,6.6636,6.6636,0,0,1,4.7525,4.836c.644,2.039,1.7036,4.8242,2.9311,8.0488,1.396,3.668,2.978,7.8262,4.44,12.1651l.08.2324.0078.0146a6.1115,6.1115,0,0,0,2.2719-.124l.0137-27.8164c0-3.6113,3.148-5.56,6.11-5.56a5.9706,5.9706,0,0,1,3.8354,1.3076,5.1621,5.1621,0,0,1,1.83,4.1309c0,3.5078.0078,10.9766.0151,17.498l.0093,10.2081-.001.3095c0,.1612-.0014.3623-.0019.5518a7.3635,7.3635,0,0,0,2.1909.4892c.023-.081.0464-.165.0693-.2461.0767-.2744.1465-.5234.1753-.6191l.2456-.82c1.229-4.1094,4.97-16.6152,6.2828-21.6514A5.681,5.681,0,0,1,120.62,50.83a6.0031,6.0031,0,0,1,5.7563,1.25,4.8921,4.8921,0,0,1,1.084,5.0039c-1.4546,5.4091-4.1943,15.6953-5.9927,22.4472l-.2627.9854c-.0317.123-.125.56-.226,1.0273-.045.2061-.0909.417-.1343.6153a10.14,10.14,0,0,0,1.4487.5781c.062-.083.1729-.2363.4385-.6l.1265-.1738c1.3261-1.8086,3.1982-4.5889,4.85-7.042,1.5351-2.28,2.8613-4.2491,3.4624-5.0118a5.161,5.161,0,0,1,6.4936-.999c.7207.4736,2.9043,2.3291.7378,6.3662-1.352,2.5137-3.7407,6.15-6.0508,9.668a89.2376,89.2376,0,0,0-5.4394,8.8379c-.85,2.0742-2.5108,8.2265-3.9766,13.6553-.61,2.2587-1.187,4.3955-1.6621,6.0771-1.2046,4.2822-4.2109,6.2725-6.6265,7.8731a11.821,11.821,0,0,0-2.8012,2.2382h0a65.9789,65.9789,0,0,0-4.274,8.6319l-.3144.7324A36.1072,36.1072,0,0,1,97.4527,134.05Zm23.1909-51.0147-.0132.05C120.6348,83.0683,120.64,83.0517,120.6436,83.0351Z" transform="translate(-10.3242 -33.8573)"/>
			  </g>
			</svg>