<?xml version="1.0" encoding="UTF-8"?> <svg xmlns="http://www.w3.org/2000/svg" width="758.58" height="224.15" viewBox="0 0 758.58 224.15"><defs><style>.a{fill:#fe1a1b;}.b{fill:#fefdfd;}</style></defs><path class="a" d="M49.18,366H35.87c-22.32,0-44.65.11-67-.09-4.12,0-6.14.83-7,5.25-1.51,7.65-3.9,15.13-5.7,22.74-.61,2.56-1.53,3.12-4.1,2.41q-15.4-4.24-30.91-8.07c-2.49-.62-3.06-1.36-2.35-4q9.49-35.94,18.6-72c.67-2.63,1.9-3.5,4.49-3.25,2.14.2,4.32,0,6.49,0,8.82,0,8.82,0,12.07,7.95,22.33-11.1,45.57-8.45,68.91-4.6,10.84,1.79,21.24,5.59,32.2,6.86,14,1.61,28,1.36,41.64-2.31,3-.8,3.9-.48,4.26,2.78q1.7,15.63,4.11,31.17c.48,3.1-1.27,4.12-3.13,5.51a188.06,188.06,0,0,0-74.92,171.3c.37,3.46-.73,3.84-3.63,3.83q-47.73-.11-95.46,0c-3.2,0-4.4-.57-4-4.13C-61,452-22.23,398.65,47.27,367.8,48,367.49,48.9,367.41,49.18,366Z" transform="translate(81.45 -308.84)"></path><path class="a" d="M254.07,366c-27.61,0-55.21.05-82.82-.07-2.8,0-3.29,1.46-3.81,3.49-2.05,8.06-4.27,16.08-6.14,24.18-.64,2.76-1.45,3.47-4.32,2.66-10.09-2.82-20.23-5.5-30.43-7.89-3.28-.76-3.24-2.09-2.53-4.79q9.27-35.22,18.25-70.51c.79-3.11,2-4.52,5.34-4.11a36.76,36.76,0,0,0,7.49,0c4.93-.41,9.34-.29,9.66,6.31.07,1.41.71,2.07,2.29,1.26,20.18-10.22,41.33-8,62.6-5,12.39,1.72,24.21,6.07,36.63,7.6,14.18,1.74,28.28,1.5,42.12-2.29,3.33-.91,3.84.13,4.18,3,1.25,10.4,2.57,20.8,4.14,31.16.47,3.1-1.48,4.08-3.3,5.46-30.19,22.75-51.93,51.79-64.81,87.34a184,184,0,0,0-10,84c.33,3-.36,3.72-3.28,3.71q-48.23-.12-96.45,0c-3.65,0-3.56-1.59-3.26-4.27Q148.25,414,252.45,367.76c.59-.26,1.14-.61,1.7-.92Z" transform="translate(81.45 -308.84)"></path><path class="a" d="M458.91,366c-27.31,0-54.63.05-81.94-.07-3,0-4.06,1-4.7,3.7-1.88,7.93-4.16,15.76-6,23.7-.66,2.93-1.47,3.79-4.6,2.9-9.92-2.82-19.93-5.35-29.94-7.82-2.71-.67-3.76-1.3-2.89-4.56q9.45-35.43,18.39-71c.74-2.93,1.88-4.14,5-3.91a77.18,77.18,0,0,0,11.48,0c3.29-.26,4.93.82,5.28,4.15.33,3.16,1.13,4.35,4.9,2.47,13.4-6.65,27.92-7.1,42.5-6.16,14.16.92,28,3.75,41.75,7.24a113,113,0,0,0,58.73-.58c1.62,12.13,3.23,24.12,4.82,36.12.35,2.64-2.05,3.22-3.53,4.34C483.3,383,460,417.34,448.6,459.66a181.44,181.44,0,0,0-5.06,68.3c.3,2.63-.14,3.55-2.93,3.54q-48.48-.11-96.95,0c-4,0-3.21-2.13-3-4.47,5.18-56.33,30.51-101.56,75.28-136a171.94,171.94,0,0,1,41.17-23.25c.72-.29,1.38-.72,2.07-1.08Z" transform="translate(81.45 -308.84)"></path><path fill="white" d="M575.29,496.83c-7.34,0-14.67.08-22,0-2.92-.05-4.46-.44-3.62,3.93,1.06,5.49,1.72,10.68,5.64,15.12a14.87,14.87,0,0,0,9.23,5.2c9.34,1.63,18.18,1.62,25.36-5.76,1.47-1.51,1.47-1.51,4-.09a19.79,19.79,0,0,1,4.19,3.3c3.42,3.4,2.23,2.64-.12,5.13C590,532,580.38,533,569.7,533c-9.32,0-17.57-1.72-23.82-8.86-5.19-5.93-7.58-13.2-9-20.93A56.86,56.86,0,0,1,538,477.53c3.18-11.69,9.82-21.72,22.11-24,20.25-3.83,35.56,3.34,40.8,26.27.92,4.05.8,8.13,1,12.21.23,3.68-.57,5.21-4.73,5C590,496.54,582.62,496.83,575.29,496.83Zm-25.78-10H581.6c6.59,0,6.39,0,6.38-6.34,0-6.68-5.84-14.17-13.55-16.43-7.37-2.16-16.41,1.38-20.6,6.86C550.21,475.67,550.24,481.16,549.51,486.84Z" transform="translate(81.45 -308.84)"></path><path fill="white" d="M674.6,461.39c-1.35,1-2.21,1.56-2.94,2.24-2.19,2-3.3,3.59-6.56,5.83-1.65,1.13-4.59-2.44-7-3.56-6.73-3.08-23.08-3.23-27.36,2.4a12.77,12.77,0,0,0-2.53,11c.81,3.93,4.48,5.73,7.88,6.39,6.05,1.18,12.31,1.26,18.4,2.23,5.18.82,10.55,1.08,14.95,4.76s7.28,7.54,7.65,13.66c.59,9.43-2,16.8-10.16,22.11a24.9,24.9,0,0,1-12.57,4.29c-6.48.28-13,.17-19.47,0-8.45-.16-15.39-4-21.72-9.25-1.62-1.34-1.41-2.51.15-3.53a14.21,14.21,0,0,0,4.71-4.67c.81-1.35,1.79-2,3.54-.5,10.83,9.26,23.32,9.08,36.12,5.64,5-1.35,7.2-6.71,6.2-14.46-.58-4.49-4.11-5.51-8.08-6.27-7.67-1.45-15.54-1-23.16-2.88-7.9-1.92-15.81-8.7-16.68-14.63-1.77-12,1.66-20.54,11.18-25.3,14.07-7,28.15-5.9,41.86,1.47Z" transform="translate(81.45 -308.84)"></path><path fill="white" d="M479,518.52c0-8.22,5.12-12.72,14.42-12.7,7.62,0,12.57,5.36,12.57,13.56,0,7.9-5.73,13.4-13.94,13.42C484.11,532.82,478.94,527.17,479,518.52Z" transform="translate(81.45 -308.84)"></path><path class="b" d="M549.51,486.84c.73-5.68.7-11.17,4.32-15.91,4.19-5.48,13.23-9,20.6-6.86,7.71,2.26,13.55,9.75,13.55,16.43,0,6.34.21,6.34-6.38,6.34Z" transform="translate(81.45 -308.84)"></path></svg> 