<?xml version="1.0" encoding="UTF-8"?>
<svg xmlns="http://www.w3.org/2000/svg" xmlns:xlink="http://www.w3.org/1999/xlink" width="708.66pt" height="122.13pt" viewBox="0 0 708.66 122.13" version="1.1">
<defs>
<clipPath id="clip1">
  <path d="M 173 0 L 270 0 L 270 122.128906 L 173 122.128906 Z M 173 0 "/>
</clipPath>
<clipPath id="clip2">
  <path d="M 442 0 L 506 0 L 506 122.128906 L 442 122.128906 Z M 442 0 "/>
</clipPath>
<clipPath id="clip3">
  <path d="M 378 0 L 440 0 L 440 122.128906 L 378 122.128906 Z M 378 0 "/>
</clipPath>
<clipPath id="clip4">
  <path d="M 605 33 L 624 33 L 624 122.128906 L 605 122.128906 Z M 605 33 "/>
</clipPath>
<clipPath id="clip5">
  <path d="M 279 33 L 373 33 L 373 122.128906 L 279 122.128906 Z M 279 33 "/>
</clipPath>
<clipPath id="clip6">
  <path d="M 496 33 L 589 33 L 589 122.128906 L 496 122.128906 Z M 496 33 "/>
</clipPath>
<clipPath id="clip7">
  <path d="M 640 33 L 708.660156 33 L 708.660156 122.128906 L 640 122.128906 Z M 640 33 "/>
</clipPath>
</defs>
<g id="surface1">
<g clip-path="url(#clip1)" clip-rule="nonzero">
<path style=" stroke:none;fill-rule:nonzero;fill:rgb(10.998535%,10.598755%,8.999634%);fill-opacity:1;" d="M 192.367188 111.558594 L 192.714844 111.558594 C 197.996094 118.53125 207.726563 122.128906 219.679688 122.128906 L 225.863281 122.128906 C 250.867188 122.128906 269.164063 115.761719 269.152344 86.9375 L 269.152344 69.335938 C 269.152344 42.660156 257.378906 33.167969 226.644531 33.167969 L 217.09375 33.167969 C 203.671875 33.167969 196.199219 37.722656 192.695313 42.644531 L 192.367188 42.644531 L 192.367188 0.0078125 L 173.5625 0.0078125 L 173.5625 119.398438 L 192.367188 119.398438 L 192.367188 111.558594 M 192.367188 68.636719 C 192.367188 48.667969 205.148438 48.308594 222.375 48.308594 L 224.339844 48.308594 C 241.140625 48.308594 250.34375 51.140625 250.34375 70.460938 L 250.34375 83.914063 C 250.34375 100.101563 246.171875 106.988281 223.742188 106.988281 L 219.457031 106.988281 C 198.179688 106.988281 192.367188 101.140625 192.367188 85.027344 L 192.367188 68.636719 "/>
</g>
<g clip-path="url(#clip2)" clip-rule="nonzero">
<path style=" stroke:none;fill-rule:nonzero;fill:rgb(10.998535%,10.598755%,8.999634%);fill-opacity:1;" d="M 497.140625 35.285156 L 471.890625 35.285156 L 471.890625 27.585938 C 471.890625 20.238281 476.707031 14.324219 486.976563 14.324219 L 505.730469 14.34375 L 505.730469 0 L 480.792969 0.0078125 C 465.722656 0.0078125 453.066406 7.851563 453.066406 27.664063 L 453.066406 35.285156 L 442.941406 35.285156 L 442.941406 50.394531 L 453.066406 50.394531 L 453.066406 122.09375 L 471.890625 122.09375 L 471.890625 50.394531 L 497.140625 50.394531 L 497.140625 35.285156 "/>
</g>
<g clip-path="url(#clip3)" clip-rule="nonzero">
<path style=" stroke:none;fill-rule:nonzero;fill:rgb(10.998535%,10.598755%,8.999634%);fill-opacity:1;" d="M 388.441406 94.410156 C 388.441406 114.234375 401.097656 122.09375 416.179688 122.09375 L 439.535156 122.09375 L 439.535156 106.984375 L 420.765625 106.988281 C 410.511719 106.988281 407.253906 101.855469 407.253906 94.5 L 407.253906 50.394531 L 432.523438 50.394531 L 432.523438 35.285156 L 407.253906 35.285156 L 407.253906 0 L 388.453125 0 L 388.453125 35.285156 L 378.324219 35.285156 L 378.324219 50.394531 L 388.453125 50.394531 L 388.441406 94.410156 "/>
</g>
<path style=" stroke:none;fill-rule:nonzero;fill:rgb(10.998535%,10.598755%,8.999634%);fill-opacity:1;" d="M 605.070313 19.101563 L 623.882813 19.101563 L 623.882813 0 L 605.070313 0.0078125 L 605.070313 19.101563 "/>
<g clip-path="url(#clip4)" clip-rule="nonzero">
<path style=" stroke:none;fill-rule:nonzero;fill:rgb(10.998535%,10.598755%,8.999634%);fill-opacity:1;" d="M 605.058594 122.113281 L 623.882813 122.113281 L 623.882813 33.167969 L 605.070313 33.167969 L 605.058594 122.113281 "/>
</g>
<g clip-path="url(#clip5)" clip-rule="nonzero">
<path style=" stroke:none;fill-rule:nonzero;fill:rgb(10.998535%,10.598755%,8.999634%);fill-opacity:1;" d="M 317.878906 122.113281 L 334.792969 122.113281 C 357.574219 122.113281 367.988281 114.878906 370.648438 102.234375 L 353.914063 97.164063 C 351.140625 104.957031 344.4375 106.988281 329.691406 106.988281 L 325.351563 106.988281 C 301.269531 106.988281 297.355469 103.945313 297.335938 84.949219 L 297.367188 84.929688 L 372.003906 84.929688 L 372.003906 68.476563 C 372.003906 38.703125 356.539063 33.167969 331.832031 33.167969 L 322.632813 33.167969 C 303.070313 33.167969 279.355469 36.589844 279.355469 66.886719 L 279.355469 87.890625 C 279.355469 117.320313 299.90625 122.128906 317.878906 122.113281 M 297.367188 67.09375 C 297.367188 50.007813 305.324219 48.304688 324.734375 48.304688 L 328.535156 48.308594 C 350.367188 48.308594 353.183594 53.804688 353.183594 65.039063 L 353.203125 69.808594 L 297.367188 69.832031 L 297.367188 67.09375 "/>
</g>
<g clip-path="url(#clip6)" clip-rule="nonzero">
<path style=" stroke:none;fill-rule:nonzero;fill:rgb(10.998535%,10.598755%,8.999634%);fill-opacity:1;" d="M 546.191406 33.167969 L 539.160156 33.167969 C 513.648438 33.167969 502.589844 41.019531 501.875 52.777344 L 519.804688 58.722656 C 520.628906 50.6875 529.847656 48.308594 543.828125 48.308594 C 564.621094 48.308594 569.535156 49.515625 569.535156 64.535156 L 569.535156 72.695313 L 569.164063 72.695313 C 564.464844 66.429688 558.050781 64.8125 541.761719 64.8125 L 534.40625 64.8125 C 510.390625 64.8125 496.40625 70.789063 496.40625 89.792969 L 496.40625 95.226563 C 496.429688 110.914063 502.402344 122.113281 527.472656 122.113281 L 545.722656 122.113281 C 563.871094 122.113281 565.6875 119.136719 569.273438 113.941406 L 569.566406 113.941406 L 569.566406 122.09375 L 588.359375 122.09375 L 588.359375 64.921875 C 588.359375 40.015625 571.824219 33.167969 546.191406 33.167969 M 569.566406 95.539063 C 569.566406 103.894531 563.839844 106.988281 541.566406 106.988281 L 536.535156 106.988281 C 517.609375 106.988281 515.207031 103.339844 515.207031 96.128906 L 515.214844 91.4375 C 515.207031 83.082031 519.925781 79.929688 535.597656 79.929688 L 543.972656 79.929688 C 558.253906 79.929688 569.5625 82.730469 569.5625 92.085938 L 569.5625 95.539063 L 569.566406 95.539063 "/>
</g>
<g clip-path="url(#clip7)" clip-rule="nonzero">
<path style=" stroke:none;fill-rule:nonzero;fill:rgb(10.998535%,10.598755%,8.999634%);fill-opacity:1;" d="M 681.246094 33.167969 C 672.894531 33.167969 664.363281 36.335938 659.089844 44.984375 L 658.410156 44.984375 L 658.410156 33.167969 L 640.59375 33.179688 L 640.59375 122.113281 L 659.410156 122.113281 L 659.410156 68.601563 C 659.410156 57.804688 665.613281 48.304688 680.21875 48.304688 C 690.660156 48.304688 695.695313 51.140625 696.816406 54.113281 L 708.660156 46.121094 C 705.742188 38.027344 697.894531 33.167969 681.246094 33.167969 "/>
</g>
<path style=" stroke:none;fill-rule:nonzero;fill:rgb(10.998535%,10.598755%,8.999634%);fill-opacity:1;" d="M 138.917969 0.308594 L 90.222656 0.308594 L 90.222656 24.738281 L 64.199219 24.738281 L 114.574219 83.585938 L 164.960938 24.738281 L 138.917969 24.738281 L 138.917969 0.308594 "/>
<path style=" stroke:none;fill-rule:nonzero;fill:rgb(10.998535%,10.598755%,8.999634%);fill-opacity:1;" d="M 0 97.113281 L 26.035156 97.113281 L 26.035156 121.570313 L 74.726563 121.570313 L 74.726563 97.113281 L 100.761719 97.113281 L 50.394531 38.289063 L 0 97.113281 "/>
</g>
</svg>
