<svg xmlns="http://www.w3.org/2000/svg" viewBox="0 0 156.657 33.232"><defs><style>.a{fill:#fff;}</style></defs><path class="a" d="M33.379,20.142a5.584,5.584,0,0,0-2.526-.381H28.747L28.1,23.634H31a4.019,4.019,0,0,0,2.31-.5,1.9,1.9,0,0,0,.707-1.644A1.452,1.452,0,0,0,33.379,20.142Z" transform="translate(-13.126 -9.23)"/><path class="a" d="M182.959,20.737a3.917,3.917,0,0,0-2.168-.452H177.8l-.654,4.189h3.379a3.952,3.952,0,0,0,2.343-.55,1.987,1.987,0,0,0,.756-1.724A1.635,1.635,0,0,0,182.959,20.737Z" transform="translate(-82.743 -9.475)"/><path class="a" d="M31.959,34.867a4.563,4.563,0,0,0-2.367-.447H26.557l-.617,4.218h3.467a4.352,4.352,0,0,0,2.465-.544,2,2,0,0,0,.766-1.751A1.634,1.634,0,0,0,31.959,34.867Z" transform="translate(-12.117 -16.078)"/><path class="a" d="M0,0V33.232H156.657V0ZM26.424,18.244a5.076,5.076,0,0,1,.723,2.7A5.973,5.973,0,0,1,24.929,26c-1.48,1.137-3.683,1.7-6.618,1.7H6.247L9.566,5.538h9.191q4.586,0,6.609,1.329A4.732,4.732,0,0,1,27.4,11.142a6.457,6.457,0,0,1-.739,3.2,5.651,5.651,0,0,1-2.285,2.161A4.437,4.437,0,0,1,26.424,18.244Zm21.2-7.434h-10.2l-.5,3.045H46l-.792,4.927H36.15l-.471,3.551H46.555L45.8,27.7H27.924L31.309,5.538H48.434ZM60.216,27.7H53.155l2.44-16.524H49.3l.935-5.634h19.35l-.965,5.634H62.617Zm23.25-7.952H76.192L75.032,27.7H68.071L71.423,5.538H87l-.858,5.429H77.53l-.56,3.5h7.323ZM106.427,15.3a7.023,7.023,0,0,1-3.148,2.485,4.43,4.43,0,0,1,2.1,1.464,4.064,4.064,0,0,1,.626,2.379c0,.212,0,.433-.018.674s-.037.482-.067.74l-.241,2.25c-.027.207-.047.361-.055.452s-.006.192-.006.283a1.248,1.248,0,0,0,.171.7,1.027,1.027,0,0,0,.515.4V27.7H98.826a2.761,2.761,0,0,1-.081-.46c-.011-.165-.023-.342-.023-.537,0-.125.012-.29.023-.5s.039-.441.066-.72l.314-2.231c.019-.132.033-.268.043-.4s.013-.331.013-.569a2.269,2.269,0,0,0-.8-1.991,5.106,5.106,0,0,0-2.83-.571H93.732L92.518,27.7H85.687l3.3-22.157H99.242q4.3,0,6.272,1.435a5.2,5.2,0,0,1,1.988,4.518A6.63,6.63,0,0,1,106.427,15.3Zm19.731-1.444-.795,4.927h-9.059l-.465,3.551h10.866l-.757,5.363h-17.87l3.385-22.157h17.126l-.814,5.271H117.567l-.494,3.045Zm21.124,10.7q-3.126,3.14-9.038,3.143H128.025l3.291-22.157h8.809a14.152,14.152,0,0,1,5.17.748A7.706,7.706,0,0,1,148.5,8.845a8.867,8.867,0,0,1,1.414,2.913,13.349,13.349,0,0,1,.492,3.7Q150.41,21.4,147.282,24.553Z"/><path class="a" d="M258.135,20.546h-1.591L254.91,31.792h1.634a9.354,9.354,0,0,0,2.529-.258,3.754,3.754,0,0,0,1.535-.871,5.428,5.428,0,0,0,1.3-2.291,10.208,10.208,0,0,0,.514-3.283,5.082,5.082,0,0,0-.967-3.526A4.413,4.413,0,0,0,258.135,20.546Z" transform="translate(-119.069 -9.597)"/></svg>