<svg xmlns="http://www.w3.org/2000/svg" xmlns:xlink="http://www.w3.org/1999/xlink" version="1.1" id="Layer_1" x="0px" y="0px" viewBox="50 50 416 70" style="enable-background:new 0 0 516 208;" xml:space="preserve">
<style type="text/css">
	.st0{fill:#FACF0C;}
</style>

<path id="_x3C_Bethard_x3E_" class="st0" d="M174.4,92c0-3.9-1.8-6.1-8.2-6.1h-6.8v12.9c1.8,0.1,3,0.1,4.8,0.1  c6.9,0,10.2-1,10.2-6.2V92z M174.2,72c0-4.8-3.4-5.4-9.9-5.4c-1.8,0-3.1,0-5,0.1v11.7h6.7c6.7,0,8.2-2.1,8.2-5.9V72z M163.2,107.7  c-5.5,0-9-0.1-15.6-0.6V58.5c7.1-0.5,10.5-0.6,15.8-0.6c14.3,0,22.6,2.6,22.6,13.7v0.6c0,4.1-1.7,8-5.7,10c4.3,2,6,6.1,6,9.9v0.7  C186.2,105.2,176.8,107.7,163.2,107.7 M192.2,107.1V58.5h33.1v8.9h-20.9V78h19.5v8.4h-19.5v11.8h20.9v8.8L192.2,107.1L192.2,107.1z   M256.6,67.4v39.7h-12.3V67.4h-14.1v-8.9h40.4v8.9H256.6z M306.5,107.1V86.6h-18.3v20.5H276V58.5h12.3v18.8h18.3V58.5h12.2v48.6  H306.5z M349.6,73.2c-0.6-2.4-1.1-5-1.5-7.5h-0.5c-0.4,2.5-0.8,5.1-1.5,7.5l-3.5,12.9h10.5L349.6,73.2z M358.3,107.1l-3.5-12.2H341  l-3.5,12.2h-12.6l13.5-48.6h19l13.7,48.6H358.3z M403.7,73.8c0-5.5-3.1-6.7-10.3-6.7c-1.6,0-2.8,0-4.3,0.1v14.1h4.4  c7.3,0,10.2-1.7,10.2-7L403.7,73.8L403.7,73.8z M406.3,107.1l-9.9-17.3H389v17.3h-11.8V58.5c4.8-0.3,9.7-0.6,15.7-0.6  c12.2,0,22.6,2.4,22.6,15.7V74c0,7.2-2.9,11.1-7.7,13.4l10.9,19.6L406.3,107.1L406.3,107.1z M452.5,80.1c0-10.3-3.2-13-11.4-13h-5  v31.4h5c8.2,0,11.4-3,11.4-13.4V80.1z M441,107.7c-6.3,0-10.5-0.1-16.8-0.6V58.5c6.2-0.5,10.1-0.6,16.8-0.6  c16.4,0,23.6,6.9,23.6,22.3v5C464.6,100.7,457.7,107.7,441,107.7"/>
<g>
	<path class="st0" d="M85.9,97.6c0,0-1.3,7.2-10.2,5.9c0,0,7.5,4,14.6,3.7c0,0-1.6-3.6,0.1-7.5C90.3,99.7,84.6,104.4,85.9,97.6z"/>
	<path class="st0" d="M104.9,91.8c0,0,11.2,10.5,17.2-12.4c0-1.2,0-2.1,0-2.1c-1.2,3.7-3.9,9.5-9.2,12.4c0,0,7.1-4.9,11.2-24.7   c-0.7-4-3.7-10-14.8-10.2c0,0-0.7-0.2-3.4-2.2c-2.8-2.1-8.9-3.9-15.3,0.7c-6.4,4.5-4.6-1.2-12.5,1.1s-4.9,4.7-10.5,5.4   S53.7,59.9,54,70.2l0,0c0,0-6.3,6.7-1.7,19.2c0,0-0.7-6.4,1.6-9.1c0,0-0.8,18.4,5.3,21.7c6.2,3.4,9.1-2.6,9.5-5.4   c0,0-5.5,0.9-7.7-2.3c0,0,7.5,2.9,8.4-5.8c0.9-8.7,2.2-18.2-0.8-24.1c0,0,1.8,3.3,4.8-0.5c0,0-2.8,19.3-2.3,27.9s5.7,9.6,9,8.4   c3.2-1.2,5.1-4.5,4.6-7.9c0,0-2.8,3.9-7,3.3c0,0,5.4-3.9,6.2-6.4c0,0-2.1,3.2-6.5,1.9c0,0,3.9-0.9,5.8-5.3c0,0,1.5-7.9,1.9-14.5   c0.4-6.7,0-11.4-1.2-14c0,0,3.4,3.3,7.2,0.1c0,0-4.7,16.6-4.9,26.3c-0.3,9.7,2.7,12.8,8.3,12.8c5.2-0.1,7.3-4.6,7-10   c-1.5,2.1-3.8,3.9-7.8,4.4c0,0,5.7-3.1,9.8-15c1-5.4,1.8-12.1,1.3-17.4c0,0,2.8,4.2,7.4,2.1C112.3,60.4,100.1,78.1,104.9,91.8z"/>
	<path class="st0" d="M98.3,107.7c0,0,3.4,1,6.4,0.8c3-0.3,3-4.4,3-4.4S104.6,108.8,98.3,107.7z"/>
	<path class="st0" d="M119.8,112.7c0.1,0,0.2-0.1,0.3-0.1c3.5-1.2,6.6-3.8,8.1-9.1c2.4-8.9-6.5-11.2-6.5-11.2   c5.8,5.4,3.5,9.8,3.5,9.8c-7.7-8.8-24.1-10.5-29.7-4.5c-5.6,5.9-0.3,11.4-0.3,11.4l0,0l0,0l0,0l6.9,2.1c7.7,3.4,13.5,3.1,17.5,1.7   L119.8,112.7z M106.1,109.3c-4.1,1.1-10.4-1.8-10.4-1.8c2-2.8,0.7-8.1,0.7-8.1c3.2-0.8,1.7,2.6,6.2,3.7s6-3.5,6-3.5   C110.8,102.3,110.2,108.1,106.1,109.3z M110.3,110.6c0,0,3.5-5.2,1.2-10.1c0,0,2.7,3,2.5,6.5s7.7,1.9,9.8-2.7   C123.9,104.3,124.5,114.6,110.3,110.6z"/>
</g>
</svg>