<svg xmlns="http://www.w3.org/2000/svg" height="33.285" width="80"><path d="M16.124 18.213c-.381.821-1.162 1.362-2.283 1.362-1.362 0-2.704-.921-2.704-2.964 0-1.743 1.042-3.025 2.664-3.025 1.122 0 1.903.501 2.364 1.482.04.08.04.12.14.08l2.424-.941c.06-.04.12-.1.04-.3-.721-1.662-2.364-3.105-5.048-3.105-3.185 0-5.689 2.464-5.689 5.789 0 3.125 2.303 5.729 5.769 5.729 2.544 0 4.347-1.602 5.088-3.365.04-.1.02-.18-.14-.22l-2.444-.661c-.12 0-.14.06-.18.14zm14.262 3.625l-5.548-11.157c-.02-.04-.381-.04-.381 0-1.482 2.764-3.826 7.551-5.528 11.157-.06.16-.04.22.08.22h2.704c.22 0 .24-.04.3-.18a68.05 68.05 0 0 0 .561-1.402H26.5l.601 1.442c.04.12.12.12.2.12h3.045c.12.02.12 0 .04-.2zm-4.767-3.465h-2.263l1.102-2.464zm5.588 1.482c.561 1.602 1.943 2.484 4.146 2.484 2.544 0 4.607-1.102 4.607-3.605 0-2.023-1.202-3.145-3.285-3.425l-.541-.08c-1.462-.24-2.063-.561-2.063-1.302 0-.601.361-1.022 1.502-1.022.841 0 1.602.641 1.823 1.282.04.08.08.12.2.06l1.903-.761c.1-.04.16-.1.12-.28-.421-1.362-1.763-2.384-3.926-2.384-2.884 0-4.326 1.482-4.326 3.585 0 2.023 1.362 3.125 3.325 3.325a2.73 2.73 0 0 0 .381.04c1.502.18 1.963.601 1.963 1.262 0 .741-.521 1.082-1.642 1.082-1.022 0-1.763-.721-1.963-1.322-.04-.14-.04-.14-.18-.08l-2.003.821c-.1.06-.1.14-.04.32zm13.861-8.653c0-.12-.02-.14-.16-.14h-2.704c-.14 0-.14-.02-.14.14v5.388 5.348c0 .16 0 .14.14.14h2.704c.14 0 .16-.02.16-.14V16.59v-5.388zm12.018.301v-.26c0-.16 0-.2-.16-.2h-2.464c-.14 0-.14.02-.14.2v4.867l-6.309-5.348c-.08-.04-.16-.06-.18.08v11.077c0 .06.06.14.16.14h2.444c.14 0 .14 0 .14-.14v-4.967l6.289 5.368c.18.12.2.04.2-.16v-.341-10.315zm13.74 5.087c0-3.185-2.484-5.769-5.769-5.769s-5.769 2.584-5.769 5.769 2.484 5.749 5.769 5.749a5.7 5.7 0 0 0 5.769-5.749zm-3.045 0c0 1.683-1.002 2.964-2.724 2.964-1.763 0-2.724-1.302-2.724-2.964 0-1.683.981-2.984 2.724-2.984 1.723 0 2.724 1.302 2.724 2.984zM6.93 26.846c0-1.402-.921-2.223-2.444-2.223H.14c-.12 0-.14.02-.14.12v8.132c0 .16.02.18.12.18h4.707c1.482 0 2.384-.921 2.384-2.283 0-.981-.661-1.963-1.723-2.063.921-.26 1.442-.941 1.442-1.863zm-2.263.341c0 .501-.28.801-.801.801H2.203v-1.602h1.662c.521 0 .801.26.801.801zm.18 3.245c0 .581-.341.901-.861.901H2.203V29.51h1.783c.501 0 .861.381.861.921zm11.958 2.463l-4.246-8.533c-.02-.02-.28-.04-.3 0l-4.246 8.533c-.04.12-.04.18.06.18h2.063c.16 0 .18-.04.22-.14l.441-1.062h3.005l.461 1.102c.04.08.08.1.14.1h2.323c.14 0 .14-.02.08-.18zm-3.645-2.644h-1.723l.841-1.883zm12.819 2.484l-1.763-2.944c.761-.361 1.162-1.162 1.162-2.323 0-1.522-1.022-2.844-2.944-2.844h-3.846c-.04 0-.1-.02-.1.12v4.126 4.086c0 .12 0 .12.1.12h2.043c.08 0 .1-.02.1-.12v-2.344l1.422-.02 1.322 2.243c.12.22.16.24.26.24h2.203c.16 0 .18-.08.04-.341zm-2.964-5.088c0 .721-.381 1.222-1.042 1.242l-1.242.04v-2.444h1.222c.721 0 1.062.501 1.062 1.162zm10.315 2.484c-.3.641-.901 1.042-1.743 1.042-1.042 0-2.083-.701-2.083-2.263 0-1.322.801-2.323 2.043-2.323.861 0 1.462.381 1.823 1.142.02.06.04.08.12.06l1.863-.721c.04-.02.1-.08.04-.22-.561-1.262-1.823-2.384-3.866-2.384-2.444 0-4.347 1.883-4.347 4.427 0 2.384 1.763 4.387 4.407 4.387 1.943 0 3.325-1.222 3.886-2.584.02-.08.02-.14-.12-.16l-1.863-.501c-.12-.02-.14.04-.16.1zm9.755-3.666c.04-.02.08-.06.08-.14v-1.522c0-.14-.02-.16-.14-.16h-5.628c-.12 0-.12.02-.12.12v8.132c0 .14.02.18.14.18h5.689c.12 0 .14-.02.14-.18v-1.602-.12H39.46V29.71h3.505c.08 0 .1-.04.1-.16v-1.522c0-.14-.02-.18-.12-.18H39.46v-1.402h0v-.02l.941.02h2.684zm4.987-1.722c0-.1-.02-.1-.12-.1h-2.023c-.12 0-.12-.02-.12.12v4.126 4.086c0 .12 0 .12.12.12h5.268c.1 0 .1-.02.1-.12v-1.803-.04h-3.225zm12.759 4.146c0-2.444-1.903-4.407-4.407-4.407s-4.407 1.983-4.407 4.407c0 2.444 1.903 4.407 4.407 4.407 2.504-.02 4.407-1.983 4.407-4.407zm-2.323 0c0 1.282-.761 2.283-2.083 2.283-1.342 0-2.083-1.001-2.083-2.283s.741-2.283 2.083-2.283c1.322-.02 2.083 1.002 2.083 2.283zm11.317-4.126a.09.09 0 0 0-.12-.12h-1.883c-.1 0-.1.02-.1.14v3.726l-4.827-4.086c-.06-.04-.1-.02-.12.06v8.493c.02.04.04.1.12.1h1.883c.12 0 .12 0 .12-.12V29.15l4.807 4.106c.1.08.14.04.14-.04v-8.453zm10.155 8.132l-4.246-8.533c-.02-.02-.28-.04-.3 0l-4.226 8.533c-.04.12-.04.18.06.18h2.063c.16 0 .18-.04.22-.14l.441-1.062h3.004l.461 1.102c.04.08.08.1.14.1h2.323c.12 0 .12-.02.06-.18zm-3.645-2.644h-1.723l.841-1.883z" fill="#fff"/><path d="M46.87 5.454h0 0c0-.04-.08-.06-.08-.06-1.402-.421-2.584-1.542-2.944-2.864l-.06-.22s-.02-.06-.06-.06h0c-.04 0-.06.06-.06.06l-.06.22c-.361 1.322-1.542 2.444-2.944 2.864 0 0-.08.02-.08.06h0 0 0c0 .04.08.06.08.06 1.402.421 2.584 1.542 2.944 2.864l.06.22s.02.06.06.06h0c.04 0 .06-.06.06-.06l.06-.22c.361-1.322 1.542-2.444 2.944-2.864-.02.02.06 0 .08-.06zm2.925-3.786h0 0c0-.02-.04-.04-.04-.04-.721-.22-1.342-.801-1.522-1.482l-.04-.12s0-.02-.02-.02h0c-.02 0-.02.02-.02.02l-.04.12c-.18.681-.801 1.262-1.522 1.482 0 0-.04 0-.04.04h0 0 0 0c0 .02.04.04.04.04.721.22 1.342.801 1.522 1.482l.04.12s0 .02.02.02h0c.02 0 .02-.02.02-.02l.04-.12c.18-.681.801-1.262 1.522-1.482 0 0 .04 0 .04-.04z" fill="#e30613"/></svg>