<svg width="91" height="22" viewBox="0 0 91 22" xmlns="http://www.w3.org/2000/svg"><path d="M31.774 15.948c0 .288-.177.364-.177.903 0 .808.514 1.664 2.168 1.664 1.07 0 1.91-.498 1.91-1.393 0-1.209-1.234-1.62-2.458-2.306-1.208-.677-2.406-1.62-2.406-3.858 0-2.601 2.36-4.167 5.635-4.168 1.341 0 2.27.225 3.288.87.698-1.51 2.432-2.586 4.393-2.586 3.036 0 4.365 1.921 4.365 3.513 0 2.25-2.441 6.05-2.441 8.105 0 .467.372.723.75.724 2.233 0 4.64-5.787 4.767-9.893a.685.685 0 0 1 .52-.654c.203-.052.46-.08.76-.08 1.248 0 2.577.683 2.563 2.474-.025 3.211-2.287 6.078-2.287 7.638 0 .405.359.84 1.054.84 2.338 0 4.145-5.452 4.145-9.745 0-.445.463-.796 1.54-.796 1.42 0 2.404.82 2.318 2.986.116-.173 1.97-3.396 4.808-3.396 1.855 0 2.637 1.161 2.637 2.646 0 0 1.204-2.646 4.403-2.646 1.854 0 2.868 1.115 2.869 2.935 0 2.86-2.608 5.972-2.608 7.387 0 .464.32.637.696.637.961 0 2.36-.875 2.86-2.227.383-1.038 1.546-4.025 3.916-4.025.812 0 1.001.337 1.001.666 0 .698-.746.903-.746 3.393 0 1.875.582 2.687 1.508 2.687 1.296 0 3.263-2.709 3.263-6.077 0-1.443-.825-2.805-2.9-2.805-1.546 0-1.935.472-2.56.472-.206 0-.63-.14-.63-.627 0-.968 2.419-2.416 5.172-2.416 4.026 0 5.13 3.536 5.13 5.563 0 5.16-4.358 9.26-8.123 9.26-2.411 0-3.664-1.14-4.31-2.41l-.002.003c-1.12 1.205-3.137 2.407-5.416 2.407-2.085 0-3.273-.946-3.273-2.825 0-2.4 2.504-6.231 2.504-7.387 0-.289-.059-.433-.32-.433-2.178 0-4.99 5.763-5.413 9.53-.02.176-.187 1.115-1.338 1.115-1.304 0-2.575-.802-2.575-2.565 0-2.428 2.605-6.52 2.604-7.648 0-.26-.087-.432-.376-.432-1.273 0-2.678 2.026-3.704 4.461-.704 1.67-1.225 3.532-1.413 5.065-.037.307-.276 1.12-1.343 1.12-1.306 0-2.07-.707-2.453-1.594-.951.818-2.13 1.593-3.42 1.593-2.377 0-3.23-1.127-3.318-2.341 0 0-1.297 2.341-4.426 2.341-1.531 0-3.008-1.257-3.008-3.915 0-2.986 1.719-5.205 2.359-7.919.192-.912-.554-1.433-1.392-1.433-1.072 0-1.601.743-1.601 1.949 0 1.294-.726 2.322-2.444 2.322a.625.625 0 0 1-.629-.628c0-.167.055-.34.055-.77 0-1.07-.867-1.678-1.941-1.678-.985 0-1.448.493-1.448 1.245 0 1.283 1.322 1.725 2.617 2.368 1.243.617 2.46 1.418 2.46 3.323 0 3.295-2.893 5.136-6.484 5.136-1.83 0-3.165-.402-3.929-1.286a4.727 4.727 0 0 1-3.294 1.286c-2.637 0-2.731-2.28-2.731-2.28s-1.24 2.28-4.978 2.28c-3.061 0-3.714-2.413-3.714-2.413-1.53 1.356-3.826 2.413-6.975 2.413C2.66 21.613 0 18.461 0 13.62 0 8.453 4.47 0 11.473 0c3.758 0 5.684 2.21 5.684 4.679 0 2.271-1.784 4.753-4.763 4.753-1.577 0-2.01-.541-2.01-.92 0-.714 1.801-1.155 1.801-3.165 0-1.045-.662-1.79-1.586-1.79-2.576 0-6.014 5.185-6.014 9.37 0 3.39 1.548 5.2 4.546 5.2 1.805 0 4.352-1.33 5.002-3.239.99-2.912 3.337-8.1 9.799-8.1 3.238 0 4.37 1.827 4.37 2.658 0 .23-.177.627-.63.627-.449 0-1.093-.551-3-.551-4.394 0-6.31 3.565-6.31 6.145 0 1.51.554 2.239 1.471 2.239 1.864 0 2.143-1.654 2.886-4.055.411-1.329 1.37-2.353 2.893-2.353 1.51 0 1.5.665 1.498.771-.002.178-.077.411-.257.774-.533 1.076-.778 2.566-.778 3.229 0 .638.251 1.616 1.383 1.616 1.54 0 1.563-2.568 3.686-2.568.437 0 .63.361.63.628" fill="#0cd0cd" fill-rule="evenodd"/></svg>