<svg width="98" height="30" viewBox="0 0 98 30" fill="none" xmlns="http://www.w3.org/2000/svg">
<path fill-rule="evenodd" clip-rule="evenodd" d="M28.5846 7.53062L28.5846 7.53082L28.5849 7.53139L28.585 7.53163L28.5852 7.53216L28.5853 7.53258C28.6248 7.63237 28.6625 7.72792 28.6975 7.81924C28.9586 8.48396 29.0978 8.85131 29.1239 9.04373C29.1501 9.20991 29.0978 9.37609 28.9847 9.49854C28.8715 9.62974 28.6801 9.72595 28.4277 9.76968C28.4277 9.86589 28.4364 10.0233 28.4538 10.1195L28.4625 10.1283C28.5756 10.2245 28.6104 10.3819 28.5669 10.5219C28.5495 10.5743 28.5234 10.6356 28.4973 10.688C28.5408 10.7405 28.5582 10.8017 28.5495 10.8717C28.5495 10.8805 28.506 11.4227 28.2275 11.5977C28.2884 11.7988 28.2884 12.0262 28.2101 12.2274C28.1753 12.4023 28.036 12.5423 27.8532 12.6122C27.8184 12.6385 27.7836 12.656 27.7401 12.6647H27.7314C27.3398 12.6997 26.9481 12.7259 26.5564 12.7259H26.3215C26.8785 13.9067 27.1831 15.0087 27.2266 16.0933C27.331 18.481 26.304 20.965 23.5625 24.9446C21.7174 27.9534 18.4014 29.965 14.6241 29.9738C10.8817 29.9738 7.59179 27.9971 5.73797 25.0233L5.72927 25.0146C2.98771 21.0437 1.66479 18.7697 1.57776 16.5394C1.53424 15.3673 1.83886 14.1516 2.53513 12.8047C2.02163 12.2274 1.14259 11.3265 1.11648 11.3003L1.06426 11.2478L1.05556 11.1778C0.968525 10.7493 1.23833 10.3294 1.4298 10.0845C1.42545 10.0802 1.4211 10.078 1.41675 10.0758C1.4124 10.0736 1.40805 10.0714 1.40369 10.0671C0.907601 9.74344 0.141704 9.1312 0.0111533 8.3965C-0.101991 7.72303 0.663907 6.97085 1.48202 6.17493L1.53646 6.12136C1.94921 5.71535 2.40398 5.26799 2.58735 4.93294C2.65698 4.8105 2.7179 4.68805 2.77882 4.56561L2.77883 4.5656C3.2227 3.69096 3.7362 2.71137 5.22447 2.61516L5.24188 0.0262391L5.46817 0.0174927C5.47499 0.0174927 5.48834 0.016896 5.50807 0.0160142C5.56387 0.0135203 5.67069 0.00874636 5.82501 0.00874636C6.80849 0.00874636 10.2115 0.183674 12.4657 2.32653C13.8582 3.64723 14.5632 5.45773 14.5719 7.73178C14.7199 8.11662 14.8417 8.50146 14.9374 8.90379C15.1724 8.91254 15.3813 8.92128 15.5728 8.93878C15.477 8.59767 15.3465 7.98542 15.4422 7.15452L15.4683 6.94461L16.2255 6.93586L16.2778 6.19242L15.538 5.96501L15.5206 5.80758C15.4248 4.76676 15.7643 3.74344 16.4518 2.96501L16.5737 2.83382L17.2264 3.17493L17.6964 2.43149L17.0785 2.11662L17.1394 1.9242C17.6877 0.104956 19.2369 0 19.2543 0H19.3239L20.2204 0.516035C20.4031 0.421065 20.5493 0.353595 20.6359 0.313622C20.669 0.298375 20.6934 0.287129 20.7078 0.279883L20.8035 0.244898L24.7723 2.20408L24.7548 2.23907L24.7723 2.24781H24.7636H24.7548L24.7461 2.26531L26.9655 3.06997L26.9394 3.04373L27.2962 3.17493C27.4268 3.31487 28.1231 4.10204 28.7149 6.25364C28.7845 6.4898 28.6366 6.66472 28.5234 6.79592C28.4016 6.94461 28.3755 6.99708 28.4016 7.05831C28.4637 7.22487 28.5259 7.38213 28.5843 7.5301L28.5844 7.53032L28.5845 7.53039L28.5846 7.53062ZM27.2875 10.4956L28.1056 10.4694L28.1318 10.4169C28.0708 10.3557 28.036 10.277 28.0273 10.1983C28.0224 10.1343 28.0148 10.0536 28.0075 9.97666L28.0074 9.97631C28.0018 9.91665 27.9963 9.85921 27.9925 9.81341H27.9316H27.8707C27.8663 9.81341 27.8598 9.8156 27.8533 9.81778C27.8467 9.81997 27.8402 9.82216 27.8358 9.82216H27.8271L27.801 9.81341C27.6357 9.81341 27.479 9.76093 27.3572 9.65598C27.244 9.55102 27.1831 9.39359 27.1918 9.2449C27.1918 9.1137 27.2962 9.01749 27.4181 9.01749C27.5486 9.01749 27.6444 9.12245 27.6444 9.2449C27.6444 9.28216 27.6531 9.30179 27.6582 9.31316C27.6593 9.31565 27.6603 9.31773 27.6609 9.31953L27.6614 9.32117C27.6616 9.32206 27.6618 9.32287 27.6618 9.32362C27.6966 9.34985 27.7401 9.3586 27.7836 9.3586L27.7923 9.40233L27.801 9.3586V9.34985H27.8184H27.9403C28.3232 9.34985 28.5669 9.26239 28.6453 9.18367C28.6627 9.16618 28.6714 9.13994 28.6627 9.1137C28.6453 8.97376 28.4625 8.49271 28.2623 7.99417L28.2014 7.82799L28.1514 7.69683C28.0953 7.54968 28.0352 7.39223 27.9751 7.22449C27.8574 6.91193 28.0401 6.67281 28.1547 6.52287L28.1666 6.50729C28.2014 6.46356 28.2362 6.41983 28.271 6.36735C27.8097 4.68805 27.2875 3.89213 27.0699 3.62099C26.5216 4.29446 24.7984 6.32362 23.0142 7.84548C24.4763 9.67347 25.4337 11.0466 26.0865 12.2711C26.2344 12.2799 26.391 12.2799 26.5564 12.2799H26.5564C26.9133 12.2799 27.2788 12.2536 27.6357 12.2099V12.2012L27.6531 12.1924C27.7227 12.1837 27.7749 12.1399 27.801 12.0875C27.8445 11.9738 27.8533 11.8513 27.8184 11.7376C27.7401 11.6327 27.7575 11.4927 27.8533 11.309L27.9142 11.1866H28.0099C28.0447 11.1254 28.0621 11.0641 28.0795 10.9942C27.8707 10.9679 27.5051 10.9592 27.2092 10.9592C27.0351 10.9592 26.9046 10.8542 26.9046 10.723C26.9046 10.5918 27.0351 10.4869 27.2092 10.4869H27.2266C27.2353 10.4869 27.2462 10.4891 27.2571 10.4913L27.2571 10.4913C27.2679 10.4934 27.2788 10.4956 27.2875 10.4956ZM24.633 19.4519C24.633 19.7061 24.6167 19.9767 24.5998 20.2558L24.5982 20.2828H22.6834C22.7096 20.0029 22.727 19.7143 22.727 19.4344C22.727 19.2332 22.7183 19.0233 22.7009 18.7959H24.6156L24.619 18.8906L24.619 18.8908C24.6264 19.0959 24.633 19.2772 24.633 19.4519ZM4.64135 18.7959C4.62394 19.0408 4.61524 19.242 4.61524 19.4344C4.61524 19.7055 4.63265 19.9854 4.65876 20.2828H6.5735C6.54739 20.0029 6.52998 19.723 6.52998 19.4431C6.52998 19.2332 6.53868 19.0233 6.55609 18.7959H4.64135ZM16.3561 19.4344C16.3561 20.3965 15.5815 21.1749 14.6241 21.1749C13.6667 21.1749 12.8921 20.3965 12.8921 19.4344C12.8921 18.4723 13.6667 17.6939 14.6241 17.6939C15.5815 17.6939 16.3561 18.4723 16.3561 19.4344ZM14.833 17.2216C15.3204 17.2653 15.773 17.4665 16.1298 17.7988L19.9419 13.9679C18.5755 12.6122 16.7477 11.8338 14.833 11.7813V17.2216ZM14.3456 17.2303C13.8582 17.3003 13.4231 17.5189 13.0836 17.8426L9.25414 13.9942C10.6119 12.6385 12.4309 11.8426 14.3456 11.7726V17.2303ZM12.779 18.2187L8.92341 14.344C7.67883 15.7434 6.99126 17.5539 6.99126 19.4257V19.4431H12.4135V19.4344C12.4135 18.9883 12.544 18.5685 12.779 18.2187ZM12.4657 19.9329C12.5527 20.309 12.7442 20.6589 12.9966 20.9388L9.1671 24.7959C7.88771 23.4927 7.11311 21.7697 6.99996 19.9329H12.4657ZM14.3456 21.6385C13.9888 21.6035 13.658 21.4636 13.3621 21.2624L9.51524 25.1283C10.8469 26.3353 12.5527 27.0262 14.3456 27.0875V21.6385ZM14.8243 21.6385C15.1985 21.6035 15.538 21.481 15.8339 21.2886L19.6808 25.1545C18.3405 26.3528 16.6172 27.035 14.8243 27.0875V21.6385ZM16.7826 19.9329C16.6868 20.344 16.4866 20.7026 16.2081 20.9913L20.0289 24.8222C21.3257 23.519 22.109 21.7784 22.2309 19.9329H16.7826ZM16.8348 19.4344C16.8348 18.9796 16.6955 18.5335 16.4431 18.1662L20.2813 14.309C21.552 15.7085 22.2483 17.5452 22.2483 19.4344V19.4519H16.8348V19.4344ZM10.3856 12.516C11.108 12.07 11.9 11.7376 12.7181 11.5364V9.56851C11.3952 9.82216 10.1245 10.3644 9.00174 11.1254L10.3856 12.516ZM18.8975 12.5248C18.1838 12.0787 17.4005 11.7376 16.5737 11.5364V9.6035C17.8879 9.86589 19.1499 10.3907 20.2639 11.1603L18.8975 12.5248ZM8.3751 14.2915C8.68842 13.9067 9.03655 13.5481 9.4195 13.2245L8.06178 11.8601C7.68753 12.1924 7.3394 12.5423 7.01737 12.9271L8.3751 14.2915ZM7.67012 15.2624C7.23495 15.9883 6.92163 16.7755 6.73016 17.6064H4.78931C5.033 16.277 5.5465 15 6.29499 13.8805L7.67012 15.2624ZM21.5955 15.2886C22.022 16.0146 22.3353 16.793 22.5181 17.6064H24.4589C24.2152 16.2857 23.7104 15.0262 22.9707 13.9067L21.5955 15.2886ZM20.908 14.3003C20.5946 13.9155 20.2465 13.5569 19.8723 13.2332L21.2039 11.8863C21.5781 12.2187 21.9263 12.5685 22.2483 12.9534L20.908 14.3003ZM13.9104 11.3265C14.4065 11.2828 14.8939 11.2828 15.39 11.3265V9.43732C15.1115 9.39359 14.8591 9.37609 14.6241 9.37609C14.4065 9.37609 14.1715 9.37609 13.9104 9.40233V11.3265ZM6.78238 21.4723C6.99126 22.2682 7.31328 23.0379 7.74845 23.7376L6.37332 25.1195C5.61613 24.0175 5.08522 22.7755 4.82412 21.4723H6.78238ZM9.51524 25.7493C9.13229 25.4344 8.77545 25.0845 8.45343 24.7085L7.1044 26.0641C7.43513 26.4402 7.79197 26.7901 8.16622 27.1137L9.51524 25.7493ZM10.5074 26.4402C11.195 26.8513 11.9435 27.1574 12.7181 27.3411V29.309C11.43 29.0641 10.2028 28.5569 9.11488 27.8309L10.5074 26.4402ZM14.6241 27.5773C14.3891 27.5773 14.1454 27.5685 13.9017 27.5423V29.4665L13.9558 29.4701L13.9558 29.4701C14.1965 29.4863 14.4216 29.5015 14.6241 29.5015C14.8591 29.5015 15.1115 29.4927 15.39 29.4665V27.5335C15.1289 27.5598 14.8765 27.5773 14.6241 27.5773ZM16.5737 27.3324C17.3483 27.1399 18.0881 26.8338 18.7756 26.4227L20.1682 27.8222C19.0802 28.5481 17.8705 29.0554 16.5824 29.3178V27.3324H16.5737ZM20.8209 24.6822C20.4989 25.0671 20.1421 25.4169 19.7591 25.7318L21.1168 27.0962C21.4998 26.7726 21.8566 26.4227 22.1786 26.0466L20.8209 24.6822ZM21.5172 23.7026C21.9437 23.0117 22.2657 22.2595 22.4659 21.4723H24.4241C24.163 22.7668 23.6495 24 22.901 25.0933L21.5172 23.7026ZM15.9122 7.40816C15.8426 8.29154 16.0515 8.85131 16.1211 9.00875L16.4866 9.06122C16.3996 8.5102 16.3648 7.95918 16.3996 7.39942L15.9122 7.40816ZM19.2108 0.48105L19.7243 0.778426C19.2543 1.05831 18.6277 1.50437 18.1229 2.09038L17.6616 1.85423C18.0794 0.74344 18.9236 0.524781 19.2108 0.48105ZM19.4284 9.97085C20.1247 6.40233 23.2318 3.41983 24.2936 2.49271L23.2056 1.95044C19.0106 4.33819 18.6364 9.02624 18.7321 9.70846L19.4284 9.97085ZM17.3962 9.21936L17.3961 9.21932C17.2503 9.16504 17.1081 9.11211 16.974 9.06122C16.7303 7.88047 16.8696 5.29154 17.9836 3.13994C18.6973 1.76676 20.3858 0.944606 20.7861 0.769679L22.7009 1.69679C18.5145 4.25948 18.2621 8.83382 18.2447 9.54227C17.97 9.43299 17.6764 9.3237 17.3963 9.2194L17.3962 9.21939L17.3962 9.21938L17.3962 9.21937L17.3962 9.21936ZM15.9993 5.58892L16.5911 5.77259C16.7216 5.05539 16.9305 4.35569 17.2003 3.69096L16.6955 3.41983C16.2168 4.04082 15.9731 4.8105 15.9993 5.58892ZM4.94597 5.40525V6.26239H3.58824C4.02341 5.95627 4.47598 5.66764 4.94597 5.40525ZM5.83371 8.50146C5.93815 8.58892 5.95556 8.73761 5.86852 8.84257C1.23833 14.5714 0.968525 16.828 4.57172 22.4344C4.29321 21.481 4.13655 20.4752 4.13655 19.4344C4.13655 13.7055 8.75805 8.99125 14.4501 8.90379C14.1802 7.80175 13.6755 6.76968 12.9792 5.8688C12.6136 5.46647 12.2133 5.09038 11.7868 4.74927C11.7825 4.7449 11.7759 4.74052 11.7694 4.73615C11.7629 4.73178 11.7564 4.72741 11.752 4.72303C11.6302 4.67055 11.5779 4.53061 11.6302 4.40816C11.6824 4.28571 11.8216 4.23324 11.9435 4.28571C11.9478 4.29009 11.9522 4.29227 11.9565 4.29446C11.9609 4.29665 11.9652 4.29883 11.9696 4.30321L11.9783 4.28571L12.0305 4.31195C12.0653 4.32945 12.8051 4.76676 13.5623 5.79009C13.7364 6 13.893 6.21866 14.041 6.44606C13.8147 4.90671 13.1881 3.62974 12.1698 2.66764C9.97652 0.612245 6.61701 0.48105 5.72057 0.489796L5.70316 2.59767C5.85982 2.58892 6.07741 2.58017 6.33851 2.58017C7.06089 2.57143 7.78327 2.65015 8.49694 2.79009C8.62749 2.81633 8.71453 2.93878 8.68842 3.06997C8.66231 3.20117 8.54046 3.28863 8.40991 3.26239H8.3925C7.71364 3.12245 7.02607 3.06122 6.3298 3.06122C5.83371 3.06122 5.50298 3.08746 5.48558 3.09621H5.46817C4.0793 3.09621 3.66008 3.91404 3.21751 4.77741L3.214 4.78426L3.16178 4.88047C3.13566 4.92857 3.10955 4.97887 3.08344 5.02916C3.05733 5.07945 3.03122 5.12974 3.00511 5.17784C2.78881 5.57079 2.34984 6.00369 1.88584 6.46127L1.88584 6.46127L1.82146 6.52478L1.80545 6.54041C1.18157 7.14993 0.412174 7.9016 0.489839 8.32653C0.533356 8.55394 0.681313 8.80758 0.933711 9.06997C0.925008 8.92128 0.925008 8.76385 0.959821 8.60641C1.35067 6.66872 5.0352 4.81812 5.08496 4.79313L5.08522 4.793L5.42465 4.63557V6.43732C5.42465 6.44169 5.42248 6.44606 5.4203 6.45044C5.41812 6.45481 5.41595 6.45918 5.41595 6.46356C5.42465 6.4723 5.42465 6.48105 5.42465 6.49854C5.42465 6.63848 5.32021 6.74344 5.18096 6.74344H2.94419C2.04774 7.46064 1.54295 8.12536 1.4298 8.69388C1.35147 9.06122 1.44721 9.39359 1.71701 9.69096L1.6822 9.75219L1.72572 9.70846C1.74312 9.73469 1.76053 9.76093 1.76924 9.78717H1.77794H3.25751C3.38806 9.78717 3.50121 9.89213 3.50121 10.0321C3.50121 10.172 3.38806 10.277 3.24881 10.277H1.91719C1.73442 10.4781 1.51684 10.7843 1.53424 11.0292C1.99042 11.5029 2.3669 11.9032 2.65787 12.2125L2.77883 12.3411C2.78493 12.3227 2.79532 12.3086 2.80699 12.2928C2.81195 12.286 2.81715 12.279 2.82234 12.2711L2.82238 12.2711C2.93551 12.0874 3.04864 11.9038 3.16178 11.7114C3.72749 10.8105 4.46728 9.80466 5.49428 8.53644C5.58131 8.44023 5.72927 8.42274 5.83371 8.50146ZM25.1117 19.4344C25.0943 15.6385 23.0577 12.1662 19.8461 10.2945C19.8897 10.0496 19.9419 9.80466 20.0115 9.55977C20.6904 9.49854 21.5694 9.00875 22.6486 8.14286C25.103 11.1953 26.6522 13.6006 26.7653 16.1283C26.8437 17.9038 26.2257 19.7668 24.72 22.2945C24.9724 21.3848 25.1117 20.4315 25.1117 19.4344ZM24.7897 2.69388C24.2065 3.19242 21.2474 5.80758 20.1595 9.05248C22.2048 8.58892 25.895 4.25948 26.6609 3.33236L24.8245 2.66764L24.7897 2.69388Z" fill="#1B1C2A"/>
<path fill-rule="evenodd" clip-rule="evenodd" d="M27.3223 7.46939C27.331 7.51312 27.3223 7.55685 27.3049 7.59184C27.2788 7.63557 27.244 7.66181 27.2005 7.67056C26.9394 7.75802 26.6609 7.80175 26.3824 7.80175C26.0865 7.80175 25.8515 7.73178 25.6861 7.60059C25.5381 7.47814 25.4424 7.29446 25.4424 7.10204V7.01458L25.512 6.9621C25.9124 6.69097 26.2953 6.55102 26.6609 6.55102C26.8611 6.55102 27.0699 6.59476 27.244 6.69097L27.4964 6.31487C27.3571 6.19242 27.1483 6.12245 26.8785 6.12245C26.2518 6.12245 25.4598 6.45481 25.0856 6.64723C25.0595 6.65598 25.0333 6.66473 25.0072 6.66473C24.9463 6.66473 24.8854 6.62974 24.8506 6.56852C24.8245 6.52478 24.8245 6.48105 24.8419 6.43732C24.8593 6.39359 24.8854 6.3586 24.9289 6.33237C24.9724 6.30613 26.0081 5.7726 26.8785 5.7726C27.3223 5.7726 27.6531 5.91254 27.8532 6.19242L27.9229 6.28863L27.331 7.19825L27.1831 7.05831C27.0351 6.94461 26.8524 6.89213 26.6696 6.90088C26.365 6.91837 26.0603 7.01458 25.8079 7.18951C25.8254 7.24199 25.8689 7.29446 25.9124 7.32945C26.1126 7.48688 26.5303 7.49563 27.1135 7.3382C27.2092 7.31196 27.3049 7.37318 27.3223 7.46939ZM27.1309 6.67347C26.9829 6.61225 26.8175 6.57726 26.6522 6.57726C26.304 6.57726 25.9298 6.70846 25.5468 6.97085V6.9796C26.2953 6.47231 26.8349 6.55102 27.1309 6.67347Z" fill="#1B1C2A"/>
<path d="M35.0683 8.43149C35.8865 8.43149 36.5392 8.25656 37.0179 7.89796C37.4966 7.53936 37.836 6.99709 38.0188 6.26239L37.0875 6.2449C36.9483 6.77843 36.7307 7.18076 36.4348 7.44315C36.1389 7.70554 35.7559 7.83674 35.2859 7.83674C34.5897 7.83674 34.0762 7.58309 33.7367 7.0758C33.3973 6.56851 33.2319 5.79009 33.2319 4.73178C33.2319 3.67347 33.406 2.8863 33.7367 2.37901C34.0675 1.87172 34.581 1.61808 35.2685 1.61808C35.7994 1.61808 36.2346 1.76676 36.5566 2.06414C36.8786 2.36152 37.1049 2.80758 37.2268 3.40233H37.8273V1.65306C37.3573 1.46064 36.8786 1.30321 36.3826 1.18951C35.9474 1.0933 35.5122 1.04082 35.0683 1.04082C33.876 1.04082 32.936 1.37318 32.2397 2.0379C31.5435 2.70262 31.1953 3.6035 31.1953 4.74053C31.1953 5.87755 31.5435 6.76968 32.2397 7.4344C32.9273 8.09913 33.876 8.43149 35.0683 8.43149Z" fill="#1B1C2A"/>
<path d="M35.5209 15.8834H36.3739V17.8426C36.1824 17.965 35.9735 18.0525 35.7559 18.105C35.5122 18.1749 35.2685 18.2012 35.0161 18.2012C34.3199 18.2012 33.8151 17.9475 33.4843 17.449C33.1536 16.9504 32.9882 16.172 32.9882 15.0962C32.9882 14.0204 33.1536 13.2332 33.5017 12.7347C33.8499 12.2361 34.3895 11.9825 35.1206 11.9825C35.7211 11.9825 36.1911 12.1224 36.5218 12.4023C36.8613 12.6822 37.0962 13.137 37.2355 13.7668L37.8273 13.758V12.0087C37.3486 11.8076 36.8525 11.6501 36.3478 11.5452C35.8604 11.449 35.3643 11.3965 34.8595 11.3965C33.641 11.3965 32.6923 11.7289 31.9961 12.3848C31.2998 13.0408 31.1779 13.9417 31.1779 15.0875C31.1779 16.2332 31.2998 17.1341 31.9961 17.7901C32.6923 18.4461 33.641 18.7784 34.8595 18.7784C35.3991 18.7784 35.9474 18.7172 36.4783 18.5948C37.0266 18.4723 37.5575 18.2886 38.071 18.0437V15.3149H35.5209V15.8834Z" fill="#1B1C2A"/>
<path d="M63.9897 15.9184L61.9705 11.3528H59.2376V11.93H59.9513V17.8863H59.2376V18.4636H61.3264V17.8863H60.6127V12.4636L62.7973 17.4227H63.9984L66.1916 12.4636V17.8863H65.4779V18.4636H68.7504V17.8863H68.028V11.93H68.7504V11.3528H66.0175L63.9897 15.9184Z" fill="#1B1C2A"/>
<path fill-rule="evenodd" clip-rule="evenodd" d="M43.0232 3.17493C43.4497 3.52478 43.6673 4.0758 43.6673 4.81924V7.4519H44.2156V8.04665H41.9266V7.38193C41.7177 7.64432 41.4566 7.84548 41.1607 7.99417C40.8561 8.13411 40.5254 8.19534 40.1946 8.19534C39.6637 8.19534 39.2547 8.04665 38.9675 7.75802C38.6802 7.46939 38.541 7.05831 38.541 6.51604C38.541 5.93003 38.7499 5.48397 39.1589 5.19534C39.568 4.89796 40.1859 4.75802 41.0214 4.75802H41.9353V4.4519C41.9353 4.02332 41.8309 3.7172 41.6307 3.50729C41.4305 3.29738 41.1172 3.20117 40.6994 3.20117C40.3513 3.20117 40.0815 3.27114 39.8987 3.41983C39.7159 3.56851 39.5767 3.79592 39.4984 4.11953H38.9413V2.99125C39.2547 2.87755 39.5767 2.79009 39.9074 2.73761C40.2555 2.67639 40.6124 2.65015 40.9692 2.65015C41.9005 2.65015 42.5881 2.82507 43.0232 3.17493ZM41.6829 7.10204C41.8483 6.90962 41.9353 6.65598 41.9266 6.39359V5.34402H41.2738C40.9518 5.34402 40.6994 5.43149 40.5254 5.60641C40.3513 5.78134 40.2643 6.04373 40.2643 6.37609C40.2643 6.70846 40.3252 6.95335 40.4557 7.11953C40.5863 7.28572 40.7778 7.36443 41.0302 7.36443C41.2738 7.37318 41.5088 7.27697 41.6829 7.10204Z" fill="#1B1C2A"/>
<path d="M46.5655 5.94752L47.2792 6.1312C47.6273 6.20991 47.8536 6.31487 47.9755 6.42857C48.106 6.55977 48.1669 6.73469 48.1582 6.91837C48.1669 7.13703 48.0625 7.33819 47.8797 7.4519C47.697 7.57434 47.4272 7.63557 47.0703 7.63557C46.6526 7.63557 46.3131 7.53061 46.0694 7.32945C45.8257 7.11953 45.6778 6.82216 45.6343 6.42857H45.0772V7.89796C45.4602 7.99417 45.8431 8.06414 46.2087 8.11662C46.5568 8.16035 46.8963 8.18659 47.2444 8.18659C48.1321 8.18659 48.7849 8.04665 49.2113 7.76676C49.6378 7.48688 49.8467 7.04956 49.8467 6.45481C49.8467 5.99125 49.7161 5.63265 49.455 5.37901C49.1939 5.12537 48.724 4.90671 48.0364 4.73178L47.3227 4.54811C47.0529 4.47813 46.8614 4.39067 46.757 4.28571C46.6439 4.17201 46.5916 4.02332 46.6003 3.86589C46.5916 3.66472 46.6961 3.4723 46.8701 3.36735C47.0442 3.25365 47.3227 3.20117 47.6709 3.20117C48.0886 3.20117 48.4106 3.28863 48.6369 3.4723C48.8632 3.65598 48.9938 3.92711 49.0199 4.28571H49.5769V2.96502C49.1939 2.86881 48.811 2.79009 48.4193 2.72886C48.0973 2.67639 47.7666 2.65015 47.4359 2.65015C46.6177 2.65015 46.0085 2.79009 45.6169 3.06997C45.2252 3.34985 45.025 3.77843 45.025 4.34694C45.025 4.77551 45.1469 5.12537 45.3906 5.37026C45.6343 5.61516 46.0259 5.80758 46.5655 5.94752Z" fill="#1B1C2A"/>
<path d="M51.9616 2.06414C52.3271 2.06414 52.6231 1.76676 52.6231 1.39942C52.6318 1.21574 52.5621 1.04082 52.4316 0.909621C52.3097 0.787172 52.1357 0.717201 51.9616 0.717201C51.9529 0.717201 51.9442 0.717201 51.9355 0.717201C51.5699 0.725948 51.274 1.03207 51.2827 1.39942C51.274 1.57434 51.3524 1.74927 51.4829 1.87172C51.6048 1.99417 51.7788 2.06414 51.9616 2.06414Z" fill="#1B1C2A"/>
<path d="M53.3715 7.45189H52.8232V2.63265H50.5429V3.2274H51.0825V7.45189H50.5429V8.04665H53.3715V7.45189Z" fill="#1B1C2A"/>
<path d="M57.8973 7.45189V8.04665H60.6215V7.44315H60.0732V4.70554C60.0732 4.03207 59.9165 3.52478 59.6206 3.17493C59.3247 2.82507 58.8808 2.65014 58.289 2.65014C57.9408 2.6414 57.584 2.71137 57.2707 2.86006C56.9748 3.01749 56.7311 3.25364 56.5483 3.53353V2.63265H54.268V3.2274H54.8076V7.45189H54.268V8.05539L56.9835 8.04665V7.45189H56.5483V5.09038C56.5483 4.53061 56.6266 4.11079 56.792 3.85714C56.9573 3.6035 57.2184 3.4723 57.5666 3.4723C57.8538 3.4723 58.0453 3.55977 58.1584 3.73469C58.2716 3.90962 58.3325 4.21574 58.3325 4.66181V7.45189H57.8973Z" fill="#1B1C2A"/>
<path fill-rule="evenodd" clip-rule="evenodd" d="M64.1289 8.19533C63.2064 8.19533 62.484 7.95043 61.9618 7.46064C61.4396 6.97084 61.1785 6.28863 61.1785 5.43148C61.1785 4.5656 61.4396 3.88338 61.9618 3.39358C62.484 2.90379 63.2064 2.65889 64.1289 2.65889C65.0515 2.65889 65.7738 2.90379 66.2961 3.39358C66.8183 3.88338 67.0794 4.5656 67.0794 5.43148C67.0794 6.29737 66.8183 6.97084 66.2961 7.46064C65.7738 7.95043 65.0515 8.19533 64.1289 8.19533ZM64.1289 3.20991C63.7634 3.20991 63.4936 3.36734 63.3456 3.69096C63.1976 4.01457 63.1193 4.58309 63.1193 5.42274C63.1193 6.26239 63.1976 6.83965 63.3456 7.15452C63.4936 7.46939 63.7634 7.63557 64.1289 7.63557C64.4945 7.63557 64.7556 7.47813 64.9035 7.16326C65.0515 6.84839 65.1298 6.27113 65.1298 5.42274C65.1298 4.57434 65.0515 3.99708 64.9035 3.68221C64.7556 3.36734 64.4945 3.20991 64.1289 3.20991Z" fill="#1B1C2A"/>
<path fill-rule="evenodd" clip-rule="evenodd" d="M48.8023 13.3994C49.2375 13.7493 49.455 14.484 49.455 15.2274V17.8601H50.0033V18.4548H47.7144V17.7901C47.5055 18.0525 47.2444 18.2624 46.9485 18.4023C46.6438 18.5423 46.3131 18.6035 45.9824 18.5948C45.4428 18.5948 45.0337 18.4548 44.7465 18.1662C44.4593 17.8775 44.3113 17.4665 44.3113 16.9242C44.3113 16.3382 44.5202 15.8921 44.9293 15.6035C45.3383 15.3061 45.965 15.1662 46.7918 15.1662H47.7057V14.8513C47.7057 14.4227 47.6012 13.9329 47.401 13.7318C47.2009 13.5306 46.8962 13.4257 46.4698 13.4257C46.1216 13.4257 45.8518 13.4956 45.6691 13.6443C45.4776 13.7843 45.347 14.0204 45.2687 14.344H44.7117V13.2157C45.025 13.102 45.3557 13.0146 45.6865 12.9621C46.0346 12.9009 46.3914 12.8746 46.7483 12.8746C47.6795 12.8746 48.3671 13.0496 48.8023 13.3994ZM47.4707 17.5015C47.636 17.3178 47.7231 17.0641 47.7144 16.8017V15.7522H47.0616C46.7396 15.7522 46.4872 15.8396 46.3131 16.0146C46.139 16.1895 46.052 16.4519 46.052 16.7843C46.052 17.1166 46.1129 17.3703 46.2435 17.5277C46.374 17.6851 46.5655 17.7726 46.8179 17.7726C47.0616 17.7813 47.2966 17.6851 47.4707 17.5015Z" fill="#1B1C2A"/>
<path fill-rule="evenodd" clip-rule="evenodd" d="M73.9985 13.3994C74.4424 13.7493 74.66 14.484 74.66 15.2274V17.8601H75.1996V18.4548H72.9106V17.7901C72.7017 18.0525 72.4406 18.2624 72.1447 18.4023C71.8401 18.5423 71.5094 18.6035 71.1786 18.5948C70.6477 18.5948 70.23 18.4548 69.9428 18.1662C69.6556 17.8775 69.5076 17.4665 69.5076 16.9242C69.5076 16.3382 69.7165 15.8921 70.1255 15.6035C70.5346 15.3061 71.1612 15.1662 71.9881 15.1662H72.9019V14.8513C72.9019 14.4227 72.8062 13.9329 72.606 13.7318C72.4058 13.5306 72.1012 13.4257 71.6747 13.4257C71.3266 13.4257 71.0568 13.4956 70.874 13.6443C70.6913 13.793 70.552 14.0204 70.4737 14.344H69.9167V13.2157C70.23 13.102 70.552 13.0146 70.8827 12.9621C71.2309 12.9009 71.5877 12.8746 71.9445 12.8746C72.8758 12.8746 73.5634 13.0496 73.9985 13.3994ZM72.6843 17.5015C72.841 17.3178 72.928 17.0641 72.9193 16.8017V15.7522H72.2666C71.9445 15.7522 71.6921 15.8396 71.5181 16.0146C71.344 16.1895 71.257 16.4519 71.257 16.7843C71.257 17.1166 71.3179 17.3703 71.4485 17.5277C71.579 17.6851 71.7705 17.7726 72.0316 17.7726C72.2753 17.7813 72.5103 17.6851 72.6843 17.5015Z" fill="#1B1C2A"/>
<path d="M56.6701 15.1137C56.6701 14.4402 56.5222 13.9329 56.2176 13.5831C55.9129 13.2332 55.4691 13.0583 54.8859 13.0583C54.5378 13.0496 54.1897 13.1195 53.8676 13.2682C53.5804 13.4344 53.3367 13.6706 53.154 13.9504V13.0408H50.8737V13.6356H51.4133V17.8601H50.8737V18.4548H53.5804V17.8601H53.1453V15.4985C53.1453 14.9388 53.2236 14.519 53.389 14.2653C53.5543 14.0117 53.8154 13.8805 54.1636 13.8805C54.4508 13.8805 54.6422 13.9679 54.7554 14.1429C54.8685 14.3178 54.9295 14.6239 54.9295 15.07V17.8601H54.4943V18.4548H57.2184V17.8601H56.6701V15.1137V15.1137Z" fill="#1B1C2A"/>
<path fill-rule="evenodd" clip-rule="evenodd" d="M79.1596 10.7755H81.4486V17.8601H81.9882V18.4548H79.708V17.7901C79.5774 18.0525 79.3685 18.2624 79.1074 18.4023C78.8202 18.5423 78.4982 18.6122 78.1762 18.6035C77.4364 18.6035 76.8533 18.3586 76.4268 17.8601C76.0003 17.3703 75.7914 16.688 75.7914 15.8309C75.7914 14.9738 76.0003 14.2915 76.4268 13.8018C76.8533 13.312 77.4364 13.0671 78.1762 13.0671C78.4982 13.0583 78.8115 13.1283 79.1074 13.2682C79.3598 13.4082 79.5687 13.6181 79.708 13.8805V11.3703H79.1596V10.7755ZM79.4817 17.4227C79.6383 17.1516 79.708 16.7055 79.708 16.0933V15.5685C79.708 14.9563 79.6296 14.5102 79.473 14.2391C79.3163 13.9679 79.0639 13.828 78.7245 13.828C78.3589 13.828 78.1152 13.9767 77.9673 14.2653C77.8193 14.5539 77.7497 15.0787 77.7497 15.8309C77.7497 16.5831 77.8193 17.1079 77.976 17.3965C78.1327 17.6851 78.3763 17.8338 78.7332 17.8338C79.0813 17.8338 79.325 17.6939 79.4817 17.4227Z" fill="#1B1C2A"/>
<path d="M86.8621 12.8921C86.5053 12.8746 86.1485 12.9708 85.8351 13.1545C85.5305 13.3557 85.2955 13.6356 85.1563 13.9679V13.0321H82.8238V13.6356H83.4156V17.8601H82.876V18.4548H85.9048V17.8601H85.1563V15.7872C85.1563 15.1924 85.2694 14.5539 85.487 14.2216C85.6698 13.898 86.0179 13.7055 86.3834 13.7143C86.601 13.7055 86.8012 13.7755 86.9579 13.9242C87.0884 14.0554 87.1667 14.2653 87.1842 14.5452H87.7412V12.9796C87.5497 12.9533 87.3669 12.9184 87.2277 12.9096C87.0884 12.9009 86.9666 12.8921 86.8621 12.8921Z" fill="#1B1C2A"/>
<path fill-rule="evenodd" clip-rule="evenodd" d="M97.3236 10.7755V17.8601H97.8632V18.4548H95.5829V17.7901C95.4523 18.0525 95.2435 18.2624 94.9824 18.4023C94.6952 18.5423 94.3731 18.6122 94.0511 18.6035C93.3113 18.6035 92.7282 18.3586 92.3017 17.8601C91.8753 17.3615 91.6664 16.688 91.6664 15.8309C91.6664 14.9738 91.8753 14.2915 92.3017 13.8018C92.7282 13.312 93.3113 13.0671 94.0511 13.0671C94.3731 13.0583 94.6865 13.1283 94.9824 13.2682C95.2348 13.4082 95.4436 13.6181 95.5829 13.8805V11.3703H95.0346V10.7755H97.3236ZM95.3566 17.4227C95.5046 17.1429 95.5829 16.7055 95.5829 16.0846V15.5685C95.5829 14.9563 95.5046 14.5102 95.3479 14.2391C95.1912 13.9679 94.9389 13.828 94.5907 13.828C94.2339 13.828 93.9728 13.9767 93.8335 14.2653C93.6856 14.5539 93.6159 15.0787 93.6159 15.8309C93.6159 16.5831 93.6856 17.1079 93.8422 17.3965C93.9902 17.6851 94.2426 17.8338 94.5994 17.8338C94.9389 17.8338 95.1912 17.6939 95.3566 17.4227Z" fill="#1B1C2A"/>
<path d="M90.7003 13.0408H88.42V13.6356H88.9596V17.8601H88.42V18.4548H91.2486V17.8601H90.7003V13.0408Z" fill="#1B1C2A"/>
<path d="M89.8126 12.2536C89.9866 12.2624 90.1607 12.1924 90.2826 12.0612C90.5437 11.7901 90.5437 11.3615 90.2826 11.0991C90.1607 10.9767 89.9866 10.9067 89.8126 10.9067C89.6385 10.898 89.4644 10.9679 89.3339 11.0991C89.2033 11.2216 89.1337 11.3965 89.1337 11.5802C89.125 11.7551 89.2033 11.93 89.3339 12.0612C89.4557 12.1837 89.6298 12.2536 89.8126 12.2536Z" fill="#1B1C2A"/>
<path d="M43.0667 12.8921C42.7099 12.8834 42.3531 12.9708 42.0397 13.1545C41.7351 13.3557 41.5001 13.6356 41.3609 13.9679V13.0321H39.0284V13.6443H39.6202V17.8688H39.0806V18.4636H42.1181V17.8688H41.3696V15.7959C41.3696 15.2012 41.4827 14.5627 41.7003 14.2303C41.8831 13.9067 42.2312 13.7143 42.5968 13.723C42.8056 13.7055 43.0058 13.7755 43.1625 13.9242C43.293 14.0554 43.3714 14.2653 43.3888 14.5452H43.9458V12.9796C43.7543 12.9533 43.5889 12.9184 43.441 12.9096C43.293 12.9009 43.1712 12.8921 43.0667 12.8921Z" fill="#1B1C2A"/>
<path fill-rule="evenodd" clip-rule="evenodd" d="M32.2311 22.7318C32.9273 22.0583 33.8934 21.726 35.1119 21.726C36.339 21.726 37.2964 22.0671 37.9927 22.7318C38.689 23.3965 39.0371 24.3149 39.0371 25.4956C39.0371 26.6676 38.689 27.586 37.9927 28.2507C37.2877 28.9155 36.3303 29.2478 35.1119 29.2478C33.8847 29.2478 32.9273 28.9155 32.2311 28.2507C31.5348 27.586 31.1866 26.6676 31.1866 25.4956C31.1866 24.3236 31.5348 23.3965 32.2311 22.7318ZM35.1119 28.6618C35.7298 28.6618 36.1911 28.4082 36.4957 27.8834C36.8003 27.3674 36.9483 26.5714 36.9483 25.4956C36.9483 24.4198 36.8003 23.6239 36.4957 23.0991C36.1911 22.5831 35.7298 22.3207 35.1119 22.3207C34.4939 22.3207 34.0326 22.5831 33.728 23.1079C33.4234 23.6327 33.2755 24.4373 33.2755 25.4956C33.2755 26.5539 33.4234 27.3499 33.728 27.8746C34.0326 28.3994 34.4939 28.6618 35.1119 28.6618Z" fill="#E0005F"/>
<path d="M45.7474 25.828C45.7474 25.1633 45.5994 24.6647 45.3035 24.3236C45.0076 23.9825 44.5637 23.8076 43.9893 23.8076C43.6412 23.7988 43.293 23.8688 42.9797 24.0088C42.6925 24.1662 42.4488 24.3936 42.266 24.6735V23.9475H39.803V24.5335H40.5428V28.5219H39.803V29.1079H42.8927V28.5219H42.2573V26.2041C42.2573 25.6531 42.3357 25.242 42.501 24.9883C42.6664 24.7347 42.9188 24.6035 43.2669 24.6035C43.5454 24.6035 43.7369 24.691 43.85 24.8571C43.9632 25.0233 44.0154 25.3295 44.0154 25.7668V28.5131H43.3888V29.0991H46.4872V28.5131H45.7474V25.828V25.828Z" fill="#E0005F"/>
<path d="M49.5159 21.551H47.0616V22.137H47.7927V28.5219H47.0616V29.1166H50.2644V28.5219H49.5159V21.551Z" fill="#E0005F"/>
<path d="M53.3106 23.9475H50.8476V24.5335H51.5874V28.5219H50.8476V29.1166H54.0504V28.5219H53.3106V23.9475Z" fill="#E0005F"/>
<path d="M52.362 23.4053C52.6057 23.4053 52.8494 23.309 53.0147 23.1341C53.1888 22.9679 53.2932 22.723 53.2845 22.4781C53.2845 21.9709 52.8842 21.551 52.3707 21.5423C52.362 21.5423 52.362 21.5423 52.3533 21.5423C52.1009 21.5335 51.8659 21.6297 51.6831 21.8134C51.5003 21.9883 51.4046 22.2245 51.4133 22.4781C51.4046 22.723 51.509 22.9679 51.6831 23.1341C51.8746 23.3178 52.1183 23.414 52.362 23.4053Z" fill="#E0005F"/>
<path d="M60.5867 25.828C60.5867 25.1633 60.4387 24.6647 60.1428 24.3236C59.8469 23.9825 59.403 23.8076 58.8199 23.8076C58.4717 23.7988 58.1236 23.8688 57.8103 24.0088C57.5231 24.1662 57.2794 24.3936 57.0966 24.6735V23.9475H54.6335V24.5335H55.3733V28.5219H54.6335V29.1079H57.7232V28.5219H57.0966V26.2041C57.0966 25.6531 57.1749 25.242 57.3403 24.9883C57.5057 24.7347 57.7581 24.6035 58.1062 24.6035C58.3847 24.6035 58.5762 24.691 58.6893 24.8571C58.8025 25.0233 58.8547 25.3295 58.8547 25.7668V28.5131H58.228V29.0991H61.3177V28.5131H60.578L60.5867 25.828Z" fill="#E0005F"/>
<path fill-rule="evenodd" clip-rule="evenodd" d="M65.1646 28.7055C65.5389 28.7055 65.8348 28.6093 66.0698 28.4082C66.3048 28.207 66.4527 27.9271 66.4962 27.5598H67.3056C67.1751 28.137 66.8879 28.5744 66.4788 28.8455C66.0698 29.1166 65.4866 29.2566 64.7382 29.2566C63.8417 29.2566 63.1454 29.0204 62.6755 28.5481C62.2055 28.0758 61.9618 27.4023 61.9618 26.5277C61.9618 25.6706 62.2142 25.0058 62.7016 24.5248C63.189 24.0437 63.8765 23.8076 64.7469 23.8076C65.6085 23.8076 66.2612 24.0525 66.7225 24.5598C67.1838 25.0671 67.4275 25.8018 67.4536 26.7726H63.8852V26.8163C63.8852 27.4811 63.9897 27.9621 64.1898 28.2595C64.39 28.5569 64.712 28.7055 65.1646 28.7055ZM64.0767 24.7609C63.9461 25.0233 63.8852 25.4781 63.8852 26.1079V26.2041H65.5476C65.5476 25.5219 65.4866 25.0408 65.3561 24.7697C65.2865 24.621 65.1733 24.4985 65.0254 24.4286C64.6685 24.2537 64.2508 24.4023 64.0767 24.7609Z" fill="#E0005F"/>
</svg>
