<svg id="Capa_9" data-name="Capa 9" xmlns="http://www.w3.org/2000/svg" xmlns:xlink="http://www.w3.org/1999/xlink" viewBox="0 0 647.26 177.7"><defs><style>.cls-1{fill:#fff;}.cls-2{fill:#f1940a;}.cls-3{fill:url(#linear-gradient);}.cls-4{fill:url(#linear-gradient-2);}.cls-5{fill:url(#linear-gradient-3);}</style><linearGradient id="linear-gradient" x1="-881.94" y1="482.6" x2="-705.81" y2="482.6" gradientUnits="userSpaceOnUse"><stop offset="0" stop-color="#ffc700"/><stop offset="1" stop-color="#ab3800"/></linearGradient><linearGradient id="linear-gradient-2" x1="-831.99" y1="445.74" x2="-762" y2="445.74" gradientUnits="userSpaceOnUse"><stop offset="0.18" stop-color="#ab3800"/><stop offset="1" stop-color="#ffc700"/></linearGradient><linearGradient id="linear-gradient-3" x1="-825.71" y1="534.75" x2="-703.77" y2="534.75" xlink:href="#linear-gradient-2"/></defs><title>ebingoLogo</title><path class="cls-1" d="M-595.64,533.7a30.63,30.63,0,0,1-9.47-1.22,13.94,13.94,0,0,1-5.8-3.47,12.18,12.18,0,0,1-3-5.52,30.79,30.79,0,0,1-.84-7.59c0-1.87.09-4.53.28-8s.53-8.18,1-14.24,1.09-13.73,1.78-23,1.53-20.82,2.53-34.56c.12-2.74.43-4.37.93-4.87s1.38-.56,3-.56h7.31a32.94,32.94,0,0,1,9.46,1.12,13.31,13.31,0,0,1,5.8,3.37,12.17,12.17,0,0,1,3,5.44,27.85,27.85,0,0,1,.84,7.11q0,2.82-.37,8.43t-1,15.27q-.66,9.64-1.78,24T-584.78,530a5,5,0,0,1-.94,3q-.75.75-3.18.75Z" transform="translate(881.94 -392.52)"/><path class="cls-1" d="M-498.43,517.21c0-2.74.22-6.34.66-10.77s.87-9.11,1.31-14.05.87-9.71,1.31-14.33.66-8.49.66-11.61a16.39,16.39,0,0,0-2.34-8.71c-1.57-2.56-4.59-3.84-9.09-3.84a17.79,17.79,0,0,0-10.86,3.18q-4.32,3.19-7.22,11.61t-4.77,23.23q-1.87,14.81-3.56,38a5,5,0,0,1-.94,3q-.75.75-3.18.75h-6.75a30.61,30.61,0,0,1-9.46-1.22,13.94,13.94,0,0,1-5.8-3.47,12.18,12.18,0,0,1-3-5.52,30.79,30.79,0,0,1-.84-7.59c0-1.87.09-4.53.28-8s.53-8.18,1-14.24,1.09-13.73,1.78-23,1.52-20.82,2.53-34.56c.12-2.74.43-4.37.93-4.87s1.38-.56,3-.56h7.31a28,28,0,0,1,9.27,1.31,16.48,16.48,0,0,1,5.9,3.46,12,12,0,0,1,3.18,5.06,24.13,24.13,0,0,1,1.13,5.9q5.81-9.91,13.3-13.76t18.73-3.85a49.45,49.45,0,0,1,13.67,1.69,21.22,21.22,0,0,1,9.65,5.71,25.07,25.07,0,0,1,5.72,10.49,58.79,58.79,0,0,1,1.87,16q0,3-.38,8.62c-.25,3.74-.56,7.84-.93,12.27s-.79,9.05-1.22,13.86-.84,9.27-1.22,13.39-.69,7.75-.93,10.87-.38,5.18-.38,6.18c0,2.75-.31,4.4-.94,5s-2,.85-4.12.85h-6a34.64,34.64,0,0,1-9.74-1.13,13.58,13.58,0,0,1-5.81-3.18,11.39,11.39,0,0,1-2.9-5.15A26.45,26.45,0,0,1-498.43,517.21Z" transform="translate(881.94 -392.52)"/><path class="cls-1" d="M-385.1,511.59q-4.68,8.43-11.43,12.46t-16.85,4a39.06,39.06,0,0,1-14.05-2.44A26.59,26.59,0,0,1-438.3,518a37.22,37.22,0,0,1-7-13.21,63,63,0,0,1-2.53-19,103.5,103.5,0,0,1,1.87-19,56.54,56.54,0,0,1,6.84-18.45,41.43,41.43,0,0,1,13.58-14q8.61-5.52,22.1-5.53a33.67,33.67,0,0,1,9.65,1.22,24.19,24.19,0,0,1,6.93,3.28,17.29,17.29,0,0,1,4.68,4.87,23.21,23.21,0,0,1,2.72,6c0,.12,0-.35.1-1.41s.15-2.28.28-3.65.21-2.72.28-4,.09-2.15.09-2.53c.12-1.24.94-1.87,2.43-1.87h8.62q9.74,0,14.15,4t4.4,15.26c0,1-.07,3.28-.19,6.84s-.35,7.84-.66,12.83-.72,10.52-1.21,16.58-1.06,12.15-1.69,18.26-1.31,12-2.06,17.61-1.56,10.56-2.43,14.8a46.34,46.34,0,0,1-4.5,12.36,34.56,34.56,0,0,1-9,10.68,44.4,44.4,0,0,1-14.89,7.49q-9.09,2.82-22.2,2.81a71.07,71.07,0,0,1-17.33-1.87,42.34,42.34,0,0,1-12.27-5,23.67,23.67,0,0,1-7.4-7,14.49,14.49,0,0,1-2.53-7.87,12.25,12.25,0,0,1,1.5-6.18A13.11,13.11,0,0,1-442,538a18.44,18.44,0,0,1,5.34-2.52,19.6,19.6,0,0,1,5.53-.85,5.64,5.64,0,0,1,4.68,1.88l3.37,4.21a17.51,17.51,0,0,0,5.25,4.22q3.38,1.86,10.49,1.87,12.36,0,17.33-9.09T-385.1,511.59Zm-15.73-8.43q6.74,0,10.58-3.18a21.6,21.6,0,0,0,5.9-7.68,30.82,30.82,0,0,0,2.62-9.37,73.71,73.71,0,0,0,.57-8.43q0-11.24-3.47-16t-10.4-4.78q-6.93,0-10.86,3.75a23.85,23.85,0,0,0-5.9,8.89,41.31,41.31,0,0,0-2.53,10.31,76.86,76.86,0,0,0-.56,8q0,9.36,3.18,13.95T-400.83,503.16Z" transform="translate(881.94 -392.52)"/><path class="cls-1" d="M-290.69,535.57q-12.93,0-21.45-3.65a34.08,34.08,0,0,1-13.58-10A38,38,0,0,1-332.84,507a77.73,77.73,0,0,1-2.06-18.26,89.72,89.72,0,0,1,2.72-22,51.34,51.34,0,0,1,9.27-19.2A47.35,47.35,0,0,1-305.58,434q10.77-5.16,26.88-5.16,23.59,0,33.81,11.53t10.21,32.31a108.76,108.76,0,0,1-.84,12.83,70,70,0,0,1-3.19,14,65.86,65.86,0,0,1-6.37,13.48,45.92,45.92,0,0,1-10.21,11.62,47.65,47.65,0,0,1-14.89,8.05A63,63,0,0,1-290.69,535.57Zm8.8-81.86q-7.11,0-11.33,3.65a23.55,23.55,0,0,0-6.37,8.81A39.64,39.64,0,0,0-302.4,477a86.14,86.14,0,0,0-.65,9.65q0,12.36,3.93,18.17a12.77,12.77,0,0,0,11.24,5.81,14.76,14.76,0,0,0,10.77-4.13,28.75,28.75,0,0,0,6.56-9.92,49.86,49.86,0,0,0,3.18-12.18,84.23,84.23,0,0,0,.85-10.68q0-9.36-3.47-14.7T-281.89,453.71Z" transform="translate(881.94 -392.52)"/><path class="cls-2" d="M-608.94,408.63a14.22,14.22,0,0,1,5.43-11.8q5.43-4.31,14.61-4.31,8.05,0,11.71,3.28a11.14,11.14,0,0,1,3.65,8.71A14.79,14.79,0,0,1-578.69,416q-5.16,4.59-15.08,4.59Q-608.95,420.62-608.94,408.63Z" transform="translate(881.94 -392.52)"/><path class="cls-3" d="M-714,544.77a51.39,51.39,0,0,1-13.13-9.23c-18-2.94-43.29-5.32-55-5.32-25.44,0-47-9.34-49.45-31.2,44.81,10.52,73,5.12,90-5.41v-.19c0-1.25.05-3.7.5-10.53.31-4.75.72-10.37,1.23-16.7s1-12.91,1.49-19.81c.5-7.08,1-13.87,1.51-20.17q.45-5.7.79-10.56c-12.87-11.88-32.61-18.63-59-18.63-60.92,0-86.86,46-86.86,87.57,0,51.33,43.59,82.39,91.87,83.54A174.86,174.86,0,0,0-729.25,559c6.14-2.12,9-3.61,20.17-8.15a6.25,6.25,0,0,0,3.27-3A47.65,47.65,0,0,1-714,544.77ZM-767.49,461c-10.09,11.78-53.67,11.18-64.5,0C-812.62,416.55-759.2,451.35-767.49,461Z" transform="translate(881.94 -392.52)"/><path class="cls-4" d="M-832,461c10.29-51.17,92-29.65,64.31.22C-765.18,444.78-819.12,429.4-832,461Z" transform="translate(881.94 -392.52)"/><path class="cls-5" d="M-714,544.77a47.16,47.16,0,0,1-18.44-15.59,51.24,51.24,0,0,1-3.19-5.42c-.54.12-1.09.24-1.62.39A169.46,169.46,0,0,1-782.57,530c-18.06,0-34.48-5.08-43.14-15.58,27.45,40.15,91.16,46,115,37.08a64.36,64.36,0,0,0,6.93-3A49.21,49.21,0,0,1-714,544.77Z" transform="translate(881.94 -392.52)"/><path class="cls-1" d="M-684.43,535.57q-14.43,0-22.86-4.22A32.32,32.32,0,0,1-720,520.77,33.06,33.06,0,0,1-725.46,507a90.82,90.82,0,0,1-1.12-13.58c0-1.62.15-4.8.47-9.55s.71-10.24,1.21-16.49,1-12.89,1.5-19.95,1-13.73,1.5-20,.9-11.89,1.22-16.77.47-8.24.47-10.11c0-2.75.19-4.34.56-4.78s1.5-.65,3.37-.65H-709a28.79,28.79,0,0,1,9.36,1.31,15.57,15.57,0,0,1,6,3.56,12.86,12.86,0,0,1,3.18,5.15,20.49,20.49,0,0,1,.94,6.27q0,3.19-.66,12.37t-1.59,21.54q4.88-8.43,11-12.46t16.3-4q17,0,26.13,11.24t9.09,33.54A104.47,104.47,0,0,1-630,486.3a76.86,76.86,0,0,1-3,13.77,63.35,63.35,0,0,1-6,13.3,41,41,0,0,1-10,11.33,50.07,50.07,0,0,1-14.89,7.87A63.12,63.12,0,0,1-684.43,535.57Zm8.43-81.86q-6.75,0-10.59,3.56a23.72,23.72,0,0,0-5.9,8.62,37.93,37.93,0,0,0-2.62,10.77c-.38,3.81-.56,7.15-.56,10q0,12.92,3.55,18.45t10.68,5.53q6.75,0,10.59-4.22a28.14,28.14,0,0,0,5.8-10,51.47,51.47,0,0,0,2.53-11.8c.38-4,.56-7.12.56-9.37q0-10.49-3.18-16C-667.27,455.55-670.88,453.71-676,453.71Z" transform="translate(881.94 -392.52)"/></svg>