<svg id="Capa_1" data-name="Capa 1" xmlns="http://www.w3.org/2000/svg" viewBox="0 0 200 24.49"><defs><style>.cls-1{fill:#da291c;}.cls-2{fill:#002d72;}.cls-3{fill:#fff;}</style></defs><title>JOKERBET_logotipo</title><path class="cls-1" d="M513.69,149.19a5.29,5.29,0,0,1,2.46,6.53c-1.14,3.84-4,6.16-9.32,6.16h-9.72l3.33-23.82H510c4.54,0,7.5,2.73,6.73,7.27a5.82,5.82,0,0,1-3,3.86m-6.29,7.41c3.64,0,4.24-4.88.68-4.88h-3.5l-.68,4.88Zm1.28-9.22c2.93,0,3.63-4.24.61-4.24h-3.5l-.61,4.24Z" transform="translate(-358.67 -137.71)"/><polygon class="cls-1" points="167.51 9.57 177.16 9.57 176.42 14.92 166.77 14.92 166.26 18.48 176.76 18.48 175.98 24.17 159.4 24.17 162.73 0.35 179.31 0.35 178.51 6.04 168.01 6.04 167.51 9.57"/><polygon class="cls-1" points="192.77 5.83 190.25 24.17 184.16 24.17 186.68 5.83 180.25 5.83 181.06 0.32 200 0.32 199.19 5.83 192.77 5.83"/><path class="cls-1" d="M397.78,153.68a2.71,2.71,0,0,0,2.93,2.7c1.51,0,3.09-.88,3.3-2.29L406.3,138h5.91L410,154.09c-.74,5.18-5.25,8.11-10.06,8.11-4.1,0-8-2.29-8-7.34Z" transform="translate(-358.67 -137.71)"/><path class="cls-1" d="M414.13,145.88c.81-5.48,6.06-8.17,11-8.17s9.52,2.72,8.75,8.17L432.7,154c-.77,5.45-5.85,8.18-11,8.18-4.95,0-9.49-2.73-8.72-8.18ZM419,154c-.23,1.72,1.55,2.59,3.37,2.59s4.07-.87,4.34-2.76l1.18-8c.26-1.78-1.42-2.69-3.37-2.69s-4.07.91-4.34,2.69Z" transform="translate(-358.67 -137.71)"/><polygon class="cls-1" points="91.96 0.34 99.46 0.34 88.39 12.04 96.1 24.15 88.53 24.15 83.55 15.64 83.32 15.91 82.17 24.15 76.12 24.15 79.44 0.34 85.5 0.34 84.26 9.15 91.96 0.34"/><polygon class="cls-1" points="105.68 9.55 115.34 9.55 114.6 14.9 104.94 14.9 104.44 18.46 114.94 18.46 114.16 24.15 97.58 24.15 100.91 0.34 117.49 0.34 116.68 6.02 106.19 6.02 105.68 9.55"/><path class="cls-1" d="M484.23,154.29h-1.08l-1,7.57H476L479.35,138h9.52c4.91,0,8.41,2.63,7.74,8.21-.61,4.41-2.49,5.89-5.75,7.43l5.71,8.18h-7.5Zm3.19-5.18a3.06,3.06,0,0,0,3.1-2.76,2.19,2.19,0,0,0-2.32-2.69h-3.53l-.78,5.45Z" transform="translate(-358.67 -137.71)"/><path class="cls-2" d="M378.55,137.79h-1.69l-5.67,24.4h11.87V142.3A4.52,4.52,0,0,0,378.55,137.79Z" transform="translate(-358.67 -137.71)"/><path class="cls-1" d="M363.18,137.8a4.52,4.52,0,0,0-4.51,4.51v15.37a4.52,4.52,0,0,0,4.51,4.51h8l3.66-24.39Z" transform="translate(-358.67 -137.71)"/><polygon class="cls-3" points="16.24 0.08 16.24 0.09 16.24 0.09 12.58 24.48 18.25 0.08 16.24 0.08"/></svg>