<?xml version="1.0" standalone="no"?>
<!DOCTYPE svg PUBLIC "-//W3C//DTD SVG 20010904//EN"
 "http://www.w3.org/TR/2001/REC-SVG-20010904/DTD/svg10.dtd">
<svg version="1.0" xmlns="http://www.w3.org/2000/svg"
 width="946.000000pt" height="193.000000pt" viewBox="0 0 946.000000 193.000000"
 preserveAspectRatio="xMidYMid meet">

<g transform="translate(0.000000,193.000000) scale(0.100000,-0.100000)"
fill="#000000" stroke="none">
<path style="fill:white;" d="M425 1915 c-178 -40 -294 -124 -365 -265 -50 -99 -60 -167 -60 -422
0 -126 2 -228 5 -228 2 0 48 29 102 63 54 35 116 74 138 86 l40 23 -40 -34
c-244 -204 -245 -205 -245 -254 0 -33 3 -43 12 -38 7 4 107 73 223 154 425
297 798 531 1025 645 73 36 10 -5 -130 -84 -322 -184 -689 -446 -938 -670 -86
-78 -103 -97 -100 -119 2 -14 8 -27 14 -29 11 -4 158 93 594 389 200 135 349
223 530 312 138 67 139 68 -128 -92 -245 -146 -431 -274 -614 -420 -128 -103
-361 -320 -379 -353 -11 -21 -2 -49 15 -49 17 0 242 151 629 422 398 280 539
369 723 459 131 65 141 71 136 94 -2 14 -9 25 -14 25 -22 0 -170 -70 -273
-129 -137 -78 -392 -247 -680 -448 -225 -157 -234 -154 -20 9 222 168 505 347
814 513 144 78 161 90 155 109 -8 26 -33 76 -38 76 -9 0 -160 -67 -280 -124
-172 -82 -360 -188 -521 -293 -71 -47 -123 -78 -115 -70 53 52 489 323 737
457 l153 82 -21 29 c-55 77 -185 150 -313 174 -105 20 -681 20 -771 0z m285
-519 c0 -2 -22 -18 -50 -35 -27 -17 -50 -29 -50 -26 0 5 90 65 97 65 2 0 3 -2
3 -4z"/>
<path style="fill:white;" d="M1485 1394 c-387 -215 -738 -478 -1042 -781 -139 -138 -163 -167
-163 -193 0 -20 5 -30 15 -30 23 0 206 123 520 350 381 275 508 357 778 504
20 11 27 23 27 46 0 16 -3 30 -6 30 -11 0 -245 -131 -354 -198 -128 -78 -233
-151 -500 -345 -113 -82 -212 -154 -220 -160 -46 -33 83 90 185 177 257 219
532 406 864 588 24 13 31 24 31 48 0 16 -3 30 -8 30 -4 0 -61 -30 -127 -66z"/>
<path style="fill:white;" d="M3971 1284 c-80 -21 -144 -60 -205 -124 -91 -95 -136 -212 -136 -357
0 -142 44 -262 131 -357 226 -247 686 -147 764 167 l7 27 -123 0 -124 0 -27
-50 c-35 -62 -84 -90 -162 -90 -70 0 -102 12 -149 58 -54 52 -79 127 -79 233
0 105 20 181 63 233 76 91 220 102 297 24 24 -26 62 -101 62 -124 0 -2 -73 -5
-162 -6 l-163 -3 -9 -67 c-14 -107 -39 -99 296 -96 l293 3 -3 60 c-8 148 -59
272 -147 360 -108 107 -273 150 -424 109z"/>
<path style="fill:white;" d="M7833 1293 l-43 -4 0 -118 0 -118 47 23 c59 30 110 31 154 1 59 -39
59 -39 59 -424 l0 -353 160 0 160 0 0 105 0 105 -40 0 c-31 0 -40 4 -40 18 0
9 -1 136 -3 282 -2 251 -4 268 -25 316 -29 63 -82 116 -146 145 -50 22 -187
33 -283 22z"/>
<path style="fill:white;" d="M2040 1190 l0 -100 40 0 40 0 0 -424 c0 -494 6 -464 -98 -473 l-62
-6 0 -87 0 -88 88 -6 c157 -12 247 20 286 103 20 45 21 59 24 614 l3 567 -160
0 -161 0 0 -100z"/>
<path style="fill:white;" d="M2540 1190 l0 -100 45 0 45 0 0 -263 c0 -292 8 -346 60 -422 21 -30
48 -52 87 -72 55 -26 64 -28 203 -28 l145 0 3 118 c1 64 0 117 -3 117 -3 0
-23 -9 -45 -20 -47 -24 -126 -26 -158 -4 -55 38 -57 51 -60 427 l-3 347 -160
0 -159 0 0 -100z"/>
<path style="fill:white;" d="M3120 1190 l0 -100 45 0 45 0 2 -392 3 -393 158 -3 157 -3 0 106 0
105 -40 0 -40 0 0 390 0 390 -165 0 -165 0 0 -100z"/>
<path style="fill:white;" d="M4953 1275 c-138 -43 -241 -165 -274 -324 -17 -81 -6 -242 21 -319
40 -114 124 -203 228 -243 77 -29 204 -23 275 11 l47 24 0 88 c0 48 -2 88 -4
88 -2 0 -23 -9 -47 -20 -118 -53 -237 7 -275 137 -37 126 3 280 87 338 42 30
122 44 174 31 40 -10 101 -71 124 -125 19 -46 21 -67 21 -351 1 -276 -1 -304
-18 -333 -38 -66 -126 -102 -227 -94 -76 6 -118 27 -153 77 l-27 39 -113 1
-112 0 6 -27 c42 -175 197 -273 433 -273 209 1 374 89 427 228 16 42 19 92 22
455 l3 407 40 0 39 0 0 100 0 100 -327 -1 c-242 0 -339 -4 -370 -14z"/>
<path style="fill:white;" d="M6074 1281 c-56 -14 -128 -54 -170 -96 -58 -58 -91 -119 -114 -210
-61 -238 29 -484 209 -572 50 -25 67 -28 156 -28 117 0 165 17 239 85 l46 43
0 -79 c0 -105 -13 -145 -59 -187 -47 -42 -120 -62 -202 -54 -71 6 -116 30
-148 80 l-24 37 -113 0 -113 0 13 -45 c40 -130 131 -208 285 -241 126 -26 289
-12 395 35 64 28 140 102 167 164 24 52 24 56 27 465 l3 412 44 0 45 0 0 100
0 100 -160 0 -160 0 0 -240 c0 -257 -8 -320 -47 -388 -86 -150 -306 -128 -361
36 -22 65 -25 145 -8 211 18 72 42 109 93 148 45 35 142 44 191 19 17 -9 33
-16 37 -16 3 0 5 52 5 115 l0 115 -122 -1 c-68 -1 -137 -4 -154 -8z"/>
<path style="fill:white;" d="M6880 1190 l0 -100 45 0 45 0 0 -290 0 -290 -50 0 -50 0 0 -105 0
-105 205 0 205 0 0 105 0 105 -40 0 -40 0 0 390 0 390 -160 0 -160 0 0 -100z"/>
<path style="fill:white;" d="M7380 1190 l0 -100 45 0 45 0 0 -290 0 -290 -45 0 -45 0 0 -105 0
-105 205 0 205 0 0 105 0 105 -45 0 -45 0 0 390 0 390 -160 0 -160 0 0 -100z"/>
<path style="fill:white;" d="M8756 1274 c-171 -53 -278 -220 -280 -439 -1 -154 41 -272 129 -360
78 -79 130 -100 250 -100 117 0 165 17 239 85 l46 43 0 -94 c0 -118 -20 -160
-95 -198 -41 -22 -63 -26 -130 -26 -97 0 -150 23 -180 78 l-20 37 -114 0 -113
0 5 -29 c36 -178 222 -284 471 -268 163 10 286 65 348 154 56 82 58 102 58
495 l0 358 -136 0 c-126 0 -136 -1 -129 -17 54 -131 44 -272 -27 -357 -89
-108 -250 -99 -322 18 -26 41 -30 60 -34 137 -7 143 32 235 117 279 38 19 59
20 331 20 l290 0 0 100 0 100 -327 -1 c-261 0 -338 -3 -377 -15z"/>
<path style="fill:white;" d="M1595 1191 c-6 -5 -82 -55 -170 -112 -292 -186 -512 -361 -843 -669
l-82 -77 37 -7 c100 -16 89 -22 394 205 316 236 509 367 617 418 68 33 72 37
72 68 l0 32 -63 -28 c-125 -56 -288 -163 -587 -384 -241 -179 -256 -189 -200
-137 181 168 463 384 703 540 140 90 147 97 147 128 0 32 -8 40 -25 23z"/>
<path style="fill:white;" d="M1337 695 c-153 -113 -324 -242 -380 -288 l-102 -82 42 -3 c40 -3 49
2 155 85 62 48 213 162 336 252 123 90 226 169 229 176 2 7 3 25 1 39 -3 25
-18 16 -281 -179z"/>
<path style="fill:white;" d="M1540 599 c-41 -23 -124 -76 -185 -119 -60 -42 -136 -94 -167 -115
-32 -21 -58 -39 -58 -41 0 -2 24 -4 53 -4 50 0 58 4 182 91 72 50 158 107 193
127 56 33 62 39 62 69 0 18 -1 33 -2 33 -2 0 -37 -19 -78 -41z"/>
<path style="fill:white;" d="M1570 360 l-45 -39 48 -1 47 0 0 40 c0 22 -1 40 -2 40 -2 0 -23 -18
-48 -40z"/>
</g>
</svg>
