<svg width="108" height="35" viewBox="0 0 108 35" fill="none" xmlns="http://www.w3.org/2000/svg">
<path fill-rule="evenodd" clip-rule="evenodd" d="M0 29.4355H0.386137C1.7587 29.4355 2.69575 29.1692 3.19728 28.6372C3.69965 28.105 3.95041 26.9531 3.95041 25.182V12.9581L5.45585 12.7791V25.182C5.45585 27.3025 5.10383 28.7647 4.40063 29.5696C3.69715 30.3742 2.46634 30.7768 0.70764 30.7768H0.450493L0 29.4355Z" fill="#fff"/>
<path fill-rule="evenodd" clip-rule="evenodd" d="M16.7059 23.943C16.1567 24.7435 15.5261 25.3416 14.8143 25.7379C14.102 26.1336 13.3042 26.3318 12.4209 26.3318C10.9624 26.3318 9.82784 25.891 9.01756 25.0095C8.20645 24.1284 7.80145 22.8914 7.80145 21.2987V12.958L9.28109 12.7793V20.5707C9.28109 22.0868 9.57042 23.2194 10.1496 23.9687C10.7285 24.7179 11.5974 25.0927 12.7555 25.0927C13.819 25.0927 14.7436 24.703 15.5284 23.924C16.3131 23.1448 16.7059 22.2017 16.7059 21.0944V12.958L18.1855 12.7793V25.9868L16.7059 26.1655V23.943Z" fill="#fff"/>
<path fill-rule="evenodd" clip-rule="evenodd" d="M21.6963 17.3264C21.6963 18.2888 22.0761 19.0998 22.8348 19.7598C23.5943 20.4196 24.5402 20.7497 25.6722 20.7497C26.8046 20.7497 27.7463 20.422 28.4967 19.7661C29.2473 19.1105 29.6227 18.2971 29.6227 17.3264C29.6227 16.4241 29.241 15.653 28.4773 15.0145C27.7139 14.3759 26.7791 14.0565 25.6722 14.0565C24.5657 14.0565 23.6264 14.3737 22.8544 15.0081C22.0824 15.6426 21.6963 16.4152 21.6963 17.3264M28.2587 21.4904C29.2368 21.925 29.9958 22.5272 30.5364 23.2979C31.0765 24.0689 31.347 24.9394 31.347 25.91C31.347 27.332 30.7786 28.5243 29.6421 29.4867C28.5053 30.4488 27.0789 30.9301 25.3635 30.9301C24.1369 30.9301 23.0151 30.6531 21.9987 30.0997C20.982 29.5459 20.1265 28.7501 19.4316 27.7112L20.7698 26.8553C21.3274 27.7153 21.9965 28.369 22.7771 28.8159C23.5576 29.2631 24.4198 29.4867 25.3635 29.4867C26.5988 29.4867 27.6495 29.1395 28.5161 28.4455C29.3824 27.7514 29.8157 26.9065 29.8157 25.91C29.8157 24.8543 29.3824 23.958 28.5161 23.2211C27.6495 22.4848 26.5988 22.1163 25.3635 22.1163C24.8573 22.1163 24.3274 22.1846 23.7743 22.3207C23.2209 22.457 22.6356 22.6654 22.0181 22.9468L22.6486 21.2988C21.8508 20.8478 21.2372 20.2791 20.8084 19.5935C20.3792 18.9084 20.1648 18.1525 20.1648 17.3264C20.1648 16.0151 20.6819 14.9123 21.7155 14.0182C22.7493 13.1241 24.0253 12.6769 25.5435 12.6769C25.7666 12.6769 26.0151 12.6855 26.2903 12.7025C26.5644 12.7199 26.8517 12.7452 27.1522 12.7791C27.2207 12.7879 27.2892 12.7942 27.358 12.7984C27.4265 12.8028 27.5339 12.8047 27.6795 12.8047C28.1513 12.8047 28.6831 12.7557 29.2754 12.6579C29.8673 12.5599 30.6779 12.3831 31.7073 12.1279L31.3728 13.1368C31.2782 13.4179 31.1622 13.6074 31.0255 13.7054C30.8881 13.8032 30.6948 13.8522 30.4463 13.8522C30.3003 13.8522 29.9059 13.8054 29.2623 13.7117C29.125 13.6947 29.0221 13.682 28.9536 13.6732C29.6743 14.0821 30.221 14.5951 30.5944 15.2125C30.9672 15.8298 31.1539 16.5345 31.1539 17.3264C31.1539 18.2379 30.9028 19.0529 30.4013 19.7725C29.8995 20.4923 29.1852 21.065 28.2587 21.4904" fill="#fff"/>
<path fill-rule="evenodd" clip-rule="evenodd" d="M34.3949 21.5161C34.3949 22.4783 34.723 23.2807 35.3791 23.9239C36.0351 24.5669 36.8651 24.8882 37.869 24.8882C38.8726 24.8882 39.6812 24.5773 40.2945 23.9556C40.9079 23.3344 41.2144 22.5207 41.2144 21.5161C41.2144 20.5196 40.9079 19.7087 40.2945 19.0828C39.6812 18.4569 38.8809 18.1438 37.8945 18.1438C36.8737 18.1438 36.0351 18.4632 35.3791 19.1018C34.723 19.7406 34.3949 20.5455 34.3949 21.5161V21.5161ZM41.2144 24.6839C40.7425 25.2203 40.211 25.6248 39.6191 25.8972C39.0271 26.1698 38.3835 26.3061 37.6889 26.3061C36.3505 26.3061 35.2118 25.8399 34.2725 24.9072C33.333 23.9751 32.8633 22.8445 32.8633 21.5161C32.8633 20.1963 33.3352 19.0679 34.2789 18.1311C35.2223 17.1946 36.3588 16.7259 37.6889 16.7259C38.358 16.7259 38.9969 16.8559 39.606 17.1156C40.2149 17.3755 40.7511 17.7525 41.2144 18.2462V16.5984C41.2144 15.6958 40.985 15.0294 40.5264 14.5993C40.0671 14.1695 39.3572 13.9544 38.3966 13.9544C37.8304 13.9544 37.2168 14.0354 36.5563 14.197C35.8956 14.3589 35.1408 14.6186 34.2919 14.9763L34.8709 13.2773C35.5142 13.0559 36.1447 12.8899 36.7622 12.7792C37.3802 12.6687 37.9761 12.6131 38.5508 12.6131C39.9833 12.6131 41.0321 12.9452 41.6971 13.6094C42.362 14.2736 42.6943 15.321 42.6943 16.7515V25.9866L41.2144 26.3061V24.6839Z" fill="#fff"/>
<path fill-rule="evenodd" clip-rule="evenodd" d="M45.3815 26.1656V12.9581L46.8484 12.7791V15.6021C47.3802 14.5803 48.0301 13.8139 48.7977 13.3029C49.5655 12.7921 50.4554 12.5365 51.4676 12.5365H51.828L51.2235 13.98C49.7308 14.1248 48.6282 14.7719 47.9167 15.9213C47.204 17.0709 46.8484 18.787 46.8484 21.0689V25.9869L45.3815 26.1656Z" fill="#fff"/>
<path fill-rule="evenodd" clip-rule="evenodd" d="M57.9367 15.5938V17.8978H58.6097C58.9673 17.8978 59.2566 17.7912 59.4777 17.5784C59.6988 17.3655 59.8092 17.088 59.8092 16.746C59.8092 16.391 59.7035 16.1101 59.4921 15.9036C59.281 15.6971 58.9867 15.5938 58.6097 15.5938H57.9367ZM57.9173 20.4727V23.0672H58.6974C59.1071 23.0672 59.4255 22.9559 59.653 22.7332C59.8807 22.5107 59.9945 22.1926 59.9945 21.7796C59.9945 21.3731 59.8791 21.0537 59.6483 20.8213C59.4175 20.5889 59.1004 20.4727 58.6974 20.4727H57.9173ZM53.6163 26.2622V12.5057H60.053C61.2882 12.5057 62.27 12.8267 62.9981 13.4689C63.7263 14.1113 64.0905 14.9776 64.0905 16.0683C64.0905 16.7264 63.941 17.2992 63.6417 17.7866C63.3427 18.2739 62.8777 18.7079 62.2472 19.0885C62.9754 19.4115 63.5199 19.8471 63.8808 20.3953C64.2417 20.9439 64.422 21.6056 64.422 22.3799C64.422 23.5416 64.0173 24.4792 63.2078 25.1924C62.3984 25.9056 61.3207 26.2622 59.975 26.2622H53.6163Z" fill="#fff"/>
<path fill-rule="evenodd" clip-rule="evenodd" d="M65.7979 26.5235V12.6992L70.1863 12.3993V26.146L65.7979 26.5235Z" fill="#fff"/>
<path fill-rule="evenodd" clip-rule="evenodd" d="M72.1276 26.2621V12.5056H79.8221L80.6412 16.1748H76.5258V17.4428H79.1394V21.0052H76.5258V22.3798H80.9048L80.0465 26.2621H72.1276Z" fill="#fff"/>
<path fill-rule="evenodd" clip-rule="evenodd" d="M91.3488 19.1819V19.1855L91.3444 19.1785C89.3271 17.5776 87.8746 15.2672 87.3491 12.6102H83.1587V26.8881L87.3598 26.5818V19.8974L91.3488 26.6609H95.5502V21.2195C93.9958 20.8547 92.5689 20.1491 91.3488 19.1819" fill="#fff"/>
<path fill-rule="evenodd" clip-rule="evenodd" d="M107.874 10.3945C107.874 15.9863 103.446 20.5195 97.9843 20.5195C92.5223 20.5195 88.0942 15.9863 88.0942 10.3945C88.0942 4.80266 92.5223 0.26947 97.9843 0.26947C103.446 0.26947 107.874 4.80266 107.874 10.3945" fill="#E4C80C"/>
<path fill-rule="evenodd" clip-rule="evenodd" d="M91.5001 12C91.2239 12 91 12.2239 91 12.5001C91 12.7761 91.2239 13 91.5001 13C91.7761 13 92 12.7761 92 12.5001C92 12.2239 91.7761 12 91.5001 12" fill="white"/>
<path fill-rule="evenodd" clip-rule="evenodd" d="M93.7982 10.569L97.0295 8.45425C96.892 8.26795 96.7186 8.12725 96.5091 8.03245C96.2999 7.93765 96.061 7.88995 95.7924 7.88995C95.23 7.88995 94.7539 8.10265 94.3639 8.52805C93.9741 8.95345 93.7791 9.47545 93.7791 10.0944C93.7791 10.1928 93.7808 10.278 93.7838 10.3503C93.787 10.4223 93.7919 10.4952 93.7982 10.569V10.569ZM97.7342 12.1563C97.4113 12.42 97.0917 12.6141 96.7753 12.7389C96.4589 12.8637 96.1314 12.9261 95.7924 12.9261C95.0479 12.9261 94.4293 12.6564 93.9373 12.1167C93.445 11.577 93.199 10.9065 93.199 10.1049C93.199 9.30325 93.4467 8.63545 93.9419 8.10085C94.4375 7.56655 95.0541 7.29955 95.7924 7.29955C96.259 7.29955 96.6676 7.41025 97.0175 7.63165C97.3674 7.85305 97.6399 8.17315 97.8349 8.59135L93.9949 11.0859C94.177 11.4726 94.4247 11.7714 94.7378 11.9823C95.0511 12.1932 95.4027 12.2988 95.7924 12.2988C96.1025 12.2988 96.4093 12.2274 96.7131 12.0852C97.0167 11.9427 97.357 11.7081 97.7342 11.3811V12.1563Z" fill="white"/>
<path fill-rule="evenodd" clip-rule="evenodd" d="M98.6229 12.1141L99.0352 11.6818C99.2109 11.9032 99.405 12.0703 99.6175 12.1828C99.8302 12.2953 100.058 12.3514 100.301 12.3514C100.605 12.3514 100.852 12.2581 101.044 12.0718C101.236 11.8855 101.332 11.6449 101.332 11.3494C101.332 11.0857 101.261 10.8784 101.121 10.7272C100.98 10.576 100.729 10.4512 100.368 10.3528C99.7541 10.1839 99.3355 9.98437 99.1119 9.75427C98.8882 9.52387 98.7761 9.20497 98.7761 8.79697C98.7761 8.36827 98.928 8.00707 99.2316 7.71337C99.5354 7.41997 99.9205 7.27297 100.387 7.27297C100.665 7.27297 100.927 7.32397 101.173 7.42597C101.419 7.52797 101.646 7.67917 101.854 7.87957L101.509 8.37517C101.323 8.19937 101.135 8.06587 100.943 7.97437C100.752 7.88287 100.563 7.83727 100.378 7.83727C100.071 7.83727 99.8237 7.92337 99.6369 8.09557C99.4498 8.26807 99.3562 8.49487 99.3562 8.77597C99.3562 9.20137 99.6936 9.50377 100.368 9.68287C100.509 9.71827 100.614 9.74797 100.684 9.77257C101.1 9.90277 101.412 10.0927 101.619 10.3423C101.827 10.5919 101.931 10.9012 101.931 11.2702C101.931 11.7556 101.773 12.1579 101.456 12.478C101.14 12.7978 100.742 12.958 100.263 12.958C99.9238 12.958 99.6161 12.8866 99.3396 12.7444C99.063 12.6019 98.8241 12.3919 98.6229 12.1141" fill="white"/>
<path fill-rule="evenodd" clip-rule="evenodd" d="M35.0719 34.7899C35.0719 34.8499 35.0361 34.8999 34.9641 34.9399C34.8921 34.9799 34.8159 34.9999 34.7363 34.9999C34.6612 34.9999 34.571 34.9699 34.4639 34.9099C34.3573 34.8499 34.2937 34.7939 34.2719 34.7419C34.176 34.5019 34.12 34.1819 34.104 33.7819V32.7919C34.104 32.1439 34.227 31.6799 34.4723 31.3999H34.5283C34.6559 31.3999 34.7706 31.4179 34.8723 31.4539C35.0052 31.4982 35.0719 31.5619 35.0719 31.6459C35.0719 31.7419 35.0307 31.8871 34.9481 32.0811C34.8654 32.2748 34.8243 32.4239 34.8243 32.5279C34.8243 33.0879 34.8319 33.4979 34.8479 33.7579C34.8532 33.8659 34.8932 34.0379 34.9682 34.2739C35.0372 34.4939 35.0719 34.6656 35.0719 34.7899V34.7899ZM34.816 30.1339C34.699 30.1659 34.5946 30.1819 34.5043 30.1819C34.4506 30.1819 34.3657 30.1448 34.2483 30.0708C34.1306 29.9971 34.072 29.9399 34.072 29.8999C34.072 29.8799 34.1002 29.8399 34.1562 29.7799C34.2122 29.7199 34.251 29.6899 34.272 29.6899C34.3683 29.6899 34.475 29.7039 34.592 29.7319C34.7413 29.7679 34.816 29.8119 34.816 29.8639V30.1339Z" fill="#E4C80C"/>
<path fill-rule="evenodd" clip-rule="evenodd" d="M38.0132 31.6638C38.0132 32.0801 37.9081 32.4618 37.6979 32.8101C37.4566 33.2098 37.1452 33.4098 36.7638 33.4098H36.3843C36.3412 33.4098 36.2188 33.3438 36.0164 33.2118C35.573 32.9198 35.3508 32.3961 35.3508 31.6398C35.3508 31.3321 35.524 31.1781 35.8705 31.1781C35.8938 31.1781 35.9227 31.2021 35.9578 31.2501C35.9928 31.2981 36.0106 31.3341 36.0106 31.3581C36.0106 31.4098 35.9981 31.4838 35.9725 31.5798C35.9472 31.6758 35.9344 31.7501 35.9344 31.8018C35.9344 32.0221 35.9911 32.2641 36.104 32.5278C36.2402 32.8441 36.3995 33.0021 36.5825 33.0021C36.5981 33.0021 36.6089 33.0069 36.615 33.0167C36.6206 33.0269 36.6295 33.0318 36.6409 33.0318C36.754 33.0318 36.8942 32.9184 37.0615 32.6909C37.2133 32.4875 37.3067 32.3201 37.3418 32.1884C37.4002 31.9689 37.4291 31.7478 37.4291 31.5244C37.4291 31.4767 37.4194 31.4087 37.4002 31.3209C37.3846 31.2572 37.369 31.1895 37.3535 31.1175C37.4544 31.0458 37.5306 31.0098 37.5809 31.0098C37.5926 31.0098 37.6054 31.0141 37.619 31.0218C37.6326 31.0298 37.6434 31.0338 37.6512 31.0338L37.6629 31.0038L37.6804 30.9918C37.9026 30.9918 38.0132 31.2161 38.0132 31.6638" fill="#E4C80C"/>
<path fill-rule="evenodd" clip-rule="evenodd" d="M39.864 32.3898C39.864 32.3618 39.8534 32.3209 39.832 32.2667C39.8108 32.2129 39.8 32.1718 39.8 32.1441C39.8 32.1118 39.8108 32.0669 39.832 32.0089C39.8534 31.9509 39.864 31.9061 39.864 31.8738C39.864 31.8058 39.8164 31.7389 39.7208 31.6729C39.6257 31.6069 39.5431 31.5741 39.473 31.5741C39.3287 31.5741 39.1905 31.7078 39.0584 31.9761C38.9416 32.2121 38.8832 32.4161 38.8832 32.5878C38.8832 32.6598 38.928 32.7338 39.0173 32.8101C39.1068 32.8858 39.1885 32.9238 39.2628 32.9238C39.3637 32.9238 39.4891 32.8606 39.639 32.7349C39.7889 32.6089 39.864 32.4938 39.864 32.3898M40.763 34.2381C40.763 34.5098 40.689 34.6978 40.5414 34.8018C40.4166 34.8858 40.2164 34.9281 39.9397 34.9281C39.8697 34.9281 39.6303 34.8941 39.2216 34.8258V34.6278C39.2488 34.6238 39.4165 34.6218 39.7237 34.6218C39.7746 34.6218 39.8661 34.6009 39.9981 34.5589C40.1305 34.5167 40.2028 34.4798 40.2144 34.4478C40.2336 34.3958 40.2436 34.2881 40.2436 34.1238C40.193 34.0158 40.1522 33.8378 40.121 33.5898C40.0896 33.3418 40.0468 33.1618 39.9926 33.0501C39.8291 33.2418 39.6186 33.3378 39.3617 33.3378C39.1554 33.3378 38.9569 33.2509 38.7665 33.0769C38.5755 32.9029 38.4801 32.7118 38.4801 32.5038C38.4801 32.2961 38.5288 32.0621 38.6261 31.8018C38.7351 31.5101 38.8618 31.3201 39.0056 31.2318C39.0834 31.1838 39.2761 31.1598 39.5836 31.1598C39.6461 31.1598 39.7501 31.1938 39.8961 31.2621C40.0423 31.3301 40.1346 31.3878 40.1733 31.4358C40.2589 31.5438 40.3017 31.7078 40.3017 31.9281V32.0298C40.3854 32.0741 40.4402 32.1641 40.4669 32.3001C40.4744 32.3441 40.4825 32.4558 40.4897 32.6358C40.4939 32.7521 40.5011 32.9281 40.5125 33.1638C40.52 33.2641 40.5514 33.4078 40.6065 33.5961C40.6615 33.7838 40.6926 33.9258 40.7004 34.0218C40.7079 34.0861 40.714 34.1238 40.7177 34.1358C40.7252 34.1801 40.7402 34.2141 40.763 34.2381" fill="#E4C80C"/>
<path fill-rule="evenodd" clip-rule="evenodd" d="M42.7891 31.6099C42.785 31.5979 42.7752 31.5779 42.7602 31.5499C42.5895 31.5139 42.3882 31.4959 42.1558 31.4959C42.0315 31.4959 41.9047 31.5708 41.7752 31.7211C41.6456 31.8708 41.5805 32.0099 41.5805 32.1379C41.5805 32.7059 41.7526 32.9899 42.0977 32.9899C42.1477 32.9899 42.2292 32.9499 42.3418 32.8699C42.4424 32.8019 42.5139 32.7419 42.5564 32.6899C42.6571 32.5739 42.7171 32.4119 42.7369 32.2039C42.7444 32.1279 42.7485 31.9497 42.7485 31.6699C42.7752 31.6579 42.7891 31.6379 42.7891 31.6099M44.0386 33.2477C44.0386 33.4519 43.9043 33.5539 43.6357 33.5539C43.6199 33.5539 43.5965 33.5399 43.5657 33.5119L43.5189 33.4699C43.3396 33.3459 43.2406 33.2699 43.2212 33.2419L43.0343 32.9419C42.7616 33.1139 42.614 33.2059 42.5906 33.2179C42.4269 33.3059 42.2617 33.3499 42.0943 33.3499C42.0749 33.3499 42.0454 33.3419 42.0068 33.3259C41.9678 33.3099 41.9384 33.3019 41.9189 33.3019C41.9072 33.3019 41.8889 33.3059 41.8636 33.3139C41.8383 33.3219 41.8199 33.3259 41.8082 33.3259C41.5786 33.3259 41.3879 33.2079 41.2358 32.9719C41.0957 32.7599 41.0259 32.5319 41.0259 32.2879C41.0259 31.6599 41.2847 31.2979 41.8021 31.2019C41.9072 31.1297 42.0924 31.0937 42.3568 31.0937C42.5475 31.0937 42.7366 31.1259 42.9231 31.1899C43.1647 31.2739 43.3065 31.3879 43.3496 31.5319C43.373 31.6039 43.3883 31.7091 43.3963 31.8468C43.4041 31.9848 43.4158 32.0959 43.4314 32.1799C43.4547 32.3119 43.4995 32.4737 43.5657 32.6659C43.6549 32.9259 43.725 33.0559 43.7758 33.0559C43.7833 33.0559 43.7961 33.0519 43.8137 33.0439C43.8312 33.0359 43.8437 33.0319 43.8515 33.0319C43.8829 33.0319 43.9218 33.0599 43.9682 33.1159C44.0149 33.1719 44.0386 33.2159 44.0386 33.2477" fill="#E4C80C"/>
<path fill-rule="evenodd" clip-rule="evenodd" d="M46.7008 31.0938C46.4439 31.1101 46.1833 31.2338 45.9184 31.4661C45.6885 31.6661 45.5019 31.8978 45.3579 32.1618C45.3112 32.2541 45.2722 32.3721 45.2411 32.5161C45.2019 32.7161 45.1749 32.8378 45.1594 32.8821C45.1318 33.0141 45.1104 33.1118 45.0954 33.1758C45.064 33.3001 45.0037 33.3618 44.9142 33.3618C44.8285 33.3618 44.737 33.3269 44.64 33.2569C44.5424 33.1869 44.4938 33.1101 44.4938 33.0261C44.4938 33.0058 44.4977 32.8301 44.5055 32.4978C44.5132 32.2338 44.5093 32.0741 44.4938 32.0178C44.4977 31.9818 44.5055 31.8798 44.5171 31.7118C44.5249 31.5918 44.5833 31.5318 44.6923 31.5318C44.7351 31.5318 44.7924 31.5481 44.8647 31.5798C44.9367 31.6118 44.9842 31.6441 45.0076 31.6758C45.1127 31.5481 45.2392 31.4181 45.3871 31.2861L45.4396 31.3101C45.4513 31.2381 45.4766 31.1838 45.5155 31.1478C45.5233 31.1398 45.5778 31.1038 45.679 31.0401C45.8075 30.9561 45.887 30.9138 45.9184 30.9138C45.9301 30.9138 45.9378 30.9181 45.9417 30.9258C45.9456 30.9338 45.9534 30.9378 45.9651 30.9378C45.9807 30.9378 46.001 30.9238 46.0263 30.8961C46.0516 30.8681 46.0721 30.8538 46.0877 30.8538C46.0997 30.8538 46.1061 30.8609 46.108 30.8749C46.1102 30.8889 46.1188 30.8961 46.1347 30.8961L46.1578 30.8841L46.1461 30.8658L46.1694 30.8538C46.3757 30.8581 46.5022 30.8738 46.5489 30.9018C46.5645 30.9258 46.5957 30.9561 46.6424 30.9921C46.6499 31.0281 46.6699 31.0621 46.7008 31.0938" fill="#E4C80C"/>
<path fill-rule="evenodd" clip-rule="evenodd" d="M50.1921 31.2799C50.1921 31.4042 50.1259 31.4659 49.9936 31.4659C49.9316 31.4659 49.839 31.4459 49.7164 31.4059C49.5938 31.3662 49.5012 31.3459 49.4389 31.3459C49.112 31.3459 48.8979 31.487 48.7967 31.769C48.711 32.0073 48.6685 32.1482 48.6685 32.1919C48.6685 32.4462 48.7792 32.6527 49.001 32.8113C49.1956 32.9545 49.4233 33.0259 49.6841 33.0259C49.6997 33.0259 49.7183 33.021 49.7397 33.011C49.7609 33.0007 49.7778 32.9959 49.7895 32.9959C49.8281 32.9959 49.8749 33.0179 49.9296 33.0619C49.9841 33.1062 50.0114 33.1479 50.0114 33.1879C50.0114 33.2919 49.9371 33.3439 49.7895 33.3439C49.7737 33.3439 49.7503 33.3539 49.7192 33.3739C49.6883 33.3939 49.6627 33.4039 49.6433 33.4039C49.4525 33.4039 49.2326 33.3442 48.9835 33.2245C48.7227 33.1007 48.5456 32.961 48.4525 32.8053C48.4055 32.7019 48.3257 32.5499 48.2128 32.3505C48.2128 32.3307 48.205 32.2996 48.1897 32.2579C48.1739 32.2159 48.1664 32.183 48.1664 32.159C48.1664 31.8159 48.2401 31.5447 48.3882 31.3453C48.5517 31.1216 48.7947 31.0099 49.1181 31.0099C49.1531 31.0099 49.2062 31.003 49.2785 30.9887C49.3505 30.975 49.4039 30.9679 49.4389 30.9679C49.5635 30.9679 49.7094 30.9939 49.8771 31.0459C50.087 31.1099 50.1921 31.1879 50.1921 31.2799" fill="#E4C80C"/>
<path fill-rule="evenodd" clip-rule="evenodd" d="M52.6444 32.0659C52.6444 31.8859 52.5782 31.725 52.4458 31.583C52.3138 31.4407 52.1598 31.3699 51.9846 31.3699C51.8834 31.3699 51.8017 31.4021 51.7394 31.4659L51.6109 31.5979C51.4942 31.6459 51.3754 31.6939 51.2548 31.7419C51.1805 31.7939 51.1438 31.9199 51.1438 32.1199C51.1438 32.7039 51.2898 32.9959 51.5817 32.9959C51.8114 32.9959 52.046 32.8979 52.2851 32.7021C52.5245 32.5059 52.6444 32.2939 52.6444 32.0659M53.2107 32.1379C53.2107 32.4419 53.0578 32.7261 52.7525 32.9899C52.447 33.2539 52.1442 33.3859 51.8445 33.3859H51.6638C51.3754 33.3859 51.1205 33.265 50.8986 33.023C50.6768 32.781 50.5656 32.5121 50.5656 32.2159C50.5656 32.2039 50.5909 32.1199 50.6417 31.9641C50.6339 31.9119 50.6301 31.8799 50.6301 31.8679C50.6301 31.7439 50.706 31.5719 50.8578 31.3519C51.0096 31.1319 51.1419 31.0219 51.2548 31.0219C51.2781 31.0219 51.3132 31.043 51.3599 31.0847C51.4066 31.127 51.4455 31.1479 51.4766 31.1479C51.512 31.1479 51.5631 31.127 51.6312 31.0847C51.6996 31.043 51.7433 31.0219 51.7627 31.0219C51.9571 31.0219 52.0836 31.0379 52.142 31.0699L52.224 31.1239C52.2396 31.1239 52.2598 31.117 52.2851 31.103C52.3104 31.089 52.331 31.0819 52.3466 31.0819C52.3699 31.0939 52.4283 31.1279 52.5217 31.1839C52.981 31.4719 53.2107 31.7899 53.2107 32.1379" fill="#E4C80C"/>
<path fill-rule="evenodd" clip-rule="evenodd" d="M55.8262 32.108C55.8262 32.42 55.7815 32.684 55.6922 32.8997C55.6764 32.976 55.6511 33.0917 55.616 33.2477C55.581 33.4037 55.5246 33.482 55.447 33.482C55.4273 33.482 55.4047 33.4649 55.3797 33.4309C55.3544 33.3971 55.3339 33.3797 55.3183 33.3797C55.3066 33.3797 55.298 33.3829 55.2921 33.3889C55.2863 33.3949 55.2794 33.398 55.2716 33.398C55.2524 33.398 55.2338 33.372 55.2162 33.3197C55.1987 33.268 55.1782 33.242 55.1548 33.242H55.1139C55.2035 32.8883 55.2482 32.4949 55.2482 32.062C55.2482 31.7363 55.2054 31.5474 55.1198 31.4957C55.0069 31.4957 54.8629 31.588 54.6877 31.7717C54.5359 31.932 54.4317 32.074 54.3755 32.1977C54.3191 32.322 54.2676 32.488 54.2209 32.696C54.1467 33.016 54.1078 33.1857 54.1041 33.206C54.0727 33.322 54.0127 33.3797 53.9229 33.3797C53.8294 33.3797 53.7344 33.3449 53.6371 33.2749C53.5395 33.2051 53.4911 33.124 53.4911 33.0317C53.4911 32.08 53.52 31.522 53.5787 31.358C53.6059 31.286 53.6893 31.25 53.8294 31.25C53.9076 31.25 53.9785 31.2849 54.0427 31.3549C54.1066 31.4249 54.1408 31.5 54.1447 31.5797C54.1992 31.524 54.2829 31.444 54.3958 31.34C54.5087 31.2357 54.606 31.184 54.6877 31.184L54.7111 31.19V31.196L54.7289 31.208C54.7442 31.204 54.7658 31.1889 54.7928 31.1629C54.8201 31.1371 54.8456 31.124 54.869 31.124C55.0361 31.124 55.1412 31.1397 55.184 31.172C55.2112 31.208 55.2346 31.226 55.2541 31.226C55.2657 31.226 55.2757 31.2237 55.2833 31.22H55.2774L55.3008 31.208C55.4565 31.208 55.5871 31.322 55.6922 31.55C55.7815 31.742 55.8262 31.928 55.8262 32.108" fill="#E4C80C"/>
<path fill-rule="evenodd" clip-rule="evenodd" d="M60.0417 31.0938C59.7848 31.1101 59.524 31.2338 59.2593 31.4661C59.0294 31.6661 58.8428 31.8978 58.6988 32.1618C58.6521 32.2541 58.6129 32.3721 58.5821 32.5161C58.5429 32.7161 58.5159 32.8378 58.5003 32.8821C58.4728 33.0141 58.4514 33.1118 58.4361 33.1758C58.4047 33.3001 58.3446 33.3618 58.2548 33.3618C58.1695 33.3618 58.078 33.3269 57.9807 33.2569C57.8831 33.1869 57.8347 33.1101 57.8347 33.0261C57.8347 33.0058 57.8383 32.8301 57.8464 32.4978C57.8542 32.2338 57.85 32.0741 57.8347 32.0178C57.8383 31.9818 57.8464 31.8798 57.8581 31.7118C57.8659 31.5918 57.9242 31.5318 58.0329 31.5318C58.076 31.5318 58.1333 31.5481 58.2056 31.5798C58.2773 31.6118 58.3252 31.6441 58.3485 31.6758C58.4536 31.5481 58.5798 31.4181 58.7277 31.2861L58.7806 31.3101C58.7922 31.2381 58.8175 31.1838 58.8562 31.1478C58.8643 31.1398 58.9187 31.1038 59.0197 31.0401C59.1484 30.9561 59.2279 30.9138 59.2593 30.9138C59.271 30.9138 59.2788 30.9181 59.2827 30.9258C59.2863 30.9338 59.2944 30.9378 59.306 30.9378C59.3213 30.9378 59.3419 30.9238 59.3672 30.8961C59.3925 30.8681 59.4128 30.8538 59.4286 30.8538C59.4403 30.8538 59.447 30.8609 59.4489 30.8749C59.4509 30.8889 59.4595 30.8961 59.4754 30.8961L59.4987 30.8841L59.487 30.8658L59.5104 30.8538C59.7167 30.8581 59.8432 30.8738 59.8899 30.9018C59.9055 30.9258 59.9366 30.9561 59.9833 30.9921C59.9908 31.0281 60.0106 31.0621 60.0417 31.0938" fill="#E4C80C"/>
<path fill-rule="evenodd" clip-rule="evenodd" d="M61.8516 31.6434C61.8516 31.5491 61.7504 31.502 61.548 31.502C61.3845 31.502 61.2202 31.5746 61.0548 31.7203C60.8893 31.8654 60.7812 32.0209 60.7309 32.186C60.7659 32.19 60.8009 32.192 60.836 32.192C60.871 32.192 60.9213 32.188 60.9878 32.18C61.0537 32.172 61.1043 32.168 61.1393 32.168C61.2327 32.168 61.3748 32.102 61.5658 31.9706C61.7562 31.8389 61.8516 31.73 61.8516 31.6434M62.3712 31.694C62.3712 31.91 62.2139 32.1257 61.8983 32.3417C61.6064 32.542 61.3495 32.6417 61.1276 32.6417C61.0887 32.6377 60.9466 32.6177 60.7014 32.5817L60.6958 32.576L60.6842 32.612C60.6842 32.696 60.7425 32.7929 60.8593 32.9029C60.9761 33.0129 61.1334 33.084 61.332 33.1157C61.449 33.1277 61.6258 33.1517 61.8633 33.1877C62.0737 33.2237 62.1883 33.242 62.2077 33.242V33.422C62.1182 33.422 61.9848 33.4329 61.8079 33.4549C61.6308 33.4769 61.4977 33.488 61.4079 33.488C61.112 33.488 60.8262 33.3743 60.5496 33.1469C60.2538 32.9034 60.1061 32.634 60.1061 32.3389C60.1061 32.1234 60.1904 31.8949 60.36 31.6534C60.5293 31.412 60.7131 31.2514 60.9116 31.1717C61.0945 31.1 61.2969 31.064 61.5191 31.064C61.5308 31.064 61.548 31.0697 61.5713 31.0817C61.5947 31.0937 61.6142 31.1 61.6297 31.1C61.6375 31.1 61.65 31.096 61.6678 31.088C61.6851 31.0797 61.6998 31.076 61.7115 31.076C61.727 31.076 61.7971 31.11 61.9217 31.178C62.1046 31.278 62.2077 31.34 62.2311 31.3637C62.3245 31.44 62.3712 31.55 62.3712 31.694" fill="#E4C80C"/>
<path fill-rule="evenodd" clip-rule="evenodd" d="M64.4556 31.1298C64.4556 31.2381 64.4011 31.2918 64.2922 31.2918C64.2377 31.2918 64.1548 31.2798 64.0442 31.2558C63.9329 31.2318 63.8501 31.2198 63.7959 31.2198C63.6246 31.2198 63.4981 31.2578 63.4164 31.3338C63.4125 31.4055 63.4105 31.4592 63.4105 31.4952C63.4105 31.7226 63.4845 31.9521 63.6324 32.1835C63.7025 32.2949 63.8426 32.4686 64.0528 32.7041C64.2007 32.8715 64.2746 32.9892 64.2746 33.0569C64.2746 33.2963 63.9435 33.4161 63.2818 33.4161C63.2315 33.4161 63.1467 33.3889 63.028 33.3349C62.9093 33.2809 62.8325 33.2358 62.7975 33.1998V33.1278C62.9918 33.0918 63.1222 33.0741 63.1884 33.0741C63.2701 33.0741 63.3599 33.0621 63.4572 33.0381C63.5896 33.0058 63.6558 32.9598 63.6558 32.8998C63.6558 32.8601 63.5857 32.7541 63.4456 32.5818C63.286 32.3821 63.1595 32.1941 63.0661 32.0178C62.9259 31.7458 62.8559 31.4698 62.8559 31.1901C62.8559 31.0861 62.9162 31.0078 63.0366 30.9561C63.1417 30.9238 63.2451 30.8921 63.3463 30.8601L63.3872 30.9018C63.4611 30.8621 63.6266 30.8418 63.8832 30.8418C63.973 30.8418 64.0839 30.8681 64.2163 30.9201C64.3758 30.9838 64.4556 31.0538 64.4556 31.1298" fill="#E4C80C"/>
<path fill-rule="evenodd" clip-rule="evenodd" d="M66.966 31.6758C66.966 31.5998 66.9396 31.5149 66.8868 31.4207C66.834 31.3269 66.7725 31.2798 66.7019 31.2798C66.3143 31.2798 66.068 31.6301 65.9624 32.3298L65.8684 33.0141C65.8998 33.0101 65.919 33.0149 65.9271 33.0287C65.9348 33.0429 65.9446 33.0518 65.9565 33.0558C66.1247 32.9161 66.2362 32.8461 66.291 32.8461C66.3066 32.8461 66.3477 32.8081 66.4144 32.7318C66.6177 32.4918 66.745 32.3341 66.7959 32.2578C66.9093 32.0821 66.966 31.8878 66.966 31.6758M67.5207 31.6818C67.5207 32.6221 66.9524 33.2078 65.8158 33.4401C65.7575 33.8438 65.7283 34.2918 65.7283 34.7838C65.7283 34.8278 65.6952 34.8918 65.629 34.9761C65.6057 34.9798 65.5784 34.9818 65.5473 34.9818C65.3799 34.9818 65.2281 34.9181 65.0919 34.7898V34.1598C65.0919 33.9918 65.1288 33.4781 65.2028 32.6178C65.2184 32.3461 65.232 32.0721 65.2437 31.7958C65.2943 31.3561 65.3916 31.1358 65.5356 31.1358C65.5628 31.1358 65.6057 31.1529 65.664 31.1869C65.7224 31.2209 65.7652 31.2381 65.7925 31.2381C65.8158 31.2218 65.8664 31.1718 65.9443 31.0878C66.0766 30.9438 66.3374 30.8721 66.7267 30.8721C66.7383 30.8721 66.7539 30.8849 66.7734 30.9109C66.7928 30.9369 66.8103 30.9498 66.8259 30.9498C66.8454 30.9498 66.8671 30.9378 66.8904 30.9138L66.931 30.9558C67.0556 30.9918 67.1848 31.0909 67.3194 31.2529C67.4537 31.4149 67.5207 31.5581 67.5207 31.6818" fill="#E4C80C"/>
<path fill-rule="evenodd" clip-rule="evenodd" d="M70.0664 32.0659C70.0664 31.8859 70.0002 31.725 69.8679 31.583C69.7355 31.4407 69.5818 31.3699 69.4066 31.3699C69.3054 31.3699 69.2237 31.4021 69.1614 31.4659L69.033 31.5979C68.9162 31.6459 68.7975 31.6939 68.6768 31.7419C68.6028 31.7939 68.5661 31.9199 68.5661 32.1199C68.5661 32.7039 68.7118 32.9959 69.0038 32.9959C69.2334 32.9959 69.4681 32.8979 69.7075 32.7021C69.9466 32.5059 70.0664 32.2939 70.0664 32.0659M70.6327 32.1379C70.6327 32.4419 70.4798 32.7261 70.1745 32.9899C69.8687 33.2539 69.5662 33.3859 69.2665 33.3859H69.0855C68.7975 33.3859 68.5428 33.265 68.3207 33.023C68.0988 32.781 67.9879 32.5121 67.9879 32.2159C67.9879 32.2039 68.0132 32.1199 68.0638 31.9641C68.056 31.9119 68.0521 31.8799 68.0521 31.8679C68.0521 31.7439 68.128 31.5719 68.2798 31.3519C68.4316 31.1319 68.5639 31.0219 68.6768 31.0219C68.7002 31.0219 68.7352 31.043 68.7819 31.0847C68.8286 31.127 68.8675 31.1479 68.8987 31.1479C68.9337 31.1479 68.9851 31.127 69.0533 31.0847C69.1216 31.043 69.1653 31.0219 69.1848 31.0219C69.3794 31.0219 69.5059 31.0379 69.5643 31.0699L69.646 31.1239C69.6616 31.1239 69.6819 31.117 69.7075 31.103C69.7328 31.089 69.753 31.0819 69.7686 31.0819C69.792 31.0939 69.8504 31.1279 69.9438 31.1839C70.4031 31.4719 70.6327 31.7899 70.6327 32.1379" fill="#E4C80C"/>
<path fill-rule="evenodd" clip-rule="evenodd" d="M73.2482 32.108C73.2482 32.42 73.2035 32.684 73.1142 32.8997C73.0984 32.976 73.0731 33.0917 73.038 33.2477C73.003 33.4037 72.9466 33.482 72.869 33.482C72.8493 33.482 72.8267 33.4649 72.8017 33.4309C72.7764 33.3971 72.7558 33.3797 72.7403 33.3797C72.7286 33.3797 72.72 33.3829 72.7141 33.3889C72.7083 33.3949 72.7014 33.398 72.6936 33.398C72.6744 33.398 72.6558 33.372 72.6382 33.3197C72.6207 33.268 72.6002 33.242 72.5768 33.242H72.5359C72.6255 32.8883 72.6702 32.4949 72.6702 32.062C72.6702 31.7363 72.6274 31.5474 72.5418 31.4957C72.4289 31.4957 72.2849 31.588 72.1097 31.7717C71.9579 31.932 71.8537 32.074 71.7975 32.1977C71.7411 32.322 71.6896 32.488 71.6429 32.696C71.5687 33.016 71.5297 33.1857 71.5261 33.206C71.4947 33.322 71.4347 33.3797 71.3449 33.3797C71.2514 33.3797 71.1561 33.3449 71.0588 33.2749C70.9615 33.2051 70.9131 33.124 70.9131 33.0317C70.9131 32.08 70.942 31.522 71.0004 31.358C71.0276 31.286 71.1113 31.25 71.2514 31.25C71.3296 31.25 71.4005 31.2849 71.4647 31.3549C71.5286 31.4249 71.5628 31.5 71.5667 31.5797C71.6212 31.524 71.7049 31.444 71.8178 31.34C71.9307 31.2357 72.028 31.184 72.1097 31.184L72.1331 31.19V31.196L72.1509 31.208C72.1662 31.204 72.1878 31.1889 72.2148 31.1629C72.2421 31.1371 72.2676 31.124 72.291 31.124C72.4581 31.124 72.5632 31.1397 72.606 31.172C72.6332 31.208 72.6566 31.226 72.6761 31.226C72.6877 31.226 72.6977 31.2237 72.7052 31.22H72.6994L72.7228 31.208C72.8785 31.208 73.0091 31.322 73.1142 31.55C73.2035 31.742 73.2482 31.928 73.2482 32.108" fill="#E4C80C"/>
<path fill-rule="evenodd" clip-rule="evenodd" d="M75.432 31.1298C75.432 31.2381 75.3775 31.2918 75.2685 31.2918C75.214 31.2918 75.1312 31.2798 75.0205 31.2558C74.9093 31.2318 74.8265 31.2198 74.7723 31.2198C74.601 31.2198 74.4745 31.2578 74.3928 31.3338C74.3889 31.4055 74.3869 31.4592 74.3869 31.4952C74.3869 31.7226 74.4609 31.9521 74.6088 32.1835C74.6788 32.2949 74.819 32.4686 75.0292 32.7041C75.1771 32.8715 75.251 32.9892 75.251 33.0569C75.251 33.2963 74.9199 33.4161 74.2582 33.4161C74.2079 33.4161 74.1231 33.3889 74.0043 33.3349C73.8856 33.2809 73.8089 33.2358 73.7739 33.1998V33.1278C73.9682 33.0918 74.0986 33.0741 74.1648 33.0741C74.2465 33.0741 74.3363 33.0621 74.4336 33.0381C74.566 33.0058 74.6321 32.9598 74.6321 32.8998C74.6321 32.8601 74.5621 32.7541 74.4219 32.5818C74.2624 32.3821 74.1359 32.1941 74.0424 32.0178C73.9023 31.7458 73.8323 31.4698 73.8323 31.1901C73.8323 31.0861 73.8926 31.0078 74.013 30.9561C74.1181 30.9238 74.2215 30.8921 74.3227 30.8601L74.3636 30.9018C74.4375 30.8621 74.6029 30.8418 74.8596 30.8418C74.9494 30.8418 75.0603 30.8681 75.1926 30.9201C75.3522 30.9838 75.432 31.0538 75.432 31.1298" fill="#E4C80C"/>
<path fill-rule="evenodd" clip-rule="evenodd" d="M77.4811 31.6099C77.4772 31.5979 77.4675 31.5779 77.4522 31.5499C77.2815 31.5139 77.0804 31.4959 76.848 31.4959C76.7237 31.4959 76.5967 31.5708 76.4674 31.7211C76.3376 31.8708 76.2725 32.0099 76.2725 32.1379C76.2725 32.7059 76.4449 32.9899 76.7899 32.9899C76.84 32.9899 76.9214 32.9499 77.034 32.8699C77.1344 32.8019 77.2061 32.7419 77.2487 32.6899C77.3493 32.5739 77.4094 32.4119 77.4291 32.2039C77.4366 32.1279 77.4405 31.9497 77.4405 31.6699C77.4675 31.6579 77.4811 31.6379 77.4811 31.6099M78.7305 33.2477C78.7305 33.4519 78.5965 33.5539 78.3277 33.5539C78.3121 33.5539 78.2887 33.5399 78.2576 33.5119L78.2109 33.4699C78.0319 33.3459 77.9326 33.2699 77.9134 33.2419L77.7263 32.9419C77.4538 33.1139 77.3059 33.2059 77.2826 33.2179C77.1191 33.3059 76.9539 33.3499 76.7863 33.3499C76.7668 33.3499 76.7376 33.3419 76.699 33.3259C76.6598 33.3099 76.6306 33.3019 76.6111 33.3019C76.5995 33.3019 76.5811 33.3059 76.5558 33.3139C76.5302 33.3219 76.5122 33.3259 76.5005 33.3259C76.2706 33.3259 76.0798 33.2079 75.928 32.9719C75.7879 32.7599 75.7178 32.5319 75.7178 32.2879C75.7178 31.6599 75.9767 31.2979 76.4944 31.2019C76.5995 31.1297 76.7843 31.0937 77.049 31.0937C77.2398 31.0937 77.4288 31.1259 77.6154 31.1899C77.857 31.2739 77.9988 31.3879 78.0419 31.5319C78.0652 31.6039 78.0805 31.7091 78.0886 31.8468C78.0961 31.9848 78.1078 32.0959 78.1236 32.1799C78.147 32.3119 78.1914 32.4737 78.2576 32.6659C78.3471 32.9259 78.4172 33.0559 78.4678 33.0559C78.4756 33.0559 78.4884 33.0519 78.5059 33.0439C78.5234 33.0359 78.5359 33.0319 78.5437 33.0319C78.5751 33.0319 78.6138 33.0599 78.6605 33.1159C78.7072 33.1719 78.7305 33.2159 78.7305 33.2477" fill="#E4C80C"/>
<path fill-rule="evenodd" clip-rule="evenodd" d="M81.784 31.8379C81.784 31.8659 81.7587 31.9939 81.7084 32.2219C81.6653 32.2779 81.6225 32.3911 81.5799 32.5608C81.5369 32.7311 81.4843 32.8459 81.422 32.9059C81.29 33.0342 81.1223 33.1439 80.9202 33.2359C80.7019 33.3359 80.5093 33.3859 80.3419 33.3859C79.9838 33.3859 79.805 33.2439 79.805 32.9599V32.9179C79.9254 32.9699 79.9938 32.9959 80.0091 32.9959C80.0597 32.9959 80.1336 32.9931 80.231 32.9868C80.3285 32.9811 80.4022 32.9779 80.4531 32.9779C80.4803 32.9779 80.5115 32.9659 80.5465 32.9419C80.8304 32.7508 81.0136 32.5973 81.0951 32.4819C81.2082 32.3222 81.2647 32.0893 81.2647 31.7825C81.2647 31.6948 81.2188 31.6071 81.1273 31.5196C81.0358 31.4316 80.9472 31.3879 80.8618 31.3879C80.6241 31.3879 80.3925 31.6305 80.167 32.1162C80.1473 32.1676 80.1142 32.2473 80.0675 32.3548C80.0247 32.4422 79.9588 32.4859 79.869 32.4859C79.8223 32.4859 79.7455 32.4519 79.6385 32.3839C79.5312 32.3159 79.4778 32.2619 79.4778 32.2219C79.4778 31.9019 79.485 31.5139 79.4997 31.0579C79.5073 30.7979 79.5545 30.4319 79.6421 29.9599C79.6493 29.9199 79.6529 29.8839 79.6529 29.8519V29.7288V29.6056C79.6529 29.3299 79.7258 29.1919 79.8712 29.1919C79.9654 29.1919 80.0519 29.2079 80.1303 29.2399C80.2365 29.2799 80.2893 29.3399 80.2893 29.4199C80.2893 29.5119 80.2716 29.6239 80.2357 29.7559C80.1876 29.9399 80.1595 30.0519 80.1517 30.0919C80.0917 30.4679 80.0619 30.8239 80.0619 31.1599L80.0969 31.1959C80.4587 31.0719 80.7253 31.0099 80.8968 31.0099C81.0717 31.0099 81.2636 31.1039 81.4718 31.2919C81.68 31.4799 81.784 31.6619 81.784 31.8379" fill="#E4C80C"/>
<path fill-rule="evenodd" clip-rule="evenodd" d="M83.1813 29.9238C83.1813 30.0438 83.1117 30.1038 82.9725 30.1038C82.8796 30.1038 82.7467 30.041 82.5734 29.915C82.4004 29.7887 82.3142 29.6858 82.3142 29.6058C82.3142 29.5738 82.329 29.5338 82.3586 29.4858C82.4556 29.5058 82.5822 29.5218 82.738 29.5338C83.0337 29.7261 83.1813 29.8561 83.1813 29.9238M82.8965 31.6098C82.8965 31.6578 82.8923 31.727 82.8839 31.817C82.8751 31.9067 82.8712 31.9718 82.8712 32.0121C82.867 32.1161 82.867 32.2398 82.8712 32.3838V32.7621C82.8712 33.0498 82.8369 33.2458 82.769 33.3498C82.7519 33.3498 82.7262 33.3581 82.6922 33.3738C82.6584 33.3898 82.6307 33.3978 82.6093 33.3978C82.5538 33.3978 82.5198 33.3918 82.5071 33.3798L82.4559 33.2958L82.4366 33.3558C82.2663 33.1038 82.1813 32.8158 82.1813 32.4918V31.8558C82.1813 31.6638 82.1877 31.5438 82.2003 31.4958C82.2383 31.3518 82.3224 31.2798 82.4535 31.2798C82.5674 31.2798 82.6696 31.309 82.7606 31.367C82.851 31.425 82.8965 31.5058 82.8965 31.6098" fill="#E4C80C"/>
<path fill-rule="evenodd" clip-rule="evenodd" d="M84.318 29.702C84.318 30.038 84.2916 30.5389 84.2393 31.2049C84.1865 31.8709 84.1606 32.372 84.1606 32.708C84.1606 33.1637 84.0883 33.3917 83.9443 33.3917C83.9326 33.3917 83.8256 33.326 83.6232 33.194C83.5843 33.0897 83.5648 32.94 83.5648 32.7437C83.5648 32.4597 83.5862 32.036 83.629 31.4717C83.6719 30.908 83.6933 30.4837 83.6933 30.1997V29.564C83.7517 29.464 83.8353 29.4137 83.9443 29.4137C84.03 29.4137 84.1139 29.4409 84.1957 29.4949C84.2774 29.5489 84.318 29.6177 84.318 29.702" fill="#E4C80C"/>
<path fill-rule="evenodd" clip-rule="evenodd" d="M85.7911 29.9238C85.7911 30.0438 85.7215 30.1038 85.5822 30.1038C85.4894 30.1038 85.3565 30.041 85.1832 29.915C85.0102 29.7887 84.924 29.6858 84.924 29.6058C84.924 29.5738 84.9388 29.5338 84.9683 29.4858C85.0653 29.5058 85.1919 29.5218 85.3477 29.5338C85.6434 29.7261 85.7911 29.8561 85.7911 29.9238M85.5063 31.6098C85.5063 31.6578 85.502 31.727 85.4936 31.817C85.4849 31.9067 85.481 31.9718 85.481 32.0121C85.4767 32.1161 85.4767 32.2398 85.481 32.3838V32.7621C85.481 33.0498 85.4466 33.2458 85.3788 33.3498C85.3616 33.3498 85.336 33.3581 85.3019 33.3738C85.2682 33.3898 85.2404 33.3978 85.219 33.3978C85.1636 33.3978 85.1295 33.3918 85.1169 33.3798L85.0656 33.2958L85.0464 33.3558C84.8761 33.1038 84.7911 32.8158 84.7911 32.4918V31.8558C84.7911 31.6638 84.7974 31.5438 84.8101 31.4958C84.848 31.3518 84.9321 31.2798 85.0632 31.2798C85.1772 31.2798 85.2793 31.309 85.3703 31.367C85.4608 31.425 85.5063 31.5058 85.5063 31.6098" fill="#E4C80C"/>
<path fill-rule="evenodd" clip-rule="evenodd" d="M88.3057 31.5435C88.3057 31.5275 88.2979 31.4978 88.2823 31.4541C88.2512 31.4661 88.2259 31.4718 88.2067 31.4718C88.1753 31.4718 88.1197 31.451 88.0401 31.4087C87.9603 31.367 87.9047 31.3461 87.8736 31.3461C87.8541 31.3461 87.7607 31.3778 87.5933 31.4415C87.352 31.5333 87.1496 31.6747 86.9861 31.8658C86.7993 32.0813 86.7059 32.3104 86.7059 32.5533C86.7059 32.661 86.7312 32.7527 86.7821 32.8284C86.8402 32.9161 86.918 32.9598 87.0153 32.9598C87.0309 32.9598 87.0562 32.957 87.0912 32.951C87.1263 32.945 87.1516 32.9421 87.1671 32.9421C87.3306 32.9421 87.5611 32.7527 87.8591 32.3741C88.1569 31.9958 88.3057 31.7187 88.3057 31.5435V31.5435ZM89.1055 30.4098C89.1055 30.9458 88.9498 31.5361 88.6385 32.1801C88.5217 32.4198 88.3134 32.6758 88.0137 32.9478C87.679 33.2478 87.4007 33.3978 87.1788 33.3978H86.8402C86.8246 33.3978 86.7821 33.3738 86.712 33.3258C86.5015 33.1818 86.3672 33.0778 86.3089 33.0138C86.1882 32.8821 86.1279 32.7218 86.1279 32.5338C86.1279 32.3581 86.2174 32.1098 86.3964 31.7898C86.5872 31.4458 86.7604 31.2778 86.9161 31.2861C86.9667 31.2338 87.0659 31.1698 87.2138 31.0938C87.3618 31.0178 87.4688 30.9781 87.5352 30.9738L87.5525 30.9858L87.5408 31.0098L87.5583 31.0158C87.5895 31.0158 87.6342 31.009 87.6926 30.995C87.751 30.981 87.7958 30.9738 87.8269 30.9738C87.9242 30.9738 88.0254 30.9938 88.1305 31.0338C88.2551 31.0818 88.331 31.1441 88.3582 31.2198C88.475 30.9358 88.547 30.6978 88.5742 30.5058C88.5895 30.3941 88.5976 30.1458 88.5976 29.7621C88.5976 29.5338 88.5879 29.3941 88.5684 29.3418C88.6034 29.3418 88.6551 29.3367 88.7232 29.327C88.7911 29.317 88.8431 29.3118 88.8781 29.3118C88.9868 29.3118 89.0627 29.4338 89.1055 29.6781C89.09 29.7261 89.0841 29.8421 89.088 30.0258C89.0919 30.1181 89.095 30.1958 89.0969 30.2598C89.0989 30.3238 89.1016 30.3701 89.1055 30.3978V30.4098Z" fill="#E4C80C"/>
<path fill-rule="evenodd" clip-rule="evenodd" d="M91.1549 31.6099C91.151 31.5979 91.1413 31.5779 91.126 31.5499C90.9553 31.5139 90.7543 31.4959 90.5218 31.4959C90.3976 31.4959 90.2705 31.5708 90.1412 31.7211C90.0114 31.8708 89.9463 32.0099 89.9463 32.1379C89.9463 32.7059 90.1187 32.9899 90.4637 32.9899C90.5138 32.9899 90.5952 32.9499 90.7078 32.8699C90.8082 32.8019 90.8799 32.7419 90.9225 32.6899C91.0231 32.5739 91.0832 32.4119 91.1029 32.2039C91.1104 32.1279 91.1143 31.9497 91.1143 31.6699C91.1413 31.6579 91.1549 31.6379 91.1549 31.6099M92.4045 33.2477C92.4045 33.452 92.2705 33.554 92.0016 33.554C91.986 33.554 91.9627 33.54 91.9315 33.512L91.8848 33.47C91.7058 33.346 91.6065 33.27 91.5873 33.242L91.4002 32.942C91.1277 33.114 90.9798 33.206 90.9565 33.218C90.793 33.306 90.6278 33.35 90.4602 33.35C90.4407 33.35 90.4115 33.342 90.3729 33.326C90.3337 33.31 90.3045 33.302 90.285 33.302C90.2733 33.302 90.255 33.306 90.2297 33.314C90.2041 33.322 90.186 33.326 90.1743 33.326C89.9444 33.326 89.7537 33.208 89.6019 32.972C89.4617 32.76 89.3917 32.532 89.3917 32.2879C89.3917 31.6599 89.6505 31.2979 90.1682 31.2019C90.2733 31.1297 90.4582 31.0937 90.7229 31.0937C90.9136 31.0937 91.1027 31.1259 91.2893 31.1899C91.5309 31.2739 91.6727 31.3879 91.7158 31.5319C91.7391 31.6039 91.7544 31.7091 91.7625 31.8468C91.77 31.9848 91.7817 32.0959 91.7975 32.1799C91.8209 32.3119 91.8654 32.4737 91.9315 32.666C92.0211 32.926 92.0911 33.056 92.1417 33.056C92.1495 33.056 92.1623 33.052 92.1798 33.044C92.1973 33.036 92.2099 33.032 92.2176 33.032C92.2491 33.032 92.2877 33.06 92.3344 33.116C92.3811 33.172 92.4045 33.216 92.4045 33.2477" fill="#E4C80C"/>
<path fill-rule="evenodd" clip-rule="evenodd" d="M95.0492 31.5435C95.0492 31.5275 95.0414 31.4978 95.0258 31.4541C94.9947 31.4661 94.9694 31.4718 94.9502 31.4718C94.9188 31.4718 94.8632 31.451 94.7837 31.4087C94.7039 31.367 94.6483 31.3461 94.6171 31.3461C94.5977 31.3461 94.5043 31.3778 94.3369 31.4415C94.0956 31.5333 93.8931 31.6747 93.7297 31.8658C93.5428 32.0813 93.4494 32.3104 93.4494 32.5533C93.4494 32.661 93.4747 32.7527 93.5256 32.8284C93.5837 32.9161 93.6616 32.9598 93.7589 32.9598C93.7744 32.9598 93.7997 32.957 93.8348 32.951C93.8698 32.945 93.8951 32.9421 93.9107 32.9421C94.0741 32.9421 94.3046 32.7527 94.6027 32.3741C94.9004 31.9958 95.0492 31.7187 95.0492 31.5435V31.5435ZM95.8491 30.4098C95.8491 30.9458 95.6934 31.5361 95.382 32.1801C95.2652 32.4198 95.057 32.6758 94.7573 32.9478C94.4225 33.2478 94.1442 33.3978 93.9223 33.3978H93.5837C93.5681 33.3978 93.5256 33.3738 93.4555 33.3258C93.2451 33.1818 93.1108 33.0778 93.0524 33.0138C92.9317 32.8821 92.8714 32.7218 92.8714 32.5338C92.8714 32.3581 92.9609 32.1098 93.14 31.7898C93.3307 31.4458 93.5039 31.2778 93.6596 31.2861C93.7102 31.2338 93.8095 31.1698 93.9574 31.0938C94.1053 31.0178 94.2123 30.9781 94.2788 30.9738L94.296 30.9858L94.2843 31.0098L94.3018 31.0158C94.333 31.0158 94.3777 31.009 94.4361 30.995C94.4945 30.981 94.5393 30.9738 94.5704 30.9738C94.6677 30.9738 94.7689 30.9938 94.874 31.0338C94.9986 31.0818 95.0745 31.1441 95.1017 31.2198C95.2185 30.9358 95.2905 30.6978 95.3178 30.5058C95.333 30.3941 95.3411 30.1458 95.3411 29.7621C95.3411 29.5338 95.3314 29.3941 95.3119 29.3418C95.347 29.3418 95.3987 29.3367 95.4668 29.327C95.5346 29.317 95.5866 29.3118 95.6216 29.3118C95.7303 29.3118 95.8063 29.4338 95.8491 29.6781C95.8335 29.7261 95.8277 29.8421 95.8316 30.0258C95.8354 30.1181 95.8385 30.1958 95.8404 30.2598C95.8424 30.3238 95.8452 30.3701 95.8491 30.3978V30.4098Z" fill="#E4C80C"/>
</svg>
