<svg id="Capa_1" data-name="Capa 1" xmlns="http://www.w3.org/2000/svg" width="208.23mm" height="75.23mm" viewBox="0 0 590.27 213.26"><defs><style>.cls-1{fill:#ff8300;}.cls-2{fill:#1d1d1b;}</style></defs><title>kirolbet</title><path class="cls-1" d="M495,199.53a2.53,2.53,0,0,0-.7-1.8,2.46,2.46,0,0,0-1.89-.74,4.15,4.15,0,0,0-2.5.87,5.63,5.63,0,0,0-1.84,2.72h6.75A3,3,0,0,0,495,199.53Z" transform="translate(-56.63 -42.44)"/><path class="cls-1" d="M407,133.17h-8.87a.54.54,0,0,0-.52.41l-2.2,8.29a.54.54,0,0,0,.52.68h9.63c2.74,0,4.82-.52,6.22-1.58a4.71,4.71,0,0,0,2.11-3.87Q413.9,133.17,407,133.17Z" transform="translate(-56.63 -42.44)"/><path class="cls-1" d="M401.17,156.33h-9.25a.56.56,0,0,0-.53.41L389,165.6a.55.55,0,0,0,.53.68h10.1a11.25,11.25,0,0,0,6.36-1.57,4.84,4.84,0,0,0,2.35-4.17C408.35,157.74,406,156.33,401.17,156.33Z" transform="translate(-56.63 -42.44)"/><path class="cls-1" d="M646.9,63.78H558.46L548.8,73.5h-41l30.92-31.06H452.87l-71.12,71.41L378.6,117l-47.76,47.93,17.38,13.51L300.83,226h76.58l-29.57,29.7h93.51L467.9,229,469,227.9h48.69L643.09,102H608.84ZM423.08,177.58q-7.84,5.64-24.11,5.64H363.22a.55.55,0,0,1-.53-.68l17.7-65.89a.56.56,0,0,1,.54-.41h29.23q25.47,0,25.56,15.68a16.44,16.44,0,0,1-2.12,8.27q-3.62,6.27-11.89,8.95a.53.53,0,0,0,0,1,14.61,14.61,0,0,1,6.21,4.22,12.51,12.51,0,0,1,3,8.47Q430.93,171.93,423.08,177.58Zm6,5.64a.52.52,0,0,1-.5-.65l17.71-65.95a.51.51,0,0,1,.5-.38h56.06a.52.52,0,0,1,.5.65l-4.69,17.34a.54.54,0,0,1-.51.38H463.82a.51.51,0,0,0-.5.39l-1.54,5.75a.52.52,0,0,0,.5.65h31.37a.53.53,0,0,1,.51.66l-4,15.13a.53.53,0,0,1-.51.39H457.69a.51.51,0,0,0-.5.38l-1.72,6.23a.52.52,0,0,0,.5.66h34.24a.52.52,0,0,1,.5.65l-4.6,17.34a.52.52,0,0,1-.51.38Zm45.7,31.4H464.59l2.72-10.09h10.18Zm15.48.57a12.26,12.26,0,0,1-8.58-2.9,9.82,9.82,0,0,1-3.18-7.63,14.58,14.58,0,0,1,4-10.17,13.59,13.59,0,0,1,10.54-4.39,12.52,12.52,0,0,1,5,.9,8,8,0,0,1,3.29,2.43,10.41,10.41,0,0,1,1.73,3.29,12.45,12.45,0,0,1,.55,3.77,14.51,14.51,0,0,1-.7,4.48h-15.4a3.27,3.27,0,0,0,1,2.34,3.65,3.65,0,0,0,2.56.86,8.12,8.12,0,0,0,4.83-1.93l4.6,5A14.9,14.9,0,0,1,490.25,215.19Zm24.82-17a23.43,23.43,0,0,0,2.86,1.14,14.93,14.93,0,0,1,5.06,2.76,5.75,5.75,0,0,1,1.73,4.48,8.19,8.19,0,0,1-2.65,6q-2.66,2.6-8.22,2.59a20.59,20.59,0,0,1-12.81-4l4.38-5.71a15.93,15.93,0,0,0,4.15,2.28,12.32,12.32,0,0,0,4.45,1c.94,0,1.41-.28,1.41-.83a1.24,1.24,0,0,0-.73-1,20.08,20.08,0,0,0-3-1.27,14.17,14.17,0,0,1-4.89-2.74,5.5,5.5,0,0,1-1.65-4.19,7.6,7.6,0,0,1,3-6.17q3-2.43,8.22-2.43,7,0,11.32,3.29l-4.39,5.7a16.79,16.79,0,0,0-3.55-1.77,10.66,10.66,0,0,0-3.73-.77c-1,0-1.58.26-1.58.79A1,1,0,0,0,515.07,198.17Zm52.57-81.28-4.79,17.91a.52.52,0,0,1-.51.38H543.43a.51.51,0,0,0-.5.39l-12.72,47.27a.5.5,0,0,1-.5.38H508.4a.52.52,0,0,1-.51-.65l12.57-46.73a.52.52,0,0,0-.5-.66H501.6a.52.52,0,0,1-.5-.65l4.79-17.91a.51.51,0,0,1,.5-.38h60.75A.52.52,0,0,1,567.64,116.89Z" transform="translate(-56.63 -42.44)"/><path class="cls-2" d="M109.5,147a.39.39,0,0,1,.08-.42l29.66-29.75a.39.39,0,0,0-.28-.67H112.83a.36.36,0,0,0-.29.13L91.46,139a.39.39,0,0,1-.67-.36l5.95-22a.39.39,0,0,0-.38-.49H74.8a.4.4,0,0,0-.38.29L56.65,182.65a.4.4,0,0,0,.38.5H78.59a.4.4,0,0,0,.38-.3l3.15-11.75a.4.4,0,0,1,.1-.18l8.87-8.86a.39.39,0,0,1,.64.14l7.73,20.69a.4.4,0,0,0,.36.26h23a.4.4,0,0,0,.36-.54Z" transform="translate(-56.63 -42.44)"/><path class="cls-2" d="M168.77,116.2H147.34a.45.45,0,0,0-.44.34l-17.74,66a.46.46,0,0,0,.44.58H151a.46.46,0,0,0,.44-.34l17.73-66a.45.45,0,0,0-.44-.57" transform="translate(-56.63 -42.44)"/><path class="cls-2" d="M215.64,160.7c12.83-4.19,18.13-13.08,18.13-23.37,0-5.26-1.53-10.23-5.26-14-4.49-4.49-12.33-7.17-24.67-7.17H178.11a.5.5,0,0,0-.48.37l-17.71,66a.5.5,0,0,0,.48.63h21.35a.51.51,0,0,0,.48-.37l5-18.39a.48.48,0,0,1,.48-.37h4.82a.48.48,0,0,1,.46.32l7.22,18.49a.49.49,0,0,0,.46.32h23a.5.5,0,0,0,.46-.69l-8.78-21.1a.5.5,0,0,1,.31-.66m-16-12.65h-7.48a.51.51,0,0,1-.48-.63l3.27-12.11a.5.5,0,0,1,.48-.37H203c3.16,0,5.35.67,6.6,1.92A4.88,4.88,0,0,1,211,140.4c0,4.2-3.92,7.65-11.38,7.65" transform="translate(-56.63 -42.44)"/><path class="cls-2" d="M309.18,145.18c0-17.12-13.58-30.32-33.28-30.32a39.51,39.51,0,0,0-39.4,39.31c0,17.12,13.58,30.31,33.29,30.31a39.49,39.49,0,0,0,39.39-39.3m-37.87,19.6c-8,0-12.33-5.54-12.33-12.62,0-8.42,6-17.6,15.39-17.6,8,0,12.34,5.55,12.34,12.63,0,8.41-6,17.59-15.4,17.59" transform="translate(-56.63 -42.44)"/><path class="cls-2" d="M363.85,164H334.64a.49.49,0,0,1-.47-.63l.33-1.23,12.14-45.33a.5.5,0,0,0-.48-.63H324.81a.5.5,0,0,0-.48.37l-17.71,66a.5.5,0,0,0,.48.63H359a.49.49,0,0,0,.48-.37L362.35,172l2-7.34a.51.51,0,0,0-.49-.63" transform="translate(-56.63 -42.44)"/></svg>