<svg xmlns="http://www.w3.org/2000/svg" id="LeoVegas_SPORT" x="0" y="0" version="1.1" viewBox="0 0 390.1 97.8" xml:space="preserve"><style>.st1{opacity:.27;fill:#030303;enable-background:new}.st2{fill:#f7f4f1}</style><linearGradient id="SVGID_1_" x1="-801.535" x2="-801.246" y1="1039.187" y2="1039.31" gradientTransform="matrix(378.6 0 0 -92.7 303590.406 96385)" gradientUnits="userSpaceOnUse"><stop offset="0" stop-color="#500800"/><stop offset="1" stop-color="#962e15"/></linearGradient><path fill="url(#SVGID_1_)" d="M48.8 95.4C23.3 95.4 2.5 74.6 2.5 49S23.3 2.8 48.8 2.8s46.3 20.8 46.3 46.3-20.7 46.3-46.3 46.3zm78.9-42.9V39.3h6.2V19.1h-32.6v20.1h5.4v20h-5.4v20.1h47.2v-3.5c3.9 2.6 8.7 4 14.1 4 5.8 0 10.9-1.3 15.1-3.7l2.8-1.7c4.1 3.5 9.5 5.5 15.5 5.5 9.1 0 16.7-4.6 20.5-11.8l4.8 11.2h13.4l4.5-10.7c3.9 6.9 11.5 11.1 20.8 11.1 4.8 0 9-.8 12.7-2.5-.1.6-.1 1.2-.1 1.8 0 3.2 1.3 6.2 3.6 8.6 3.6 3.6 10 5.8 16.9 5.8 7.2 0 13-2.5 16.8-7.3 2-2.5 3.3-5.4 3.9-8.7 2.7 1.6 5.9 2.5 9.5 2.5 1.5 0 3.1-.2 4.7-.5h24.2v-1.1c2.9 1 6.1 1.5 9.2 1.5 11.4 0 19.7-7 19.7-16.6 0-3.3-.9-6.1-2.8-8.4 1.3-1.8 2-4 2-6.4 0-3.2-1.3-6.2-3.6-8.6-3.8-3.8-10.3-5.5-15.1-5.5-8.1 0-13.8 3.4-16.8 8-.3-.5-.6-.9-1-1.3-2.5-3.1-7.3-6.7-16.2-6.7-3.6 0-6.5.6-8.8 1.5v-1h-22.7c-1.5-.4-3.1-.5-4.6-.5-6.2 0-11.8 2.7-15.8 7.3-3.9-4.7-9.9-7.3-16.9-7.3h-.7V19.1h-60.2v15.2c-.6 0-1.1-.1-1.7-.1-7 0-13.4 2.9-17.6 7.7-3.9-4.9-10-7.7-17.2-7.7-11 0-19.9 7.6-21.9 18.1H128l-.3.2z"/><path d="M48.8 6.4C25.3 6.4 6.1 25.6 6.1 49.1s19.2 42.8 42.8 42.8 42.8-19.2 42.8-42.8S72.4 6.4 48.8 6.4z" class="st1"/><path d="M49.8 64.2c-.5-.4-1.2-.3-1.7.1-1.8 1.6-4.4 3.2-7 3.8-.5.1-.7.8-.4 1.4.5 1.1 1.7 2.6 2.8 3.6s2 1.3 2.8 1.9c.8.6 2 2.2 2.5 2.9.1.2.4.2.5 0 .4-.7 1.3-2.2 2.3-3 1.1-.9 4-2.5 4.7-4.4.3-.8.8-1.9 1.2-2.6.5-1 .2-1.6-.5-1.6-2.7-.1-5.4-.9-7.2-2.1z" class="st2"/><path d="M48.8 9.2c-22 0-39.9 17.9-39.9 39.9C8.9 71.2 26.8 89 48.8 89s39.9-17.9 39.9-39.9c.1-22-17.8-39.9-39.9-39.9zm26.6 15.1l-4.9 4.9v-.3c0-1.8-1.1-2.9-2.5-4.1l-.1-.1 4.1-3.5c1.2.9 2.3 2 3.4 3.1zm-45.5-6.2l2.6-1.5c.2-.1.5-.3.7-.4l5.2 6.8-.9-8.4c1.4-.5 2.9-.9 4.5-1.2l3.5 10.1 1-10.7c.8 0 1.5-.1 2.3-.1s1.5 0 2.3.1l1 10.3 3.5-9.7c1.5.3 3 .7 4.5 1.1l-.9 8.8 5.1-7.1c1.4.7 2.7 1.4 4 2.2l-2.5 4.8c-1.4-.7-2.9-1-3.5 0-1 1.6-2 2.7-2.3 2.7-1.1-.1-3.1-1.1-5.3-1.1-4.3 0-5.6 3-5.6 3s-2.2-3-6.1-3-5.1 1.2-5.1 1.2-1-2.4-1.7-3.1c-.5-.5-2.4-.2-4.2.8l-.1-.3-2.6-4.9c.1-.1.4-.2.6-.4zm28.7 14.7c-2.9.6-4.6 2-5.2 2.4-.7.4-1-.8-.7-1.4s1-.6 1.7-1.3c1.7-1.6 2.5-1.8 4.2-1.9 1.2-.1 2.3.1 3 .3.7.2 1.2 1 1.7 2 .2.5.7 1.9.6 3.1 0 .4-.3.5-.4.3s-1-4.3-4.9-3.5zM63 38c-.4.3-1.2 0-1.2 0s-1.2 1.7-1.7 2c-.4.3-5 1.4-5 1.4s-.5.9-1 .7c-.7-.2 0-4 .4-5 .3-1 2.9-1.5 4.5-1.6 1.6 0 3.2 1.1 4.1 1.8.2.1.2.4-.1.7zm-19.6-1.4c-1.2-.2-1.8-1.5-3.1-2.9-2-2-4.2-.4-5.5 0-.9.2-1.4-1.3-.3-2.6 1.2-1.4 4.6-1.4 5.9-.6.6.4 2.3 3.3 3.7 3.8 2.9 1.1 1.4 2.6-.7 2.3zm.4 5.8c-.5.2-.6-.4-.9-.6-.1-.1-.7.1-1.1-.2-.5-.3-.6-.9-1.2-1.3-1.6-1-2.6-.7-3-.9-.4-.2-1-.8-1-.8s-.8.3-1.1 0-.3-.5-.1-.7c.9-.7 2.4-1.8 3.9-1.7 1.5 0 3.9.6 4.2 1.5.2.6.5 2.3.5 3.5 0 .6.3 1-.2 1.2zM25.5 21.3l4 3.7.3.3c-1.2 1.2-2.3 2.6-2.6 3.7l-5-4.6 3.3-3.1zm59.4 32.4c-.2 1.5-.5 3-.8 4.5l-17.9-3.4 16.5 7.7c-.6 1.4-1.2 2.8-1.9 4.1l-16.4-7.7 14 11.5c-.9 1.2-1.9 2.4-2.9 3.5l-13-10.2 9.6 13.4c-1.2 1-2.4 1.9-3.7 2.7L59 67.4 64.5 82c-1.4.7-2.8 1.2-4.3 1.7l-5-9.9.7 11c-1.5.3-3.1.5-4.7.6L49 79.2l-2.2 6.2c-1.6-.1-3.1-.3-4.7-.6l.3-10.4-4.6 9.3c-1.5-.5-2.9-1-4.3-1.7l4.7-13.3-8.6 11.2c-1.3-.8-2.5-1.7-3.7-2.7l10.7-14.8-14 11.7c-1.1-1.1-2-2.3-2.9-3.5l14-11.7-16.5 7.8c-.7-1.3-1.4-2.7-2-4.1l16.6-7.8-18 3.5c-.4-1.5-.7-3-.9-4.5l18-3.5-18.4-1v-1.8l.1-.8c0-.6.1-1.3.2-1.9l17.3.9-16.5-5.4c.4-1.5.8-2.9 1.4-4.4L28.6 39l-11.7-7.3 2.4-3.9 12.1 5.5c-.2.6-.6 1.8-.5 4 .1 3.2-.3 5.3 1 6.6 1.4 1.4 3.2 2.5 4.2 3.8.2.3.4.5.5.8.3.3.4.5.5.7l.3.6c.7-1.2 2.2-1.9 2.5-1.7.2.2-.9 1.2-2 3.9-.2.6-.6 1.6-.9 2.4-.4 1.2-.6 2.4-.4 4 .3 2.6 2.1 5.9 2.8 6.8.5.6 2.1.3 3.3 0 1.2-.3 3.3-1.5 4.1-2.5.9-1 1.5-1.7 1.2-3.3-.2-1.1-1.3-2.6-2.2-3.2-.9-.5-2.4-1.6-2.8-2.2-.2-.3-.5-.8-.8-1.2-.2-.4-.4-.7-.3-.9.3-.2.4-.1.7.2.3.3.5.7.6.6.1-.1 0-.1 0-.4.1-.2.3-.5.8-.8 1-.5 2.9.7 4.9.7s4.6-1.8 5.4-1.1c.5.4.6.8.6 1.1 0 0 0 .1.1.1.3 0 .6-.4.9-.7.2-.2.4-.3.6-.2.2.1.1.5 0 .9s-.3.8-.5.9c-.6.5-1.8.5-3.6 2.1-1.7 1.5-2.6 2.9-2.7 3.9-.1.7.3 2.2 1 3s1.6 1.4 3.3 1.7c1.5.2 4.4-.4 5.2-1.1 1.1-1 1.7-2.1 2.1-3.8.4-1.8.1-4.5-.2-5.5-.9-2.8-2.3-4.4-1.9-4.7.3-.3 1.2.6 1.8 1.1.1-.4.2-1.5.4-2.1.3-1.3.9-2 2.2-2.7 1.5-.9 3.8-2.2 4-3.7.2-1.5.4-4.4.1-5.4-.2-.6-.4-1.6-.6-2.3l11.1-6c.9 1.2 1.7 2.5 2.5 3.9l-11.3 7.1 13.3-3c.6 1.4 1.1 2.9 1.4 4.4l-17.4 5.6 18.2-1.2c.2 1.5.3 3 .3 4.5v.1L67 50.4l17.9 3.3z" class="st2"/><path d="M373.1 54.8c2.3-1.1 3.7-3.5 3.7-6.3 0-2.3-.9-4.3-2.6-6.1-3.1-3.1-8.7-4.5-12.6-4.5-7.8 0-15.7 4.4-15.7 12.9 0 3.7 1.4 6.2 3.6 8-2.4.8-4.2 2.9-4.6 5.5h-.8V52.9c0-3.9-1.1-7.4-3.1-9.6-2-2.5-5.9-5.4-13.5-5.4-5.9 0-10 1.8-12.4 4.3v-3.7h-17.6v.7c-1.8-.7-3.8-1.2-6.2-1.2-7.1 0-13 4.3-15.8 10.6-2.6-6.5-8.7-10.6-16.8-10.6-4.7 0-8.8 1.6-12 4.2l2.7-6.4h5v-13H230v13h4l-6 15.4-6-15.4h3.7v-13h-24.4v13h5.3l3.1 7.3c-3.5-3.2-8.2-5.1-13.7-5.1-8.2 0-14.9 4.4-17.9 11.1-2.4-6.8-8.7-11.1-17-11.1-10.4 0-18.2 7.7-18.8 18.1h-11.1v6.7h-7.3V35.7h6.2v-13h-25.4v13h5.4v27.1h-5.4v13h40.1v-8.9c3.3 5.7 9.7 9.3 17.6 9.3 5.2 0 9.7-1.1 13.3-3.2l2-1.2-.8-2.2c-.2-.5-1.6-4.6-2.2-5.9l-.5-1.2h2.7c2.2 8.2 9.5 13.8 18.9 13.8 11.2 0 19.6-8.3 19.6-19.2V57l8 18.8h8.7l7.6-17.8c.4 10.8 8.6 18.2 20.1 18.2 5.2 0 9.7-1.1 13.3-3.2l2-1.2-.8-2.2c-.2-.5-1.6-4.6-2.2-5.9l-.5-1.2h2.6c1.2 4.1 3.6 7.4 6.8 9.6-3 .8-5.2 3.6-5.2 6.9 0 2.3.9 4.3 2.6 6.1 2.9 2.9 8.5 4.8 14.3 4.8 6.1 0 10.9-2.1 14-6 2.4-3.1 3.6-6.8 3.6-11.2v-5.2c1.2 5.3 6.1 8.9 12.7 8.9 2.6 0 5.2-.6 7.7-1.8v1.2h17.6v-3.1c3 2.1 8.1 3.5 12.7 3.5 9.5 0 16.1-5.3 16.1-13 .5-4.1-1.4-6.6-4-8.4zm-212-4.9c1.7 0 3 .5 3.8 1.5h-7.4c1.2-1.2 2.6-1.5 3.6-1.5zm2.6 14c-2.6 0-4.3-.6-5.4-1.4h12.2c-2.4.9-4.7 1.4-6.8 1.4zm94.9-14c1.7 0 3 .5 3.8 1.5H255c1.2-1.2 2.7-1.5 3.6-1.5zm2.6 14c-2.6 0-4.3-.6-5.4-1.4H268c-2.4.9-4.6 1.4-6.8 1.4zm26.2-7.3c0-4.1 1.9-6.2 5.6-6.2 1.5 0 2.9.4 4.2 1.1v9.7c-1.4 1.1-2.8 1.6-4.2 1.6-3.6-.1-5.6-2.3-5.6-6.2zm9 19.6c-1 1.3-2.8 1.6-4.1 1.6-.7 0-1.3-.1-1.8-.2-.1-1.1-.5-2.1-1.1-2.9.6.1 1.1.1 1.7.1 2.5 0 4.5-.5 6.2-1.3-.2 1.3-.4 2.3-.9 2.7zm14.4-14.3V50.1h1.7c.3 2.2 1.6 3.9 3.3 4.9-2.6 1.6-4.3 4-5 6.9zm20.1 1.5c-1.7 1-3.4 1.5-5 1.5-1.9 0-1.9-.7-1.9-1.1 0-1.5 2-1.8 3.3-1.8 1.2 0 2.5.1 3.7.2v1.2h-.1zm-5-11h-.3c.5-.8.8-1.7.9-2.7 2.6 0 3.6.7 4.1 1.3.2.2.4.8.5 1.7-1.7-.2-3.5-.3-5.2-.3zm35.6-3c.5 0 1 0 1.5.1.1.6.2 1.1.3 1.6-1.9-.5-3.2-1-4-1.3.5-.2 1.2-.4 2.2-.4zm.2 15.4c-.9 0-1.9-.1-2.8-.3-.1-.7-.2-1.3-.4-1.9.6.2 1.3.4 1.9.5 2 .6 3.1 1 3.7 1.2-.5.3-1.3.5-2.4.5z" class="st1"/><path d="M250.9 54.3c.8-5.1 4.3-7.2 7.7-7.2 4.6 0 7.4 2.8 7.6 7.2h-15.3zm7.9-13.6c-9.7 0-16 7.4-16 16.4 0 9.7 7.2 16.2 17.3 16.2 4.6 0 8.7-.9 11.9-2.8 0 0-1.5-4.4-2.1-5.7-2.9 1.2-5.8 1.9-8.8 1.9-5.3 0-9.2-2.2-10.3-7h22.7c.3-1.1.4-2.7.4-3.9.2-8.3-5.1-15.1-15.1-15.1zm-62.7 0c-10.3 0-16.8 7.7-16.8 16.4 0 8.8 6.4 16.4 16.8 16.4 10.3 0 16.8-7.7 16.8-16.4 0-8.8-6.3-16.4-16.8-16.4zm-3 8.5c.3-1.3 1.3-2.8 2.4-3.7.3-.2.7 0 .7.3 0 1.4 1.2 2.6 1.1 4.3-.1 1.3-.8 2.6-2.1 2.6-1.9-.2-2.5-1.9-2.1-3.5zm-6-1.5c.1-.4.7-.4.8 0 .8 1.6 2.6 1.9 3.1 3.2.4 1.1.5 2.6-1.1 3.5-1.6.9-2.7-.7-3.1-2.2-.3-1.3-.1-3.1.3-4.5zm12.4 20.7c-1.7-.2-3.8-2-5.8-2-1.5 0-4 .7-5.4.4-1.4-.3-1.9-2.6-1.9-4.5 0-2 2.1-3.8 3.9-5.4 1.5-1.3 4.2-2.9 5.4-2.9 1.6 0 3.3 1.3 4.2 5.2.7 3.2 2.9 3 2.9 4.6 0 2.6-1.6 4.9-3.3 4.6zm1.3-14.2c-1.3-.4-1.7-1.7-1.3-3 .4-1.3 1.8-2.1 2.5-3.6.2-.4.7-.4.8 0 .5 1.2 1.1 2.8 1 4-.1 1.5-1.1 3.2-3 2.6zm6.2 5.6c-.7 1.5-2.3 1.7-3.3 1.2-1.4-.8-1.5-2.6-.4-3.9.8-1 2.6-1.2 3.2-2.6.2-.4.7-.4.8 0 .7 1.7.3 4.1-.3 5.3zm-72.7 5.8h-13V32.9h6.2v-7.4h-19.8v7.4h5.5v32.7h-5.5v7.3h34.4v-14h-7.8zm27-24.9c-9.7 0-16 7.4-16 16.4 0 9.7 7.2 16.2 17.3 16.2 4.6 0 8.7-.9 11.9-2.8 0 0-1.5-4.4-2.1-5.7-2.9 1.2-5.8 1.9-8.8 1.9-5.3 0-9.2-2.2-10.3-7H176c.3-1.1.4-2.7.4-3.9.2-8.3-5.1-15.1-15.1-15.1zm-7.9 13.6c.8-5.1 4.3-7.2 7.7-7.2 4.6 0 7.4 2.8 7.6 7.2h-15.3zm147.1-10.2h-.1c-2-1.8-5-3.4-8.9-3.4-8.3 0-14.8 7-14.8 16 0 9.3 6.4 15.4 14.4 15.4 4.2 0 6.6-1.6 9.1-4.1v4.6c0 2.4-.5 4.2-1.5 5.4-1.4 1.9-3.7 2.7-6.4 2.7-1.9 0-3.4-.4-4.7-.8.1-.3.1-.8.1-1.2 0-2.4-1.9-4.1-4.3-4.1-2.6 0-4.2 2.2-4.2 4.3 0 1.5.5 2.8 1.8 4.1 2.2 2.2 6.9 3.9 12.3 3.9 5.1 0 9.2-1.6 11.8-4.9 1.9-2.4 3-5.6 3-9.5V47.2h4.5v-6h-12.1v2.9zm-.5 18.3c-2 1.9-4.3 3.1-7 3.1-4.9 0-8.4-3.1-8.4-8.9 0-6 3.5-9.1 8.4-9.1 2.8 0 5.1.9 7 2.4v12.5zm62.9-8.6c-4.9-1.4-6.6-2.2-6.6-4.1 0-1.6 1.8-3.2 5.3-3.2 1.6 0 3.1.3 4.5.8-.1.4-.1.8-.1 1.4 0 2.4 1.8 3.9 4.2 3.9 2.3 0 3.9-1.8 3.9-4.2 0-1.5-.5-2.8-1.8-4.1-2.2-2.2-6.8-3.7-10.6-3.7-8.8 0-12.9 5.1-12.9 10 0 5.4 3.7 7.4 12.3 9.7 4.9 1.4 6.2 2.2 6.2 3.8 0 2.3-2.6 3.4-5.7 3.4-2.2 0-4.2-.4-5.7-.9.1-.4.1-.8.1-1.4 0-2.7-2-4.2-4.2-4.2-2.4 0-4.2 1.9-4.2 4.2 0 1.6.5 3 1.8 4.2 2 2 7.3 3.8 12.1 3.8 7.2 0 13.3-3.5 13.3-10.2 0-5.2-4.3-7.1-11.9-9.2zm-21.5-.9c0-3.1-.8-6-2.4-7.9-2.2-2.7-6-4.3-11.2-4.3-8.5 0-12.5 4.2-12.5 8.1 0 2.6 1.8 4.2 4.2 4.2s4.2-1.8 4.2-4.1c0-.4-.1-1.1-.3-1.6.7-.3 1.8-.5 3.1-.5 2.8 0 4.9.7 6.2 2.3.8.9 1.2 2.4 1.2 4.3V56c-1.8-.4-4.7-.8-8-.8-7.4 0-12.6 3.7-12.6 9.5 0 6 4.9 8.8 10.2 8.8 4.2 0 8-1.9 10.6-4.1v3.5H346V67h-4.6V52.9zM333.8 65c-2.4 1.8-5.1 2.8-7.9 2.8-2.8 0-4.7-1.4-4.7-3.9 0-2.8 2.3-4.6 6.1-4.6 2.4 0 4.7.3 6.5.7v5zM233 32.9h5.2l-10.1 26-10.2-26h5v-7.4h-18.6v7.4h4.3l17 40h5l17-40h4.1v-7.4H233z" class="st2"/></svg>