<svg xmlns="http://www.w3.org/2000/svg" xmlns:xlink="http://www.w3.org/1999/xlink" version="1.1" id="svg147" viewBox="0 0 560.238 129.438">
  <defs id="defs62">
    <linearGradient id="linear-gradient" x1="98.77" y1="111.12" x2="178.87" y2="111.12" gradientUnits="userSpaceOnUse">
      <stop offset=".34" stop-color="#61a930" id="stop4"/>
      <stop offset="1" stop-color="#bccf33" id="stop6"/>
    </linearGradient>
    <linearGradient id="linear-gradient-2" x1="-871.84" y1="-643.35" x2="-871.84" y2="-673.39" gradientTransform="matrix(0 3.07 -2.46 0 -1489.53 2843.05)" gradientUnits="userSpaceOnUse">
      <stop offset=".2" stop-color="#873888" id="stop12"/>
      <stop offset=".76" stop-color="#bf88b7" id="stop14"/>
      <stop offset="1" stop-color="#dec3dc" id="stop16"/>
    </linearGradient>
    <linearGradient id="linear-gradient-3" x1="-372.48" y1="104.65" x2="-372.48" y2="75.82" gradientTransform="matrix(3.28 -1.6 1.05 2.15 1319.33 -632.98)" gradientUnits="userSpaceOnUse">
      <stop offset=".17" stop-color="#48a5d8" id="stop22"/>
      <stop offset=".75" stop-color="#85c7ea" id="stop24"/>
      <stop offset="1" stop-color="#cae7f6" id="stop26"/>
    </linearGradient>
    <linearGradient id="linear-gradient-4" x1="218.77" y1="93.3" x2="150.28" y2="120.97" gradientUnits="userSpaceOnUse">
      <stop offset=".29" stop-color="#e94e1b" id="stop32"/>
      <stop offset=".75" stop-color="#ec8825" id="stop34"/>
      <stop offset="1" stop-color="#f5c6a8" id="stop36"/>
    </linearGradient>
    <linearGradient id="linear-gradient-6" x1="-1273.92" y1="-1092.24" x2="-1273.92" y2="-1125.05" gradientTransform="matrix(-2.78 1.51 -.83 -1.52 -4291.14 341.68)" gradientUnits="userSpaceOnUse">
      <stop offset="0" stop-color="#5faf2d" id="stop42"/>
      <stop offset=".46" stop-color="#b1c718" id="stop44"/>
      <stop offset="1" stop-color="#d5e395" id="stop46"/>
    </linearGradient>
    <linearGradient xlink:href="#linear-gradient" id="linearGradient958" gradientUnits="userSpaceOnUse" x1="98.77" y1="111.12" x2="178.87" y2="111.12"/>
    <clipPath id="clip-path">
      <path class="cls-1" d="M157.39 138.46c.9 2 1.93 4.09 1.89 6.76-.17 12.45-12.68 34.11-25.48 43.13-15.32 10.78-32.8 3.34-36.8-7.54-2.22-6.14 1.65-6.37-2.33-17.4-3-8.39-9-9.35-11.26-14.95-5-12.4 7.79-23.23 19.27-25.24 16.91-2.96 50.39 5.48 54.71 15.24z" id="path9" fill="none"/>
    </clipPath>
    <clipPath id="clip-path-2">
      <path class="cls-1" d="M157.46 138.43c9.27-3.86 37.76-.91 58.56 16.19 6.17 5.07 10.32 18.94-1.26 28.49-3.61 3-9 4.7-15.92 4.88-3.52.09-8 1.08-13.62 3.48-8.18 3.48-11 8.17-14.84 10.57-15.65 9.8-35.64-1-36.72-13.49-2.3-26.36 15.63-46.71 23.8-50.12z" id="path19" fill="none"/>
    </clipPath>
    <clipPath id="clip-path-3">
      <path class="cls-1" d="M157.32 138.32c-6.33-13 10.86-37.35 21-43.86 5.27-3.36 21.94-8.51 32.49 3.74 3.66 4.24 1.42 9.32 5.86 16.17 5.12 7.9 10.3 8.85 13.25 12.51 9.58 11.93-.66 25.17-13.69 27.74-19.42 3.82-54.02-6.29-58.91-16.3z" id="path29" fill="none"/>
    </clipPath>
    <clipPath id="clip-path-4">
      <path class="cls-2" d="M132.85 93.3c2.57-.91 7.28-3.13 10-5.59 2.72-2.46 10.61-7.5 22.48-4.61 3.5.94 11.41 4.75 13 11.33 2.87 11.69-5.94 37.36-20.78 44-12.36 5.49-44-3.77-55.15-15.31-7.9-8.16-1.57-19.84 6.24-23.93 3.85-2 5.75-2.93 14.28-3.45a34.41 34.41 0 009.93-2.44z" id="path39" fill="url(#linear-gradient)"/>
    </clipPath>
    <clipPath id="clip-path-8">
      <path class="cls-1" d="M230 126.91c-3.08-3.67-8.16-4.62-13.28-12.54-4.43-6.84-2.21-11.92-5.85-16.17-10.6-12.33-27.26-7.12-32.56-3.76v.06c-1.57-6.65-9.55-10.47-13.07-11.43a24.62 24.62 0 00-22.39 4.62 34.37 34.37 0 01-10 5.61 34.54 34.54 0 01-10 2.4c-8.53.52-10.44 1.42-14.29 3.45-7.83 4.1-14.17 15.78-6.16 24l.18.15c-11.46 2.07-24.09 12.88-19.16 25.27 2.25 5.6 8.26 6.56 11.28 15 4 11 0 11.28 2.34 17.41 3.69 10.87 21.1 18.33 36.5 7.64 1.11 12.32 21.11 23.32 36.79 13.49 3.85-2.4 6.68-7.09 14.85-10.6a38.89 38.89 0 0113.66-3.51 25.6 25.6 0 0015.95-4.87 18.46 18.46 0 001.3-28.49h.21c12.97-2.53 23.23-15.78 13.7-27.73z" id="path49" fill="none"/>
    </clipPath>
    <radialGradient id="Degradado_sin_nombre_7" cx="158.76" cy="-332.24" fx="134.549" r="64.38" gradientTransform="matrix(1 0 0 -1 0 -190)" gradientUnits="userSpaceOnUse">
      <stop offset=".39" stop-color="#fff" id="stop52"/>
      <stop offset="1" stop-color="#fff" stop-opacity="0" id="stop54"/>
    </radialGradient>
    <radialGradient id="Degradado_sin_nombre_8" cx="180.2" cy="-321.01" r="49.26" gradientTransform="matrix(1 0 0 -1 0 -190)" gradientUnits="userSpaceOnUse">
      <stop offset=".38" stop-color="#fff" id="stop57"/>
      <stop offset="1" stop-color="#fff" stop-opacity="0" id="stop59"/>
    </radialGradient>
    <radialGradient xlink:href="#Degradado_sin_nombre_7" id="radialGradient960" gradientUnits="userSpaceOnUse" gradientTransform="matrix(1 0 0 -1 0 -190)" cx="158.76" cy="-332.24" fx="134.549" r="64.38"/>
    <radialGradient xlink:href="#Degradado_sin_nombre_7" id="radialGradient962" gradientUnits="userSpaceOnUse" gradientTransform="matrix(1 0 0 -1 0 -190)" cx="158.76" cy="-332.24" fx="134.549" r="64.38"/>
    <style id="style2">
      .cls-1{fill:none}.cls-2{fill:url(#linear-gradient)}.cls-9{clip-path:url(#clip-path)}.cls-11{clip-path:url(#clip-path-2)}.cls-13{clip-path:url(#clip-path-3)}.cls-17{fill:#4563ab}
    </style>
  </defs>
  <g id="Capa_2" data-name="Capa 2" transform="translate(-82.252 -82.08)">
    <path d="M274.34 199.85c-11.34 0-19.37-5.66-21.48-15.14-.54-2.43-.79-7.09-.74-13.86l.15-54.58c0-8.57-.2-15.49-2.58-20l-1.46-2.73 25.35-7.72.88 2.15c1.55 3.83 3.77 14.47 3.72 23.7l-.25 54.16c-.06 7.76.09 11.7.51 13.59.42 1.89 1.12 2.15 2.38 2.15a4.31 4.31 0 001.25-.1l2.59-1.06 4.95 16.37-2.21.85a37.54 37.54 0 01-13.06 2.22zm75.17 1.15l-1.19-1.29a31 31 0 01-4.87-7A29.44 29.44 0 01324 200c-12.95 0-22.43-6.45-24.74-16.85A53.87 53.87 0 01298.1 171v-49l25.23-4.47-.18 50.06a49.31 49.31 0 00.62 9.3c.46 2.08 2.48 3.59 3.61 3.59 4.84 0 9.85-5.11 11.73-8.89l.19-49.12 24.7-4.86-.17 59c0 4.66 1.92 10.45 4.33 13.17l2.38 2.69zm61.95-1c-18.25 0-30.92-9.89-34.76-27.14-3.91-17.61.33-35.54 10.8-45.68 6.71-6.52 14.52-9.44 25.31-9.44a37.76 37.76 0 0124.19 9.33l1.82 1.57-12.26 16.05-2-1.77c-3.43-3-7.67-4.81-11.07-4.81a7.5 7.5 0 00-6.55 3.25c-3.55 5-5.64 19-3.12 30.39.89 4 3.22 8.87 9.18 8.87 4.3 0 8.52-2.05 13.67-6.65l2-1.78 12.66 15.87-1.86 1.6c-8.28 7.15-16.92 10.34-28.01 10.34zm115.59-1.86L495.1 154.2l26.65-34.32H490l-15.7 25.87.13-29.17c.08-13.44-1.32-23.92-3.84-28.77l-1-1.89-24.54 7.65 1.26 2.65c1.9 4 2.73 9.84 2.72 19l-.36 82.87h25.41l.15-35.93 22.45 35.93zm5-76.62l-.26 76.62h25.41l.2-80.37zm108.1 62.55c-3.67-3.05-5.11-6.51-5.15-12.33l.06-27.74a139.17 139.17 0 011-17.61l.29-1.85-1.69-.82c-6.84-3.34-17-5.26-28-5.26-13.82 0-23.18 3.81-30.34 12.34-8.49 10.11-11.4 27-7.6 44.06 3.62 16.31 13.93 25.29 29 25.29 7.54 0 13.41-2.2 18.18-6.88a20.62 20.62 0 007.19 6.85l1.53.83L642.49 186zM610 171.19c-.88 4.36-5.11 9.14-9.93 9.14-2.12 0-4.31-.57-5.83-7.44-2.14-9.59-1.89-23.19 2.2-29.31 3.41-5 6-5.18 10.77-5.18a15.29 15.29 0 013.15.42zm-65.26-56.79c-8.36 0-15.16-6.44-15.16-14.35 0-7.91 6.8-14.36 15.16-14.36s15.17 6.44 15.17 14.36c0 7.92-6.81 14.35-15.17 14.35z" id="path66" fill="#fff"/>
    <g id="g84" opacity=".3">
      <path d="M137.43 92.77c2.57-.91 8.61.1 11.3-2.37 2.69-2.47 11.27-9.26 22.27-8.21 4 .5 11.76 3.48 12.12 9.86.67 12-6.1 35.09-21 41.7-12.38 5.5-54.09 2.74-65.29-8.83-7.92-8.18 1.15-19 9-23.08 3.9-2.02 28.9-8.11 31.6-9.07z" id="path68"/>
      <path d="M161.18 139.5c-5.63-13.33 7.16-38.22 17.71-44.18 5.46-3.08 21.52-12.09 35 4.69 4.67 5.83 2.79 8.85 6.87 15.95 4.69 8.19 11 10.07 13.75 13.9 8.94 12.46-2 27.31-15.21 29.16-19.7 2.77-53.78-9.23-58.12-19.52z" id="path70"/>
      <path d="M158.41 141.55c9.29-3.87 39.4-.92 60.25 16.22 6.19 5.08 6.42 19.13-2.81 27-3.57 3-8.1 4.6-15.07 4.78-3.53.09-8 1.08-13.65 3.48-8.2 3.49-12.17 9.49-15.77 12.26-19.4 14.95-36 0-36.81-13.52-1.62-26.46 15.67-46.77 23.86-50.22z" id="path72"/>
      <path d="M158.54 143.52c.9 2 1.93 4.09 1.89 6.77-.17 12.48-12.71 34.19-25.55 43.24-15.35 10.81-34.93 4.89-38.86-6-2.23-6.15 1.29-12.15-2.7-23.21-3-8.4-7.68-8.33-9.92-13.95-5-12.42 7.27-21.66 18.78-23.67 16.92-2.97 52.02 7.03 56.36 16.82z" id="path74"/>
      <path d="M137.43 92.77c2.57-.91 8.61.1 11.3-2.37 2.69-2.47 11.27-9.26 22.27-8.21 4 .5 11.76 3.48 12.12 9.86.67 12-6.1 35.09-21 41.7-12.38 5.5-54.09 2.74-65.29-8.83-7.92-8.18 1.15-19 9-23.08 3.9-2.02 28.9-8.11 31.6-9.07z" id="path76"/>
      <path d="M161.18 139.5c-5.63-13.33 7.16-38.22 17.71-44.18 5.46-3.08 21.52-12.09 35 4.69 4.67 5.83 2.79 8.85 6.87 15.95 4.69 8.19 11 10.07 13.75 13.9 8.94 12.46-2 27.31-15.21 29.16-19.7 2.77-53.78-9.23-58.12-19.52z" id="path78"/>
      <path d="M158.41 141.55c9.29-3.87 39.4-.92 60.25 16.22 6.19 5.08 6.42 19.13-2.81 27-3.57 3-8.1 4.6-15.07 4.78-3.53.09-8 1.08-13.65 3.48-8.2 3.49-12.17 9.49-15.77 12.26-19.4 14.95-36 0-36.81-13.52-1.62-26.46 15.67-46.77 23.86-50.22z" id="path80"/>
      <path d="M158.54 143.52c.9 2 1.93 4.09 1.89 6.77-.17 12.48-12.71 34.19-25.55 43.24-15.35 10.81-34.93 4.89-38.86-6-2.23-6.15 1.29-12.15-2.7-23.21-3-8.4-7.68-8.33-9.92-13.95-5-12.42 7.27-21.66 18.78-23.67 16.92-2.97 52.02 7.03 56.36 16.82z" id="path82"/>
    </g>
    <g id="Trébol">
      <path d="M132.85 93.3c2.57-.91 7.28-3.13 10-5.59 2.72-2.46 10.61-7.5 22.48-4.61 3.5.94 11.41 4.75 13 11.33 2.87 11.69-5.94 37.36-20.78 44-12.36 5.49-44-3.77-55.15-15.31-7.9-8.16-1.57-19.84 6.24-23.93 3.85-2 5.75-2.93 14.28-3.45a34.41 34.41 0 009.93-2.44z" id="path86" fill="#5faf2d"/>
      <path d="M157.32 138.32c-6.33-13 10.86-37.35 21-43.86 5.27-3.36 21.94-8.51 32.49 3.74 3.66 4.24 1.42 9.32 5.86 16.17 5.12 7.9 10.3 8.85 13.25 12.51 9.58 11.93-.66 25.17-13.69 27.74-19.42 3.82-54.02-6.29-58.91-16.3z" id="path88" fill="#e94e1b"/>
      <path d="M157.46 138.43c9.27-3.86 37.76-.91 58.56 16.19 6.17 5.07 10.32 18.94-1.26 28.49-3.61 3-9 4.7-15.92 4.88-3.52.09-8 1.08-13.62 3.48-8.18 3.48-11 8.17-14.84 10.57-15.65 9.8-35.64-1-36.72-13.49-2.3-26.36 15.63-46.71 23.8-50.12z" id="path90" fill="#48a5d8"/>
      <path d="M157.39 138.46c.9 2 1.93 4.09 1.89 6.76-.17 12.45-12.68 34.11-25.48 43.13-15.32 10.78-32.8 3.34-36.8-7.54-2.22-6.14 1.65-6.37-2.33-17.4-3-8.39-9-9.35-11.26-14.95-5-12.4 7.79-23.23 19.27-25.24 16.91-2.96 50.39 5.48 54.71 15.24z" id="path92" fill="#873888"/>
      <g class="cls-9" clip-path="url(#clip-path)" id="g96">
        <path transform="rotate(-21.21 130.744 170.339)" id="rect94" fill="url(#linear-gradient-2)" d="M93.77 150.31h73.92v40.06H93.77z"/>
      </g>
      <g class="cls-11" clip-path="url(#clip-path-2)" id="g100">
        <path id="polygon98" fill="url(#linear-gradient-3)" d="M156.74 137.07l42.84-20.93L229.7 178l-43.06 21.29z"/>
      </g>
      <g class="cls-13" clip-path="url(#clip-path-3)" id="g104">
        <path id="polygon102" fill="url(#linear-gradient-4)" d="M143.21 103.46l14.18 35 28.03-11.36 27.92-11.31 12.34-5.07L212.19 77z"/>
      </g>
      <path class="cls-2" d="M132.85 93.3c2.57-.91 7.28-3.13 10-5.59 2.72-2.46 10.61-7.5 22.48-4.61 3.5.94 11.41 4.75 13 11.33 2.87 11.69-5.94 37.36-20.78 44-12.36 5.49-44-3.77-55.15-15.31-7.9-8.16-1.57-19.84 6.24-23.93 3.85-2 5.75-2.93 14.28-3.45a34.41 34.41 0 009.93-2.44z" id="path106" fill="url(#linearGradient958)"/>
      <g clip-path="url(#clip-path-4)" id="g110">
        <path id="polygon108" fill="url(#linear-gradient-6)" d="M193.93 121.98l-36.17 17.07-25.08-48.42 35.98-17.39z"/>
      </g>
      <g class="cls-11" clip-path="url(#clip-path-2)" id="g116">
        <path class="cls-17" d="M158 139.8c-7.14-14.64 12.25-42.14 23.75-49.48 5.94-3.81 24.74-9.62 36.66 4.2 4.13 4.79 1.6 10.53 6.61 18.25 5.78 8.92 11.62 10 14.94 14.12 10.82 13.46-.74 28.41-15.44 31.3-21.95 4.32-60.99-7.09-66.52-18.39z" id="path112" fill="#4563ab"/>
        <path class="cls-17" d="M157.8 138.52c1 2.38 2.26 4.82 2.22 8-.2 14.69-15 40.25-30.08 50.9-18.08 12.73-38.76 3.94-43.4-8.9-2.61-7.25 1.95-7.52-2.75-20.54-3.57-9.89-10.64-11-13.28-17.64-5.84-14.63 9.2-27.42 22.75-29.79 19.92-3.55 59.43 6.45 64.54 17.97z" id="path114" fill="#4563ab"/>
      </g>
      <g class="cls-13" clip-path="url(#clip-path-3)" id="g120">
        <path d="M128.17 84.92c3.06-1.09 8.68-3.73 11.9-6.68 3.22-2.95 12.67-8.95 26.85-5.5 4.19 1.12 13.64 5.68 15.56 13.53 3.44 14-7.09 44.63-24.82 52.51-14.75 6.55-52.51-4.51-65.86-18.29-9.44-9.75-1.88-23.69 7.45-28.59 4.59-2.4 6.86-3.49 17.06-4.11a41.55 41.55 0 0011.86-2.87z" id="path118" fill="#db371b"/>
      </g>
      <g class="cls-9" clip-path="url(#clip-path)" id="g124">
        <path d="M128.17 84.92c3.06-1.09 8.68-3.73 11.9-6.68 3.22-2.95 12.67-8.95 26.85-5.5 4.19 1.12 13.64 5.68 15.56 13.53 3.44 14-7.09 44.63-24.82 52.51-14.75 6.55-52.51-4.51-65.86-18.29-9.44-9.75-1.88-23.69 7.45-28.59 4.59-2.4 6.86-3.49 17.06-4.11a41.55 41.55 0 0011.86-2.87z" id="path122" fill="#662d86"/>
      </g>
      <path d="M178.34 94.48c-10.19 6.54-27.34 30.88-21 43.84a.57.57 0 01.08.13.94.94 0 01.15-.06c14.8-6.59 23.6-32.19 20.77-43.91z" id="path126" fill="#6d7b31"/>
      <path d="M159.28 145.22c0-2.67-1-4.74-1.88-6.76-8.19 3.48-26 23.74-23.75 50l.15-.09c12.8-9.04 25.31-30.7 25.48-43.15z" id="path128" fill="#806faf"/>
      <path d="M216.06 154.65c-20.8-17.1-49.29-20.05-58.56-16.19h-.05c5.07 9.93 39.21 19.89 58.61 16.19z" id="path130" fill="#a85130"/>
      <path d="M157.39 138.45c-4.34-9.76-37.8-18.19-54.68-15.23h-.13c11.27 11.44 42.42 20.55 54.81 15.23z" id="path132" fill="#798f52"/>
      <g id="Transparencia_Iluminacion" data-name="Transparencia Iluminacion">
        <g clip-path="url(#clip-path-8)" id="g142">
          <g id="g140" opacity=".4">
            <path d="M235.44 142.87a80.72 80.72 0 10-80.72 80.71 80.71 80.71 0 0080.72-80.71z" id="path134" fill="url(#radialGradient960)"/>
            <path d="M235.44 142.87a80.72 80.72 0 10-80.72 80.71 80.71 80.71 0 0080.72-80.71z" id="path136" style="isolation:isolate" opacity=".3" fill="url(#radialGradient962)"/>
            <path d="M245.42 163.88a80.75 80.75 0 10-80.78 80.72h.06a80.72 80.72 0 0080.72-80.72z" id="path138" style="isolation:isolate" opacity=".4" fill="url(#Degradado_sin_nombre_8)"/>
          </g>
        </g>
      </g>
    </g>
  </g>
</svg>
