<?xml version="1.0" encoding="UTF-8"?><svg xmlns="http://www.w3.org/2000/svg" width="1926" height="466" viewBox="0 0 1926 466"><!-- Casasdeapuestas.com --><defs><style>.a, .b, .c{fill:white;}</style></defs><path class="a" d="M-280,155a39.37,39.37,0,0,1,4.44-.48q41,0,82,0c1,0,2,.16,3.37.27,11.19,43.41,22.38,86.85,33.91,131.58.79-2.34,1.25-3.47,1.56-4.65q15.75-61.38,31.45-122.77c.66-2.6,1.05-4.53,4.57-4.52,27.66.14,55.32.08,83,.11a15.8,15.8,0,0,1,2.56.42V373.21H-88.64V212.33l-1.14-.17q-3.28,12.84-6.58,25.67-16.81,65.75-33.57,131.5c-.8,3.14-2,4.3-5.31,4.25-13.66-.18-27.33-.26-41,0-4.16.09-5.7-1.24-6.69-5.18q-19.36-76.68-39-153.28a6.77,6.77,0,0,0-1.92-3.46V373.51h-6.22c-14.66,0-29.32,0-44,0-2,0-3.95-.31-5.93-.48Z" transform="translate(280 -151)"></path><path class="a" d="M1646,373c-6.14.17-12.29.45-18.43.48-13.66.08-27.33-.14-41,.13-3.88.08-6-1.37-8-4.41q-37.56-55.38-75.36-110.62c-.71-1.05-1.54-2-3-3.93v118.5h-63.76V154.49h5.63c17.49,0,35,.1,52.48-.07a8,8,0,0,1,7.71,4q37.9,56.06,76.1,111.92c.81,1.19,1.72,2.32,3.36,4.54V155.06a21,21,0,0,1,2.88-.53q29,0,58,0a23.92,23.92,0,0,1,3.44.48Z" transform="translate(280 -151)"></path><path class="a" d="M1302,151c7.64,1.46,15.38,2.52,22.9,4.45,40.8,10.48,67.64,41.08,73,83,2.75,21.48,2.57,42.91-2.8,64-9.68,38.05-33.91,62-71.93,71.05a155.32,155.32,0,0,1-82.46-2.66c-31.88-9.83-52.15-32-61.91-63.4a143.63,143.63,0,0,1-.08-86.15c12.13-39.41,40.15-61,80.1-68.25l11.18-2Zm-62.14,110.41c.92,10.2,1.22,17.2,2.22,24.09,3.68,25.27,18,39.3,41.38,40.93,20.55,1.44,37.36-8.5,43.07-26.76,6.89-22,7.59-44.57,1.33-66.89-5.4-19.28-21-30.29-41.85-30.61-19.64-.3-35.52,10.72-41,30C1242,242.62,1241.16,253.66,1239.86,261.41Z" transform="translate(280 -151)"></path><path class="b" d="M1189,617c-4.37-1.4-8.77-2.71-13.11-4.21-29.8-10.32-49-30.47-56.54-61.29a12.67,12.67,0,0,1,0-2.15l39.19,35.25.67-.6-34.31-39.08c16.67,4.2,30.55,11.22,42,22.47,13.85,13.62,22.33,30,24.12,49.61Z" transform="translate(280 -151)"></path><path class="b" d="M175,617c2.15-20.81,11.33-38.08,26.75-52,10.93-9.87,23.87-16.07,39.52-20.22L206,584.88l.56.54,40.68-36.57c-5.71,25-18.08,43.88-39.52,55.8-8,4.48-17.15,7.06-25.77,10.49-1.65.65-3.32,1.24-5,1.86Z" transform="translate(280 -151)"></path><path class="a" d="M995,373.19H927.29V154.88H994.8v75.93h73.53V154.93h67.87V373.15h-67.58V285.26H995Z" transform="translate(280 -151)"></path><path class="a" d="M716,373.24H645.11c-3-10-6.32-20.08-9.07-30.32-1.17-4.34-3.17-5.58-7.61-5.53q-32.73.38-65.48,0c-4.17,0-5.8,1.36-6.82,5.2-2.43,9.16-5.18,18.23-8.09,27.25-.46,1.46-2.38,3.49-3.63,3.5-21.66.19-43.32.1-65,.05-.29,0-.57-.26-1.31-.62,1.39-3.78,2.77-7.63,4.21-11.45q37.91-100.86,75.72-201.76c1.46-3.89,3.31-5.22,7.49-5.17,21.32.23,42.65.15,64,.05,3,0,4.72.5,5.92,3.72q39.84,106.54,79.92,213C715.53,371.61,715.65,372.09,716,373.24ZM596.78,213.82l-1.07-.19c-7.68,25.29-15.35,50.57-23.12,76.17h47.5C612.25,264.26,604.52,239,596.78,213.82Z" transform="translate(280 -151)"></path><path class="a" d="M-12.36,373.5C-7,359.18-2,345.66,3.11,332.17Q35.57,245.78,68,159.39c1.37-3.69,3-5,7.09-5,21.49.24,43,.17,64.47.06,3.09,0,4.63.81,5.79,3.92q39.62,105.79,79.45,211.51c.34.91.56,1.86,1,3.19a38.18,38.18,0,0,1-4,.43c-20.82,0-41.65,0-62.47.08-3.16,0-4.64-.83-5.53-4.09-2.58-9.45-5.78-18.74-8.43-28.18-.85-3-2.31-3.86-5.27-3.85q-34.23.15-68.47,0c-3.06,0-4.4,1-5.2,3.94-2.66,9.61-5.46,19.19-8.5,28.69-.45,1.4-2.49,3.27-3.81,3.28C32.22,373.56,10.41,373.5-12.36,373.5Zm119-159.42-1.25-.06-23,75.66h47.45Z" transform="translate(280 -151)"></path><path class="a" d="M895.83,209H827.25V373.1H759.6V209H690.86v-54.1h205Z" transform="translate(280 -151)"></path><path class="c" d="M457.36,461.83H476c20.16.06,40.32-.26,60.45.31,13.48.38,24.67,5.94,30.55,18.87,7.3,16.06.93,31.5-16.66,40.7,1.92.77,3.53,1.43,5.16,2.06,13.73,5.31,20.33,15.4,20,30.63-.29,14.63-8.94,27.81-21.82,31.47a94,94,0,0,1-23.57,3.79c-24.12.48-48.26.18-72.75.18Zm40.09,100.33c6.71,0,13.15.16,19.57-.06a44.28,44.28,0,0,0,10.78-1.42c4.91-1.42,8-6.32,8-11.49a11.08,11.08,0,0,0-7.82-11c-10-2.87-20.24-1.39-30.53-1.63Zm-.14-49.73c8.69-.49,17-.51,25.11-1.55,5.43-.69,8-5,8.16-10.9.13-5.35-2.56-10.12-7.65-10.78-8.41-1.09-17-1.11-25.62-1.58Z" transform="translate(280 -151)"></path><path class="c" d="M734.58,462.18V489.4H668.89v20h60.93v26.28h-61v25H736.5v29.05H629.2V462.18Z" transform="translate(280 -151)"></path><path class="c" d="M869,589.85H829.18V493.93H788.8V462.18h120v31.5H869Z" transform="translate(280 -151)"></path><path class="b" d="M1059.21,523.92c3.12-2.83,5.57-5.31,8.32-7.41a4.58,4.58,0,0,1,3.9-.52c28.74,13.4,59.65,14.9,90.56,17.71,74.41,6.76,145.07-7.8,213.8-35a15,15,0,0,1,6.39-1.38c-6.24,3.19-12.38,6.61-18.75,9.52-40.62,18.56-83.3,29.51-127.65,34.27-29.69,3.18-59.42,4.85-89.26,2.85-27.85-1.86-55.31-5.7-81.2-17C1063.4,526.2,1061.59,525.14,1059.21,523.92Z" transform="translate(280 -151)"></path><path class="b" d="M-15.76,496.87c17.1,5.87,34.1,12,51.31,17.53C71.2,525.78,107.62,534,145.12,534.72c38.94.79,78,0,116.33-7.86,10.5-2.15,20.66-6.23,30.72-10.09,3.74-1.43,6.07-1.3,8.62,1.57,1.64,1.85,3.6,3.41,6.38,6-6.94,2.78-13.06,5.6-19.42,7.71-25,8.3-50.92,11.62-77.11,12.38C149.77,546.16,90,539.78,32.37,518.84c-15-5.44-29.27-12.64-43.86-19.08A45.51,45.51,0,0,1-16,497.18Z" transform="translate(280 -151)"></path><path class="b" d="M1389.93,496.73l45.93-23.93c-.15-.38-.31-.75-.47-1.12L1387,490.26c19.29-30.2,56.1-45.19,94-38.92C1466.23,480.55,1427.7,501,1389.93,496.73Z" transform="translate(280 -151)"></path><path class="b" d="M-115,451.37c37.17-6.25,74.36,8.15,94,38.91l-48.25-18.57-.53,1.1,45.19,23.61C-57.39,501.67-99.08,482.67-115,451.37Z" transform="translate(280 -151)"></path><path class="b" d="M1317.46,508.86c12-13.14,23.26-25.53,34.54-37.92l-.71-.75c-12.22,11-24.43,22-37.18,33.44,6.09-33.94,35-61.75,72.51-68.05C1384.55,462.75,1359.65,498.53,1317.46,508.86Z" transform="translate(280 -151)"></path><path class="b" d="M14.87,471.8l33.67,37c-39-9.51-65.89-42.14-69.29-73.14,37.53,5.61,67.36,35.09,72.49,67.77L15.68,471Z" transform="translate(280 -151)"></path><path class="b" d="M93.15,577.2c15.08-6.68,30.17-13.37,45.55-20.17-8.77,26.73-59.88,50.28-89.71,41.73,9.6-27.82,55.32-52.94,86.94-47.1L92.72,576.24Z" transform="translate(280 -151)"></path><path class="b" d="M1273.48,576.32l-43-24.47c30.28-4.37,70.9,13,86.68,46.69-26.52,10.18-78.36-13.46-90.12-41.65l46,20.35C1273.19,576.93,1273.33,576.63,1273.48,576.32Z" transform="translate(280 -151)"></path><path class="b" d="M1229.66,521.77,1260,488.84l-36.13,28.69c2.75-28.79,43.86-62.73,76.58-63.53C1299.05,482.36,1259.7,519.62,1229.66,521.77Z" transform="translate(280 -151)"></path><path class="b" d="M105.47,488.3l30.85,33.27c-33.63-5.18-63.92-33.28-71-67.1,27-4.6,71.19,31.43,77.3,63.37Z" transform="translate(280 -151)"></path><path class="b" d="M1126.8,522.73l40-24.94-.49-1-44,22.06c8.54-27.4,57.17-52.75,88.89-46.66C1197.77,504.53,1163.34,523.4,1126.8,522.73Z" transform="translate(280 -151)"></path><path class="b" d="M154.84,472.32c30.32-6.79,78.7,18.3,89.07,46.64l-44.13-22.05-.52.88,39,24.35C211.36,529,163.53,500.25,154.84,472.32Z" transform="translate(280 -151)"></path><path class="b" d="M1318.6,536.3l48.22,9,.27-1.06-46.27-13.84c29.13-9.31,73.1-2.22,92.77,26.41C1381.66,568.42,1340.1,563.55,1318.6,536.3Z" transform="translate(280 -151)"></path><path class="b" d="M45.24,530.4,21.5,537.46A173,173,0,0,0-1,545.33l48.12-9C29.28,560-8.18,569.66-47.17,557.29-40.73,535.49,16.9,518.34,45.24,530.4Z" transform="translate(280 -151)"></path><path class="a" d="M462,370.36c-10.53-20.41-20.56-41.09-31.79-61.11-7.78-13.87-17.41-26.6-34-31.37-.33-.09-.53-.61-1-1.17,1.54-.49,2.77-.91,4-1.27,31-9,47-30.59,46.56-62.59-.43-28.28-17.5-49.75-45.14-54.75-13.51-2.45-27.45-3.27-41.22-3.45-35.16-.46-70.32-.16-105.49-.16h-5.57v218.7h67.83v-88c11.37-1.24,21,1,27.71,10.45a115,115,0,0,1,7.26,11.93c11.22,20.61,22.44,41.22,33.44,61.94,1.67,3.16,3.59,4.1,7,4.07,22.17-.13,44.33-.06,66.5-.06h5.23C462.67,371.85,462.4,371.08,462,370.36ZM375,230.9a18.82,18.82,0,0,1-11.86,9.2c-15.2,4.39-30.71,2.79-46.57,3V200c14.38,0,28.57-1,42.58.25C375,201.65,382.56,217.36,375,230.9Z" transform="translate(280 -151)"></path></svg> 