<?xml version="1.0" standalone="no"?>
<!DOCTYPE svg PUBLIC "-//W3C//DTD SVG 20010904//EN"
 "http://www.w3.org/TR/2001/REC-SVG-20010904/DTD/svg10.dtd">
<svg version="1.0" xmlns="http://www.w3.org/2000/svg"
 width="275.000000pt" height="137.000000pt" viewBox="0 0 275.000000 137.000000"
 preserveAspectRatio="xMidYMid meet">

<g transform="translate(0.000000,137.000000) scale(0.100000,-0.100000)"
fill="#000000" stroke="none">
<path style="fill:#e4221e;" d="M110 1295 c0 -68 2 -75 20 -75 19 0 20 -7 20 -195 0 -188 -1 -195
-20 -195 -18 0 -20 -7 -20 -75 l0 -75 115 0 115 0 0 75 c0 68 -2 75 -20 75
-19 0 -20 7 -20 117 0 73 4 113 9 108 6 -6 29 -64 52 -130 22 -66 44 -123 48
-128 4 -4 29 54 55 128 27 74 50 135 52 135 2 0 4 -52 4 -115 0 -96 -3 -115
-15 -115 -12 0 -15 -15 -15 -75 l0 -75 115 0 115 0 0 75 c0 68 -2 75 -20 75
-19 0 -20 7 -20 195 0 188 1 195 20 195 18 0 20 7 20 75 l0 75 -109 0 -109 0
-22 -62 c-13 -35 -32 -87 -43 -116 -10 -29 -21 -51 -24 -49 -2 3 -22 54 -43
114 l-38 108 -111 3 -111 3 0 -76z"/>
<path style="fill:#e4221e;" d="M865 1358 c-2 -7 -18 -101 -35 -208 -49 -310 -51 -320 -66 -320 -11
0 -14 -17 -14 -75 l0 -75 105 0 105 0 0 75 c0 43 -4 75 -10 75 -5 0 -10 14
-10 30 0 29 1 30 50 30 49 0 50 -1 50 -30 0 -20 -5 -30 -15 -30 -12 0 -15 -15
-15 -75 l0 -75 110 0 110 0 0 69 c0 55 -4 71 -18 82 -15 11 -26 62 -56 254
-21 132 -40 250 -43 263 -5 21 -9 22 -124 22 -87 0 -121 -3 -124 -12z m141
-260 c21 -116 19 -128 -15 -128 -17 0 -32 3 -34 8 -6 9 25 203 31 197 3 -3 11
-37 18 -77z"/>
<path style="fill:#e4221e;" d="M1260 1295 c0 -68 2 -75 20 -75 19 0 20 -7 20 -195 0 -188 -1 -195
-20 -195 -18 0 -20 -7 -20 -75 l0 -75 115 0 115 0 0 75 c0 60 -3 75 -15 75
-12 0 -15 13 -15 60 l0 60 30 0 30 0 0 -135 0 -135 100 0 100 0 0 75 c0 68 -2
75 -20 75 -18 0 -20 7 -20 67 0 59 -3 70 -27 95 l-27 28 27 28 c26 27 27 32
27 138 l0 109 -36 38 -35 37 -175 0 -174 0 0 -75z m260 -155 l0 -80 -30 0 -30
0 0 80 0 80 30 0 30 0 0 -80z"/>
<path style="fill:#e4221e;" d="M1787 1332 l-37 -38 0 -270 0 -270 38 -37 38 -37 120 0 120 0 32 33
c32 33 32 33 32 140 l0 107 -80 0 -79 0 -3 -67 c-3 -65 -4 -68 -28 -68 l-25 0
-3 198 -2 197 30 0 30 0 0 -70 0 -70 80 0 80 0 0 108 0 108 -38 37 -38 37
-115 0 -115 0 -37 -38z"/>
<path style="fill:#e4221e;" d="M2272 1313 c-6 -32 -25 -150 -42 -263 -20 -128 -38 -209 -46 -216
-10 -8 -14 -34 -14 -83 l0 -71 105 0 105 0 0 75 c0 60 -3 75 -15 75 -10 0 -15
10 -15 31 l0 30 53 -3 c48 -3 52 -5 55 -30 2 -20 -1 -28 -12 -28 -13 0 -16
-14 -16 -75 l0 -75 105 0 105 0 0 75 c0 56 -3 75 -13 75 -15 0 -19 21 -69 333
l-33 207 -121 0 -122 0 -10 -57z m162 -295 c6 -38 6 -38 -29 -38 -39 0 -39 -2
-24 89 21 133 24 130 53 -51z"/>
<path d="M1880 595 c0 -52 -1 -55 -25 -55 -22 0 -25 -4 -25 -40 0 -36 3 -40
25 -40 l25 0 0 -101 c0 -122 15 -161 71 -189 21 -11 56 -20 79 -20 40 0 40 0
40 39 0 34 -3 40 -27 46 -55 13 -63 30 -63 132 l0 93 45 0 45 0 0 40 0 40 -45
0 -45 0 0 55 0 55 -50 0 -50 0 0 -55z"/>
<path d="M77 528 c-52 -23 -54 -26 -32 -69 15 -28 16 -29 45 -14 38 20 114 20
134 -1 30 -30 19 -42 -46 -49 -119 -14 -178 -60 -178 -139 0 -97 139 -150 214
-81 l26 24 0 -24 c0 -23 4 -25 50 -25 l50 0 0 149 c0 137 -2 151 -23 182 -46
69 -146 89 -240 47z m163 -224 c0 -33 -50 -84 -84 -84 -49 0 -73 52 -38 82 20
18 43 25 90 27 28 1 32 -2 32 -25z"/>
<path d="M510 539 c-13 -5 -33 -17 -42 -26 -17 -15 -18 -15 -18 5 0 19 -6 22
-45 22 l-45 0 0 -270 0 -270 50 0 50 0 0 96 0 95 26 -20 c52 -41 129 -36 190
11 89 71 85 273 -8 340 -35 25 -118 34 -158 17z m85 -85 c26 -10 45 -59 45
-114 0 -44 -5 -56 -29 -81 -55 -55 -128 -30 -151 51 -12 44 3 110 31 133 21
17 73 23 104 11z"/>
<path d="M1255 536 c-40 -17 -90 -75 -105 -122 -17 -49 -7 -136 20 -179 26
-42 90 -82 146 -91 45 -7 134 15 169 41 19 15 19 16 1 50 l-19 34 -38 -19
c-21 -11 -57 -20 -80 -20 -33 0 -47 6 -75 34 -61 61 -53 66 102 66 l137 0 -5
49 c-10 106 -76 171 -173 170 -27 0 -64 -6 -80 -13z m121 -74 c11 -7 34 -45
34 -56 0 -3 -38 -6 -85 -6 l-86 0 16 29 c8 16 20 31 27 34 20 8 82 8 94 -1z"/>
<path d="M1605 536 c-41 -18 -65 -47 -71 -87 -8 -54 21 -89 110 -132 42 -20
76 -42 76 -50 0 -39 -63 -49 -123 -18 l-37 19 -19 -31 c-18 -29 -19 -33 -4
-49 18 -20 102 -48 142 -48 45 1 108 36 126 71 20 38 15 92 -12 121 -9 11 -51
35 -91 53 -56 26 -73 39 -70 52 4 24 78 30 117 10 28 -14 29 -13 45 21 14 29
15 37 4 47 -36 34 -139 45 -193 21z"/>
<path d="M2175 534 c-61 -23 -68 -33 -44 -71 20 -32 22 -32 49 -18 41 21 113
19 133 -3 28 -31 20 -40 -45 -47 -125 -14 -178 -53 -178 -131 0 -53 35 -99 90
-115 47 -14 79 -7 119 27 l31 26 0 -26 c0 -25 3 -26 50 -26 l50 0 0 143 c0
156 -10 192 -63 231 -36 26 -136 32 -192 10z m155 -221 c0 -31 -38 -82 -65
-89 -15 -4 -38 -1 -51 5 -21 9 -25 17 -22 44 2 27 9 34 38 44 54 19 100 16
100 -4z"/>
<path d="M2530 532 c-21 -10 -42 -32 -54 -55 -16 -34 -17 -42 -4 -75 11 -32
25 -43 96 -80 58 -30 82 -48 82 -61 0 -36 -60 -41 -118 -12 l-38 19 -22 -33
-21 -34 25 -20 c39 -31 125 -47 174 -32 62 18 91 49 97 101 7 60 -19 92 -105
131 -69 31 -83 43 -75 66 7 17 80 17 114 -1 25 -13 27 -12 43 21 20 42 11 58
-43 73 -54 15 -112 12 -151 -8z"/>
<path d="M760 388 c0 -136 2 -157 20 -186 43 -69 148 -79 215 -20 l35 30 0
-31 c0 -30 1 -31 45 -31 l45 0 0 195 0 195 -50 0 -50 0 0 -121 0 -121 -34 -34
c-24 -24 -43 -34 -64 -34 -56 0 -62 16 -62 171 l0 139 -50 0 -50 0 0 -152z"/>
</g>
</svg>
