<svg version="1.2" baseProfile="tiny" xmlns="http://www.w3.org/2000/svg" xmlns:xlink="http://www.w3.org/1999/xlink" x="0px"
	 y="0px" width="220px" height="171.1px" viewBox="0 0 220 171.1" xml:space="preserve">
<g id="casino">
	<g>
		<path fill="white" d="M169.5,62.5c-1.5-2.7-3-5.4-4.6-8c-0.5-0.8-0.5-1.2,0.4-1.7c2.8-1.5,5.5-3.1,8.2-4.7
			c0.6-0.4,1-0.4,1.4,0.3c0.3,0.6,0.7,1.2,1,1.8c0.1,0.2,0.2,0.6,0.5,0.6c0.4-0.1,0.3-0.5,0.3-0.8c0.3-2.5,1.3-4.8,3.1-6.5
			c4.2-4.1,9.3-5.8,15.1-5c3.5,0.5,6,2.6,8.1,5.3c1.1,1.4,2,2.9,2.9,4.4c3.6,6.7,7.2,13.4,10.9,20.1c0.5,0.9,0.4,1.4-0.5,1.9
			c-2.9,1.6-5.7,3.2-8.5,5c-1,0.6-1.3,0.3-1.8-0.5c-3.6-6.2-7.2-12.5-10.8-18.7c-0.8-1.4-1.7-2.7-2.9-3.8c-1.5-1.3-3.3-1.6-5.2-1
			c-4.8,1.5-6.7,5.7-4.3,10.2c2.5,4.7,5.3,9.3,8,13.9c1.2,2.2,2.5,4.3,3.8,6.5c0.4,0.7,0.3,1.1-0.4,1.5c-3,1.7-6,3.4-8.9,5.2
			c-0.7,0.4-1.1,0.4-1.5-0.4c-1.4-2.6-2.9-5.2-4.4-7.7c-0.2-0.3-0.3-0.8-0.6-0.7c-0.3,0.1-0.2,0.6-0.2,1c0,3.6-0.6,7-2.1,10.3
			c-3.1,7.1-8.8,10.8-16.2,12c-5.5,0.9-10.6-0.3-15.2-3.3c-0.3-0.2-0.6-0.6-0.9-0.3c-0.3,0.2-0.2,0.7-0.1,1c0.1,3.7-0.5,7.2-2,10.6
			c-3.3,7.3-9.1,11.2-16.9,12.1c-12.2,1.4-22.1-6.2-24.4-18.6c-0.1-0.4,0.1-0.9-0.3-1c-0.5-0.2-0.7,0.4-1,0.7
			c-1.9,2.2-2.2,4.5-0.7,7.3c2,3.7,4.2,7.3,6.3,11c1.7,2.9,3.4,5.8,5.1,8.7c0.4,0.7,0.4,1.1-0.4,1.5c-3,1.7-6,3.4-8.9,5.2
			c-0.7,0.4-1,0.4-1.5-0.3c-6.6-11.4-13.2-22.9-19.8-34.3c-0.4-0.8-0.2-1.1,0.4-1.4c3-1.7,5.9-3.4,8.8-5.1c0.9-0.5,1.3-0.4,1.7,0.5
			c0.2,0.5,0.4,1.2,0.9,1.2c0.3,0,0.3-0.9,0.4-1.3c0.7-3,2.7-5,5.2-6.7c0.5-0.4,0.8-0.2,1.1,0.3c0.7,1.2,1.4,2.5,2.1,3.7
			c0.2,0.4,0.4,1.2,0.9,1.1c0.4,0,0.4-0.8,0.5-1.2c1.7-5.5,5.1-9.6,10.2-12.2c1.9-1,2.8-1.8,2.3-4.1c-0.4-2.1,0-4.4,0.9-6.4
			c0.4-1.1,0.3-1.9-0.7-2.7c-1.7-1.3-3.2-2.8-4.8-4.1c-1.2-1-1.8-2.3-1.8-3.9c0.1-3.8-0.3-7.6,0.3-11.4c0.5-3.1,0.6-6.3,1-9.4
			c0.5-3.9-0.5-7.7-0.5-11.5c0-0.3,0-0.8-0.4-0.8c-0.4,0-0.5,0.4-0.6,0.7c-1.7,4.8-4.6,9-7,13.5c-0.7,1.3-1.9,2.4-2.5,3.8
			c-0.3,0.6-0.4,1.1,0,1.8c0.5,1,0.4,2-0.2,2.9c-0.2,0.3-0.5,0.6-1,0.4c-0.4-0.2-0.3-0.6-0.2-0.9c0.2-0.6,0.4-1-0.4-1.3
			c-1-0.3-2.2-0.1-2.4,0.6c-0.6,1.6-1,3.3-1.1,5c0,0.8,0,1.6-0.2,2.5c-0.1,0.9,0,1.7,0.7,2.4c0.7,0.7,0.6,1.4,0,2.1
			c-0.3,0.4-0.6,0.9-1,1.1c-1.4,0.9-1.8,2.3-2.1,3.9c-0.9,5.6-2.5,10.9-5.2,15.9c-1,2-1.3,3.7,0.2,5.6c1.3,1.7,2.2,3.8,3.3,5.7
			c0.4,0.6,0.3,0.9-0.3,1.3c-3.1,1.8-6.2,3.5-9.2,5.4c-0.6,0.4-0.9,0.2-1.3-0.4c-6-10.5-12-20.9-18.1-31.4c-0.4-0.7-0.3-1.1,0.4-1.5
			c2.8-1.6,5.6-3.2,8.3-4.8c0.7-0.4,1-0.3,1.4,0.4c0.5,0.8,0.8,1.9,1.6,2.5c0.1-0.9,0.2-1.8,0.4-2.7c0.7-3.1,2.7-5.1,5.2-6.8
			c0.5-0.3,0.8-0.3,1,0.2c1.9,3.3,3.8,6.6,5.7,9.8c0.3,0.6,0.2,0.9-0.3,1.2c-1.2,0.7-2.3,1.6-3.3,2.6c-2,2-2.5,4.4-1.3,7
			c1.3,2.7,2.9,5.2,4.4,7.9c0.1,0.2,0.3,0.4,0.4,0.4c0.3,0,0.3-0.4,0.4-0.6c0.2-1.8,0.4-3.6,0.6-5.4c0.6-4.7,2.1-9.1,3.2-13.7
			c0.4-1.6,0.7-3.2,0.4-4.9c-0.2-0.9-0.1-1.7,0.9-2.2c0.5-0.3,0.9-0.8,1.1-1.4c0.7-1.9,1.4-3.8,1.9-5.8c0.1-0.3,0.1-0.5,0-0.8
			c-0.4-2.6,0.7-4.7,2.9-6.1c0.6-0.4,1.1-0.9,1.3-1.6c1.9-5.7,4.3-11.1,6.8-16.6c0.6-1.3,0.7-2.6,1.1-3.9c0.1-0.4,0.2-0.8,0.3-1.2
			c1.2-4.7,1.3-4.8,5.9-6.4c1.6-0.5,2.8-1.4,3.8-2.8c0.4-0.5,0.5-0.9,0.2-1.5c-0.3-0.7-0.5-1.4-0.5-2.2c0-1.2-0.1-2.2-0.9-3.1
			c-0.7-0.8-0.2-1.6,0.9-1.7c0.9-0.1,1.5-0.5,2.1-1.2c1.9-2.2,6.7-1.2,8,1.8c0.6,1.5,0.9,3.2,1.6,4.7c0.5,1-0.1,2-1.2,2.4
			c-0.4,0.2-0.9,0.2-1.3,0.4c-1.1,0.4-1.4,1.7-0.5,2.5c0.8,0.8,1.8,1.1,2.9,1.2c1.3,0.1,2.3,0.5,2.9,2c0.8,1.8,2.1,3.4,3.7,4.6
			c1.9,1.5,3.4,3.3,4.7,5.2c1,1.4,0.8,3-0.6,4.1c-2.8,2.2-5.4,4.7-8.7,6.3c-0.1,0.1-0.4,0.1-0.4,0.2c-0.2,1.3-1.4,2.3-1,3.7
			c0.2,0.7,0.2,1.4,0.3,2.1c0,0.3,0.1,0.8-0.1,1c-1.6,1.7-1.2,4-1.5,6c-0.8,5.3-1.5,10.6-2.3,15.9c-0.1,0.8,0,1.4,0.5,2.1
			c0.6,0.7,1.1,1.4,1.7,2.1c1,1.3,2.1,2.6,4.1,1.9c0.1,0,0.2,0,0.2,0c2.6,0.2,3.1,0.9,2.3,3.4c-0.5,1.5-1.2,2.9-1,4.5
			c0.1,0.6,0.2,1,0.8,1.2c1.4,0.5,2.6,1.2,3.8,2c0.2,0.2,0.5,0.5,0.8,0.3c0.4-0.2,0.2-0.6,0.2-1c-0.2-4,0.6-7.9,2.5-11.4
			c5.6-10.7,19.4-14.7,29.9-8.7c0.4,0.3,0.9,0.5,1.3,0.7c0.1,0,0.1,0,0.2,0.1C169.5,62.7,169.5,62.6,169.5,62.5z M157.6,92.9
			c5.4,0,9.3-3,10.4-7.7c0.2-0.8,0.5-1.2,1.2-1.6c2.4-1.3,4.7-2.7,7.1-4.1c2.5-1.5,2.5-1.5,0.9-4c-0.3-0.5-0.6-0.7-1.2-0.3
			c-7.9,4.6-15.9,9.2-23.8,13.8c-0.7,0.4-0.7,0.8-0.1,1.3C153.7,92,155.8,92.8,157.6,92.9z M123.5,112.8c4.8,0,8.6-3,9.7-7.7
			c0.2-0.7,0.5-1.2,1.1-1.5c2.7-1.5,5.4-3.1,8.2-4.6c0.9-0.5,1.2-0.8,0.2-1.5c-0.5-0.4-0.9-0.8-1.3-1.3c-0.5-0.6-0.9-0.6-1.5-0.2
			c-7.5,4.3-14.9,8.6-22.4,12.9c-0.9,0.5-0.7,0.9-0.1,1.5C119.1,111.9,121.2,112.8,123.5,112.8z M156.9,69.8c-1,0-1.8,0.1-2.7,0.3
			c-5,1.4-8.2,5.9-7.4,10.7c0.1,0.8,0.3,1.1,1.2,0.6c4.8-2.8,9.6-5.6,14.5-8.4c0.8-0.5,0.6-0.8,0-1.2
			C160.8,70.5,158.9,69.8,156.9,69.8z M112.4,99.2c0,0.3,0,0.5,0,0.8c0.1,1.7,0.2,1.8,1.7,1c4.6-2.6,9.1-5.3,13.7-7.9
			c1.2-0.7,1.2-0.8,0.1-1.6c-3.1-2.3-6.4-2.4-9.8-0.8C114.5,92.4,112.5,95.2,112.4,99.2z M126.2,24.2c-0.5,0-0.6,0.4-0.7,0.7
			c-0.4,0.7-0.6,1.5-1.1,2.2c-0.6,1-0.7,2.1-0.6,3.3c0.1,1.2,0.9,1.6,2,1.2c1.4-0.6,2.6-1.5,3.7-2.7c0.7-0.8,0.9-1.4,0-2.1
			c-0.9-0.7-1.7-1.5-2.6-2.2C126.6,24.5,126.4,24.4,126.2,24.2z M122.5,78.9c2.7,0.1,2.7,0.1,1.4-2.4c0-0.1-0.1-0.1-0.1-0.2
			c-0.3-0.8-0.7-0.9-1.4-0.5c-0.5,0.3-1,0.8-1.6,0.4c-0.9-0.7-1.1-0.2-1.3,0.5c-0.1,0.5-0.3,1-0.4,1.5c-0.3,0.8,0.1,1,0.8,0.9
			C120.7,79.1,121.6,79,122.5,78.9z M115.6,58.4c0-0.5,0-1,0-1.5c0-0.1,0.1-0.3-0.2-0.4c0,0-0.1,0.1-0.2,0.1c-0.4,1-0.8,2-0.4,3
			c0.1,0.3,0.3,0.7,0.6,0.6c0.3-0.1,0.1-0.5,0.1-0.7C115.6,59.2,115.6,58.8,115.6,58.4z"/>
		<path fill="white" d="M45.6,132.1c0-1.6,0.2-3.4,0.7-5.2c0.2-0.6,0.1-1-0.2-1.6c-4.2-7.2-8.4-14.4-12.6-21.5
			c-0.6-1-1.2-1.9-2-2.7c-2.3-2.4-4.7-2.9-7.4-1.4c-3,1.7-4.2,4.3-3.3,7.5c0.4,1.5,1.1,2.8,1.9,4.2c3.5,6,6.9,12,10.4,18
			c0.4,0.7,0.5,1.2-0.4,1.6c-3,1.7-5.9,3.4-8.8,5.1c-0.8,0.5-1.2,0.3-1.6-0.5c-6.5-11.4-13.1-22.7-19.7-34.1
			c-0.4-0.7-0.3-1.1,0.4-1.5c2.8-1.6,5.6-3.2,8.3-4.8c0.7-0.4,1.1-0.3,1.5,0.4c0.3,0.7,0.7,1.3,1.1,1.9c0.1,0.2,0.3,0.4,0.4,0.4
			c0.3,0,0.2-0.4,0.2-0.6c1.1-5.8,5.1-10,11-11.2c3.1-0.7,6.2-0.2,9,1.3c1,0.5,1.2,0.3,1.3-0.7c1.1-8.5,8-14.4,16.6-13.9
			c4.2,0.2,7.7,2,10.3,5.4c2,2.5,3.5,5.4,5.1,8.1c2.7,4.7,5.5,9.5,8.2,14.2c0.5,0.8,0.4,1.2-0.4,1.7c-2.9,1.6-5.8,3.3-8.6,5
			c-0.9,0.5-1.3,0.4-1.8-0.5c-3-5.3-6-10.5-9-15.8c-0.8-1.4-1.6-2.7-2.8-3.7c-2-1.7-4.1-1.9-6.5-0.6c-2.7,1.5-4.1,3.7-3.8,6.2
			c0.2,1.6,0.8,3,1.6,4.4c3.2,5.5,6.4,11,9.5,16.5c0.6,1,1,1.2,2,0.6c3.1-1.9,6.5-2.9,10.2-2.2c0.6,0.1,1.2,0.3,1.8,0.5
			c0.5,0.1,0.6,0,0.4-0.4c-0.4-0.7-0.7-1.3-1.1-1.9c-0.3-0.5-0.3-0.8,0.3-1.1c3.1-1.8,6.2-3.6,9.3-5.4c0.9-0.6,1.1,0.2,1.5,0.7
			c5,8.5,9.9,17.1,14.9,25.7c1.7,3,3.5,6,5.1,9.1c3.9,7.3,2.9,14.1-2.1,20.4c-5.1,6.4-11.7,10.5-19.9,11.3
			c-5.1,0.5-9.6-1.1-13.3-4.9c-1-1-1-1.1,0.2-1.8c3.5-2,7-4,10.4-6c0.4-0.3,0.8-0.5,1.4-0.2c3.7,2,6.9,0.7,9.8-1.8
			c3.6-3.1,4.1-7.1,1.9-11.8c-0.3-0.7-0.6-1.5-1.3-2.1c-0.4,0.6-0.3,1.4-0.5,2.1c-0.8,3.2-2.7,5.6-5.4,7.5
			c-9.5,6.7-22.2,4.3-29.1-5.4C47.5,142.2,45.7,137.5,45.6,132.1z M58.2,132.3c0,5.7,5,10.9,10.6,10.9c5.3,0,10.1-4.7,10.1-9.9
			c0-5.8-5.1-11.1-10.6-11.1C62.7,122.2,58.2,126.7,58.2,132.3z"/>
		<path fill="white" d="M203.7,31.2c0.2,0.4,0.4,0.8,0.6,1.1c0.4,0.6,0.3,0.9-0.3,1.3c-0.6,0.4-0.9,0.1-1.2-0.4
			c-0.6-1.2-1.3-2.4-2-3.6c-0.2-0.4-0.6-0.8,0.1-1.1c0.5-0.2,1-1,1.8-0.3c0.5,0.4,1,0.9,1.5,1.3c0.2,0.1,0.3,0.4,0.6,0.2
			c0.1-0.1,0.1-0.4,0-0.5c-0.1-0.6-0.2-1.2-0.4-1.8c-0.2-0.5,0-0.8,0.4-1.2c0.9-0.6,1.5-0.5,2,0.5c0.5,1.1,1.2,2.1,1.8,3.1
			c0.3,0.5,0.4,0.8-0.2,1.2c-0.5,0.3-0.9,0.4-1.2-0.3c-0.3-0.5-0.4-1-0.9-1.3c-0.2,0.6,0.1,1,0.2,1.6c0.1,0.5,0.2,0.9-0.3,1.2
			c-0.6,0.3-0.9-0.1-1.2-0.4c-0.4-0.3-0.7-0.6-1-0.9c-0.1,0-0.2,0-0.3,0C203.7,31.1,203.7,31.2,203.7,31.2z"/>
		<a xlink:href="https://www.casasdeapuestas.com/mrgreen/" >
			<path fill="white" d="M200.4,30.2c0,0.1,0,0.1,0,0.1c-1.4,1.3,0.3,2.1,0.6,3.1c0.1,0.3,0.3,0.6,0.5,0.9c0.3,0.6-0.2,0.7-0.5,1
				c-0.4,0.2-0.7,0.4-1-0.1c-0.4-0.7-0.8-1.4-1.2-2.1c-0.3-0.5-0.5-1.3-1.5-0.8c-0.3,0.2-0.5-0.2-0.7-0.5c-0.2-0.3-0.1-0.6,0.3-0.8
				c0.8-0.5,1.6-1,2.4-1.4C200.1,29.1,200.2,29.8,200.4,30.2z"/>
		</a>
	</g>
</g>
</svg>
