<?xml version="1.0" encoding="utf-8"?>
<!-- Generator: Adobe Illustrator 22.0.1, SVG Export Plug-In . SVG Version: 6.00 Build 0)  -->
<svg version="1.1" id="Layer_1" xmlns="http://www.w3.org/2000/svg" xmlns:xlink="http://www.w3.org/1999/xlink" x="0px" y="0px"
	 viewBox="0 0 84.2 34.8" style="enable-background:new 0 0 84.2 34.8;" xml:space="preserve">
<style type="text/css">
	.st0{fill:#25AC61;}
	.st1{fill:#EF3F49;}
	.st2{fill:#FFFFFF;}
</style>
<g>
	<path class="st0" d="M78.2,8.1v1.1h3.7v3h-3.7v11.7h-3.1V12.2h-2v-3h2V8.1c-0.1-1.5,0.5-2.9,1.5-4c1-1,2.4-1.5,3.8-1.4h1.5v3h-1.2
		C79,5.7,78.2,6.5,78.2,8.1z M72.4,15.9v8h-3.1v-1.3c0,0.1-0.1,0.2-0.2,0.3c-1.2,1-2.7,1.4-4.2,1.4c-3.5,0-7.4-2.4-7.4-7.7
		c0-1.9,0.7-3.8,2-5.3C61,9.7,63,8.9,65,9C69.5,9,72.4,11.7,72.4,15.9z M69.3,15.7c0-2.4-1.6-3.8-4.3-3.8c-3,0-4.3,2.3-4.3,4.6
		c0,2.7,1.7,4.6,4.2,4.6c1.2,0,2.3-0.3,3.3-1c0.7-0.5,1.1-1.3,1.1-2.2L69.3,15.7C69.3,15.7,69.3,15.7,69.3,15.7z M54.7,11.2
		c1.3,1.4,2,3.3,2,5.3c0,5.3-3.8,7.7-7.3,7.7c-1.5,0.1-3-0.4-4.2-1.4C45,22.7,45,22.6,45,22.5v7.6h-3.1V15.9c0-4.2,2.9-6.9,7.4-6.9
		C51.3,8.9,53.3,9.7,54.7,11.2z M53.6,16.6c0-2.3-1.3-4.6-4.3-4.6c-2.7,0-4.3,1.4-4.3,3.8V18c-0.1,0.9,0.3,1.8,1.1,2.3
		c1,0.7,2.1,1,3.3,1C51.9,21.2,53.6,19.3,53.6,16.6z"/>
	<path class="st1" d="M36.3,25.8c-3.6,6.9-13.9,8.5-23.1,3.8S-0.5,15.4,3.1,8.5S17-0.1,26.1,4.7S39.9,18.9,36.3,25.8z"/>
	<path class="st2" d="M17.8,25.1c2,0.5,4.1,0.6,6.1,0.2c6.5-1.2,9.4-7.1,6.4-13S19.6,2.5,13,3.7C9.4,4.4,7,6.5,6,9.2l0,0
		c-0.2,0.6-0.4,1.1-0.4,1.7c-0.2,2,0.1,4.1,1.1,5.9c1.2,2.4,4,8.2,6.3,12.7l0.1,0.3c2.4,1.2,4.9,2,7.5,2.5L20.5,32l-3-6
		C17.5,26,16.9,24.9,17.8,25.1z"/>
	<path class="st0" d="M22.4,20.3c-1.2,0.4-2.5,0.4-3.7,0.3c-2.7-0.4-5.1-2-6.5-4.4c-1.5-2.8-1.2-6.2,2.2-7.5s7.4,0.7,9.2,3.6
		c0.5,0.7,0.8,1.5,1,2.4c-0.1-1.2-0.5-2.3-1.1-3.3c-1.1-1.8-2.8-3.1-4.8-3.7c2.6,0.4,4.9,1.9,6.3,4.2C27,14.9,26.6,19,22.4,20.3z"/>
</g>
</svg>
