<svg xmlns="http://www.w3.org/2000/svg" width="891.64" height="302.22" viewBox="0 0 891.64 302.22"><defs><style>.a{fill:#fff;}.b{fill:#fff;}.c{fill:#fff;}.d{fill:#fff;}</style></defs><path class="a" d="M978.3,262.28c1.43-2.26.89-4.09.9-5.81q.06-45.47,0-90.92c0-8.31,1.23-9.53,9.5-9.54,13.9,0,13.9,0,13.9,13.81q0,66.19,0,132.39c0,8.66-1.42,10.05-10.17,10.06-4.16,0-8.34-.2-12.48.06-4.33.26-6.68-1.55-8.25-5.54-9.85-25.05-19.86-50-29.81-75-3.43-8.61-6.86-17.22-11-25.81-.08,1.67-.22,3.34-.22,5q0,46,0,91.92c0,7.75-1.62,9.36-9.31,9.39-14.09.05-14.09.05-14.09-14V165.84c0-8.67,1.15-9.82,9.73-9.83a112.85,112.85,0,0,0,11.49-.07c5.38-.57,8.09,1.69,10,6.65,11,28,22.19,55.89,33.34,83.81C973.89,251.55,976,256.68,978.3,262.28Z" transform="translate(-237 -48.08)"></path><path class="a" d="M453,257.3c1.83,0,3.67-.06,5.5,0,4.37.18,6.86,2.34,6.7,6.88-.4,11.5,4.66,19.57,15.33,23.78,11.24,4.43,24.47,1.67,32-6.3A21.65,21.65,0,0,0,506,247c-7.61-3.56-15.88-4.82-23.94-6.81-16-4-29.09-11.71-34.66-28.3-8.74-26.07,6.66-51.75,34-56.58,19.51-3.45,36.35,1.42,48.91,17.51,6,7.63,8.24,16.53,7.93,26.2-.15,4.58-2.39,6.76-6.69,7-3.49.17-7,.14-10.5,0-4.39-.17-7.07-2.44-6.8-7.07.47-8-3.89-15.54-11.37-18.42-9.95-3.83-19.88-3.56-28.17,3.75-8.69,7.66-6.64,22.66,3.53,28.72,5.81,3.46,12.39,4.74,18.87,6.18a85.84,85.84,0,0,1,24.68,9.13c27.35,15.85,27.12,56.64,3.66,74.53-22.58,17.23-55.66,14.47-73.69-6.5-8.12-9.44-11.33-20.51-10.72-32.83.19-3.87,2.36-5.72,5.95-6.09a56.94,56.94,0,0,1,6,0Z" transform="translate(-237 -48.08)"></path><path class="b" d="M584,244c0-19.64-.14-39.29.1-58.93.06-4.28-1.23-5.3-5.29-5.13-7.65.32-15.32.15-23,.07-5.29,0-7.07-1.92-7.14-7.28,0-3.16-.05-6.33,0-9.49.09-5.37,1.8-7.15,7.19-7.18,11.66-.06,23.31,0,35,0q22.49,0,45,0c5.91,0,7.76,1.86,7.85,7.68,0,3,0,6,0,9-.1,5.24-2,7.24-7.25,7.29-7.66.08-15.33.29-23-.08-4.36-.22-5.14,1.34-5.12,5.34.15,38.63.1,77.25.07,115.87,0,2.32.32,4.95-.61,6.9-3.69,7.65-10.87,3.17-16.46,4.17-3.51.62-6.23-1.08-7-4.82a24.72,24.72,0,0,1-.29-4.95Q584,273.19,584,244Z" transform="translate(-237 -48.08)"></path><path class="b" d="M1109,314.1c-10.58-.14-17.84-5.53-18.89-14.08-.27-2.18-.6-4.82,2.61-4.78,2.35,0,6.08-1.92,6.29,3.08.16,3.93,2.71,6.16,6.31,6.64,4.56.61,9.48,1.49,13-2.72,2.42-2.88,1.6-6.25-2-7.75a54.05,54.05,0,0,0-8.62-2.38,39.41,39.41,0,0,1-9-2.9c-6.24-3.22-8.91-10.2-5.91-16.47,3.37-7.07,9.79-9.2,17-9.1,7,.09,13.19,2.47,16.24,9.44.93,2.13,3,5.6-.66,6.74-2.56.81-6.69,2.08-7.69-3.29-.63-3.45-3.87-4.25-7-4.39-3.38-.14-6.83-.08-8.88,3.22-1.82,2.93-.56,5.34,2.3,6.45a53.26,53.26,0,0,0,9.15,2.29c11,2.17,16.09,7.26,15.34,15.61s-7.78,14-18.1,14.38C1110,314.11,1109.47,314.09,1109,314.1Z" transform="translate(-237 -48.08)"></path><path class="b" d="M837.14,69.21c3,0,6,0,9,0,1.61,0,3,.41,3.61,2a3.31,3.31,0,0,1-.81,3.66c-8.67,8.93-16.89,18.36-26.15,26.62-4.62,4.12-11.49,2-17.29,1.2-2.22-.3-2.1-3-.75-4.94q9-12.87,17.95-25.71a6.72,6.72,0,0,1,6-2.9C831.49,69.25,834.32,69.21,837.14,69.21Z" transform="translate(-237 -48.08)"></path><path class="c" d="M1032,307.84c1.39,5-1.78,5.58-6.42,5.35-6.33-.31-6.34-.08-6.32-6.85,0-6.09,0-6.09,7.08-6.07C1032,300.29,1032,300.29,1032,307.84Z" transform="translate(-237 -48.08)"></path><path class="a" d="M881.75,192.28c-15.38-39.29-44.76-63.11-86-72-2.26-.48-4.16-.53-3.74-3.79.94-7.25,1.6-14.55,2.31-21.83.93-9.44,2.09-18.86,2.6-28.33.4-7.36-2.6-13.34-9.57-16.67a17.8,17.8,0,0,0-19.1,3.11c-4.49,4.14-5.57,9.64-6.17,15.37q-2.47,23.57-5.07,47.13c-.16,1.42.93,3.77-1.63,4-2.25.22-2.24-2.12-2.87-3.51-5-11-9.89-22.16-14.88-33.21C734.16,75,728.33,71,721.4,71.37s-13.74,5.71-16.08,13a20.31,20.31,0,0,0,1.15,15c4.07,8.91,7.91,17.94,12.25,26.73,1.79,3.62,1.19,5-2.31,7.11-38.17,22.66-57.23,56.59-58.93,100.58.33,5.27.46,10.4,1.15,15.55,8.54,64.4,68.67,109.56,132.59,99.47C864.72,337.3,908.88,261.53,881.75,192.28ZM800.83,166c0-6.82,0-13.64,0-20.46,0-4.08,1.17-7.27,6-7.56,4.55-.27,8.11,2.53,8.24,7.37.37,14.46.45,28.93.56,43.4,0,3.1-1.28,5.56-4.62,6.18-3.59.66-7,.57-9.1-3.23a13.42,13.42,0,0,1-1.39-6.75c0-6.32,0-12.63,0-18.95Zm-12.14,15.8c.13,6.34-2.16,9.63-7.62,10.18s-9.47-2.78-10.05-8.72a120.24,120.24,0,0,1-.17-13.43c.14-11.12.35-22.23.55-33.35.11-6,2-8,7.92-8.42,5.23-.37,8,1.67,8.36,7.46.44,7.61.11,15.26.11,22.89h.86C788.65,166.21,788.53,174,788.69,181.8ZM769.83,76c.37-3.47.61-7,1.07-10.41.73-5.53,5.33-9.63,10.05-9.09,5,.57,8.12,5.13,7.53,11.07-1.58,15.87-3.21,31.74-4.68,47.62-.25,2.7-.69,4.21-4,4.23-5.6,0-10.61,2.15-15.42,6.9C766.33,108.6,768.08,92.32,769.83,76ZM714.62,96.76c-2-4.39-2.59-8.58.37-12.71a8.63,8.63,0,0,1,7.09-4c3.45,0,5.67,1.89,7,4.76,7,15.26,13.78,30.58,20.72,45.85.83,1.84.27,2.64-1.39,3.34-2,.83-3.94,1.77-5.84,2.78-7.86,4.21-7.85,4.23-11.67-4.18C725.47,120.64,720.13,108.66,714.62,96.76Zm17,216.59c-1.58,4.2-3.33,4.81-7.39,2.31-56.91-35-61.79-115.53-9.36-156.48,1.42-1.11,2.9-2.14,4.7-3.46.63,2.84-.87,4-1.55,5.42-9.86,20.64-13.57,42-7.08,64.36,2.34,8.07,7.12,14.91,12,21.7C737.73,267.63,740.51,289.74,731.64,313.35Zm83.77-79.71c-.49,9.63-5.77,16.37-14.29,20.72a69,69,0,0,1-12.55,4.78c-2.62.75-4,2.51-3.31,5.21s2.77,3.52,5.47,2.94a56.81,56.81,0,0,0,14.44-5.38c2.43-1.28,3.28-.73,3.47,1.82,1.35,18.61,2.22,37.2-.5,55.78-.38,2.61-1.22,4-3.92,4.89a95.74,95.74,0,0,1-63.63-.89c-2.78-1-3.72-1.57-2.23-5,11.33-26.22,9.37-52-7.59-74.67-19.6-26.22-17.52-52.47-4.5-79.69,6.18-12.91,17.64-20,30.93-24.31,4.57-1.47,5-.5,5.75,4.26,1.35,9-3.38,14.58-10,19.08-6.93,4.69-10.46,11.39-12.4,19.2-2.09,8.41.82,14.26,8.75,17.74,2,.87,4,1.65,5.89,2.69a10,10,0,0,1,5.5,9.39c0,2.33-.07,4.67.06,7a3.75,3.75,0,0,0,3.89,3.76c2.29.13,3.68-1.13,4.24-3.39,2.9-11.76-2.21-21.7-13.56-26.29-7.37-3-8.08-5-5.47-12.48,2.22-6.41,6.88-10.23,12.43-13.52,0,4.43-.06,8.57,0,12.71.12,7.89,2,15.23,9.8,18.75,7.53,3.38,14.92,2.21,21.51-3.56,4.33,7.88,11.06,10.34,19.45,8.54,2.1-.45,2.66,0,2.64,2C815.58,215,815.88,224.34,815.41,233.64Zm53.28,9c-3.13,40.69-31.59,67.38-51.48,75.7,2.25-21,1.6-41.92-.83-62.78-.21-1.81.7-2.76,1.54-4A31.55,31.55,0,0,0,824,232.94c-.09-24.48,0-48.95,0-73.43v-6.67C856,175.26,871.6,204.71,868.69,242.6Z" transform="translate(-237 -48.08)"></path><path class="a" d="M432.85,301.83q-10.16-36.51-20.38-73C406.33,206.9,400,185,394.11,163c-1.43-5.32-4.06-7.58-9.5-7.08a58.35,58.35,0,0,1-10,0c-5-.39-7.49,1.72-8.84,6.61-8.13,29.66-16.51,59.24-24.8,88.86q-7.19,25.68-14.33,51.39c-2,7.28-.39,9.39,7.27,9.45,2.66,0,5.34-.15,8,0,4.62.31,7-1.82,8.17-6.21,2.64-9.79,5.71-19.46,8.34-29.25.9-3.33,2.55-4.64,5.95-4.6,10.33.13,20.66.1,31,0,3.32,0,5.08,1.18,6,4.57,2.22,8.52,4.82,16.94,7.28,25.39,2.92,10,2.93,10,13.21,10h3C433.76,312.25,435.23,310.41,432.85,301.83ZM390.34,249c-7.15-.12-14.3-.08-21.45,0-1.94,0-2.67-.42-2.17-2.53q6.33-27,12.53-54.07l1.24.07q6.19,26.61,12.42,53.22C393.45,248,393,249.06,390.34,249Z" transform="translate(-237 -48.08)"></path><path class="a" d="M282.3,156c-12-.06-24,0-36,0-7.91,0-9.34,1.41-9.34,9.28q0,34.44,0,68.89v62.91c0,15.28,0,15.28,15.45,15.18,7.21,0,8.66-1.49,8.67-8.87,0-15.81.15-31.62-.09-47.43-.06-4,1.17-5.14,5.05-4.92,5.47.32,11,.14,16.47.07a47.69,47.69,0,0,0,47.56-47.73C330.13,177.24,308.87,156.16,282.3,156ZM283,227c-5.66.08-11.33-.24-17,.1-3.94.23-4.78-1.31-4.64-4.88.26-6.31.07-12.64.07-19,0-6.48.1-13,0-19.46-.06-2.68.61-3.93,3.59-3.82,6.32.22,12.65-.08,19,.23A23.41,23.41,0,0,1,283,227Z" transform="translate(-237 -48.08)"></path><path class="d" d="M1075.61,297.45c-1.77.16-2,2-2.86,3.2-3,4.15-7.24,5.13-12,4.13s-7.14-4.5-8-9.15c-.45-2.57.06-4.15,3.23-4,3.81.2,7.65.05,11.48.05H1073c11.14,0,11.14,0,9.9-11.34-1.17-10.77-8.1-16.83-19.18-16.79-10.69.05-18.93,7-19.83,17.22a93.36,93.36,0,0,0,0,16c.78,9.12,7.61,15.85,16.75,17.2,8.9,1.31,17.9-3.1,20.77-10.4.67-1.71,2.25-3.85.39-5.54C1080.13,296.44,1077.7,297.27,1075.61,297.45Zm-21.78-18.9c2.14-4.41,5.94-6.21,10.59-6s8.16,2.41,9.73,7.15c1,3,.18,4.42-3.13,4.27-2.48-.11-5,0-7.47,0-2.16,0-4.32,0-6.48,0C1052.57,283.88,1051.83,282.68,1053.83,278.55Z" transform="translate(-237 -48.08)"></path></svg> 