<?xml version="1.0" encoding="UTF-8" ?>
<!DOCTYPE svg PUBLIC "-//W3C//DTD SVG 1.1//EN" "http://www.w3.org/Graphics/SVG/1.1/DTD/svg11.dtd">
<svg width="841pt" height="235pt" viewBox="0 0 841 235" version="1.1" xmlns="http://www.w3.org/2000/svg">
<g id="#ffffffff">
<path fill="#ffffff" opacity="1.00" d=" M 94.48 58.82 C 98.92 70.26 102.04 82.18 106.18 93.74 C 118.35 93.95 130.54 93.52 142.71 93.96 C 133.26 101.74 122.90 108.37 113.24 115.88 C 116.97 127.43 121.06 138.88 124.29 150.58 C 114.22 143.87 104.59 136.49 94.82 129.34 C 84.60 136.28 74.86 143.90 64.72 150.97 C 67.82 140.20 71.54 129.62 74.99 118.95 C 75.25 117.84 75.89 116.70 75.57 115.54 C 66.02 108.17 55.81 101.62 46.49 93.95 C 58.64 93.59 70.80 93.83 82.95 93.82 C 87.13 82.27 90.51 70.44 94.48 58.82 Z" />
</g>
<g id="#d70a0aff">
<path fill="#d70a0a" opacity="1.00" d=" M 55.54 53.54 C 68.62 40.70 81.35 27.51 94.73 14.99 C 111.07 31.08 127.37 47.20 143.49 63.50 C 157.85 78.68 170.73 95.68 178.84 115.06 C 183.20 125.99 186.07 137.97 184.31 149.76 C 181.96 165.54 169.81 179.33 154.43 183.61 C 137.97 188.63 118.77 182.26 108.83 168.16 C 107.20 166.27 106.05 162.95 103.01 163.38 C 100.58 162.95 98.62 165.29 99.26 167.62 C 100.89 180.54 105.44 193.30 113.16 203.86 C 118.55 211.23 125.95 216.91 134.20 220.74 C 107.99 220.77 81.78 220.86 55.58 220.69 C 61.00 217.56 66.53 214.47 70.91 209.90 C 82.11 198.42 87.99 182.69 90.14 167.02 C 90.72 162.83 84.02 162.06 82.44 165.45 C 77.19 173.25 69.76 179.74 60.79 182.85 C 49.74 186.75 37.08 185.95 26.76 180.36 C 13.78 173.55 4.95 159.61 4.40 144.94 C 4.02 130.70 8.78 116.82 15.40 104.37 C 25.66 85.22 40.05 68.64 55.54 53.54 M 94.48 58.82 C 90.51 70.44 87.13 82.27 82.95 93.82 C 70.80 93.83 58.64 93.59 46.49 93.95 C 55.81 101.62 66.02 108.17 75.57 115.54 C 75.89 116.70 75.25 117.84 74.99 118.95 C 71.54 129.62 67.82 140.20 64.72 150.97 C 74.86 143.90 84.60 136.28 94.82 129.34 C 104.59 136.49 114.22 143.87 124.29 150.58 C 121.06 138.88 116.97 127.43 113.24 115.88 C 122.90 108.37 133.26 101.74 142.71 93.96 C 130.54 93.52 118.35 93.95 106.18 93.74 C 102.04 82.18 98.92 70.26 94.48 58.82 Z" />
</g>
<g id="#000000ff">
<path fill="#000000" opacity="1.00" d=" M 291.45 38.71 C 299.82 37.70 308.74 37.69 316.48 41.49 C 325.10 45.28 331.27 53.78 332.50 63.07 C 333.13 70.03 333.14 77.42 329.73 83.73 C 325.22 93.09 315.09 98.58 305.01 99.50 C 294.92 100.62 283.87 98.82 276.00 91.98 C 265.50 82.91 263.86 66.57 269.52 54.42 C 273.54 45.82 282.33 40.40 291.45 38.71 M 294.35 50.60 C 288.04 52.05 283.12 57.62 282.11 63.96 C 281.09 69.92 281.57 76.64 285.39 81.58 C 292.62 91.10 309.91 90.22 315.42 79.35 C 318.95 72.11 318.59 62.76 313.85 56.15 C 309.41 50.25 301.16 48.90 294.35 50.60 Z" />
<path fill="#000000" opacity="1.00" d=" M 541.28 43.30 C 548.34 38.01 557.57 37.92 566.00 38.25 C 571.51 38.18 576.94 39.12 582.35 40.06 C 582.46 44.17 582.44 48.27 582.39 52.38 C 573.46 50.53 564.25 49.28 555.13 50.20 C 551.75 50.59 547.36 52.79 548.13 56.87 C 548.61 61.00 553.63 61.67 556.98 61.60 C 565.33 62.56 574.96 61.19 581.73 67.26 C 589.22 74.73 587.93 89.17 578.98 94.99 C 573.12 98.88 565.87 99.71 559.00 99.76 C 551.44 99.71 543.88 99.08 536.44 97.73 C 536.45 93.55 536.45 89.37 536.45 85.19 C 545.53 86.65 554.76 88.25 563.98 87.32 C 567.40 86.88 571.90 85.72 572.67 81.78 C 573.53 78.25 570.12 75.59 566.95 75.22 C 558.17 73.73 548.30 75.70 540.46 70.51 C 531.46 64.28 532.74 49.36 541.28 43.30 Z" />
<path fill="#000000" opacity="1.00" d=" M 785.12 51.03 C 787.89 43.20 796.34 39.32 804.09 38.45 C 813.55 37.84 823.11 38.18 832.43 40.05 C 832.54 44.15 832.50 48.26 832.49 52.36 C 823.51 50.52 814.29 49.33 805.13 50.16 C 801.67 50.55 797.03 52.74 797.71 56.92 C 798.51 61.14 803.56 61.67 807.07 61.62 C 814.56 62.43 822.69 61.48 829.40 65.59 C 839.30 71.66 838.88 88.11 829.56 94.55 C 824.18 98.32 817.48 99.50 811.05 99.71 C 802.71 99.91 794.37 99.19 786.15 97.80 C 786.04 93.59 786.05 89.38 786.13 85.17 C 795.61 86.75 805.32 88.43 814.94 87.13 C 818.51 86.73 822.99 84.28 822.30 80.06 C 822.06 76.67 818.31 75.41 815.47 74.97 C 806.86 74.00 797.27 75.43 789.73 70.26 C 783.62 66.06 783.09 57.55 785.12 51.03 Z" />
<path fill="#000000" opacity="1.00" d=" M 204.76 38.88 C 215.85 38.83 226.93 38.85 238.01 38.85 C 244.12 38.87 250.89 40.07 255.14 44.87 C 260.05 50.11 260.39 58.04 258.85 64.68 C 256.87 72.78 248.88 78.17 240.81 78.61 C 233.65 78.94 226.48 78.59 219.32 78.82 C 219.23 85.48 219.34 92.14 219.25 98.80 C 214.42 98.81 209.58 98.79 204.75 98.82 C 204.72 78.84 204.70 58.86 204.76 38.88 M 219.30 50.22 C 219.26 55.79 219.30 61.36 219.28 66.93 C 225.94 66.61 232.76 67.68 239.31 66.28 C 246.57 64.54 246.58 52.31 239.28 50.63 C 232.68 49.68 225.95 50.42 219.30 50.22 Z" />
<path fill="#000000" opacity="1.00" d=" M 342.46 39.16 C 347.19 38.70 351.95 38.71 356.68 39.10 C 356.74 48.52 356.53 57.94 356.79 67.35 C 365.66 58.30 373.63 48.41 382.37 39.26 C 388.19 38.35 394.16 39.05 400.04 38.90 C 392.50 47.60 384.32 55.71 376.56 64.21 C 385.10 75.86 394.15 87.14 402.66 98.81 C 396.83 98.82 391.01 98.79 385.18 98.81 C 378.98 90.67 373.03 82.33 366.87 74.15 C 363.97 77.15 361.28 80.35 358.52 83.48 C 357.73 84.50 356.59 85.54 356.77 86.96 C 356.67 90.90 356.78 94.85 356.77 98.79 C 352.00 98.81 347.23 98.81 342.46 98.80 C 342.51 78.92 342.51 59.04 342.46 39.16 Z" />
<path fill="#000000" opacity="1.00" d=" M 411.14 38.88 C 427.01 38.99 442.90 38.51 458.76 39.13 C 458.83 43.01 458.82 46.89 458.78 50.77 C 447.65 50.88 436.53 50.67 425.41 50.88 C 425.44 54.82 425.41 58.76 425.43 62.70 C 435.37 62.75 445.31 62.70 455.25 62.72 C 455.26 66.45 455.26 70.17 455.26 73.90 C 445.31 74.00 435.36 73.72 425.42 74.05 C 425.43 78.34 425.42 82.62 425.43 86.90 C 436.54 87.04 447.66 86.75 458.78 87.06 C 458.82 90.97 458.81 94.89 458.81 98.81 C 442.89 98.80 426.97 98.80 411.06 98.81 C 411.14 78.83 410.98 58.85 411.14 38.88 Z" />
<path fill="#000000" opacity="1.00" d=" M 469.77 38.94 C 480.85 38.74 491.93 38.90 503.01 38.85 C 509.19 38.81 515.97 39.89 520.47 44.51 C 526.11 50.65 526.41 60.39 522.72 67.59 C 520.32 72.22 515.66 75.08 510.78 76.47 C 515.99 84.41 522.69 91.28 528.06 99.12 C 522.73 99.11 517.40 99.34 512.08 99.04 C 510.68 98.96 509.93 97.75 509.19 96.76 C 504.39 90.26 499.56 83.78 494.68 77.34 C 491.19 77.30 487.71 77.32 484.23 77.32 C 484.16 84.48 484.26 91.63 484.18 98.79 C 479.37 98.81 474.56 98.80 469.75 98.80 C 469.74 78.84 469.71 58.89 469.77 38.94 M 484.22 50.15 C 484.20 55.38 484.19 60.61 484.22 65.85 C 490.90 66.19 497.68 66.55 504.30 65.43 C 508.85 64.78 511.64 59.37 509.77 55.24 C 508.70 51.99 505.21 50.26 501.97 50.19 C 496.05 50.04 490.14 50.17 484.22 50.15 Z" />
<path fill="#000000" opacity="1.00" d=" M 591.37 38.85 C 609.54 38.87 627.71 38.83 645.89 38.87 C 645.97 43.01 645.93 47.15 645.88 51.29 C 639.24 51.32 632.60 51.30 625.96 51.30 C 625.81 67.14 625.94 82.98 625.89 98.81 C 621.12 98.80 616.35 98.78 611.59 98.83 C 611.49 82.99 611.55 67.15 611.56 51.32 C 604.81 51.29 598.07 51.32 591.33 51.30 C 591.24 47.15 591.21 43.00 591.37 38.85 Z" />
<path fill="#000000" opacity="1.00" d=" M 666.42 39.23 C 673.25 38.56 680.16 38.79 687.01 39.06 C 695.10 59.10 703.56 79.00 711.53 99.09 C 706.38 99.15 701.22 99.37 696.10 98.87 C 694.49 94.74 692.90 90.62 691.33 86.48 C 681.65 86.35 671.96 86.44 662.28 86.44 C 660.67 90.53 659.07 94.63 657.52 98.75 C 652.35 98.86 647.18 98.79 642.01 98.80 C 650.13 78.94 658.40 59.14 666.42 39.23 M 666.84 74.78 C 673.45 74.90 680.06 74.75 686.67 74.88 C 683.64 66.37 680.29 57.98 676.89 49.61 C 672.97 57.75 670.15 66.38 666.84 74.78 Z" />
<path fill="#000000" opacity="1.00" d=" M 719.62 38.86 C 731.08 38.86 742.54 38.82 754.01 38.87 C 760.50 38.91 767.80 40.68 771.64 46.38 C 776.45 53.68 775.84 64.41 770.00 70.99 C 767.48 73.96 763.71 75.21 760.27 76.72 C 766.04 84.21 772.24 91.39 777.75 99.07 C 772.00 98.95 766.10 99.78 760.44 98.63 C 754.97 91.68 749.79 84.48 744.50 77.38 C 740.94 77.28 737.39 77.33 733.84 77.31 C 733.68 84.47 733.79 91.64 733.77 98.80 C 729.05 98.81 724.34 98.78 719.62 98.84 C 719.54 78.85 719.54 58.85 719.62 38.86 M 733.79 50.14 C 733.75 55.39 733.75 60.64 733.80 65.89 C 738.87 66.43 743.96 65.77 749.05 65.88 C 751.97 65.79 755.33 65.84 757.58 63.65 C 760.16 61.49 760.42 57.62 759.25 54.66 C 757.86 51.52 754.27 50.17 751.05 50.15 C 745.29 50.07 739.54 50.14 733.79 50.14 Z" />
<path fill="#000000" opacity="1.00" d=" M 213.96 137.91 C 221.37 132.02 231.13 130.26 240.36 129.85 C 250.82 129.70 261.32 130.57 271.60 132.56 C 273.46 132.54 273.11 134.70 273.20 135.93 C 273.21 140.67 273.20 145.41 273.16 150.14 C 261.55 148.14 249.82 146.04 237.99 146.64 C 234.20 147.02 230.22 147.73 227.06 150.01 C 223.93 152.24 223.58 157.15 226.08 159.97 C 227.86 161.85 230.50 162.46 232.97 162.80 C 244.39 164.28 256.66 162.50 267.31 167.76 C 274.82 171.38 278.99 179.83 278.71 187.96 C 279.25 196.26 275.81 205.01 268.85 209.82 C 259.90 216.08 248.57 217.12 237.97 217.26 C 227.87 216.71 217.72 216.18 207.77 214.13 C 207.72 208.15 207.74 202.18 207.77 196.20 C 217.42 197.97 227.16 199.67 237.01 199.54 C 243.04 199.53 249.51 200.03 254.97 196.97 C 258.22 195.20 260.34 190.90 258.62 187.40 C 257.59 184.70 254.69 183.41 252.10 182.68 C 240.61 180.31 228.21 182.73 217.24 177.83 C 211.37 175.40 206.74 170.10 205.54 163.81 C 203.33 154.56 206.32 143.86 213.96 137.91 Z" />
<path fill="#000000" opacity="1.00" d=" M 670.01 140.01 C 677.12 132.80 687.58 130.50 697.35 129.91 C 708.77 129.55 720.24 130.61 731.45 132.85 C 731.41 138.66 731.47 144.48 731.41 150.29 C 720.10 147.94 708.55 146.25 696.98 146.61 C 692.90 146.93 688.53 147.60 685.24 150.21 C 681.59 153.02 682.21 159.63 686.53 161.48 C 691.73 163.73 697.56 163.05 703.07 163.55 C 711.95 164.08 721.71 164.23 729.07 169.95 C 736.28 175.44 738.21 185.43 736.76 193.95 C 735.81 200.82 731.75 207.16 725.81 210.78 C 716.93 216.24 706.17 217.15 695.99 217.25 C 686.01 216.72 676.01 216.10 666.18 214.19 C 666.13 208.19 666.12 202.19 666.18 196.20 C 676.99 198.27 687.95 199.92 698.99 199.55 C 704.95 199.57 712.30 199.43 716.31 194.29 C 719.55 189.94 716.27 183.90 711.30 182.90 C 699.94 180.25 687.73 182.68 676.69 178.31 C 670.68 176.04 665.65 171.01 664.12 164.68 C 662.15 156.18 663.71 146.40 670.01 140.01 Z" />
<path fill="#000000" opacity="1.00" d=" M 420.34 130.15 C 434.40 128.83 449.78 131.75 460.54 141.44 C 467.38 147.43 471.55 156.00 473.02 164.89 C 474.60 176.16 473.48 188.35 467.07 198.05 C 460.31 208.69 448.15 214.81 435.91 216.47 C 424.28 218.26 411.99 216.80 401.37 211.60 C 391.47 206.75 383.84 197.53 381.12 186.83 C 377.69 173.85 379.21 159.11 386.88 147.86 C 394.36 136.95 407.47 131.27 420.34 130.15 M 419.40 147.57 C 411.92 149.22 405.54 154.85 403.05 162.11 C 400.23 170.61 400.33 180.43 404.60 188.45 C 412.80 203.68 437.70 204.56 447.39 190.42 C 450.83 185.34 452.14 179.06 451.89 172.99 C 452.05 164.74 448.85 155.96 441.89 151.12 C 435.39 146.73 426.94 145.64 419.40 147.57 Z" />
<path fill="#000000" opacity="1.00" d=" M 291.28 131.08 C 306.18 130.74 321.10 131.03 336.00 130.93 C 344.48 130.98 353.78 131.69 360.47 137.54 C 368.14 144.02 369.88 154.97 368.41 164.43 C 367.33 170.32 364.62 176.07 360.01 180.01 C 353.74 185.50 345.16 187.52 336.99 187.51 C 328.61 187.50 320.23 187.54 311.85 187.48 C 311.52 196.90 311.81 206.34 311.69 215.77 C 304.88 215.83 298.06 215.80 291.25 215.79 C 291.30 187.55 291.24 159.32 291.28 131.08 M 311.74 147.12 C 311.69 155.01 311.64 162.89 311.76 170.77 C 319.18 170.71 326.60 170.85 334.02 170.71 C 338.07 170.54 342.67 169.71 345.30 166.29 C 348.03 162.40 348.22 157.06 346.34 152.77 C 344.53 148.91 340.04 147.30 336.03 147.16 C 327.93 147.09 319.83 147.18 311.74 147.12 Z" />
<path fill="#000000" opacity="1.00" d=" M 487.63 130.95 C 503.09 130.91 518.54 130.94 534.00 130.93 C 541.73 131.06 550.05 131.67 556.47 136.48 C 562.94 141.09 566.19 149.20 565.92 157.00 C 566.24 165.33 562.93 174.06 556.14 179.15 C 553.33 181.49 549.83 182.62 546.43 183.77 C 546.33 184.06 546.14 184.64 546.04 184.93 C 553.97 195.34 562.34 205.42 570.35 215.76 C 562.09 215.64 553.76 216.18 545.54 215.52 C 537.88 205.53 530.47 195.33 522.76 185.37 C 517.89 185.40 513.01 185.37 508.14 185.38 C 508.05 195.52 508.18 205.66 508.07 215.80 C 501.26 215.81 494.45 215.78 487.65 215.82 C 487.56 187.53 487.58 159.24 487.63 130.95 M 508.15 147.15 C 508.11 154.54 508.13 161.92 508.14 169.31 C 516.11 169.27 524.08 169.39 532.05 169.26 C 536.92 169.06 542.56 167.02 544.23 161.97 C 544.86 158.42 544.91 154.33 542.59 151.34 C 540.11 148.20 535.87 147.10 532.03 147.13 C 524.07 147.14 516.11 147.12 508.15 147.15 Z" />
<path fill="#000000" opacity="1.00" d=" M 576.26 131.07 C 592.17 130.75 608.09 131.02 624.00 130.93 C 633.87 131.04 643.75 130.69 653.61 131.14 C 653.62 136.96 653.64 142.78 653.60 148.59 C 644.12 148.69 634.65 148.53 625.18 148.68 C 625.19 171.05 625.21 193.43 625.17 215.80 C 618.35 215.80 611.54 215.80 604.72 215.80 C 604.67 193.44 604.66 171.08 604.73 148.73 C 595.24 148.49 585.75 148.68 576.26 148.63 C 576.24 142.78 576.25 136.92 576.26 131.07 Z" />
</g>
</svg>
