<svg id="Capa_1" data-name="Capa 1" xmlns="http://www.w3.org/2000/svg" viewBox="0 0 773.96 260.37"><defs><style>.cls-1{fill:#cad300;}.cls-2,.cls-3{fill:#fff;}.cls-2{fill-rule:evenodd;}</style></defs><path class="cls-1" d="M514.13,124.19h43.78l-10.2-50.37c-30.59,18.08-53.24,29.78-76.6,59.31-5.85,7.41-17.79,22.21-22.82,34C438.94,187,439,191.35,434,208.29c-.36,2.89-6.64,2.46-6.64.05-.21-7.2,1.95-21.89,7.2-45.76C450.08,91.83,517.9,48.13,548.34,33.52a18.8,18.8,0,0,1,7.51-2.09,14.91,14.91,0,0,1,1.75-.1c8.8,0,16.12,1.71,19,16.49L592,131.62c0,12-4.72,17.9-23.78,17.62H514.13q-20.1.49-20.1-12.44T514.13,124.19Z"/><path class="cls-2" d="M280.88,78.26h21q23,0,21.25,12.53t-24.69,12.52h-21q-23,0-21.25-12.52T280.88,78.26Z"/><path class="cls-2" d="M241.64,32.33h88q17.23,0,15.5,12.53t-19,12.52H264.63q-11.47,0-12.63,8.36l-6.89,50.1q-1.16,8.34,10.34,8.35H317q17.22,0,15.5,12.52t-19,12.53h-88q-17.24,0-15.51-12.53l12.52-91Q224.42,32.34,241.64,32.33Z"/><path class="cls-2" d="M87.35,32.33h86q17.93,0,28.19,6.27t8.56,18.78l-2.87,20.88q-1.78,13-21.1,18.12c-15.26,2.83-21.85,5.71-16.88,9.91s12.33,10.94,25.35,22.08c2.86,3.72,5,4.95,4.24,9.47-.57,3.6-4.09,7-9.7,9.31a25,25,0,0,1-9.47,2.09c-6,0-10.24-3.64-16-8.3l-35.86-33.45q-14.94-16.71-11.2-23t9.47-6.26h40.94c7.65-1.61,10.58-5.59,10.79-11.65-.46-6.15-3.09-9.23-7.92-9.23l-68.79-.07-5,46.7q-1.71,12.43-18.94,12.43T61.69,104l5.87-54.75C69.09,38.13,75.86,32.33,87.35,32.33Z"/><path class="cls-2" d="M401.56,57.38h-33.1q-17.15-.5-15.5-12.52,1.79-13,19-12.53H475.44q17.22,0,15.57,12-1.72,12.53-19,13H439.33l-10.17,72.38q-3.33,16.69-21.13,16.7h-.35q-19-.17-16.19-16.7Z"/><path class="cls-3" d="M463,168.11a8.26,8.26,0,0,1,2.81-4.9A8.06,8.06,0,0,1,471,161.5a5.47,5.47,0,0,1,4.48,1.71q1.39,1.72.73,4.9L472.42,186h.17a18,18,0,0,1,6.41-5,19,19,0,0,1,8.06-1.72,16.74,16.74,0,0,1,8.49,2,13.46,13.46,0,0,1,5.23,5.43,20.16,20.16,0,0,1,2.13,7.83,32.91,32.91,0,0,1-.7,9.29,39.64,39.64,0,0,1-4,11,30.07,30.07,0,0,1-6.21,7.92,24.65,24.65,0,0,1-7.61,4.7,23,23,0,0,1-8.29,1.54,14.59,14.59,0,0,1-8.2-2.13,9.08,9.08,0,0,1-4-6.2h-.18l-.45,2.09Q462,229,456,229t-4.65-6.24Zm26.47,31.14a14.1,14.1,0,0,0-.67-4.71,7.12,7.12,0,0,0-2.51-3.53,7.71,7.71,0,0,0-4.78-1.36,11,11,0,0,0-5.25,1.27,12.83,12.83,0,0,0-4,3.39,20.47,20.47,0,0,0-2.77,4.71,29.12,29.12,0,0,0-1.67,5.3c-.88,4.16-.76,7.6.39,10.32s3.52,4.07,7.14,4.07a11.42,11.42,0,0,0,8.67-4.16,22.13,22.13,0,0,0,4.89-10.23A25.76,25.76,0,0,0,489.47,199.25Z"/><path class="cls-3" d="M519.06,206.67q-1.14,5.34,1.42,8.69t8.25,3.35a15.35,15.35,0,0,0,6.14-1,26.61,26.61,0,0,0,4.93-2.94,19.88,19.88,0,0,1,2.85-1.91,6,6,0,0,1,2.76-.63,4.15,4.15,0,0,1,3.5,1.63,4.19,4.19,0,0,1,.83,3.53,9.34,9.34,0,0,1-3.06,5,21.51,21.51,0,0,1-6,3.71,35.33,35.33,0,0,1-7.26,2.21,35.88,35.88,0,0,1-6.9.73,26.57,26.57,0,0,1-11.07-2,16.1,16.1,0,0,1-6.8-5.47,17.37,17.37,0,0,1-2.89-7.7,26.18,26.18,0,0,1,.42-8.78q2.49-11.67,10.67-18.69a29.36,29.36,0,0,1,19.78-7,24.2,24.2,0,0,1,9.63,1.77,16.35,16.35,0,0,1,6.57,4.89,16.14,16.14,0,0,1,3.22,7,19.7,19.7,0,0,1-.12,8q-.71,3.34-2.18,4.53c-1,.78-2.59,1.17-4.82,1.17Zm24.79-7.61a9.73,9.73,0,0,0-2.06-7.56,8.48,8.48,0,0,0-6.84-2.93,13.67,13.67,0,0,0-8.46,2.76,18.64,18.64,0,0,0-5.81,7.73Z"/><path class="cls-3" d="M568.11,189.2h-2.27q-5.25,0-4.33-4.35t6.18-4.34H570l1.71-8.06a8.27,8.27,0,0,1,2.81-4.89,8.06,8.06,0,0,1,5.21-1.71,5.47,5.47,0,0,1,4.48,1.71q1.4,1.73.72,4.89l-1.71,8.06h4q6,0,5.05,4.34t-6.9,4.35h-4l-5.62,26.43c-.43,2.06.49,3.08,2.79,3.08h1.9c3.08,0,4.3,1.48,3.68,4.44-.84,3.93-4.46,5.88-10.85,5.88q-7.07,0-9.7-2.94t-1.38-8.83Z"/><path class="cls-3" d="M593.57,215.82a8.73,8.73,0,0,1,5.71-2.18,5.73,5.73,0,0,1,4.79,2.18,6,6,0,0,1,1.06,5.24,9.24,9.24,0,0,1-3.29,5.26,8.81,8.81,0,0,1-5.71,2.17,5.72,5.72,0,0,1-4.79-2.17,6.06,6.06,0,0,1-1.06-5.26A9.06,9.06,0,0,1,593.57,215.82Z"/><path class="cls-3" d="M628.8,206.67q-1.12,5.34,1.42,8.69t8.25,3.35a15.44,15.44,0,0,0,6.15-1,27.27,27.27,0,0,0,4.93-2.94,20.43,20.43,0,0,1,2.84-1.91,6.09,6.09,0,0,1,2.76-.63,4.29,4.29,0,0,1,4.33,5.16,9.26,9.26,0,0,1-3.05,5,21.57,21.57,0,0,1-6,3.71,35.25,35.25,0,0,1-7.25,2.21,36,36,0,0,1-6.9.73,26.53,26.53,0,0,1-11.07-2,16,16,0,0,1-6.8-5.47,17.25,17.25,0,0,1-2.89-7.7,25.67,25.67,0,0,1,.42-8.78,32.75,32.75,0,0,1,10.67-18.69,29.35,29.35,0,0,1,19.77-7A24.16,24.16,0,0,1,656,181.1a16.13,16.13,0,0,1,9.8,11.86,19.7,19.7,0,0,1-.12,8q-.72,3.34-2.19,4.53c-1,.78-2.59,1.17-4.82,1.17Zm24.79-7.61a9.77,9.77,0,0,0-2.05-7.56,8.51,8.51,0,0,0-6.85-2.93,13.69,13.69,0,0,0-8.46,2.76,18.72,18.72,0,0,0-5.81,7.73Z"/><path class="cls-3" d="M674.44,187.34a18.37,18.37,0,0,1,5.6-4.61,26.91,26.91,0,0,1,6.93-2.59,33.63,33.63,0,0,1,7.28-.81,35,35,0,0,1,7.27.73,24.93,24.93,0,0,1,6.08,2,9.77,9.77,0,0,1,3.89,3.22,5.11,5.11,0,0,1,.81,4.07,7.47,7.47,0,0,1-2.37,4.12,6.33,6.33,0,0,1-4.38,1.68,4.19,4.19,0,0,1-2.41-.6,12.6,12.6,0,0,1-2.12-1.94,12.38,12.38,0,0,0-3.16-2.62,9.67,9.67,0,0,0-4.69-.91,14.39,14.39,0,0,0-5.83,1,4.27,4.27,0,0,0-2.64,3.08,2.53,2.53,0,0,0,1,3,18.23,18.23,0,0,0,5,1.72l5.25,1.27a51.73,51.73,0,0,1,5.78,1.76,16.33,16.33,0,0,1,4.53,2.59,9.54,9.54,0,0,1,2.93,4.06,10.05,10.05,0,0,1,.24,5.71,16.5,16.5,0,0,1-3.19,6.88,20.85,20.85,0,0,1-5.67,5,25.79,25.79,0,0,1-7.19,2.94,31.77,31.77,0,0,1-7.67.95,35.61,35.61,0,0,1-8.23-.9,22.09,22.09,0,0,1-6.47-2.58,11.71,11.71,0,0,1-3.94-3.8,6.17,6.17,0,0,1-.75-4.58,7.34,7.34,0,0,1,2.2-3.94,6.1,6.1,0,0,1,4.32-1.58,4.2,4.2,0,0,1,2.64.77,14.89,14.89,0,0,1,2.37,2.49,14.89,14.89,0,0,0,3.67,3.62,10.08,10.08,0,0,0,5.61,1.27,11.78,11.78,0,0,0,5.86-1.36A5.28,5.28,0,0,0,695.9,215c.31-1.45,0-2.48-.88-3.08a17.64,17.64,0,0,0-5-1.81l-.68-.18L682,208c-4.17-1.09-7.21-2.65-9.13-4.71s-2.45-5.13-1.57-9.23A15.6,15.6,0,0,1,674.44,187.34Z"/></svg>