<?xml version="1.0" encoding="utf-8"?>
<!-- Generator: Adobe Illustrator 18.0.0, SVG Export Plug-In . SVG Version: 6.00 Build 0)  -->
<!DOCTYPE svg PUBLIC "-//W3C//DTD SVG 1.1//EN" "http://www.w3.org/Graphics/SVG/1.1/DTD/svg11.dtd">
<svg version="1.1" id="Calque_1" xmlns="http://www.w3.org/2000/svg" xmlns:xlink="http://www.w3.org/1999/xlink" x="0px" y="0px"
	 width="240px" height="105px" viewBox="0 0 240 105" enable-background="new 0 0 240 105" xml:space="preserve">
<g>
	<g>
		<defs>
			<rect id="SVGID_1_" x="18.7" y="19.7" width="202.6" height="65.6"/>
		</defs>
		<clipPath id="SVGID_2_">
			<use xlink:href="#SVGID_1_"  overflow="visible"/>
		</clipPath>
		<path clip-path="url(#SVGID_2_)" fill="#E30613" d="M25.8,20.6c0.6,0.4,1.3,1,2,1.6c0.2,0.2,0.9,0.4,1.5,0c0,0,1.5-0.7,2.2-1
			c1.6-0.7,2.4-0.2,1.8,1.4c-0.4,0.8-1.2,2.1-1.6,2.6c-0.2,0.3-0.5,0.9-0.1,1.3c0.4,0.4,2.6,2.2,3.3,2.8c1.8,1.7,1.2,3.1-0.9,2.9
			c-0.7-0.1-3.6-0.3-5.1-0.6c-0.6-0.1-0.8-0.2-1.3,0.6c0,0-1.3,2.2-2.4,3.5c-1.2,1.5-2.5,1.4-2.2-0.9c0.2-1.3,0.4-3.2,0.5-3.7
			c0.1-0.5-0.1-1-0.6-1.1c-0.5-0.1-1.7-0.2-2.7-0.5c-1.8-0.5-1.7-1.1-0.6-2.2c0.8-0.8,2-1.6,2.8-2.2c0.9-0.8,0.9-2.3,0.9-3.5
			C23.2,19.4,24,19.3,25.8,20.6"/>
	</g>
	<g>
		<defs>
			<rect id="SVGID_3_" x="18.7" y="19.7" width="202.6" height="65.6"/>
		</defs>
		<clipPath id="SVGID_4_">
			<use xlink:href="#SVGID_3_"  overflow="visible"/>
		</clipPath>
		<path clip-path="url(#SVGID_4_)" fill="#C8D400" d="M47.4,40.7c-4.3,1.6-6.2,3.4-2,6.7c5.7,4.4,12.1,7.7,13.4,8.7
			c2.3,1.8,3.1,2.6,1.5,5.6c-0.3,0.5-1.5,2.5-1.9,3.2c-1.6,2.6-3,3.7,1.3,6.1c2.5,1.4,9.2,4.3,15.4,5.7c4.8,1.1,5.6-1.3,3.6-5.7
			c-2.8-6.2-6.3-12-8.5-15.1c-2.6-3.8-3-3.8,0.9-6.5c3.2-2.3,5.6-4,8.2-6.3c5-4.2,2.2-6.8-3.5-6.5C69.5,36.8,55.3,37.9,47.4,40.7"/>
	</g>
	<g>
		<defs>
			<rect id="SVGID_5_" x="18.7" y="19.7" width="202.6" height="65.6"/>
		</defs>
		<clipPath id="SVGID_6_">
			<use xlink:href="#SVGID_5_"  overflow="visible"/>
		</clipPath>
		<path clip-path="url(#SVGID_6_)" fill="#FFFFFF" d="M54.7,55.1c-0.8-1.1-1.7-2-2.3-2.9c-2.2-1.4-4.7-3-7.1-4.8
			c-4.3-3.3-2.3-5.1,2-6.7c0.6-0.2,1.1-0.4,1.7-0.6c0.3-0.2,0.6-0.4,1-0.5c1.8-0.8,5.1-1.9,7.6-3.3c2.8-1.6,2.9-2.2,1.6-5
			c-0.9-2-2.5-4.2-3.9-6c-4.2-5.8-5.3-5.5-7.7-0.7c-1.6,3.2-4.1,9-5.7,12.1c-0.6,1.1-0.8,1.4-1.9,1.9c-1.7,0.9-5.8,1.9-8.5,2.7
			c-3.2,1-6.3,2.3-8.1,3.2c-2.9,1.5-4.1,3.8,0.6,6.5c4.1,2.4,8.5,4.3,10.7,6.3c1.5,1.4,1.5,1.4,0.9,3.4c-0.5,1.7-4.4,13.6-5.8,19.2
			c-1.4,5.4,0.8,7.1,5.3,3.9c5.4-3.8,13.7-11.6,19.3-17.7C59.5,60.5,58.3,59.8,54.7,55.1"/>
	</g>
	<g>
		<defs>
			<rect id="SVGID_7_" x="18.7" y="19.7" width="202.6" height="65.6"/>
		</defs>
		<clipPath id="SVGID_8_">
			<use xlink:href="#SVGID_7_"  overflow="visible"/>
		</clipPath>
		<path clip-path="url(#SVGID_8_)" fill="#FFFFFF" d="M158.6,61.4l-0.9-0.2c-4.2-0.9-6.7-1.4-6.7-3.9c0-2.3,2.2-3.6,6-3.6
			c2.5,0,5,0.7,7.2,2.1c0.6,0.4,1.2,0.6,1.8,0.6c1.8,0,3.3-1.5,3.3-3.3c0-0.8-0.3-1.6-0.9-2.2c-2.2-2.3-6.4-3.5-11.9-3.5
			c-8.4,0-13.9,4.2-13.9,10.7c0,7.4,7,8.9,11.5,10l0.9,0.2c4.2,0.9,6.8,1.4,6.8,4.1c0,2.3-2.2,3.5-6.3,3.5c-3.1,0-5.9-0.8-8.4-2.2
			l-0.1-0.1c-0.5-0.3-1-0.4-1.6-0.4c-1.8,0-3.2,1.4-3.2,3.2c0,0.9,0.4,1.7,1,2.3l0.1,0.1c2.3,2.2,6.9,3.5,12.7,3.5
			c9.2,0,14.6-4,14.6-10.7C170.8,64,163.5,62.4,158.6,61.4"/>
	</g>
	<g>
		<defs>
			<rect id="SVGID_9_" x="18.7" y="19.7" width="202.6" height="65.6"/>
		</defs>
		<clipPath id="SVGID_10_">
			<use xlink:href="#SVGID_9_"  overflow="visible"/>
		</clipPath>
		<path clip-path="url(#SVGID_10_)" fill="#FFFFFF" d="M156.1,82c-5.9,0-10.4-1.3-12.7-3.5l-0.1-0.1c-0.7-0.6-1-1.4-1-2.3
			c0-1.8,1.4-3.2,3.2-3.2c0.6,0,1.1,0.2,1.6,0.4l0.1,0.1c2.4,1.5,5.3,2.2,8.4,2.2c4,0,6.3-1.3,6.3-3.5c0-2.7-2.6-3.2-6.8-4.1
			l-0.9-0.2c-4.6-1-11.5-2.6-11.5-10c0-6.5,5.5-10.7,13.9-10.7c5.6,0,9.8,1.3,11.9,3.5c0.6,0.6,0.9,1.4,0.9,2.2
			c0,1.8-1.5,3.3-3.3,3.3c-0.6,0-1.2-0.2-1.8-0.6c-2.2-1.4-4.7-2.1-7.2-2.1c-3.9,0-6,1.3-6,3.6c0,2.5,2.6,3.1,6.7,3.9l0.9,0.2
			c4.8,1.1,12.1,2.7,12.1,10C170.8,78,165.3,82,156.1,82"/>
	</g>
	<g>
		<defs>
			<rect id="SVGID_11_" x="18.7" y="19.7" width="202.6" height="65.6"/>
		</defs>
		<clipPath id="SVGID_12_">
			<use xlink:href="#SVGID_11_"  overflow="visible"/>
		</clipPath>
		<path clip-path="url(#SVGID_12_)" fill="#FFFFFF" d="M132.8,36.3c-3.3,0-5.2,1.8-5.2,4.7c0,3,2,4.7,5.2,4.7c3.2,0,5.2-1.8,5.2-4.7
			C138,38,136.1,36.3,132.8,36.3"/>
	</g>
	<g>
		<defs>
			<rect id="SVGID_13_" x="18.7" y="19.7" width="202.6" height="65.6"/>
		</defs>
		<clipPath id="SVGID_14_">
			<use xlink:href="#SVGID_13_"  overflow="visible"/>
		</clipPath>
		<path clip-path="url(#SVGID_14_)" fill="#FFFFFF" d="M132.8,45.7c-3.3,0-5.2-1.8-5.2-4.7c0-2.9,2-4.7,5.2-4.7S138,38,138,41
			S136.1,45.7,132.8,45.7"/>
	</g>
	<g>
		<defs>
			<rect id="SVGID_15_" x="18.7" y="19.7" width="202.6" height="65.6"/>
		</defs>
		<clipPath id="SVGID_16_">
			<use xlink:href="#SVGID_15_"  overflow="visible"/>
		</clipPath>
		<path clip-path="url(#SVGID_16_)" fill="#FFFFFF" d="M132.8,51.2c-2.5,0-4.5,2-4.5,4.5v0.7v21c0,2.5,2,4.5,4.5,4.5
			c2.5,0,4.5-2,4.5-4.5v-21v-0.7C137.3,53.3,135.3,51.2,132.8,51.2"/>
	</g>
	<g>
		<defs>
			<rect id="SVGID_17_" x="18.7" y="19.7" width="202.6" height="65.6"/>
		</defs>
		<clipPath id="SVGID_18_">
			<use xlink:href="#SVGID_17_"  overflow="visible"/>
		</clipPath>
		<path clip-path="url(#SVGID_18_)" fill="#FFFFFF" d="M137.3,77.4c0,2.5-2,4.5-4.5,4.5c-2.5,0-4.5-2-4.5-4.5v-21v-0.7
			c0-2.5,2-4.5,4.5-4.5c2.5,0,4.5,2,4.5,4.5v0.7V77.4z"/>
	</g>
	<g>
		<defs>
			<rect id="SVGID_19_" x="18.7" y="19.7" width="202.6" height="65.6"/>
		</defs>
		<clipPath id="SVGID_20_">
			<use xlink:href="#SVGID_19_"  overflow="visible"/>
		</clipPath>
		<path clip-path="url(#SVGID_20_)" fill="#FFFFFF" d="M197.4,68.3c0,4.6-3.6,7.9-8.5,7.9c-3.4,0-5.6-1.7-5.6-4.4
			c0-3.7,3.7-5.5,12-5.7l2.1-0.1V68.3z M176.6,52.8c-0.3,0.6-0.5,1.3-0.5,2c0,2.2,1.8,4,4,4c1.2,0,2.3-0.5,3-1.4
			c1.8-2.1,4.2-3.2,7.3-3.2c4.7,0,7.2,2.5,7.2,7v0.3h-1.4c-14.9,0.2-21.5,3.7-21.5,11.2c0,5.8,4.4,9.5,11.1,9.5
			c4.9,0,9.1-2.1,11.5-5.6l0.4-0.6l0.1,0.7c0.5,3.4,2.4,5.2,5.5,5.2c1.9,0,3.3-0.6,3.4-0.9V61c0-9.1-5.3-13.6-15.7-13.6
			C183.8,47.3,178.5,49.3,176.6,52.8"/>
	</g>
	<g>
		<defs>
			<rect id="SVGID_21_" x="18.7" y="19.7" width="202.6" height="65.6"/>
		</defs>
		<clipPath id="SVGID_22_">
			<use xlink:href="#SVGID_21_"  overflow="visible"/>
		</clipPath>
		<path clip-path="url(#SVGID_22_)" fill="#FFFFFF" d="M197.4,68.3c0,4.6-3.6,7.9-8.5,7.9c-3.4,0-5.6-1.7-5.6-4.4
			c0-3.7,3.7-5.5,12-5.7l2.1-0.1V68.3z M206.6,60.9c0-9.1-5.3-13.6-15.7-13.6c-7.1,0-12.4,2.1-14.3,5.5c-0.4,0.6-0.5,1.3-0.5,2
			c0,2.2,1.8,4,4,4c1.2,0,2.3-0.5,3-1.4c1.8-2.1,4.2-3.2,7.3-3.2c4.7,0,7.2,2.5,7.2,7v0.3h-1.4c-14.9,0.2-21.5,3.7-21.5,11.2
			c0,5.8,4.4,9.5,11.1,9.5c4.9,0,9.1-2,11.5-5.6l0.4-0.6l0.1,0.7c0.5,3.4,2.4,5.2,5.5,5.2c1.9,0,3.3-0.6,3.4-0.9L206.6,60.9z"/>
	</g>
	<g>
		<defs>
			<rect id="SVGID_23_" x="18.7" y="19.7" width="202.6" height="65.6"/>
		</defs>
		<clipPath id="SVGID_24_">
			<use xlink:href="#SVGID_23_"  overflow="visible"/>
		</clipPath>
		<path clip-path="url(#SVGID_24_)" fill="#FFFFFF" d="M107.1,54.4c-4.6-1-7.9-1.7-7.9-5.3c0-3.5,3.1-5.6,8.1-5.6
			c2.8,0,5.5,0.8,8,2.3c0.7,0.4,1.4,0.6,2.1,0.6c2.2,0,4-1.8,4-4c0-1.4-0.7-2.6-1.8-3.4c-2.1-1.3-5.9-2.9-12.5-2.9
			c-10.5,0-17.2,5.3-17.2,13.6c0,8.9,6.9,11.6,14.3,13.2c0.5,0.1,0.9,0.2,1.3,0.3c4.7,1,8.7,1.9,8.7,5.8c0,3.7-3,5.8-8.5,5.8
			c-3.3,0-6.7-1-9.7-2.9l-0.5-0.3C95,71.2,94.4,71,93.8,71c-2.2,0-4,1.8-4,4c0,1.1,0.5,2.1,1.3,2.9l0.2,0.1c3,2.7,8.2,4.2,14.7,4.2
			C117.4,82,124,77,124,68.1c0-7-4.6-11.1-15-13.4C108.4,54.6,107.7,54.5,107.1,54.4"/>
	</g>
	<g>
		<defs>
			<rect id="SVGID_25_" x="18.7" y="19.7" width="202.6" height="65.6"/>
		</defs>
		<clipPath id="SVGID_26_">
			<use xlink:href="#SVGID_25_"  overflow="visible"/>
		</clipPath>
		<path clip-path="url(#SVGID_26_)" fill="#FFFFFF" d="M215.6,36c-1.8,0-3.2,0.7-3.4,0.9v40.5v0.1c0,2.5,2,4.5,4.5,4.5
			s4.5-2,4.5-4.5v-34C221.3,37.3,218.2,36,215.6,36"/>
	</g>
	<g>
		<defs>
			<rect id="SVGID_27_" x="18.7" y="19.7" width="202.6" height="65.6"/>
		</defs>
		<clipPath id="SVGID_28_">
			<use xlink:href="#SVGID_27_"  overflow="visible"/>
		</clipPath>
		<path clip-path="url(#SVGID_28_)" fill="#FFFFFF" d="M216.8,81.9c-2.5,0-4.5-2-4.5-4.5v-0.1V36.9c0.2-0.2,1.6-0.9,3.4-0.9
			c2.6,0,5.7,1.3,5.7,7.4v34C221.3,79.8,219.3,81.9,216.8,81.9"/>
	</g>
</g>
</svg>
