<svg xmlns="http://www.w3.org/2000/svg" width="1746" height="358.43" viewBox="0 0 1746 358.43"><defs><style>.a{fill:white;}</style></defs><path class="a" d="M486.77,226.59c-3.47,1.06-6.94,2.15-10.42,3.2-76,22.93-152.18,45.37-227,72-25.72,9.15-51.48,18.33-75,32.43a58.56,58.56,0,0,0-11.66,9.27c-5.34,5.47-5.13,11.48,1.22,15.69A91.7,91.7,0,0,0,185.09,370c19.4,6.5,39.15,11.93,58.64,18.19a112.83,112.83,0,0,1,21.1,8.87c13,7.37,15,18.47,4.56,29.13a133.87,133.87,0,0,1-25.29,20c-28.78,17.69-60.2,29.81-91.77,41.44-64.1,23.6-129.59,42.79-195.53,60.42-45.66,12.22-91.55,23.58-137.33,35.31a15.24,15.24,0,0,1-6.54.49l25.53-10.61c67-27.87,134.09-55.52,200.94-83.76,21-8.87,41.61-18.79,60.18-32.26a69.92,69.92,0,0,0,12.08-11.1c6.43-7.59,5.94-15-1.68-21.41-4.91-4.12-10.73-7.18-16.26-10.53C90,411.94,86,410.24,82.38,407.9,66.07,397.4,62.74,383.44,72,366.23c9.71-18.11,25.17-29.81,42.9-39,31.48-16.39,65.18-26.91,99.09-36.74,79.51-23,160.31-40.84,241.21-58.19l31.2-6.67Z" transform="translate(187.07 -225.6)"></path><path class="a" d="M1510.7,399.3c-3.56,6.13-7.14,12.25-10.69,18.38-15.88,27.53-31.81,55-47.57,82.62-1.73,3-3.69,4.4-7.1,4a37.33,37.33,0,0,0-4.49,0c-10.79,0-10.66,0-13.21-10.75q-10.89-45.87-22-91.69c-.22-.91-.6-1.79-1.36-4.05-3.16,10.28-5.92,19.25-8.66,28.23-7.58,24.81-15.09,49.64-22.83,74.4-.49,1.55-2.66,3.66-4.08,3.69-14.49.24-29,.11-43.47.06a8.78,8.78,0,0,1-2-.64c1.27-4.11,2.47-8.2,3.8-12.24q27.78-84.63,55.51-169.25c1.19-3.64,2.94-4.84,6.74-4.77,12.32.24,24.65.33,37,0,4.76-.14,6.59,1.3,7.6,6,6.23,28.94,12.79,57.81,19.25,86.69.36,1.59.84,3.15,1.63,6.09,1.94-3.35,3.31-5.66,4.63-8q24.12-43.12,48.19-86.27c1.73-3.12,3.68-4.53,7.41-4.46,13,.22,26,.19,39,0,3.57,0,5,.85,4.93,4.71q-.73,88.86-1.14,177.71c0,3.95-1.55,4.67-5,4.63-13-.17-26-.23-39,0-4.21.08-5.36-1.21-5.2-5.37,1.16-31.26,2.11-62.52,3.11-93.78.06-1.82,0-3.64,0-5.46Z" transform="translate(187.07 -225.6)"></path><path class="a" d="M567.06,510.35c-12-.11-32.51-4.89-49.76-19-23-18.92-31.16-44.32-28.72-73,4.18-49.16,32.5-80.48,76.67-98.65,24.93-10.26,50.78-11.64,76.67-3,41.35,13.85,62.57,51.34,54.18,95.44C685.2,469.49,635.33,510.62,567.06,510.35Zm-27-93.45c-.3,29.81,22.38,50,51.88,45.3,25.92-4.15,42.44-20,51.22-44.31,4.56-12.64,4.52-25.13-2.32-37.08-9.3-16.23-27-24.15-48-21.42C569.09,362.49,539.78,384.7,540.09,416.9Z" transform="translate(187.07 -225.6)"></path><path class="a" d="M715,503.91c2.75-17.57,5.36-34.46,8-51.35,6.9-43.5,13.88-87,20.62-130.51.61-4,2.19-4.8,5.79-4.78,23,.13,45.95,0,68.93.1,12.1.07,23.88,1.91,34.71,7.8,11.23,6.11,18,15.44,20.44,28,5.93,30.06-12.06,62.47-40.25,72.32-2.5.87-5.07,1.55-8.58,2.61l46.06,75.75c-2.43.19-4,.4-5.49.4-17,0-34-.07-50.94.09-3.34,0-5-1.1-6.43-4.1-9.65-20.44-19.49-40.8-29.29-61.18-.76-1.6-1.64-3.14-3.18-6.06-2.22,13.79-4.23,26.15-6.2,38.52-1.46,9.19-3,18.37-4.27,27.59-.52,3.66-1.72,5.35-5.92,5.26-13-.31-26-.1-39-.12C718.63,504.23,717.16,504.05,715,503.91Zm65.44-102.33c8.1-.95,15.09-1.21,21.8-2.68,12.16-2.67,19-11.14,20-23.59.72-8.75-2.91-15.14-11.32-17.66-5.48-1.64-11.42-1.71-17.15-2.56-4.4-.64-6.93.59-6.91,5.62,0,2.78-.87,5.57-1.31,8.36C783.94,379.36,782.33,389.66,780.45,401.58Z" transform="translate(187.07 -225.6)"></path><path class="a" d="M1207.52,317.34c-1.42,9.41-2.71,18.07-4,26.72-4.32,27.93-8.76,55.85-12.89,83.81a70,70,0,0,0-.33,15.92c1.17,13.83,9.12,21.3,23,22.21,18.91,1.25,32.46-6.67,38-24.79,4.42-14.54,6.76-29.77,9.32-44.82,4.19-24.58,7.87-49.26,11.59-73.92.57-3.77,1.76-5.33,5.91-5.24,12.81.29,25.64.09,38.46.12,1.62,0,3.24.17,5.51.3-1.41,9-2.71,17.47-4.06,26-5,31-9.74,62.09-15,93.07-4.19,24.64-15.05,45.37-37.29,58.67-15.08,9-31.71,12.78-49,13.67a111,111,0,0,1-38.52-4.28c-25.39-7.73-39.35-25-38.74-51.45.39-17,3.36-34,5.83-51,3.89-26.64,8.44-53.2,12.45-79.83.6-3.94,1.89-5.3,5.92-5.24C1177.79,317.47,1192.1,317.34,1207.52,317.34Z" transform="translate(187.07 -225.6)"></path><path class="a" d="M367.65,442.36c-2.78,17.35-5.49,34.08-8.14,50.81-1.76,11.08-1.72,11.08-12.74,11.08h-38c1.27-8.42,2.38-16.1,3.59-23.76q12.48-79.08,24.93-158.17c.62-3.93,2.19-5.12,6.13-5.09,23.48.18,47-.37,70.44.31a111.18,111.18,0,0,1,29.36,4.84c17.22,5.36,27.15,18,28.68,35.92,1.8,21-2.67,40.85-15.2,58.13-13.69,18.88-33.81,24.93-55.94,25.85C389.93,442.74,379.11,442.36,367.65,442.36Zm6.47-39.91c7.15,0,13.79.43,20.36-.08C412.4,401,420.39,392,420.29,374.14c-.05-9.12-3.75-14.35-12.71-15.73-7.68-1.19-15.57-1-23.36-1.49-2.87-.16-3.54,1.54-3.89,4-1.15,8.23-2.54,16.43-3.79,24.64C375.7,391.13,374.94,396.69,374.12,402.45Z" transform="translate(187.07 -225.6)"></path><path class="a" d="M920.63,504c7.66-48.44,15.21-96.17,22.91-144.84H903.72c.43-3.33.68-5.75,1-8.15,1.51-9.86,3.08-19.71,4.55-29.58.39-2.6,1.19-4.14,4.34-4.14q61.19.14,122.38.08a30.08,30.08,0,0,1,3.14.44c-.76,5.22-1.47,10.24-2.23,15.25-1,6.58-2.29,13.12-3,19.72-.48,4.64-2.1,6.54-7.13,6.31-9.81-.43-19.65,0-29.47-.18-3.5-.07-4.87,1-5.43,4.62-7.05,45.17-14.33,90.31-21.34,135.49-.65,4.18-2,5.45-6.27,5.35-12.65-.29-25.31-.09-38-.1C924.75,504.26,923.12,504.11,920.63,504Z" transform="translate(187.07 -225.6)"></path><path class="a" d="M1116.79,318c-2.06,13.23-4,26-6,38.79q-11.28,71.21-22.5,142.4c-.62,3.94-2,5.24-6,5.18-14.29-.23-28.59-.09-43.5-.09.12-2.21,0-4,.32-5.67q12-75.88,24-151.77,2-12.56,4-25.12c.38-2.38.75-4.44,4.11-4.4,14.32.14,28.65.06,43,.1A15.81,15.81,0,0,1,1116.79,318Z" transform="translate(187.07 -225.6)"></path></svg> 