<svg xmlns="http://www.w3.org/2000/svg" fill="black" width="650" height="150" viewBox="0 0 650 150"><path d="M-79.8,47.39l13.31-29.56c11.7,1.28,22.86,2.87,34.07,3.57,6.57.41,13.25-.46,19.86-1.06a16,16,0,0,0,6-2.13A10.79,10.79,0,0,0-1.08,6.34c-.49-2.45-4.53-5.28-7.43-6-9.19-2.17-18.6-3.4-27.93-5-.49-.08-1-.14-1.47-.25-20.68-4.72-28.44-16.91-24-37.74,6-28.24,21.07-42.61,51.15-47.3a138.38,138.38,0,0,1,59.29,3.6c2,.58,4,1.46,6.48,2.38C50.38-73.63,45.92-63.7,41.81-54.53c-12.12-1.32-23.61-3-35.15-3.64-6.54-.36-13.24.64-19.75,1.76a13.94,13.94,0,0,0-7.5,4.4c-5.56,6.4-3.62,12.57,4.57,14.34S.34-34.93,8.53-33.57c1.63.28,3.25.66,4.86,1.08,20.07,5.29,28,17.25,24.76,37.68a88.58,88.58,0,0,1-3.23,13C28.21,39.34,12.67,49.81-8.38,52.83c-21.22,3-42.43,2.67-63.33-2.77C-74.25,49.4-76.7,48.42-79.8,47.39Z" transform="translate(79.8 95.15)"/><path d="M518.66,45.15c-11.38,8.58-24.81,10.5-39.17,7.9C467,50.79,458.91,42.36,458.11,29.67A111.12,111.12,0,0,1,470-27.61c7.6-15.22,20.4-23.7,37.23-25.88a136.48,136.48,0,0,1,62,6.32c-1.64,7.82-3.24,15.37-4.79,22.93C561-7.69,557.75,8.88,554.21,25.41A21.26,21.26,0,0,1,550.77,33c-4.73,6.61-9.89,12.91-14.64,19.51-2,2.82-4.32,3.08-6.73,1.35C525.83,51.34,522.56,48.36,518.66,45.15Zm-1.9-71.84c-7.62-.67-14.41,2.27-16.89,10.88a275.81,275.81,0,0,0-6.79,29.91c-1,5.73,1.84,9.59,6.54,10a43.48,43.48,0,0,0,13.22-.82c5.17-1.16,8.4-4.61,9.38-10.29,1.62-9.29,3.87-18.46,5.71-27.71C530.31-26.65,530.25-26.67,516.76-26.69Z" transform="translate(79.8 95.15)"/><path d="M233.07,22.85c0,7.45.07,15.55-.09,23.64a3.67,3.67,0,0,1-2.1,2.7c-17.95,5-36.17,7.79-54.6,3.3-15.5-3.78-23.63-14.33-24.17-31.23A95,95,0,0,1,164-28.51c8.94-16.14,23.22-24.58,41.3-25.66a118.53,118.53,0,0,1,29.19,1.87c11.76,2.23,17.63,10.29,18.71,22.16,1.21,13.31-1.7,26.08-5.2,38.73-.32,1.14-2.94,2.3-4.51,2.32-16.8.16-33.6,0-50.4.2-2.26,0-5.75.75-6.5,2.24-1.76,3.49.92,9.18,4.45,10.41a23.27,23.27,0,0,0,8.73,1.53C210.8,24.7,221.84,23.71,233.07,22.85ZM193.6-15.51c9,0,17.88.06,26.77-.1a3.61,3.61,0,0,0,2.6-2.12c1.6-5.09-1.22-9.37-6.55-9.85a52,52,0,0,0-9.9,0C199.73-26.88,195.59-22.94,193.6-15.51Z" transform="translate(79.8 95.15)"/><path d="M96-51.82C92.17-33.5,88.46-16,84.84,1.54a108.47,108.47,0,0,0-2.06,12.77c-.52,6.21,1.48,8.43,7.62,9.34a6.3,6.3,0,0,0,1.47.22c4.79-.39,9.93.14,14.26-1.48,5.05-1.88,3.52-7.88,4.47-12.06,4.32-19.1,8.31-38.27,12.17-57.46.73-3.63,2.06-4.9,5.82-4.79,9.44.27,18.9.09,29.12.09-1.66,8.16-3.15,15.73-4.74,23.27-4.92,23.21-9.92,46.4-14.76,69.62-.64,3-1.78,4.84-5.06,5.73-19.32,5.24-38.76,9.51-59,7.48C56,52.44,47.05,42.89,47.74,24.69,48.1,15,50.24,5.32,52.09-4.26c2.84-14.66,6.06-29.24,9.34-43.8.33-1.44,2.18-3.56,3.37-3.6C74.91-51.94,85-51.82,96-51.82Z" transform="translate(79.8 95.15)"/><path d="M388-80.06l-6,28.34h31.1c-2.17,10.2-4.21,19.75-6.36,29.82-9,0-17.73.12-26.51-.07-3.35-.07-4.95.64-5.61,4.37-2,11.44-4.71,22.75-6.85,34.17-1.11,5.95.53,8.43,6.56,8.4,6.73,0,13.46-1.42,20.41-2.24V49.15c-14.72,5.21-29.85,7-45.17,4.4-13.86-2.34-20.32-12-17.8-27.32,3-18.34,7.1-36.49,10.83-54.7Q346.12-45.79,350-63c.32-1.4,1.28-3.32,2.43-3.76C363.9-71.23,375.44-75.41,388-80.06Z" transform="translate(79.8 95.15)"/><path d="M340.43-54.49c-2.24,9.64-4,17.88-6.19,26-.33,1.21-2.3,2.54-3.71,2.81-7.66,1.48-15.39,2.54-23.06,4-6.16,1.14-9.49,4.52-10.75,11.16-3.94,20.68-8.6,41.22-13,62.1H249.45c2.73-14,5.37-27.69,8.05-41.32,3.29-16.76,6.82-33.48,9.8-50.29.84-4.74,2.77-6.4,7.38-6.22,17.74.72,35-2.11,52.16-6.55C330.92-53.86,335.26-53.88,340.43-54.49Z" transform="translate(79.8 95.15)"/><path d="M404,51.91c6.67-31.55,13.07-62.06,19.58-92.55,2.4-11.22,2.51-11.19,13.92-11.19h22.69c-1.48,7.12-2.84,13.69-4.22,20.25-5.46,26-11,51.93-16.29,77.93-.89,4.41-2.58,5.89-7.17,5.68C423.28,51.61,414,51.91,404,51.91Z" transform="translate(79.8 95.15)"/><path d="M445.51-61c-15.35-.16-18.68-4.29-15.4-19.26,2.23-10.23,6.54-14.16,17-14.76a67.64,67.64,0,0,1,13.86.65c5.43.82,8.26,4,7.63,9.26a69.61,69.61,0,0,1-4.08,16.23c-1.69,4.5-5.93,6.59-10.61,7.27C451.16-61.22,448.32-61.21,445.51-61Z" transform="translate(79.8 95.15)"/></svg>