<svg xmlns="http://www.w3.org/2000/svg" viewBox="0 0 511 115" xmlns:v="https://vecta.io/nano"><path d="M480.8 34c5-5 7.3-11.6 6.8-18.2l6.1 6.1h0L505.8 34c6.9 6.9 6.9 18.1 0 25l-29.2 29.2c-6.9 6.9-18.1 6.9-25 0h0c-6.9-6.9-6.9-18.1 0-25L480.8 34z" fill="#ff4200"/><path d="M476.6 4.8c6.9 6.9 6.9 18.1 0 25l-12.5 12.5-12.5-12.5c-6.9-6.9-6.9-18.1 0-25h0c6.9-6.9 18.1-6.9 25 0h0z" fill="#8f00ff"/><path fill="#fff" d="M66 22.9c-16.3 0-29.5 13.2-29.5 29.5S49.8 81.9 66 81.9s29.5-13.2 29.5-29.5S82.3 22.9 66 22.9zm0 47.2a17.67 17.67 0 0 1-17.7-17.7c0-9.8 8-17.7 17.7-17.7s17.7 7.9 17.7 17.7A17.67 17.67 0 0 1 66 70.1zm208.8-47.2c-6.6 0-12.8 2.2-17.7 5.9V11.1c0-3.3-2.6-5.9-5.9-5.9h-5.9v76.7h11.8V76c4.9 3.7 11.1 5.9 17.7 5.9 16.3 0 29.5-13.2 29.5-29.5s-13.2-29.5-29.5-29.5zm0 47.2a17.67 17.67 0 0 1-17.7-17.7 17.67 17.67 0 1 1 35.4 0 17.67 17.67 0 0 1-17.7 17.7zm-54.2-47.2h11.8v55.5c0 16.2-12.8 29.7-29 30-16.5.3-30-13-30-29.5h6.6c2.7 0 5 1.8 5.7 4.4 2 7.8 9.2 13.5 17.7 13.3 9.6-.3 17.2-8.4 17.2-18.1V70c-5 3.7-11.2 5.9-17.9 5.9-16.3-.1-29.3-13.7-29.3-30v-23h5.9c3.3 0 5.9 2.6 5.9 5.9v17.3c0 9.6 7.5 17.8 17.2 18.1 10 .3 18.2-7.8 18.2-17.7V22.9zm-57.8 29.5v29.5h-5.9c-3.3 0-5.9-2.6-5.9-5.9V52.4a17.67 17.67 0 1 0-35.4 0v29.5h-11.8v-59h11.8v5.9c4.9-3.7 11.1-5.9 17.7-5.9 16.3 0 29.5 13.2 29.5 29.5zM29.5 70.1v11.8C13.2 81.9 0 68.7 0 52.4V11.1h5.9c3.3 0 5.9 2.6 5.9 5.9v5.9h17.7v11.8H11.8v17.7c0 9.7 7.9 17.7 17.7 17.7zm360.9-35.4v17.7a17.67 17.67 0 0 0 17.7 17.7v11.8c-16.3 0-29.5-13.2-29.5-29.5V11.1h5.9c3.3 0 5.9 2.6 5.9 5.9v5.9h17.7v11.8h-17.7zm-20.9 21.8c.2-1.3.3-2.7.3-4.1 0-16.7-13.8-30.1-30.6-29.5-15.3.6-27.7 13-28.3 28.3-.6 16.8 12.8 30.6 29.5 30.6 9.6 0 18.1-4.6 23.4-11.6l-3.6-2.1c-3.5-2-7.9-2.1-11.5-.2-2.9 1.6-6.3 2.4-9.9 2-7.6-.7-13.9-6.2-15.7-13.5h46.4zm-27.4-21.7c6.8.7 12.6 5.4 14.8 11.7h-33.3c2.6-7.4 10-12.6 18.5-11.7z"/></svg>