<svg id="fcac5d65-1dbc-4155-b90c-f7e5fe516219" data-name="Capa 1" xmlns="http://www.w3.org/2000/svg" viewBox="0 0 746.3 121"><defs><style>.b854a506-4015-4a1e-a113-91908085672f{fill:#06ffd8;}.a2b87a67-d82e-41cf-939d-c2fd935ef0c8{fill:#fff;}</style></defs><polygon class="b854a506-4015-4a1e-a113-91908085672f" points="80.7 40.3 40.3 0 0 40.3 80.7 121 161.4 40.3 121 0 80.7 40.3"/><polygon class="b854a506-4015-4a1e-a113-91908085672f" points="282.4 0 201.7 0 161.4 40.3 201.7 80.7 161.4 121 201.7 121 201.7 121 242 121 282.4 80.7 242 40.3 282.4 0"/><polygon class="a2b87a67-d82e-41cf-939d-c2fd935ef0c8" points="355.1 68.5 341.4 30.3 322.7 30.3 347.2 90.8 362.7 90.8 387.3 30.3 369 30.3 355.1 68.5"/><polygon class="a2b87a67-d82e-41cf-939d-c2fd935ef0c8" points="420.3 66.9 449.4 66.9 449.4 53.7 420.3 53.7 420.3 44.4 452.4 44.4 452.4 30.3 403.7 30.3 403.7 90.8 452.8 90.8 452.8 76.5 420.3 76.5 420.3 66.9"/><path class="a2b87a67-d82e-41cf-939d-c2fd935ef0c8" d="M578.6,53.1c-8.4-1.9-10.5-3.1-10.5-5.9V47c0-2.2,2-3.9,6-3.9s11.4,2,17,6l8.4-11.8c-6.6-5.3-14.6-8.1-24.9-8.1-14.6,0-23.5,8.1-23.5,19.4v.2c0,12.3,10,15.9,22.9,18.9,8.3,2,10.2,3.3,10.2,5.9h0c0,2.6-2.4,4.2-7,4.2-7,0-13.5-2.5-19.6-7.3l-9.3,11.2c7.5,6.6,17.6,10,28.3,10,14.7,0,24.5-7.3,24.5-19.7v-.2c0-11.3-8.6-15.8-22.5-18.8"/><path class="a2b87a67-d82e-41cf-939d-c2fd935ef0c8" d="M658.6,64.3c0,8.5-4.4,12.5-11.3,12.5s-11.1-4.2-11.1-12.9V30.3h-17V64.2c0,19,10.8,27.7,27.9,27.7s28.4-8.7,28.4-28.1V30.3H658.6Z"/><path class="a2b87a67-d82e-41cf-939d-c2fd935ef0c8" d="M723.8,53.1c-8.5-1.9-10.5-3.1-10.5-5.9V47c0-2.2,2-3.9,6-3.9s11.4,2,17,6l8.4-11.8c-6.6-5.3-14.7-8.1-24.9-8.1-14.6,0-23.5,8.1-23.5,19.4v.2c0,12.3,10,15.9,22.9,18.9,8.3,2,10.2,3.3,10.2,5.9h0c0,2.6-2.4,4.2-7,4.2-7,0-13.5-2.5-19.6-7.3l-9.3,11.2c7.5,6.6,17.6,10,28.3,10,14.7,0,24.5-7.3,24.5-19.7v-.2c0-11.3-8.6-15.8-22.5-18.8"/><path class="a2b87a67-d82e-41cf-939d-c2fd935ef0c8" d="M518.4,68.8l1.1-.9a19,19,0,0,0,5.4-6.8,21.3,21.3,0,0,0,2-9.4v-.2a21.9,21.9,0,0,0-1.8-9,18.7,18.7,0,0,0-5.1-6.7,22,22,0,0,0-7.9-4.1,34,34,0,0,0-10.4-1.4H475.8V90.8h16.7V73.5H503c3.6,9.4,12.1,18.4,27.4,18.4V75.7c-7,0-10.4-3.4-12-6.9m-25.9-8.5v-16h7.9c3.1,0,5.4.6,7.1,2a7.3,7.3,0,0,1,2.6,5.9v.2a7.1,7.1,0,0,1-2.6,5.8,10.6,10.6,0,0,1-7,2.1Z"/></svg>