<svg xmlns="http://www.w3.org/2000/svg" width="1200" height="272.05" viewBox="0 0 1200 272.05"><defs><style>.a{fill:#1a171b;}.b{fill:#ea1c74;}</style></defs><path fill="white" d="M67,194.11c.61-1.7,1.3-3.38,1.83-5.1,4-12.8,14.76-21.25,28-21.92s24.22,6.07,29.56,18.69c8.53,20.18,16.86,40.44,25.29,60.66.88,2.11,1.81,4.2,3.3,7.63,1.29-2.59,2.13-4,2.75-5.56,8.59-21.24,17.11-42.5,25.74-63.71,6.93-17,27.4-23.57,42.24-12.93a31.9,31.9,0,0,1,10,13.12c9.2,21.86,17.73,44,26.53,66,.17.41.62.7,1.27,1.39.83-1.87,1.59-3.45,2.25-5.07q28.74-70,57.49-140.07c5.54-13.46,17.64-20.9,31.52-19.7,13.3,1.16,25.18,11,27.48,24.42,1,6.08.66,13.24-1.61,18.9q-41.76,104-84.37,207.63c-5.94,14.54-19.25,22.09-34.89,20-10.8-1.47-18.2-7.55-22.27-17.68q-13.67-34-27.45-67.88c-.67-1.65-1.44-3.27-2.49-5.65A31.3,31.3,0,0,0,206.9,271c-9.1,22.46-18.36,44.86-27.14,67.44-4.62,11.89-12.52,19.12-25.43,19.82-14.37.77-25.84-6.12-31.27-18.76-6.1-14.18-11.78-28.54-17.62-42.83q-16.95-41.47-33.85-83c-1.68-4.13-3.07-8.38-4.59-12.57Z" transform="translate(-67 -87.45)"></path><path fill="white" d="M655.06,327c-.62-20.41,0-40.84-.2-61.26-.53-51.84-52.41-86-100.48-66.16-2.82,1.17-4.59,1-7.07-.84-7.26-5.41-15.35-6.38-23.54-2.36S511.05,207.22,511,216.28c-.15,39.35-.23,78.7.07,118,.08,11.12,6.12,19,16.45,23.47,1.18.51,2.31,1.14,3.47,1.71h11a9.91,9.91,0,0,1,1.66-1c12.68-4.67,18.8-13.17,18.87-26.82.1-21.07-.16-42.14.18-63.2a29.66,29.66,0,0,1,3.39-13.19c4.18-7.66,13.55-10.84,22-8.55s14.69,9.47,14.91,18.43c.31,13.09.13,26.2.15,39.31,0,7.63.35,15.28-.07,22.88-.86,15.87,5.3,27,20.86,32.1h10C649.79,354.3,655.55,343.08,655.06,327Z" transform="translate(-67 -87.45)"></path><path class="a" d="M1228.83,239.55c4.48.26,9,.07,13.48,0,12.14,0,19.69-5.49,23.5-16.88.32-.93.79-1.81,1.19-2.71v-6a26.56,26.56,0,0,1-1.22-2.66c-3.73-11.34-11.38-16.86-23.51-16.91-4.5,0-9-.22-13.48,0-3.83.24-4.93-1.34-4.84-4.92.17-7.29.12-14.59,0-21.89-.23-15.09-10.84-25.78-25.32-25.64s-25.18,11.13-25.21,26c-.08,41.3-.21,82.6,0,123.9.19,32,22.82,59,54.34,65.65,2.74.57,5.46,1.28,8.19,1.92h9c5-3,10.83-5.17,14.79-9.18,3.48-3.52,4.89-9.08,7.21-13.74v-7c-.64-1.49-1.37-2.95-1.92-4.47A25.22,25.22,0,0,0,1242.2,308c-11.42-.68-18-7.37-18.16-18.81-.15-14.92,0-29.84-.09-44.76C1223.91,240.82,1225.06,239.33,1228.83,239.55Z" transform="translate(-67 -87.45)"></path><path class="b" d="M1245,359.5c5-3,10.83-5.17,14.79-9.18,3.48-3.52,4.89-9.08,7.21-13.74V359.5Z" transform="translate(-67 -87.45)"></path><path fill="white" d="M501,216.25c-.23-9.68-5.13-16.76-14.14-20.47s-17.29-1.59-24.41,5a33.6,33.6,0,0,0-2.86,3.4l-.12-1.52c-10.36-2.81-20.57-6.95-31.12-8.2-42.94-5.08-81.41,23.43-90,65.82A82.74,82.74,0,0,0,396.48,356c5.4,1.55,11,2.36,16.52,3.51h12l33.74-9,16.26,9h6c16.1-5.69,20.1-11.41,20.1-28.76V256.07C501.09,242.8,501.29,229.52,501,216.25ZM418.73,307.1a30.66,30.66,0,1,1,30.66-30.67A30.38,30.38,0,0,1,418.73,307.1Z" transform="translate(-67 -87.45)"></path><path fill="white" d="M827.33,309.22c0-30.53,0-61.07,0-91.61,0-10.4-5.39-18.44-14.25-22s-18-1.36-25.45,6.27a13,13,0,0,0-1.56,2.58l-.38-1.94c-10.22-2.78-20.27-6.81-30.67-8.12-43.62-5.5-83.16,24.47-90.75,67.94a82.86,82.86,0,0,0,62.62,94.72c4,.93,8.1,1.6,12.15,2.39h12c11.24-2,22.38-4.29,32.57-9.81a3.11,3.11,0,0,1,2.9.67c4,5,9.59,7.38,15.53,9.14h6a5.92,5.92,0,0,1,1.22-.77c12.52-4,18-11.23,18.1-24.12C827.37,326.15,827.33,317.69,827.33,309.22Zm-82-2.12a30.17,30.17,0,0,1-30.52-30.72c0-17.36,13.32-30.66,30.58-30.6a30.66,30.66,0,0,1-.06,61.32Z" transform="translate(-67 -87.45)"></path><path class="a" d="M1138.08,291.41c18.88.12,30.32-13.2,27.35-31.76-6.8-42.39-45.17-71.83-92.66-63.87-26.3,4.41-44.34,20.31-56,43.68-23.63,47.36,1.36,108.85,58.48,118.26,2.94.48,5.84,1.18,8.75,1.78h13a42,42,0,0,1,4.73-1.2c14.24-2,27.54-6.56,39.25-15.06a23.42,23.42,0,0,0,7.6-27.68,21,21,0,0,0-23.1-12.65A28.19,28.19,0,0,0,1116,307c-17.76,11.09-41.17,9.48-55-4.26-2.91-2.89-4.9-6.7-7.91-10.93,2.93-.23,4.23-.43,5.53-.43C1085.08,291.35,1111.58,291.24,1138.08,291.41Zm-52.73-57.15c15.19-1.14,30.33,8.25,32.92,21.16h-61.93C1056.84,244.81,1069.9,235.43,1085.35,234.26Z" transform="translate(-67 -87.45)"></path><path class="a" d="M997.89,256.63c-10.37-40.62-47.08-66.08-88.82-61.28-6.68.76-13.22,2.81-20.35,4.39-.16-2-.43-3.91-.46-5.83-.1-9.29.22-18.6-.27-27.87-.64-12-9.28-20.84-21.38-22.76a24.25,24.25,0,0,0-26.77,15.31,40,40,0,0,0-2,13.63q-.2,79.92-.08,159.83c0,2,0,4,.15,6,.89,9.5,5.64,16.29,14.79,19.33s17.25,1.1,23.6-6.12c2.28-2.6,3.8-2.2,6.68-1.22,9.09,3.08,18.23,7,27.62,8C967.33,363.83,1011.94,311.69,997.89,256.63ZM919.12,308c-16.87,0-31.14-14.24-31.19-31.18-.06-17.17,14.45-31.81,31.33-31.6s30.84,14.4,30.86,31.5S936,308,919.12,308Z" transform="translate(-67 -87.45)"></path><path class="a" d="M237,195.47c-4.15,13.43-10.32,26.07-15.25,39.19-4.07,10.79-9.21,21.18-12.48,32.29-.4,4.38-2.57,8.16-4.17,12.14Q193,309,181,339c-2.51,6.22-5.76,11.83-11.8,15.52a23.77,23.77,0,0,1-11.69,3.68c-2.86.25-5.78-.54-8.58.52h-2c-7.41-1.53-14.13-4.17-19.44-10a41.21,41.21,0,0,1-7.61-12.69Q99.5,286.19,79.19,236.28C75,226,70.51,215.91,67,205.41V188.48c1.81-.18,1.69-1.81,2.19-2.94,5.64-12.61,15.47-19.33,29.21-19.76,12.76-.4,23.3,7.18,28.73,20.11,8.62,20.5,17.12,41,25.68,61.56.56,1.35,1.19,2.68,2.13,4.77.87-1.8,1.53-3,2-4.23q12.42-30.68,24.8-61.37C187.69,172,198,164.75,211.6,165.75c13.8,1,22.16,8.85,26.08,24.46C237.36,192,237.82,193.81,237,195.47Z" transform="translate(-67 -87.45)"></path></svg>