<svg version="1.2" xmlns="http://www.w3.org/2000/svg" xmlns:xlink="http://www.w3.org/1999/xlink" viewBox="0 0 836.1 166.41"><defs><style>.cls-1{fill:#e50914;}</style></defs><g id="Calque_2" data-name="Calque 2"><g id="Calque_1-2" data-name="Calque 1"><polygon class="cls-1" points="137.41 0 124.81 65.38 113.64 65.38 101.27 0 70.37 0 58.01 65.38 46.83 65.38 34.23 0 0 0 13.79 65.38 0 65.38 0 101.04 21.4 101.04 35.18 166.41 66.09 166.41 79.88 101.04 91.76 101.04 105.55 166.41 136.46 166.41 150.25 101.04 171.64 101.04 171.64 65.38 157.85 65.38 171.64 0 137.41 0"/><rect class="cls-1" x="184.72" width="33.28" height="166.41"/><polygon class="cls-1" points="299.3 65.38 291.43 65.38 264.36 0 231.07 0 231.07 166.41 264.36 166.41 264.36 101.04 272.16 101.04 299.3 166.41 332.59 166.41 332.59 0 299.3 0 299.3 65.38"/><path class="cls-1" d="M375.38,0,342.1,166.41h33.28l5.52-29.71h30.8l5.52,29.71H450.5L417.22,0Zm12.15,101,6.63-35.66h4.28L405.07,101Z"/><polygon class="cls-1" points="535.05 65.38 521.67 65.38 506.84 0 460.01 0 460.01 166.41 490.92 166.41 490.92 101.04 503.49 101.04 518.73 166.41 537.99 166.41 553.23 101.04 565.8 101.04 565.8 166.41 596.71 166.41 596.71 0 549.87 0 535.05 65.38"/><path class="cls-1" d="M639.5,0,606.22,166.41H639.5L645,136.7h30.8l5.52,29.71h33.28L681.34,0Zm12.15,101,6.63-35.66h4.28L669.19,101Z"/><a xlink:href="https://www.casasdeapuestas.com/winamax/" style="cursor:default;"><polygon class="cls-1" points="836.1 0 798.54 0 778.33 53.58 758.13 0 720.56 0 754.32 83.21 720.56 166.41 758.13 166.41 778.33 112.83 798.54 166.41 836.1 166.41 802.34 83.21 836.1 0"/></a></g></g></svg>