<svg width="59" height="59" viewBox="0 0 59 59" fill="none" xmlns="http://www.w3.org/2000/svg">
<path d="M57.0419 40.7432L52.9912 20.3651C52.1007 15.623 48.026 12.0342 43.1142 11.9881V11.9844H15.9825C11.0275 11.9825 6.89931 15.5926 6.00325 20.367L1.95898 40.7432C1.88339 41.1027 1.83914 41.4715 1.84375 41.854C1.83914 44.7045 4.11248 47.0156 6.91775 47.0156C8.72647 47.0156 10.313 46.0578 11.2146 44.6123L17.889 36.2795C18.9882 37.3233 20.446 37.9056 21.9618 37.9066C25.2603 37.9047 27.9347 35.188 27.9347 31.8305L31.1612 31.8296C31.1612 35.1843 33.8383 37.9047 37.1368 37.9047C38.625 37.9047 40.0585 37.3438 41.1516 36.3339L47.7845 44.6123C48.6851 46.0541 50.2735 47.0156 52.0776 47.0156C54.8829 47.0156 57.159 44.7045 57.1562 41.8522C57.1569 41.4796 57.1186 41.1079 57.0419 40.7432ZM19.2865 19.5308C19.9346 18.8708 20.6749 19.0635 20.9358 19.9595L20.9321 22.8413C20.6749 23.7383 19.9346 23.9319 19.2884 23.2727L18.6256 22.5998C18.3138 22.2787 18.1394 21.8488 18.1394 21.4013C18.1394 20.9538 18.3138 20.5239 18.6256 20.2029L19.2865 19.5308ZM14.5693 16.3716L17.4013 16.3688C18.2817 16.6288 18.4707 17.3847 17.8208 18.0439L17.1644 18.715C17.0104 18.8717 16.8268 18.9963 16.6242 19.0813C16.4216 19.1663 16.2041 19.21 15.9844 19.21C15.7647 19.21 15.5472 19.1663 15.3446 19.0813C15.142 18.9963 14.9583 18.8717 14.8044 18.715L14.1425 18.0429C13.4935 17.3838 13.6825 16.6288 14.5693 16.3716ZM12.6822 23.27C12.0323 23.9319 11.2893 23.7383 11.0321 22.8413L11.0358 19.9595C11.2893 19.0625 12.0323 18.8699 12.6804 19.5299L13.3405 20.202C13.6527 20.5228 13.8273 20.9528 13.8273 21.4004C13.8273 21.8481 13.6527 22.278 13.3405 22.5988L12.6822 23.27ZM17.4013 26.4311L14.5656 26.4338C13.6825 26.1702 13.4935 25.4189 14.1434 24.7588L14.8053 24.0868C14.9592 23.9302 15.1428 23.8058 15.3453 23.7209C15.5477 23.636 15.7651 23.5922 15.9847 23.5921C16.2042 23.592 16.4216 23.6356 16.6241 23.7204C16.8267 23.8052 17.0103 23.9294 17.1644 24.0858L17.8235 24.7588C18.4707 25.4189 18.2799 26.1702 17.4013 26.4311ZM21.9572 35.8969C19.7484 35.8987 17.9535 34.078 17.9535 31.8287C17.9535 29.5811 19.7484 27.7577 21.9618 27.7577C24.1697 27.7604 25.9618 29.5811 25.9618 31.8277C25.9646 34.079 24.1697 35.9006 21.9572 35.8969ZM40.6372 18.007C41.5554 18.0088 42.3012 18.7675 42.3012 19.7023C42.303 20.6417 41.5572 21.4023 40.6335 21.3976C39.7116 21.4004 38.9658 20.6417 38.9658 19.7042C38.9667 18.7675 39.7116 18.0088 40.6372 18.007ZM37.1368 35.8987C34.928 35.8987 33.1359 34.0762 33.134 31.8287C33.1359 29.5811 34.9271 27.7577 37.1368 27.7577C39.3502 27.7595 41.1433 29.5811 41.1414 31.8287C41.1414 34.0762 39.3512 35.8969 37.1368 35.8987ZM40.7902 26.4882C39.8683 26.4882 39.1216 25.7268 39.1216 24.7911C39.1207 23.8535 39.8683 23.0939 40.7902 23.0939C41.7121 23.0939 42.4569 23.8535 42.4597 24.7911C42.4597 25.7277 41.7102 26.4882 40.7902 26.4882ZM45.4411 16.3135C46.362 16.3126 47.1087 17.0713 47.1106 18.0088C47.1087 18.9436 46.362 19.7042 45.4411 19.7042C44.5192 19.7042 43.7734 18.9436 43.7734 18.0088C43.7715 17.0704 44.5155 16.3098 45.4411 16.3135ZM45.5959 24.792C44.6759 24.7929 43.9292 24.0342 43.9319 23.0976C43.9292 22.16 44.6759 21.3995 45.5978 21.4023C46.5178 21.4004 47.2664 22.1582 47.2664 23.0948C47.2654 24.0333 46.5178 24.7929 45.5959 24.792Z" fill="#F8F8F8"/>
</svg>
