<svg width="74" height="54" viewBox="0 0 74 54" fill="none" xmlns="http://www.w3.org/2000/svg">
<path d="M7.66207 20.7692L30.1713 42.3498L19.3322 20.7692H7.66207ZM37 45.8221L49.6095 20.7692H24.3905L37 45.8221ZM19.4406 16.6154L26.8112 4.15385H17.345L6.93946 16.6154H19.4406ZM43.8287 42.3498L66.3379 20.7692H54.6678L43.8287 42.3498ZM24.6795 16.6154H49.3205L41.9499 4.15385H32.0501L24.6795 16.6154ZM54.5594 16.6154H67.0605L56.655 4.15385H47.1888L54.5594 16.6154ZM59.6538 0.84375L73.5279 17.4591C73.8651 17.8486 74.0217 18.2975 73.9976 18.8059C73.9735 19.3143 73.7688 19.7524 73.3834 20.1202L38.6981 53.351C38.2646 53.7837 37.6985 54 37 54C36.3015 54 35.7354 53.7837 35.3019 53.351L0.616627 20.1202C0.231235 19.7524 0.0264957 19.3143 0.0024087 18.8059C-0.0216783 18.2975 0.134887 17.8486 0.472105 17.4591L14.3462 0.84375C14.7798 0.28125 15.394 0 16.1889 0H57.8111C58.606 0 59.2202 0.28125 59.6538 0.84375Z" fill="#FF9900"/>
</svg>
