<svg width="25" height="15" viewBox="0 0 25 15" fill="none" xmlns="http://www.w3.org/2000/svg">
<path d="M24.9483 12.3574L23.1175 3.84179C22.715 1.86013 20.8734 0.360403 18.6534 0.341141V0.3396H6.39053C4.15096 0.338829 2.28513 1.84742 1.88014 3.84256L0.0522313 12.3574C0.0180648 12.5077 -0.00193507 12.6618 0.000148246 12.8217C-0.00193507 14.0128 1.02556 14.9786 2.29347 14.9786C3.11096 14.9786 3.82804 14.5783 4.23554 13.9743L7.25219 10.4921C7.74902 10.9283 8.40788 11.1717 9.09301 11.1721C10.5838 11.1713 11.7926 10.036 11.7926 8.63298L13.2509 8.63259C13.2509 10.0345 14.4609 11.1713 15.9517 11.1713C16.6243 11.1713 17.2722 10.9369 17.7663 10.5149L20.7642 13.9743C21.1713 14.5768 21.8892 14.9786 22.7046 14.9786C23.9725 14.9786 25.0012 14.0128 25 12.8209C25.0003 12.6652 24.983 12.5098 24.9483 12.3574ZM7.88385 3.49315C8.17677 3.21732 8.51135 3.29783 8.62926 3.67228L8.6276 4.87653C8.51135 5.25137 8.17677 5.33227 7.88468 5.05683L7.5851 4.7756C7.44419 4.64145 7.36537 4.4618 7.36537 4.27479C7.36537 4.08779 7.44419 3.90814 7.5851 3.77399L7.88385 3.49315ZM5.75178 2.17294L7.03177 2.17179C7.42969 2.28042 7.5151 2.59632 7.22135 2.87176L6.92469 3.15221C6.85511 3.21772 6.77211 3.26975 6.68054 3.30527C6.58897 3.34079 6.49066 3.35909 6.39136 3.35909C6.29206 3.35909 6.19375 3.34079 6.10218 3.30527C6.01061 3.26975 5.92761 3.21772 5.85803 3.15221L5.55886 2.87138C5.26553 2.59593 5.35095 2.28042 5.75178 2.17294ZM4.89887 5.05567C4.60512 5.33227 4.26929 5.25137 4.15304 4.87653L4.15471 3.67228C4.26929 3.29745 4.60512 3.21693 4.89804 3.49276L5.19637 3.7736C5.33747 3.90766 5.41643 4.08734 5.41643 4.27441C5.41643 4.46147 5.33747 4.64116 5.19637 4.77522L4.89887 5.05567ZM7.03177 6.37665L5.75011 6.3778C5.35095 6.26762 5.26553 5.95366 5.55928 5.67783L5.85845 5.39699C5.92802 5.33156 6.01098 5.27959 6.10249 5.2441C6.19401 5.20861 6.29224 5.19032 6.39148 5.19028C6.49072 5.19025 6.58897 5.20847 6.68051 5.24389C6.77206 5.27932 6.85506 5.33123 6.92469 5.3966L7.2226 5.67783C7.5151 5.95366 7.42885 6.26762 7.03177 6.37665ZM9.09093 10.3323C8.0926 10.333 7.28135 9.57219 7.28135 8.63221C7.28135 7.693 8.0926 6.931 9.09301 6.931C10.0909 6.93216 10.9009 7.693 10.9009 8.63182C10.9022 9.57257 10.0909 10.3338 9.09093 10.3323ZM17.5338 2.85635C17.9488 2.85712 18.2859 3.17417 18.2859 3.5648C18.2867 3.95736 17.9496 4.27518 17.5321 4.27325C17.1155 4.27441 16.7784 3.95736 16.7784 3.56557C16.7788 3.17417 17.1155 2.85712 17.5338 2.85635ZM15.9517 10.333C14.9534 10.333 14.1434 9.57142 14.1426 8.63221C14.1434 7.693 14.953 6.931 15.9517 6.931C16.9521 6.93177 17.7625 7.693 17.7617 8.63221C17.7617 9.57142 16.9525 10.3323 15.9517 10.333ZM17.603 6.40053C17.1863 6.40053 16.8488 6.08233 16.8488 5.69131C16.8484 5.29952 17.1863 4.98209 17.603 4.98209C18.0196 4.98209 18.3563 5.29952 18.3575 5.69131C18.3575 6.08271 18.0188 6.40053 17.603 6.40053ZM19.705 2.14867C20.1213 2.14829 20.4588 2.46534 20.4596 2.85712C20.4588 3.24775 20.1213 3.56557 19.705 3.56557C19.2884 3.56557 18.9513 3.24775 18.9513 2.85712C18.9504 2.46495 19.2867 2.14713 19.705 2.14867ZM19.775 5.6917C19.3592 5.69208 19.0217 5.37503 19.0229 4.98363C19.0217 4.59184 19.3592 4.27402 19.7759 4.27518C20.1917 4.27441 20.53 4.59107 20.53 4.98247C20.5296 5.37465 20.1917 5.69208 19.775 5.6917Z" fill="#F8F8F8"/>
</svg>
