<svg width="27" height="27" viewBox="0 0 27 27" fill="none" xmlns="http://www.w3.org/2000/svg">
<g clip-path="url(#clip0_12_9)">
<path d="M12.9212 10.5418C13.1068 9.98494 13.8932 9.98494 14.0788 10.5418L15.1672 13.8105C15.4068 14.529 15.8105 15.1819 16.3462 15.7173C16.8819 16.2528 17.535 16.6561 18.2537 16.8953L21.5207 17.9837C22.0775 18.1693 22.0775 18.9557 21.5207 19.1413L18.252 20.2298C17.5334 20.4693 16.8806 20.873 16.3451 21.4087C15.8097 21.9444 15.4064 22.5975 15.1672 23.3162L14.0788 26.5832C14.0388 26.7051 13.9613 26.8113 13.8573 26.8866C13.7534 26.9619 13.6283 27.0024 13.5 27.0024C13.3716 27.0024 13.2466 26.9619 13.1426 26.8866C13.0387 26.8113 12.9612 26.7051 12.9212 26.5832L11.8327 23.3145C11.5933 22.5961 11.1899 21.9434 10.6545 21.408C10.1191 20.8726 9.46634 20.4692 8.74799 20.2298L5.4793 19.1413C5.35736 19.1013 5.25117 19.0238 5.17589 18.9198C5.10061 18.8159 5.06007 18.6908 5.06007 18.5625C5.06007 18.4342 5.10061 18.3091 5.17589 18.2052C5.25117 18.1012 5.35736 18.0237 5.4793 17.9837L8.74799 16.8953C9.46634 16.6558 10.1191 16.2525 10.6545 15.717C11.1899 15.1816 11.5933 14.5289 11.8327 13.8105L12.9212 10.5418ZM6.40236 1.93726C6.42656 1.86418 6.47317 1.80058 6.53558 1.75551C6.59798 1.71044 6.67301 1.68618 6.74999 1.68618C6.82697 1.68618 6.90199 1.71044 6.96439 1.75551C7.0268 1.80058 7.07341 1.86418 7.09761 1.93726L7.75067 3.89813C8.04261 4.77226 8.72774 5.45738 9.60186 5.74932L11.5627 6.40238C11.6358 6.42658 11.6994 6.47319 11.7445 6.5356C11.7896 6.598 11.8138 6.67303 11.8138 6.75001C11.8138 6.82699 11.7896 6.90201 11.7445 6.96441C11.6994 7.02682 11.6358 7.07343 11.5627 7.09763L9.60186 7.75069C9.17075 7.89433 8.77901 8.1364 8.45769 8.45771C8.13637 8.77903 7.89431 9.17077 7.75067 9.60188L7.09761 11.5628C7.07341 11.6358 7.0268 11.6994 6.96439 11.7445C6.90199 11.7896 6.82697 11.8138 6.74999 11.8138C6.67301 11.8138 6.59798 11.7896 6.53558 11.7445C6.47317 11.6994 6.42656 11.6358 6.40236 11.5628L5.7493 9.60188C5.60566 9.17077 5.3636 8.77903 5.04228 8.45771C4.72096 8.1364 4.32922 7.89433 3.89811 7.75069L1.93724 7.09763C1.86416 7.07343 1.80056 7.02682 1.75549 6.96441C1.71042 6.90201 1.68616 6.82699 1.68616 6.75001C1.68616 6.67303 1.71042 6.598 1.75549 6.5356C1.80056 6.47319 1.86416 6.42658 1.93724 6.40238L3.89811 5.74932C4.32922 5.60568 4.72096 5.36362 5.04228 5.0423C5.3636 4.72098 5.60566 4.32925 5.7493 3.89813L6.40236 1.93726ZM18.3313 0.167069C18.348 0.119019 18.3792 0.0773543 18.4206 0.0478664C18.462 0.0183784 18.5116 0.00253296 18.5625 0.00253296C18.6133 0.00253296 18.6629 0.0183784 18.7044 0.0478664C18.7458 0.0773543 18.777 0.119019 18.7937 0.167069L19.229 1.47319C19.4231 2.05707 19.8804 2.51438 20.4643 2.70844L21.7704 3.14382C21.8185 3.16048 21.8601 3.19169 21.8896 3.23313C21.9191 3.27456 21.935 3.32415 21.935 3.37501C21.935 3.42586 21.9191 3.47545 21.8896 3.51689C21.8601 3.55832 21.8185 3.58954 21.7704 3.60619L20.4643 4.04157C20.1766 4.13729 19.9151 4.29877 19.7007 4.5132C19.4862 4.72762 19.3248 4.98908 19.229 5.27682L18.7937 6.58294C18.777 6.63099 18.7458 6.67266 18.7044 6.70215C18.6629 6.73163 18.6133 6.74748 18.5625 6.74748C18.5116 6.74748 18.462 6.73163 18.4206 6.70215C18.3792 6.67266 18.348 6.63099 18.3313 6.58294L17.8959 5.27682C17.8002 4.98908 17.6387 4.72762 17.4243 4.5132C17.2099 4.29877 16.9484 4.13729 16.6607 4.04157L15.3562 3.60619C15.3082 3.58954 15.2665 3.55832 15.237 3.51689C15.2075 3.47545 15.1917 3.42586 15.1917 3.37501C15.1917 3.32415 15.2075 3.27456 15.237 3.23313C15.2665 3.19169 15.3082 3.16048 15.3562 3.14382L16.6624 2.70844C17.2462 2.51438 17.7035 2.05707 17.8976 1.47319L18.3313 0.168756V0.167069Z" fill="#CD02B6"/>
</g>
<defs>
<clipPath id="clip0_12_9">
<rect width="27" height="27" fill="white"/>
</clipPath>
</defs>
</svg>
