<svg width="27" height="27" viewBox="0 0 27 27" fill="none" xmlns="http://www.w3.org/2000/svg">
<path d="M9 13.5C10.1935 13.5 11.3381 13.0259 12.182 12.182C13.0259 11.3381 13.5 10.1935 13.5 9C13.5 7.80653 13.0259 6.66193 12.182 5.81802C11.3381 4.97411 10.1935 4.5 9 4.5C7.80653 4.5 6.66193 4.97411 5.81802 5.81802C4.97411 6.66193 4.5 7.80653 4.5 9C4.5 10.1935 4.97411 11.3381 5.81802 12.182C6.66193 13.0259 7.80653 13.5 9 13.5ZM19.125 13.5C20.0201 13.5 20.8786 13.1444 21.5115 12.5115C22.1444 11.8786 22.5 11.0201 22.5 10.125C22.5 9.22989 22.1444 8.37145 21.5115 7.73851C20.8786 7.10558 20.0201 6.75 19.125 6.75C18.2299 6.75 17.3714 7.10558 16.7385 7.73851C16.1056 8.37145 15.75 9.22989 15.75 10.125C15.75 11.0201 16.1056 11.8786 16.7385 12.5115C17.3714 13.1444 18.2299 13.5 19.125 13.5ZM4.78125 15.75C4.10992 15.75 3.46609 16.0167 2.99139 16.4914C2.51668 16.9661 2.25 17.6099 2.25 18.2812V18.5625C2.25 18.5625 2.25 23.625 9 23.625C15.75 23.625 15.75 18.5625 15.75 18.5625V18.2812C15.75 17.6099 15.4833 16.9661 15.0086 16.4914C14.5339 16.0167 13.8901 15.75 13.2188 15.75H4.78125ZM19.125 21.9375C17.8076 21.9375 16.7985 21.7339 16.0256 21.4222C16.4754 20.6631 16.7577 19.8166 16.8536 18.9394C16.8646 18.8328 16.8717 18.7258 16.875 18.6187V18.2812C16.8764 17.3388 16.5127 16.4324 15.8602 15.7522C15.8985 15.7507 15.9367 15.7499 15.975 15.75H22.275C22.9314 15.75 23.5609 16.0108 24.0251 16.4749C24.4892 16.9391 24.75 17.5686 24.75 18.225C24.75 18.225 24.75 21.9375 19.125 21.9375Z" fill="#CD02B6"/>
</svg>
