<svg width="48" height="48" viewBox="0 0 48 48" fill="none" xmlns="http://www.w3.org/2000/svg">
<path d="M24 22.5C24 20.811 24.558 19.254 25.5 18H6V34.5C6 36.4891 6.79018 38.3968 8.1967 39.8033C9.60322 41.2098 11.5109 42 13.5 42H24.15C24.05 41.5063 23.9997 41.0038 24 40.5V22.5ZM6 15V13.5C6 11.5109 6.79018 9.60322 8.1967 8.1967C9.60322 6.79018 11.5109 6 13.5 6H34.5C36.4891 6 38.3968 6.79018 39.8033 8.1967C41.2098 9.60322 42 11.5109 42 13.5V15H6ZM32.25 18C30.8576 18 29.5223 18.5531 28.5377 19.5377C27.5531 20.5223 27 21.8576 27 23.25V39.75C27 42.648 29.352 45 32.25 45H39.75C41.1424 45 42.4777 44.4469 43.4623 43.4623C44.4469 42.4777 45 41.1424 45 39.75V23.25C45 21.8576 44.4469 20.5223 43.4623 19.5377C42.4777 18.5531 41.1424 18 39.75 18H32.25ZM33 37.5C33 37.1022 33.158 36.7206 33.4393 36.4393C33.7206 36.158 34.1022 36 34.5 36H37.5C37.8978 36 38.2794 36.158 38.5607 36.4393C38.842 36.7206 39 37.1022 39 37.5C39 37.8978 38.842 38.2794 38.5607 38.5607C38.2794 38.842 37.8978 39 37.5 39H34.5C34.1022 39 33.7206 38.842 33.4393 38.5607C33.158 38.2794 33 37.8978 33 37.5Z" fill="#F8F8F8"/>
</svg>
