<svg width="27" height="27" viewBox="0 0 27 27" fill="none" xmlns="http://www.w3.org/2000/svg">
<path fill-rule="evenodd" clip-rule="evenodd" d="M26.2494 12.6374C25.0587 5.98725 22.3965 4.0257 20.9804 4.0257C18.7704 4.0257 18.2034 5.66865 13.5 5.724C8.79661 5.66865 8.22961 4.0257 6.01966 4.0257C4.60351 4.0257 1.93996 5.98725 0.74926 12.6374C0.0702098 16.4336 -0.66689 22.1009 1.08946 22.7813C3.27511 23.6277 4.01626 21.5109 6.41656 19.7222C8.85331 17.9091 10.0224 17.4825 13.5 17.4825C16.9776 17.4825 18.1467 17.9091 20.5835 19.7222C22.9838 21.5096 23.7249 23.6277 25.9106 22.7813C27.6669 22.1009 26.9298 16.4349 26.2494 12.6374ZM8.10001 13.5C7.38393 13.5 6.69717 13.2155 6.19082 12.7092C5.68447 12.2028 5.40001 11.5161 5.40001 10.8C5.40001 10.0839 5.68447 9.39716 6.19082 8.89081C6.69717 8.38447 7.38393 8.1 8.10001 8.1C8.81609 8.1 9.50285 8.38447 10.0092 8.89081C10.5155 9.39716 10.8 10.0839 10.8 10.8C10.8 11.5161 10.5155 12.2028 10.0092 12.7092C9.50285 13.2155 8.81609 13.5 8.10001 13.5ZM17.55 13.5C17.192 13.5 16.8486 13.3578 16.5954 13.1046C16.3422 12.8514 16.2 12.508 16.2 12.15C16.2 11.792 16.3422 11.4486 16.5954 11.1954C16.8486 10.9422 17.192 10.8 17.55 10.8C17.9081 10.8 18.2514 10.9422 18.5046 11.1954C18.7578 11.4486 18.9 11.792 18.9 12.15C18.9 12.508 18.7578 12.8514 18.5046 13.1046C18.2514 13.3578 17.9081 13.5 17.55 13.5ZM20.25 10.8C19.892 10.8 19.5486 10.6578 19.2954 10.4046C19.0422 10.1514 18.9 9.80805 18.9 9.45C18.9 9.09196 19.0422 8.74858 19.2954 8.49541C19.5486 8.24224 19.892 8.1 20.25 8.1C20.6081 8.1 20.9514 8.24224 21.2046 8.49541C21.4578 8.74858 21.6 9.09196 21.6 9.45C21.6 9.80805 21.4578 10.1514 21.2046 10.4046C20.9514 10.6578 20.6081 10.8 20.25 10.8Z" fill="#CD02B6"/>
</svg>
