<svg width="82" height="78" viewBox="0 0 82 78" fill="none" xmlns="http://www.w3.org/2000/svg">
<path d="M17.4754 2.95143e-05C17.3591 -0.00103435 17.2444 0.0266778 17.1416 0.0806694C17.0388 0.134661 16.9512 0.213235 16.8865 0.309313C16.8219 0.40539 16.7823 0.51595 16.7713 0.631033C16.7603 0.746115 16.7783 0.862104 16.8237 0.968546L17.2266 1.91442L24.3569 18.4454C24.4053 18.5578 24.4827 18.6556 24.5812 18.7289C24.6797 18.8022 24.7959 18.8483 24.9181 18.8628C25.0402 18.8773 25.1641 18.8595 25.2771 18.8113C25.3902 18.7631 25.4885 18.6862 25.5622 18.5882L38.7225 1.11487C38.8006 1.01135 38.8482 0.888255 38.8598 0.759378C38.8715 0.630502 38.8469 0.500936 38.7887 0.385197C38.7305 0.269459 38.641 0.172122 38.5303 0.104092C38.4196 0.036063 38.292 2.95143e-05 38.1619 2.95143e-05H17.4754ZM69.719 4.53952L62.4871 21.3266C62.4417 21.4325 62.4233 21.5481 62.4338 21.6628C62.4442 21.7776 62.4831 21.888 62.547 21.9841C62.6109 22.0803 62.6977 22.1592 62.7998 22.2137C62.9019 22.2683 63.016 22.2968 63.1318 22.2968H80.8261C80.951 22.2969 81.0737 22.2637 81.1815 22.2008C81.2892 22.1378 81.378 22.0474 81.4388 21.9388C81.4995 21.8303 81.53 21.7076 81.527 21.5834C81.524 21.4592 81.4877 21.338 81.4218 21.2325L70.9576 4.44719C70.89 4.33913 70.7939 4.25154 70.6798 4.19393C70.5657 4.13632 70.4378 4.11089 70.3102 4.1204C70.1826 4.12992 70.06 4.17401 69.9558 4.2479C69.8515 4.32178 69.7697 4.42264 69.719 4.53952V4.53952ZM11.0424 4.45416L0.581743 21.2325C0.515837 21.338 0.479507 21.4592 0.476517 21.5834C0.473528 21.7076 0.503987 21.8303 0.564739 21.9388C0.625492 22.0474 0.714328 22.1378 0.822048 22.2008C0.929767 22.2637 1.05245 22.2969 1.17739 22.2968H18.8717C18.9876 22.2967 19.1017 22.2679 19.2038 22.2131C19.3058 22.1584 19.3926 22.0793 19.4563 21.9829C19.52 21.8866 19.5587 21.776 19.5689 21.6612C19.5791 21.5463 19.5604 21.4307 19.5146 21.3248L12.2687 4.54648C12.2169 4.43251 12.1352 4.33451 12.0321 4.26276C11.9291 4.19102 11.8085 4.14818 11.6831 4.13873C11.5576 4.12929 11.432 4.15359 11.3192 4.20909C11.2065 4.26459 11.1109 4.34925 11.0424 4.45416V4.45416ZM65.0484 2.95143e-05H43.0708C43.0073 -0.000378365 42.9451 0.0168638 42.891 0.0498062C42.8369 0.0827487 42.7932 0.130078 42.7648 0.186441C42.7363 0.242804 42.7243 0.305952 42.7301 0.368746C42.7359 0.43154 42.7592 0.491475 42.7975 0.541772L56.7987 19.0864C56.8344 19.1341 56.8822 19.1715 56.9371 19.1949C56.992 19.2184 57.0522 19.227 57.1115 19.2199C57.1709 19.2128 57.2273 19.1903 57.2751 19.1547C57.3229 19.119 57.3604 19.0714 57.3838 19.0167L64.7559 1.91616L65.3515 0.463385C65.3725 0.413519 65.381 0.359337 65.3763 0.30548C65.3717 0.251622 65.3539 0.199695 65.3247 0.154145C65.2954 0.108595 65.2554 0.0707802 65.2082 0.0439394C65.161 0.0170987 65.108 0.00203176 65.0537 2.95143e-05H65.0484ZM38.0218 72.4646L22.3544 28.3082C22.3084 28.18 22.2236 28.0691 22.1116 27.9908C21.9996 27.9125 21.8659 27.8707 21.729 27.871H0.653571C0.531484 27.8707 0.411754 27.9044 0.308024 27.9684C0.204293 28.0325 0.120734 28.1242 0.0668667 28.2331C0.0129992 28.342 -0.00900987 28.4638 0.00334712 28.5846C0.0157041 28.7054 0.0619303 28.8203 0.136758 28.9162L37.978 77.6573C38.1061 77.8222 38.2888 77.9367 38.4937 77.9804C38.6987 78.0241 38.9126 77.9942 39.0974 77.8959C39.2834 77.7987 39.4279 77.6382 39.5048 77.4438C39.5816 77.2494 39.5857 77.034 39.5161 76.8368L38.0218 72.4646ZM81.3464 27.871H60.271C60.1348 27.871 60.0019 27.913 59.8908 27.9914C59.7797 28.0697 59.6958 28.1804 59.6508 28.3082L42.4471 76.7619C42.3748 76.9654 42.3778 77.1877 42.4555 77.3891C42.5332 77.5906 42.6805 77.7579 42.871 77.8611C43.0616 77.9637 43.2826 77.9957 43.4947 77.9514C43.7068 77.907 43.8962 77.7892 44.029 77.619L81.8632 28.9162C81.9381 28.8203 81.9843 28.7054 81.9967 28.5846C82.009 28.4638 81.987 28.342 81.9331 28.2331C81.8793 28.1242 81.7957 28.0325 81.692 27.9684C81.5882 27.9044 81.4685 27.8707 81.3464 27.871V27.871ZM41.5606 8.17494L51.3713 21.182C51.4494 21.2855 51.4969 21.4086 51.5086 21.5375C51.5203 21.6663 51.4957 21.7959 51.4375 21.9116C51.3793 22.0274 51.2898 22.1247 51.1791 22.1928C51.0684 22.2608 50.9408 22.2968 50.8107 22.2968H31.1893C31.0592 22.2968 30.9316 22.2608 30.8209 22.1928C30.7102 22.1247 30.6207 22.0274 30.5625 21.9116C30.5043 21.7959 30.4797 21.6663 30.4914 21.5375C30.5031 21.4086 30.5506 21.2855 30.6287 21.182L40.4394 8.17494C40.5047 8.0884 40.5893 8.01816 40.6866 7.96979C40.7839 7.92141 40.8912 7.89623 41 7.89623C41.1088 7.89623 41.2161 7.92141 41.3134 7.96979C41.4107 8.01816 41.4953 8.0884 41.5606 8.17494V8.17494ZM40.3343 62.229L28.4739 28.7995C28.4366 28.6944 28.4252 28.582 28.4407 28.4717C28.4561 28.3614 28.4979 28.2564 28.5626 28.1654C28.6273 28.0745 28.713 28.0003 28.8125 27.9491C28.9119 27.8978 29.0223 27.8711 29.1343 27.871H52.8657C52.9777 27.8711 53.0881 27.8978 53.1875 27.9491C53.287 28.0003 53.3727 28.0745 53.4374 28.1654C53.502 28.2564 53.5439 28.3614 53.5593 28.4717C53.5748 28.582 53.5634 28.6944 53.5261 28.7995L41.6605 62.229C41.6121 62.3647 41.5226 62.4821 41.4043 62.5652C41.286 62.6483 41.1448 62.6929 41 62.6929C40.8552 62.6929 40.7139 62.6483 40.5957 62.5652C40.4774 62.4821 40.3879 62.3647 40.3395 62.229H40.3343Z" fill="#348B0C"/>
</svg>
