<svg width="82" height="82" viewBox="0 0 82 82" fill="none" xmlns="http://www.w3.org/2000/svg">
<path d="M41 0C18.3585 0 0 18.3585 0 41C0 63.6415 18.3585 82 41 82C63.6415 82 82 63.6415 82 41C82 18.3585 63.6415 0 41 0ZM54.1877 41.6315L34.2002 56.1737C34.0906 56.2524 33.9615 56.2994 33.8269 56.3095C33.6924 56.3196 33.5576 56.2925 33.4375 56.231C33.3174 56.1695 33.2166 56.0761 33.1461 55.9611C33.0756 55.846 33.0382 55.7137 33.0379 55.5788V26.5127C33.0375 26.3775 33.0745 26.2448 33.1449 26.1294C33.2152 26.0139 33.3162 25.9202 33.4365 25.8586C33.5569 25.797 33.6919 25.7699 33.8267 25.7804C33.9615 25.7908 34.0908 25.8384 34.2002 25.9179L54.1877 40.4509C54.2821 40.5177 54.3592 40.6061 54.4123 40.7088C54.4655 40.8116 54.4933 40.9255 54.4933 41.0412C54.4933 41.1568 54.4655 41.2708 54.4123 41.3735C54.3592 41.4762 54.2821 41.5647 54.1877 41.6315V41.6315Z" fill="#348B0C"/>
</svg>
