<svg width="27" height="27" viewBox="0 0 27 27" fill="none" xmlns="http://www.w3.org/2000/svg">
<path d="M24.9565 13.3154L14.0959 2.46269C14.0177 2.38433 13.9248 2.32217 13.8225 2.27976C13.7203 2.23735 13.6107 2.21552 13.5 2.21552C13.3893 2.21552 13.2797 2.23735 13.1774 2.27976C13.0752 2.32217 12.9823 2.38433 12.9041 2.46269L2.04343 13.3154C1.72703 13.6318 1.54773 14.0616 1.54773 14.5099C1.54773 15.4406 2.30447 16.1974 3.23523 16.1974H4.37957V23.9414C4.37957 24.4081 4.75662 24.7851 5.22332 24.7851H11.8125V18.8789H14.7656V24.7851H21.7766C22.2433 24.7851 22.6204 24.4081 22.6204 23.9414V16.1974H23.7647C24.213 16.1974 24.6427 16.0207 24.9592 15.7017C25.6157 15.0425 25.6157 13.9746 24.9565 13.3154Z" fill="#CD02B6"/>
</svg>
